%TF.GenerationSoftware,KiCad,Pcbnew,5.1.10*%
%TF.CreationDate,2021-10-06T22:42:20+01:00*%
%TF.ProjectId,BatteryPack,42617474-6572-4795-9061-636b2e6b6963,rev?*%
%TF.SameCoordinates,Original*%
%TF.FileFunction,Legend,Bot*%
%TF.FilePolarity,Positive*%
%FSLAX46Y46*%
G04 Gerber Fmt 4.6, Leading zero omitted, Abs format (unit mm)*
G04 Created by KiCad (PCBNEW 5.1.10) date 2021-10-06 22:42:20*
%MOMM*%
%LPD*%
G01*
G04 APERTURE LIST*
%ADD10C,0.150000*%
%ADD11C,0.120000*%
%ADD12C,0.100000*%
G04 APERTURE END LIST*
D10*
X116459047Y-135961428D02*
X117220952Y-135961428D01*
X44069047Y-135961428D02*
X44830952Y-135961428D01*
X44450000Y-136342380D02*
X44450000Y-135580476D01*
X116459047Y-115641428D02*
X117220952Y-115641428D01*
X44069047Y-115641428D02*
X44830952Y-115641428D01*
X44450000Y-116022380D02*
X44450000Y-115260476D01*
X116459047Y-95321428D02*
X117220952Y-95321428D01*
X44069047Y-95321428D02*
X44830952Y-95321428D01*
X44450000Y-95702380D02*
X44450000Y-94940476D01*
X116459047Y-71191428D02*
X117220952Y-71191428D01*
X44069047Y-71191428D02*
X44830952Y-71191428D01*
X44450000Y-71572380D02*
X44450000Y-70810476D01*
X116459047Y-50871428D02*
X117220952Y-50871428D01*
X44069047Y-50871428D02*
X44830952Y-50871428D01*
X44450000Y-51252380D02*
X44450000Y-50490476D01*
X116459047Y-30551428D02*
X117220952Y-30551428D01*
X44069047Y-30551428D02*
X44830952Y-30551428D01*
X44450000Y-30932380D02*
X44450000Y-30170476D01*
D11*
%TO.C,J3*%
X61280000Y-144756000D02*
X61280000Y-84756000D01*
X61280000Y-84756000D02*
X101280000Y-84756000D01*
X101280000Y-84756000D02*
X101280000Y-144756000D01*
X101280000Y-144756000D02*
X61280000Y-144756000D01*
D12*
G36*
X101280000Y-122756000D02*
G01*
X96280000Y-122756000D01*
X96280000Y-130756000D01*
X101280000Y-130756000D01*
X101280000Y-122756000D01*
G37*
X101280000Y-122756000D02*
X96280000Y-122756000D01*
X96280000Y-130756000D01*
X101280000Y-130756000D01*
X101280000Y-122756000D01*
G36*
X66280000Y-122756000D02*
G01*
X61280000Y-122756000D01*
X61280000Y-130756000D01*
X66280000Y-130756000D01*
X66280000Y-122756000D01*
G37*
X66280000Y-122756000D02*
X61280000Y-122756000D01*
X61280000Y-130756000D01*
X66280000Y-130756000D01*
X66280000Y-122756000D01*
D10*
X82441333Y-110704380D02*
X82441333Y-111418666D01*
X82488952Y-111561523D01*
X82584190Y-111656761D01*
X82727047Y-111704380D01*
X82822285Y-111704380D01*
X82060380Y-110704380D02*
X81441333Y-110704380D01*
X81774666Y-111085333D01*
X81631809Y-111085333D01*
X81536571Y-111132952D01*
X81488952Y-111180571D01*
X81441333Y-111275809D01*
X81441333Y-111513904D01*
X81488952Y-111609142D01*
X81536571Y-111656761D01*
X81631809Y-111704380D01*
X81917523Y-111704380D01*
X82012761Y-111656761D01*
X82060380Y-111609142D01*
X91827619Y-88244571D02*
X91684761Y-88292190D01*
X91637142Y-88339809D01*
X91589523Y-88435047D01*
X91589523Y-88577904D01*
X91637142Y-88673142D01*
X91684761Y-88720761D01*
X91780000Y-88768380D01*
X92160952Y-88768380D01*
X92160952Y-87768380D01*
X91827619Y-87768380D01*
X91732380Y-87816000D01*
X91684761Y-87863619D01*
X91637142Y-87958857D01*
X91637142Y-88054095D01*
X91684761Y-88149333D01*
X91732380Y-88196952D01*
X91827619Y-88244571D01*
X92160952Y-88244571D01*
X91160952Y-88387428D02*
X90399047Y-88387428D01*
X87684761Y-88244571D02*
X87541904Y-88292190D01*
X87494285Y-88339809D01*
X87446666Y-88435047D01*
X87446666Y-88577904D01*
X87494285Y-88673142D01*
X87541904Y-88720761D01*
X87637142Y-88768380D01*
X88018095Y-88768380D01*
X88018095Y-87768380D01*
X87684761Y-87768380D01*
X87589523Y-87816000D01*
X87541904Y-87863619D01*
X87494285Y-87958857D01*
X87494285Y-88054095D01*
X87541904Y-88149333D01*
X87589523Y-88196952D01*
X87684761Y-88244571D01*
X88018095Y-88244571D01*
X86494285Y-88768380D02*
X87065714Y-88768380D01*
X86780000Y-88768380D02*
X86780000Y-87768380D01*
X86875238Y-87911238D01*
X86970476Y-88006476D01*
X87065714Y-88054095D01*
X84684761Y-88244571D02*
X84541904Y-88292190D01*
X84494285Y-88339809D01*
X84446666Y-88435047D01*
X84446666Y-88577904D01*
X84494285Y-88673142D01*
X84541904Y-88720761D01*
X84637142Y-88768380D01*
X85018095Y-88768380D01*
X85018095Y-87768380D01*
X84684761Y-87768380D01*
X84589523Y-87816000D01*
X84541904Y-87863619D01*
X84494285Y-87958857D01*
X84494285Y-88054095D01*
X84541904Y-88149333D01*
X84589523Y-88196952D01*
X84684761Y-88244571D01*
X85018095Y-88244571D01*
X84065714Y-87863619D02*
X84018095Y-87816000D01*
X83922857Y-87768380D01*
X83684761Y-87768380D01*
X83589523Y-87816000D01*
X83541904Y-87863619D01*
X83494285Y-87958857D01*
X83494285Y-88054095D01*
X83541904Y-88196952D01*
X84113333Y-88768380D01*
X83494285Y-88768380D01*
X81684761Y-88244571D02*
X81541904Y-88292190D01*
X81494285Y-88339809D01*
X81446666Y-88435047D01*
X81446666Y-88577904D01*
X81494285Y-88673142D01*
X81541904Y-88720761D01*
X81637142Y-88768380D01*
X82018095Y-88768380D01*
X82018095Y-87768380D01*
X81684761Y-87768380D01*
X81589523Y-87816000D01*
X81541904Y-87863619D01*
X81494285Y-87958857D01*
X81494285Y-88054095D01*
X81541904Y-88149333D01*
X81589523Y-88196952D01*
X81684761Y-88244571D01*
X82018095Y-88244571D01*
X81113333Y-87768380D02*
X80494285Y-87768380D01*
X80827619Y-88149333D01*
X80684761Y-88149333D01*
X80589523Y-88196952D01*
X80541904Y-88244571D01*
X80494285Y-88339809D01*
X80494285Y-88577904D01*
X80541904Y-88673142D01*
X80589523Y-88720761D01*
X80684761Y-88768380D01*
X80970476Y-88768380D01*
X81065714Y-88720761D01*
X81113333Y-88673142D01*
X78684761Y-88244571D02*
X78541904Y-88292190D01*
X78494285Y-88339809D01*
X78446666Y-88435047D01*
X78446666Y-88577904D01*
X78494285Y-88673142D01*
X78541904Y-88720761D01*
X78637142Y-88768380D01*
X79018095Y-88768380D01*
X79018095Y-87768380D01*
X78684761Y-87768380D01*
X78589523Y-87816000D01*
X78541904Y-87863619D01*
X78494285Y-87958857D01*
X78494285Y-88054095D01*
X78541904Y-88149333D01*
X78589523Y-88196952D01*
X78684761Y-88244571D01*
X79018095Y-88244571D01*
X77589523Y-88101714D02*
X77589523Y-88768380D01*
X77827619Y-87720761D02*
X78065714Y-88435047D01*
X77446666Y-88435047D01*
X75684761Y-88244571D02*
X75541904Y-88292190D01*
X75494285Y-88339809D01*
X75446666Y-88435047D01*
X75446666Y-88577904D01*
X75494285Y-88673142D01*
X75541904Y-88720761D01*
X75637142Y-88768380D01*
X76018095Y-88768380D01*
X76018095Y-87768380D01*
X75684761Y-87768380D01*
X75589523Y-87816000D01*
X75541904Y-87863619D01*
X75494285Y-87958857D01*
X75494285Y-88054095D01*
X75541904Y-88149333D01*
X75589523Y-88196952D01*
X75684761Y-88244571D01*
X76018095Y-88244571D01*
X74541904Y-87768380D02*
X75018095Y-87768380D01*
X75065714Y-88244571D01*
X75018095Y-88196952D01*
X74922857Y-88149333D01*
X74684761Y-88149333D01*
X74589523Y-88196952D01*
X74541904Y-88244571D01*
X74494285Y-88339809D01*
X74494285Y-88577904D01*
X74541904Y-88673142D01*
X74589523Y-88720761D01*
X74684761Y-88768380D01*
X74922857Y-88768380D01*
X75018095Y-88720761D01*
X75065714Y-88673142D01*
X73208571Y-88244571D02*
X73065714Y-88292190D01*
X73018095Y-88339809D01*
X72970476Y-88435047D01*
X72970476Y-88577904D01*
X73018095Y-88673142D01*
X73065714Y-88720761D01*
X73160952Y-88768380D01*
X73541904Y-88768380D01*
X73541904Y-87768380D01*
X73208571Y-87768380D01*
X73113333Y-87816000D01*
X73065714Y-87863619D01*
X73018095Y-87958857D01*
X73018095Y-88054095D01*
X73065714Y-88149333D01*
X73113333Y-88196952D01*
X73208571Y-88244571D01*
X73541904Y-88244571D01*
X72541904Y-88387428D02*
X71780000Y-88387428D01*
X72160952Y-88768380D02*
X72160952Y-88006476D01*
X99589523Y-133244571D02*
X99446666Y-133292190D01*
X99399047Y-133339809D01*
X99351428Y-133435047D01*
X99351428Y-133577904D01*
X99399047Y-133673142D01*
X99446666Y-133720761D01*
X99541904Y-133768380D01*
X99922857Y-133768380D01*
X99922857Y-132768380D01*
X99589523Y-132768380D01*
X99494285Y-132816000D01*
X99446666Y-132863619D01*
X99399047Y-132958857D01*
X99399047Y-133054095D01*
X99446666Y-133149333D01*
X99494285Y-133196952D01*
X99589523Y-133244571D01*
X99922857Y-133244571D01*
X98922857Y-133768380D02*
X98922857Y-132768380D01*
X98589523Y-133482666D01*
X98256190Y-132768380D01*
X98256190Y-133768380D01*
X97827619Y-133720761D02*
X97684761Y-133768380D01*
X97446666Y-133768380D01*
X97351428Y-133720761D01*
X97303809Y-133673142D01*
X97256190Y-133577904D01*
X97256190Y-133482666D01*
X97303809Y-133387428D01*
X97351428Y-133339809D01*
X97446666Y-133292190D01*
X97637142Y-133244571D01*
X97732380Y-133196952D01*
X97780000Y-133149333D01*
X97827619Y-133054095D01*
X97827619Y-132958857D01*
X97780000Y-132863619D01*
X97732380Y-132816000D01*
X97637142Y-132768380D01*
X97399047Y-132768380D01*
X97256190Y-132816000D01*
X96065714Y-133768380D02*
X96065714Y-132768380D01*
X95827619Y-132768380D01*
X95684761Y-132816000D01*
X95589523Y-132911238D01*
X95541904Y-133006476D01*
X95494285Y-133196952D01*
X95494285Y-133339809D01*
X95541904Y-133530285D01*
X95589523Y-133625523D01*
X95684761Y-133720761D01*
X95827619Y-133768380D01*
X96065714Y-133768380D01*
X95065714Y-133768380D02*
X95065714Y-133101714D01*
X95065714Y-133292190D02*
X95018095Y-133196952D01*
X94970476Y-133149333D01*
X94875238Y-133101714D01*
X94780000Y-133101714D01*
X94018095Y-133768380D02*
X94018095Y-133244571D01*
X94065714Y-133149333D01*
X94160952Y-133101714D01*
X94351428Y-133101714D01*
X94446666Y-133149333D01*
X94018095Y-133720761D02*
X94113333Y-133768380D01*
X94351428Y-133768380D01*
X94446666Y-133720761D01*
X94494285Y-133625523D01*
X94494285Y-133530285D01*
X94446666Y-133435047D01*
X94351428Y-133387428D01*
X94113333Y-133387428D01*
X94018095Y-133339809D01*
X93541904Y-133768380D02*
X93541904Y-133101714D01*
X93541904Y-132768380D02*
X93589523Y-132816000D01*
X93541904Y-132863619D01*
X93494285Y-132816000D01*
X93541904Y-132768380D01*
X93541904Y-132863619D01*
X93065714Y-133101714D02*
X93065714Y-133768380D01*
X93065714Y-133196952D02*
X93018095Y-133149333D01*
X92922857Y-133101714D01*
X92780000Y-133101714D01*
X92684761Y-133149333D01*
X92637142Y-133244571D01*
X92637142Y-133768380D01*
X71184761Y-133244571D02*
X71041904Y-133292190D01*
X70994285Y-133339809D01*
X70946666Y-133435047D01*
X70946666Y-133577904D01*
X70994285Y-133673142D01*
X71041904Y-133720761D01*
X71137142Y-133768380D01*
X71518095Y-133768380D01*
X71518095Y-132768380D01*
X71184761Y-132768380D01*
X71089523Y-132816000D01*
X71041904Y-132863619D01*
X70994285Y-132958857D01*
X70994285Y-133054095D01*
X71041904Y-133149333D01*
X71089523Y-133196952D01*
X71184761Y-133244571D01*
X71518095Y-133244571D01*
X70518095Y-133768380D02*
X70518095Y-132768380D01*
X70184761Y-133482666D01*
X69851428Y-132768380D01*
X69851428Y-133768380D01*
X69422857Y-133720761D02*
X69280000Y-133768380D01*
X69041904Y-133768380D01*
X68946666Y-133720761D01*
X68899047Y-133673142D01*
X68851428Y-133577904D01*
X68851428Y-133482666D01*
X68899047Y-133387428D01*
X68946666Y-133339809D01*
X69041904Y-133292190D01*
X69232380Y-133244571D01*
X69327619Y-133196952D01*
X69375238Y-133149333D01*
X69422857Y-133054095D01*
X69422857Y-132958857D01*
X69375238Y-132863619D01*
X69327619Y-132816000D01*
X69232380Y-132768380D01*
X68994285Y-132768380D01*
X68851428Y-132816000D01*
X67708571Y-133720761D02*
X67565714Y-133768380D01*
X67327619Y-133768380D01*
X67232380Y-133720761D01*
X67184761Y-133673142D01*
X67137142Y-133577904D01*
X67137142Y-133482666D01*
X67184761Y-133387428D01*
X67232380Y-133339809D01*
X67327619Y-133292190D01*
X67518095Y-133244571D01*
X67613333Y-133196952D01*
X67660952Y-133149333D01*
X67708571Y-133054095D01*
X67708571Y-132958857D01*
X67660952Y-132863619D01*
X67613333Y-132816000D01*
X67518095Y-132768380D01*
X67280000Y-132768380D01*
X67137142Y-132816000D01*
X66565714Y-133768380D02*
X66660952Y-133720761D01*
X66708571Y-133673142D01*
X66756190Y-133577904D01*
X66756190Y-133292190D01*
X66708571Y-133196952D01*
X66660952Y-133149333D01*
X66565714Y-133101714D01*
X66422857Y-133101714D01*
X66327619Y-133149333D01*
X66280000Y-133196952D01*
X66232380Y-133292190D01*
X66232380Y-133577904D01*
X66280000Y-133673142D01*
X66327619Y-133720761D01*
X66422857Y-133768380D01*
X66565714Y-133768380D01*
X65375238Y-133101714D02*
X65375238Y-133768380D01*
X65803809Y-133101714D02*
X65803809Y-133625523D01*
X65756190Y-133720761D01*
X65660952Y-133768380D01*
X65518095Y-133768380D01*
X65422857Y-133720761D01*
X65375238Y-133673142D01*
X64899047Y-133768380D02*
X64899047Y-133101714D01*
X64899047Y-133292190D02*
X64851428Y-133196952D01*
X64803809Y-133149333D01*
X64708571Y-133101714D01*
X64613333Y-133101714D01*
X63851428Y-133720761D02*
X63946666Y-133768380D01*
X64137142Y-133768380D01*
X64232380Y-133720761D01*
X64280000Y-133673142D01*
X64327619Y-133577904D01*
X64327619Y-133292190D01*
X64280000Y-133196952D01*
X64232380Y-133149333D01*
X64137142Y-133101714D01*
X63946666Y-133101714D01*
X63851428Y-133149333D01*
X63041904Y-133720761D02*
X63137142Y-133768380D01*
X63327619Y-133768380D01*
X63422857Y-133720761D01*
X63470476Y-133625523D01*
X63470476Y-133244571D01*
X63422857Y-133149333D01*
X63327619Y-133101714D01*
X63137142Y-133101714D01*
X63041904Y-133149333D01*
X62994285Y-133244571D01*
X62994285Y-133339809D01*
X63470476Y-133435047D01*
%TD*%
M02*
