%TF.GenerationSoftware,KiCad,Pcbnew,5.1.10*%
%TF.CreationDate,2021-10-06T22:42:20+01:00*%
%TF.ProjectId,BatteryPack,42617474-6572-4795-9061-636b2e6b6963,rev?*%
%TF.SameCoordinates,Original*%
%TF.FileFunction,Copper,L1,Top*%
%TF.FilePolarity,Positive*%
%FSLAX46Y46*%
G04 Gerber Fmt 4.6, Leading zero omitted, Abs format (unit mm)*
G04 Created by KiCad (PCBNEW 5.1.10) date 2021-10-06 22:42:20*
%MOMM*%
%LPD*%
G01*
G04 APERTURE LIST*
%TA.AperFunction,ComponentPad*%
%ADD10C,5.000000*%
%TD*%
%TA.AperFunction,ComponentPad*%
%ADD11C,5.700000*%
%TD*%
%TA.AperFunction,ComponentPad*%
%ADD12C,2.300000*%
%TD*%
%TA.AperFunction,ComponentPad*%
%ADD13C,3.800000*%
%TD*%
%TA.AperFunction,ComponentPad*%
%ADD14R,3.800000X3.800000*%
%TD*%
%TA.AperFunction,ComponentPad*%
%ADD15O,1.524000X3.000000*%
%TD*%
%TA.AperFunction,ComponentPad*%
%ADD16R,3.500000X3.500000*%
%TD*%
%TA.AperFunction,ComponentPad*%
%ADD17C,3.500000*%
%TD*%
%TA.AperFunction,Conductor*%
%ADD18C,1.000000*%
%TD*%
%TA.AperFunction,Conductor*%
%ADD19C,0.254000*%
%TD*%
%TA.AperFunction,Conductor*%
%ADD20C,0.100000*%
%TD*%
G04 APERTURE END LIST*
D10*
%TO.P,J3,*%
%TO.N,*%
X64030000Y-87756000D03*
X98530000Y-87756000D03*
X98530000Y-141756000D03*
X64030000Y-141756000D03*
%TD*%
D11*
%TO.P,REF\u002A\u002A,1*%
%TO.N,N/C*%
X114300000Y-19050000D03*
%TD*%
%TO.P,REF\u002A\u002A,1*%
%TO.N,N/C*%
X46990000Y-19050000D03*
%TD*%
D12*
%TO.P,J2,7*%
%TO.N,BAT+*%
X67710000Y-22352000D03*
%TO.P,J2,6*%
%TO.N,BAT_BAL5*%
X72520000Y-22352000D03*
%TO.P,J2,5*%
%TO.N,BAT_BAL4*%
X77320000Y-22352000D03*
%TO.P,J2,4*%
%TO.N,BAT_BAL3*%
X82120000Y-22352000D03*
%TO.P,J2,3*%
%TO.N,BAT_BAL2*%
X86920000Y-22352000D03*
%TO.P,J2,2*%
%TO.N,BAT_BAL1*%
X91720000Y-22352000D03*
%TO.P,J2,1*%
%TO.N,BAT-*%
%TA.AperFunction,ComponentPad*%
G36*
G01*
X97670000Y-21452000D02*
X97670000Y-23252000D01*
G75*
G02*
X97420000Y-23502000I-250000J0D01*
G01*
X95620000Y-23502000D01*
G75*
G02*
X95370000Y-23252000I0J250000D01*
G01*
X95370000Y-21452000D01*
G75*
G02*
X95620000Y-21202000I250000J0D01*
G01*
X97420000Y-21202000D01*
G75*
G02*
X97670000Y-21452000I0J-250000D01*
G01*
G37*
%TD.AperFunction*%
%TD*%
D13*
%TO.P,J1,2*%
%TO.N,Net-(F1-Pad2)*%
X80010000Y-161210000D03*
D14*
%TO.P,J1,1*%
%TO.N,BMS_Source*%
X80010000Y-156210000D03*
%TD*%
D15*
%TO.P,F1,2*%
%TO.N,Net-(F1-Pad2)*%
X67056000Y-158750000D03*
X63246000Y-158750000D03*
%TO.P,F1,1*%
%TO.N,BAT+*%
X55118000Y-158750000D03*
X58928000Y-158750000D03*
%TD*%
D16*
%TO.P,BT6,1*%
%TO.N,BAT+*%
X44450000Y-140208000D03*
D17*
%TO.P,BT6,2*%
%TO.N,BAT_BAL5*%
X116450000Y-140208000D03*
%TD*%
D16*
%TO.P,BT5,1*%
%TO.N,BAT_BAL5*%
X44450000Y-119888000D03*
D17*
%TO.P,BT5,2*%
%TO.N,BAT_BAL4*%
X116450000Y-119888000D03*
%TD*%
D16*
%TO.P,BT4,1*%
%TO.N,BAT_BAL4*%
X44450000Y-99568000D03*
D17*
%TO.P,BT4,2*%
%TO.N,BAT_BAL3*%
X116450000Y-99568000D03*
%TD*%
D16*
%TO.P,BT3,1*%
%TO.N,BAT_BAL3*%
X44450000Y-75692000D03*
D17*
%TO.P,BT3,2*%
%TO.N,BAT_BAL2*%
X116450000Y-75692000D03*
%TD*%
D16*
%TO.P,BT2,1*%
%TO.N,BAT_BAL2*%
X44450000Y-55372000D03*
D17*
%TO.P,BT2,2*%
%TO.N,BAT_BAL1*%
X116450000Y-55372000D03*
%TD*%
D16*
%TO.P,BT1,1*%
%TO.N,BAT_BAL1*%
X44450000Y-35052000D03*
D17*
%TO.P,BT1,2*%
%TO.N,BAT-*%
X116450000Y-35052000D03*
%TD*%
D11*
%TO.P,REF\u002A\u002A,1*%
%TO.N,N/C*%
X114300000Y-160020000D03*
%TD*%
%TO.P,REF\u002A\u002A,1*%
%TO.N,N/C*%
X46990000Y-160020000D03*
%TD*%
D18*
%TO.N,BAT_BAL1*%
X91310000Y-22352000D02*
X90170000Y-22352000D01*
%TD*%
D19*
%TO.N,BAT_BAL1*%
X45317447Y-26444615D02*
X45642411Y-26510290D01*
X117105251Y-45254642D01*
X117434883Y-45362510D01*
X117745862Y-45507297D01*
X118037368Y-45688119D01*
X118305246Y-45902402D01*
X118545666Y-46147081D01*
X118755214Y-46418681D01*
X118930890Y-46713313D01*
X119070195Y-47026788D01*
X119171141Y-47354629D01*
X119232293Y-47692178D01*
X119253000Y-48038384D01*
X119253000Y-60878006D01*
X119234077Y-61209014D01*
X119178177Y-61532124D01*
X119085816Y-61846774D01*
X118958207Y-62148830D01*
X118796998Y-62434393D01*
X118604306Y-62699710D01*
X118382633Y-62941341D01*
X118134856Y-63156148D01*
X117864232Y-63341307D01*
X117574251Y-63494429D01*
X117268719Y-63613503D01*
X116951617Y-63696983D01*
X116627059Y-63743782D01*
X116299272Y-63753292D01*
X115972553Y-63725385D01*
X115647589Y-63659710D01*
X83211458Y-55151872D01*
X106470000Y-55151872D01*
X106470000Y-55592128D01*
X106555890Y-56023925D01*
X106724369Y-56430669D01*
X106968962Y-56796729D01*
X107280271Y-57108038D01*
X107646331Y-57352631D01*
X108053075Y-57521110D01*
X108484872Y-57607000D01*
X108925128Y-57607000D01*
X109356925Y-57521110D01*
X109763669Y-57352631D01*
X109794057Y-57332326D01*
X115370729Y-57332326D01*
X115593796Y-57610374D01*
X116046934Y-57734401D01*
X116515560Y-57767642D01*
X116981667Y-57708820D01*
X117306204Y-57610374D01*
X117529271Y-57332326D01*
X116450000Y-56253055D01*
X115370729Y-57332326D01*
X109794057Y-57332326D01*
X110129729Y-57108038D01*
X110441038Y-56796729D01*
X110685631Y-56430669D01*
X110854110Y-56023925D01*
X110940000Y-55592128D01*
X110940000Y-55437560D01*
X114054358Y-55437560D01*
X114113180Y-55903667D01*
X114211626Y-56228204D01*
X114489674Y-56451271D01*
X115568945Y-55372000D01*
X117331055Y-55372000D01*
X118410326Y-56451271D01*
X118688374Y-56228204D01*
X118812401Y-55775066D01*
X118845642Y-55306440D01*
X118786820Y-54840333D01*
X118688374Y-54515796D01*
X118410326Y-54292729D01*
X117331055Y-55372000D01*
X115568945Y-55372000D01*
X114489674Y-54292729D01*
X114211626Y-54515796D01*
X114087599Y-54968934D01*
X114054358Y-55437560D01*
X110940000Y-55437560D01*
X110940000Y-55151872D01*
X110854110Y-54720075D01*
X110685631Y-54313331D01*
X110441038Y-53947271D01*
X110129729Y-53635962D01*
X109794058Y-53411674D01*
X115370729Y-53411674D01*
X116450000Y-54490945D01*
X117529271Y-53411674D01*
X117306204Y-53133626D01*
X116853066Y-53009599D01*
X116384440Y-52976358D01*
X115918333Y-53035180D01*
X115593796Y-53133626D01*
X115370729Y-53411674D01*
X109794058Y-53411674D01*
X109763669Y-53391369D01*
X109356925Y-53222890D01*
X108925128Y-53137000D01*
X108484872Y-53137000D01*
X108053075Y-53222890D01*
X107646331Y-53391369D01*
X107280271Y-53635962D01*
X106968962Y-53947271D01*
X106724369Y-54313331D01*
X106555890Y-54720075D01*
X106470000Y-55151872D01*
X83211458Y-55151872D01*
X44184749Y-44915358D01*
X43855117Y-44807490D01*
X43544138Y-44662703D01*
X43252632Y-44481881D01*
X42984754Y-44267598D01*
X42744334Y-44022919D01*
X42534786Y-43751319D01*
X42359110Y-43456687D01*
X42219805Y-43143212D01*
X42118859Y-42815371D01*
X42057707Y-42477822D01*
X42037000Y-42131616D01*
X42037000Y-36802000D01*
X42061928Y-36802000D01*
X42074188Y-36926482D01*
X42110498Y-37046180D01*
X42169463Y-37156494D01*
X42248815Y-37253185D01*
X42345506Y-37332537D01*
X42455820Y-37391502D01*
X42575518Y-37427812D01*
X42700000Y-37440072D01*
X43668250Y-37437000D01*
X43827000Y-37278250D01*
X43827000Y-35675000D01*
X45073000Y-35675000D01*
X45073000Y-37278250D01*
X45231750Y-37437000D01*
X46200000Y-37440072D01*
X46324482Y-37427812D01*
X46444180Y-37391502D01*
X46554494Y-37332537D01*
X46651185Y-37253185D01*
X46730537Y-37156494D01*
X46789502Y-37046180D01*
X46825812Y-36926482D01*
X46838072Y-36802000D01*
X46835000Y-35833750D01*
X46676250Y-35675000D01*
X45073000Y-35675000D01*
X43827000Y-35675000D01*
X42223750Y-35675000D01*
X42065000Y-35833750D01*
X42061928Y-36802000D01*
X42037000Y-36802000D01*
X42037000Y-34831872D01*
X50860000Y-34831872D01*
X50860000Y-35272128D01*
X50945890Y-35703925D01*
X51114369Y-36110669D01*
X51358962Y-36476729D01*
X51670271Y-36788038D01*
X52036331Y-37032631D01*
X52443075Y-37201110D01*
X52874872Y-37287000D01*
X53315128Y-37287000D01*
X53746925Y-37201110D01*
X54153669Y-37032631D01*
X54519729Y-36788038D01*
X54831038Y-36476729D01*
X55075631Y-36110669D01*
X55244110Y-35703925D01*
X55330000Y-35272128D01*
X55330000Y-34831872D01*
X55244110Y-34400075D01*
X55075631Y-33993331D01*
X54831038Y-33627271D01*
X54519729Y-33315962D01*
X54153669Y-33071369D01*
X53746925Y-32902890D01*
X53315128Y-32817000D01*
X52874872Y-32817000D01*
X52443075Y-32902890D01*
X52036331Y-33071369D01*
X51670271Y-33315962D01*
X51358962Y-33627271D01*
X51114369Y-33993331D01*
X50945890Y-34400075D01*
X50860000Y-34831872D01*
X42037000Y-34831872D01*
X42037000Y-33302000D01*
X42061928Y-33302000D01*
X42065000Y-34270250D01*
X42223750Y-34429000D01*
X43827000Y-34429000D01*
X43827000Y-32825750D01*
X45073000Y-32825750D01*
X45073000Y-34429000D01*
X46676250Y-34429000D01*
X46835000Y-34270250D01*
X46838072Y-33302000D01*
X46825812Y-33177518D01*
X46789502Y-33057820D01*
X46730537Y-32947506D01*
X46651185Y-32850815D01*
X46554494Y-32771463D01*
X46444180Y-32712498D01*
X46324482Y-32676188D01*
X46200000Y-32663928D01*
X45231750Y-32667000D01*
X45073000Y-32825750D01*
X43827000Y-32825750D01*
X43668250Y-32667000D01*
X42700000Y-32663928D01*
X42575518Y-32676188D01*
X42455820Y-32712498D01*
X42345506Y-32771463D01*
X42248815Y-32850815D01*
X42169463Y-32947506D01*
X42110498Y-33057820D01*
X42074188Y-33177518D01*
X42061928Y-33302000D01*
X42037000Y-33302000D01*
X42037000Y-29291994D01*
X42055923Y-28960986D01*
X42111823Y-28637876D01*
X42204184Y-28323226D01*
X42331793Y-28021170D01*
X42493002Y-27735607D01*
X42685694Y-27470290D01*
X42907367Y-27228659D01*
X43155144Y-27013852D01*
X43425768Y-26828693D01*
X43715749Y-26675571D01*
X44021281Y-26556497D01*
X44338383Y-26473017D01*
X44662941Y-26426218D01*
X44990728Y-26416708D01*
X45317447Y-26444615D01*
%TA.AperFunction,Conductor*%
D20*
G36*
X45317447Y-26444615D02*
G01*
X45642411Y-26510290D01*
X117105251Y-45254642D01*
X117434883Y-45362510D01*
X117745862Y-45507297D01*
X118037368Y-45688119D01*
X118305246Y-45902402D01*
X118545666Y-46147081D01*
X118755214Y-46418681D01*
X118930890Y-46713313D01*
X119070195Y-47026788D01*
X119171141Y-47354629D01*
X119232293Y-47692178D01*
X119253000Y-48038384D01*
X119253000Y-60878006D01*
X119234077Y-61209014D01*
X119178177Y-61532124D01*
X119085816Y-61846774D01*
X118958207Y-62148830D01*
X118796998Y-62434393D01*
X118604306Y-62699710D01*
X118382633Y-62941341D01*
X118134856Y-63156148D01*
X117864232Y-63341307D01*
X117574251Y-63494429D01*
X117268719Y-63613503D01*
X116951617Y-63696983D01*
X116627059Y-63743782D01*
X116299272Y-63753292D01*
X115972553Y-63725385D01*
X115647589Y-63659710D01*
X83211458Y-55151872D01*
X106470000Y-55151872D01*
X106470000Y-55592128D01*
X106555890Y-56023925D01*
X106724369Y-56430669D01*
X106968962Y-56796729D01*
X107280271Y-57108038D01*
X107646331Y-57352631D01*
X108053075Y-57521110D01*
X108484872Y-57607000D01*
X108925128Y-57607000D01*
X109356925Y-57521110D01*
X109763669Y-57352631D01*
X109794057Y-57332326D01*
X115370729Y-57332326D01*
X115593796Y-57610374D01*
X116046934Y-57734401D01*
X116515560Y-57767642D01*
X116981667Y-57708820D01*
X117306204Y-57610374D01*
X117529271Y-57332326D01*
X116450000Y-56253055D01*
X115370729Y-57332326D01*
X109794057Y-57332326D01*
X110129729Y-57108038D01*
X110441038Y-56796729D01*
X110685631Y-56430669D01*
X110854110Y-56023925D01*
X110940000Y-55592128D01*
X110940000Y-55437560D01*
X114054358Y-55437560D01*
X114113180Y-55903667D01*
X114211626Y-56228204D01*
X114489674Y-56451271D01*
X115568945Y-55372000D01*
X117331055Y-55372000D01*
X118410326Y-56451271D01*
X118688374Y-56228204D01*
X118812401Y-55775066D01*
X118845642Y-55306440D01*
X118786820Y-54840333D01*
X118688374Y-54515796D01*
X118410326Y-54292729D01*
X117331055Y-55372000D01*
X115568945Y-55372000D01*
X114489674Y-54292729D01*
X114211626Y-54515796D01*
X114087599Y-54968934D01*
X114054358Y-55437560D01*
X110940000Y-55437560D01*
X110940000Y-55151872D01*
X110854110Y-54720075D01*
X110685631Y-54313331D01*
X110441038Y-53947271D01*
X110129729Y-53635962D01*
X109794058Y-53411674D01*
X115370729Y-53411674D01*
X116450000Y-54490945D01*
X117529271Y-53411674D01*
X117306204Y-53133626D01*
X116853066Y-53009599D01*
X116384440Y-52976358D01*
X115918333Y-53035180D01*
X115593796Y-53133626D01*
X115370729Y-53411674D01*
X109794058Y-53411674D01*
X109763669Y-53391369D01*
X109356925Y-53222890D01*
X108925128Y-53137000D01*
X108484872Y-53137000D01*
X108053075Y-53222890D01*
X107646331Y-53391369D01*
X107280271Y-53635962D01*
X106968962Y-53947271D01*
X106724369Y-54313331D01*
X106555890Y-54720075D01*
X106470000Y-55151872D01*
X83211458Y-55151872D01*
X44184749Y-44915358D01*
X43855117Y-44807490D01*
X43544138Y-44662703D01*
X43252632Y-44481881D01*
X42984754Y-44267598D01*
X42744334Y-44022919D01*
X42534786Y-43751319D01*
X42359110Y-43456687D01*
X42219805Y-43143212D01*
X42118859Y-42815371D01*
X42057707Y-42477822D01*
X42037000Y-42131616D01*
X42037000Y-36802000D01*
X42061928Y-36802000D01*
X42074188Y-36926482D01*
X42110498Y-37046180D01*
X42169463Y-37156494D01*
X42248815Y-37253185D01*
X42345506Y-37332537D01*
X42455820Y-37391502D01*
X42575518Y-37427812D01*
X42700000Y-37440072D01*
X43668250Y-37437000D01*
X43827000Y-37278250D01*
X43827000Y-35675000D01*
X45073000Y-35675000D01*
X45073000Y-37278250D01*
X45231750Y-37437000D01*
X46200000Y-37440072D01*
X46324482Y-37427812D01*
X46444180Y-37391502D01*
X46554494Y-37332537D01*
X46651185Y-37253185D01*
X46730537Y-37156494D01*
X46789502Y-37046180D01*
X46825812Y-36926482D01*
X46838072Y-36802000D01*
X46835000Y-35833750D01*
X46676250Y-35675000D01*
X45073000Y-35675000D01*
X43827000Y-35675000D01*
X42223750Y-35675000D01*
X42065000Y-35833750D01*
X42061928Y-36802000D01*
X42037000Y-36802000D01*
X42037000Y-34831872D01*
X50860000Y-34831872D01*
X50860000Y-35272128D01*
X50945890Y-35703925D01*
X51114369Y-36110669D01*
X51358962Y-36476729D01*
X51670271Y-36788038D01*
X52036331Y-37032631D01*
X52443075Y-37201110D01*
X52874872Y-37287000D01*
X53315128Y-37287000D01*
X53746925Y-37201110D01*
X54153669Y-37032631D01*
X54519729Y-36788038D01*
X54831038Y-36476729D01*
X55075631Y-36110669D01*
X55244110Y-35703925D01*
X55330000Y-35272128D01*
X55330000Y-34831872D01*
X55244110Y-34400075D01*
X55075631Y-33993331D01*
X54831038Y-33627271D01*
X54519729Y-33315962D01*
X54153669Y-33071369D01*
X53746925Y-32902890D01*
X53315128Y-32817000D01*
X52874872Y-32817000D01*
X52443075Y-32902890D01*
X52036331Y-33071369D01*
X51670271Y-33315962D01*
X51358962Y-33627271D01*
X51114369Y-33993331D01*
X50945890Y-34400075D01*
X50860000Y-34831872D01*
X42037000Y-34831872D01*
X42037000Y-33302000D01*
X42061928Y-33302000D01*
X42065000Y-34270250D01*
X42223750Y-34429000D01*
X43827000Y-34429000D01*
X43827000Y-32825750D01*
X45073000Y-32825750D01*
X45073000Y-34429000D01*
X46676250Y-34429000D01*
X46835000Y-34270250D01*
X46838072Y-33302000D01*
X46825812Y-33177518D01*
X46789502Y-33057820D01*
X46730537Y-32947506D01*
X46651185Y-32850815D01*
X46554494Y-32771463D01*
X46444180Y-32712498D01*
X46324482Y-32676188D01*
X46200000Y-32663928D01*
X45231750Y-32667000D01*
X45073000Y-32825750D01*
X43827000Y-32825750D01*
X43668250Y-32667000D01*
X42700000Y-32663928D01*
X42575518Y-32676188D01*
X42455820Y-32712498D01*
X42345506Y-32771463D01*
X42248815Y-32850815D01*
X42169463Y-32947506D01*
X42110498Y-33057820D01*
X42074188Y-33177518D01*
X42061928Y-33302000D01*
X42037000Y-33302000D01*
X42037000Y-29291994D01*
X42055923Y-28960986D01*
X42111823Y-28637876D01*
X42204184Y-28323226D01*
X42331793Y-28021170D01*
X42493002Y-27735607D01*
X42685694Y-27470290D01*
X42907367Y-27228659D01*
X43155144Y-27013852D01*
X43425768Y-26828693D01*
X43715749Y-26675571D01*
X44021281Y-26556497D01*
X44338383Y-26473017D01*
X44662941Y-26426218D01*
X44990728Y-26416708D01*
X45317447Y-26444615D01*
G37*
%TD.AperFunction*%
%TD*%
D19*
%TO.N,BAT_BAL2*%
X45317447Y-46764615D02*
X45642411Y-46830290D01*
X117105251Y-65574642D01*
X117434883Y-65682510D01*
X117745862Y-65827297D01*
X118037368Y-66008119D01*
X118305246Y-66222402D01*
X118545666Y-66467081D01*
X118755214Y-66738681D01*
X118930890Y-67033313D01*
X119070195Y-67346788D01*
X119171141Y-67674629D01*
X119232293Y-68012178D01*
X119253000Y-68358384D01*
X119253000Y-81922861D01*
X119233887Y-82255528D01*
X119177427Y-82580210D01*
X119084152Y-82896296D01*
X118955286Y-83199625D01*
X118792537Y-83486183D01*
X118598032Y-83752229D01*
X118374335Y-83994249D01*
X118124400Y-84209048D01*
X117851502Y-84393814D01*
X117559244Y-84546108D01*
X117251460Y-84663930D01*
X116932218Y-84745723D01*
X116605694Y-84790418D01*
X116276215Y-84797423D01*
X115948097Y-84766646D01*
X115622086Y-84697735D01*
X81719818Y-75471872D01*
X106470000Y-75471872D01*
X106470000Y-75912128D01*
X106555890Y-76343925D01*
X106724369Y-76750669D01*
X106968962Y-77116729D01*
X107280271Y-77428038D01*
X107646331Y-77672631D01*
X108053075Y-77841110D01*
X108484872Y-77927000D01*
X108925128Y-77927000D01*
X109356925Y-77841110D01*
X109763669Y-77672631D01*
X109794057Y-77652326D01*
X115370729Y-77652326D01*
X115593796Y-77930374D01*
X116046934Y-78054401D01*
X116515560Y-78087642D01*
X116981667Y-78028820D01*
X117306204Y-77930374D01*
X117529271Y-77652326D01*
X116450000Y-76573055D01*
X115370729Y-77652326D01*
X109794057Y-77652326D01*
X110129729Y-77428038D01*
X110441038Y-77116729D01*
X110685631Y-76750669D01*
X110854110Y-76343925D01*
X110940000Y-75912128D01*
X110940000Y-75757560D01*
X114054358Y-75757560D01*
X114113180Y-76223667D01*
X114211626Y-76548204D01*
X114489674Y-76771271D01*
X115568945Y-75692000D01*
X117331055Y-75692000D01*
X118410326Y-76771271D01*
X118688374Y-76548204D01*
X118812401Y-76095066D01*
X118845642Y-75626440D01*
X118786820Y-75160333D01*
X118688374Y-74835796D01*
X118410326Y-74612729D01*
X117331055Y-75692000D01*
X115568945Y-75692000D01*
X114489674Y-74612729D01*
X114211626Y-74835796D01*
X114087599Y-75288934D01*
X114054358Y-75757560D01*
X110940000Y-75757560D01*
X110940000Y-75471872D01*
X110854110Y-75040075D01*
X110685631Y-74633331D01*
X110441038Y-74267271D01*
X110129729Y-73955962D01*
X109794058Y-73731674D01*
X115370729Y-73731674D01*
X116450000Y-74810945D01*
X117529271Y-73731674D01*
X117306204Y-73453626D01*
X116853066Y-73329599D01*
X116384440Y-73296358D01*
X115918333Y-73355180D01*
X115593796Y-73453626D01*
X115370729Y-73731674D01*
X109794058Y-73731674D01*
X109763669Y-73711369D01*
X109356925Y-73542890D01*
X108925128Y-73457000D01*
X108484872Y-73457000D01*
X108053075Y-73542890D01*
X107646331Y-73711369D01*
X107280271Y-73955962D01*
X106968962Y-74267271D01*
X106724369Y-74633331D01*
X106555890Y-75040075D01*
X106470000Y-75471872D01*
X81719818Y-75471872D01*
X44159229Y-65250466D01*
X43832850Y-65140487D01*
X43525192Y-64994267D01*
X43236999Y-64812655D01*
X42972332Y-64598211D01*
X42734904Y-64353940D01*
X42528065Y-64083293D01*
X42354713Y-63790059D01*
X42217286Y-63478361D01*
X42117724Y-63152599D01*
X42057420Y-62817340D01*
X42037000Y-62473520D01*
X42037000Y-57122000D01*
X42061928Y-57122000D01*
X42074188Y-57246482D01*
X42110498Y-57366180D01*
X42169463Y-57476494D01*
X42248815Y-57573185D01*
X42345506Y-57652537D01*
X42455820Y-57711502D01*
X42575518Y-57747812D01*
X42700000Y-57760072D01*
X43668250Y-57757000D01*
X43827000Y-57598250D01*
X43827000Y-55995000D01*
X45073000Y-55995000D01*
X45073000Y-57598250D01*
X45231750Y-57757000D01*
X46200000Y-57760072D01*
X46324482Y-57747812D01*
X46444180Y-57711502D01*
X46554494Y-57652537D01*
X46651185Y-57573185D01*
X46730537Y-57476494D01*
X46789502Y-57366180D01*
X46825812Y-57246482D01*
X46838072Y-57122000D01*
X46835000Y-56153750D01*
X46676250Y-55995000D01*
X45073000Y-55995000D01*
X43827000Y-55995000D01*
X42223750Y-55995000D01*
X42065000Y-56153750D01*
X42061928Y-57122000D01*
X42037000Y-57122000D01*
X42037000Y-55151872D01*
X50860000Y-55151872D01*
X50860000Y-55592128D01*
X50945890Y-56023925D01*
X51114369Y-56430669D01*
X51358962Y-56796729D01*
X51670271Y-57108038D01*
X52036331Y-57352631D01*
X52443075Y-57521110D01*
X52874872Y-57607000D01*
X53315128Y-57607000D01*
X53746925Y-57521110D01*
X54153669Y-57352631D01*
X54519729Y-57108038D01*
X54831038Y-56796729D01*
X55075631Y-56430669D01*
X55244110Y-56023925D01*
X55330000Y-55592128D01*
X55330000Y-55151872D01*
X55244110Y-54720075D01*
X55075631Y-54313331D01*
X54831038Y-53947271D01*
X54519729Y-53635962D01*
X54153669Y-53391369D01*
X53746925Y-53222890D01*
X53315128Y-53137000D01*
X52874872Y-53137000D01*
X52443075Y-53222890D01*
X52036331Y-53391369D01*
X51670271Y-53635962D01*
X51358962Y-53947271D01*
X51114369Y-54313331D01*
X50945890Y-54720075D01*
X50860000Y-55151872D01*
X42037000Y-55151872D01*
X42037000Y-53622000D01*
X42061928Y-53622000D01*
X42065000Y-54590250D01*
X42223750Y-54749000D01*
X43827000Y-54749000D01*
X43827000Y-53145750D01*
X45073000Y-53145750D01*
X45073000Y-54749000D01*
X46676250Y-54749000D01*
X46835000Y-54590250D01*
X46838072Y-53622000D01*
X46825812Y-53497518D01*
X46789502Y-53377820D01*
X46730537Y-53267506D01*
X46651185Y-53170815D01*
X46554494Y-53091463D01*
X46444180Y-53032498D01*
X46324482Y-52996188D01*
X46200000Y-52983928D01*
X45231750Y-52987000D01*
X45073000Y-53145750D01*
X43827000Y-53145750D01*
X43668250Y-52987000D01*
X42700000Y-52983928D01*
X42575518Y-52996188D01*
X42455820Y-53032498D01*
X42345506Y-53091463D01*
X42248815Y-53170815D01*
X42169463Y-53267506D01*
X42110498Y-53377820D01*
X42074188Y-53497518D01*
X42061928Y-53622000D01*
X42037000Y-53622000D01*
X42037000Y-49611994D01*
X42055923Y-49280986D01*
X42111823Y-48957876D01*
X42204184Y-48643226D01*
X42331793Y-48341170D01*
X42493002Y-48055607D01*
X42685694Y-47790290D01*
X42907367Y-47548659D01*
X43155144Y-47333852D01*
X43425768Y-47148693D01*
X43715749Y-46995571D01*
X44021281Y-46876497D01*
X44338383Y-46793017D01*
X44662941Y-46746218D01*
X44990728Y-46736708D01*
X45317447Y-46764615D01*
%TA.AperFunction,Conductor*%
D20*
G36*
X45317447Y-46764615D02*
G01*
X45642411Y-46830290D01*
X117105251Y-65574642D01*
X117434883Y-65682510D01*
X117745862Y-65827297D01*
X118037368Y-66008119D01*
X118305246Y-66222402D01*
X118545666Y-66467081D01*
X118755214Y-66738681D01*
X118930890Y-67033313D01*
X119070195Y-67346788D01*
X119171141Y-67674629D01*
X119232293Y-68012178D01*
X119253000Y-68358384D01*
X119253000Y-81922861D01*
X119233887Y-82255528D01*
X119177427Y-82580210D01*
X119084152Y-82896296D01*
X118955286Y-83199625D01*
X118792537Y-83486183D01*
X118598032Y-83752229D01*
X118374335Y-83994249D01*
X118124400Y-84209048D01*
X117851502Y-84393814D01*
X117559244Y-84546108D01*
X117251460Y-84663930D01*
X116932218Y-84745723D01*
X116605694Y-84790418D01*
X116276215Y-84797423D01*
X115948097Y-84766646D01*
X115622086Y-84697735D01*
X81719818Y-75471872D01*
X106470000Y-75471872D01*
X106470000Y-75912128D01*
X106555890Y-76343925D01*
X106724369Y-76750669D01*
X106968962Y-77116729D01*
X107280271Y-77428038D01*
X107646331Y-77672631D01*
X108053075Y-77841110D01*
X108484872Y-77927000D01*
X108925128Y-77927000D01*
X109356925Y-77841110D01*
X109763669Y-77672631D01*
X109794057Y-77652326D01*
X115370729Y-77652326D01*
X115593796Y-77930374D01*
X116046934Y-78054401D01*
X116515560Y-78087642D01*
X116981667Y-78028820D01*
X117306204Y-77930374D01*
X117529271Y-77652326D01*
X116450000Y-76573055D01*
X115370729Y-77652326D01*
X109794057Y-77652326D01*
X110129729Y-77428038D01*
X110441038Y-77116729D01*
X110685631Y-76750669D01*
X110854110Y-76343925D01*
X110940000Y-75912128D01*
X110940000Y-75757560D01*
X114054358Y-75757560D01*
X114113180Y-76223667D01*
X114211626Y-76548204D01*
X114489674Y-76771271D01*
X115568945Y-75692000D01*
X117331055Y-75692000D01*
X118410326Y-76771271D01*
X118688374Y-76548204D01*
X118812401Y-76095066D01*
X118845642Y-75626440D01*
X118786820Y-75160333D01*
X118688374Y-74835796D01*
X118410326Y-74612729D01*
X117331055Y-75692000D01*
X115568945Y-75692000D01*
X114489674Y-74612729D01*
X114211626Y-74835796D01*
X114087599Y-75288934D01*
X114054358Y-75757560D01*
X110940000Y-75757560D01*
X110940000Y-75471872D01*
X110854110Y-75040075D01*
X110685631Y-74633331D01*
X110441038Y-74267271D01*
X110129729Y-73955962D01*
X109794058Y-73731674D01*
X115370729Y-73731674D01*
X116450000Y-74810945D01*
X117529271Y-73731674D01*
X117306204Y-73453626D01*
X116853066Y-73329599D01*
X116384440Y-73296358D01*
X115918333Y-73355180D01*
X115593796Y-73453626D01*
X115370729Y-73731674D01*
X109794058Y-73731674D01*
X109763669Y-73711369D01*
X109356925Y-73542890D01*
X108925128Y-73457000D01*
X108484872Y-73457000D01*
X108053075Y-73542890D01*
X107646331Y-73711369D01*
X107280271Y-73955962D01*
X106968962Y-74267271D01*
X106724369Y-74633331D01*
X106555890Y-75040075D01*
X106470000Y-75471872D01*
X81719818Y-75471872D01*
X44159229Y-65250466D01*
X43832850Y-65140487D01*
X43525192Y-64994267D01*
X43236999Y-64812655D01*
X42972332Y-64598211D01*
X42734904Y-64353940D01*
X42528065Y-64083293D01*
X42354713Y-63790059D01*
X42217286Y-63478361D01*
X42117724Y-63152599D01*
X42057420Y-62817340D01*
X42037000Y-62473520D01*
X42037000Y-57122000D01*
X42061928Y-57122000D01*
X42074188Y-57246482D01*
X42110498Y-57366180D01*
X42169463Y-57476494D01*
X42248815Y-57573185D01*
X42345506Y-57652537D01*
X42455820Y-57711502D01*
X42575518Y-57747812D01*
X42700000Y-57760072D01*
X43668250Y-57757000D01*
X43827000Y-57598250D01*
X43827000Y-55995000D01*
X45073000Y-55995000D01*
X45073000Y-57598250D01*
X45231750Y-57757000D01*
X46200000Y-57760072D01*
X46324482Y-57747812D01*
X46444180Y-57711502D01*
X46554494Y-57652537D01*
X46651185Y-57573185D01*
X46730537Y-57476494D01*
X46789502Y-57366180D01*
X46825812Y-57246482D01*
X46838072Y-57122000D01*
X46835000Y-56153750D01*
X46676250Y-55995000D01*
X45073000Y-55995000D01*
X43827000Y-55995000D01*
X42223750Y-55995000D01*
X42065000Y-56153750D01*
X42061928Y-57122000D01*
X42037000Y-57122000D01*
X42037000Y-55151872D01*
X50860000Y-55151872D01*
X50860000Y-55592128D01*
X50945890Y-56023925D01*
X51114369Y-56430669D01*
X51358962Y-56796729D01*
X51670271Y-57108038D01*
X52036331Y-57352631D01*
X52443075Y-57521110D01*
X52874872Y-57607000D01*
X53315128Y-57607000D01*
X53746925Y-57521110D01*
X54153669Y-57352631D01*
X54519729Y-57108038D01*
X54831038Y-56796729D01*
X55075631Y-56430669D01*
X55244110Y-56023925D01*
X55330000Y-55592128D01*
X55330000Y-55151872D01*
X55244110Y-54720075D01*
X55075631Y-54313331D01*
X54831038Y-53947271D01*
X54519729Y-53635962D01*
X54153669Y-53391369D01*
X53746925Y-53222890D01*
X53315128Y-53137000D01*
X52874872Y-53137000D01*
X52443075Y-53222890D01*
X52036331Y-53391369D01*
X51670271Y-53635962D01*
X51358962Y-53947271D01*
X51114369Y-54313331D01*
X50945890Y-54720075D01*
X50860000Y-55151872D01*
X42037000Y-55151872D01*
X42037000Y-53622000D01*
X42061928Y-53622000D01*
X42065000Y-54590250D01*
X42223750Y-54749000D01*
X43827000Y-54749000D01*
X43827000Y-53145750D01*
X45073000Y-53145750D01*
X45073000Y-54749000D01*
X46676250Y-54749000D01*
X46835000Y-54590250D01*
X46838072Y-53622000D01*
X46825812Y-53497518D01*
X46789502Y-53377820D01*
X46730537Y-53267506D01*
X46651185Y-53170815D01*
X46554494Y-53091463D01*
X46444180Y-53032498D01*
X46324482Y-52996188D01*
X46200000Y-52983928D01*
X45231750Y-52987000D01*
X45073000Y-53145750D01*
X43827000Y-53145750D01*
X43668250Y-52987000D01*
X42700000Y-52983928D01*
X42575518Y-52996188D01*
X42455820Y-53032498D01*
X42345506Y-53091463D01*
X42248815Y-53170815D01*
X42169463Y-53267506D01*
X42110498Y-53377820D01*
X42074188Y-53497518D01*
X42061928Y-53622000D01*
X42037000Y-53622000D01*
X42037000Y-49611994D01*
X42055923Y-49280986D01*
X42111823Y-48957876D01*
X42204184Y-48643226D01*
X42331793Y-48341170D01*
X42493002Y-48055607D01*
X42685694Y-47790290D01*
X42907367Y-47548659D01*
X43155144Y-47333852D01*
X43425768Y-47148693D01*
X43715749Y-46995571D01*
X44021281Y-46876497D01*
X44338383Y-46793017D01*
X44662941Y-46746218D01*
X44990728Y-46736708D01*
X45317447Y-46764615D01*
G37*
%TD.AperFunction*%
%TD*%
D19*
%TO.N,BAT_BAL3*%
X45317447Y-67084615D02*
X45642411Y-67150290D01*
X117105251Y-85894642D01*
X117434883Y-86002510D01*
X117745862Y-86147297D01*
X118037368Y-86328119D01*
X118305246Y-86542402D01*
X118545666Y-86787081D01*
X118755214Y-87058681D01*
X118930890Y-87353313D01*
X119070195Y-87666788D01*
X119171141Y-87994629D01*
X119232293Y-88332178D01*
X119253000Y-88678384D01*
X119253000Y-105328006D01*
X119234077Y-105659014D01*
X119178177Y-105982124D01*
X119085816Y-106296774D01*
X118958207Y-106598830D01*
X118796998Y-106884393D01*
X118604306Y-107149710D01*
X118382633Y-107391341D01*
X118134856Y-107606148D01*
X117864232Y-107791307D01*
X117574251Y-107944429D01*
X117268719Y-108063503D01*
X116951617Y-108146983D01*
X116627059Y-108193782D01*
X116299272Y-108203292D01*
X115972553Y-108175385D01*
X115647589Y-108109710D01*
X82243083Y-99347872D01*
X106470000Y-99347872D01*
X106470000Y-99788128D01*
X106555890Y-100219925D01*
X106724369Y-100626669D01*
X106968962Y-100992729D01*
X107280271Y-101304038D01*
X107646331Y-101548631D01*
X108053075Y-101717110D01*
X108484872Y-101803000D01*
X108925128Y-101803000D01*
X109356925Y-101717110D01*
X109763669Y-101548631D01*
X109794057Y-101528326D01*
X115370729Y-101528326D01*
X115593796Y-101806374D01*
X116046934Y-101930401D01*
X116515560Y-101963642D01*
X116981667Y-101904820D01*
X117306204Y-101806374D01*
X117529271Y-101528326D01*
X116450000Y-100449055D01*
X115370729Y-101528326D01*
X109794057Y-101528326D01*
X110129729Y-101304038D01*
X110441038Y-100992729D01*
X110685631Y-100626669D01*
X110854110Y-100219925D01*
X110940000Y-99788128D01*
X110940000Y-99633560D01*
X114054358Y-99633560D01*
X114113180Y-100099667D01*
X114211626Y-100424204D01*
X114489674Y-100647271D01*
X115568945Y-99568000D01*
X117331055Y-99568000D01*
X118410326Y-100647271D01*
X118688374Y-100424204D01*
X118812401Y-99971066D01*
X118845642Y-99502440D01*
X118786820Y-99036333D01*
X118688374Y-98711796D01*
X118410326Y-98488729D01*
X117331055Y-99568000D01*
X115568945Y-99568000D01*
X114489674Y-98488729D01*
X114211626Y-98711796D01*
X114087599Y-99164934D01*
X114054358Y-99633560D01*
X110940000Y-99633560D01*
X110940000Y-99347872D01*
X110854110Y-98916075D01*
X110685631Y-98509331D01*
X110441038Y-98143271D01*
X110129729Y-97831962D01*
X109794058Y-97607674D01*
X115370729Y-97607674D01*
X116450000Y-98686945D01*
X117529271Y-97607674D01*
X117306204Y-97329626D01*
X116853066Y-97205599D01*
X116384440Y-97172358D01*
X115918333Y-97231180D01*
X115593796Y-97329626D01*
X115370729Y-97607674D01*
X109794058Y-97607674D01*
X109763669Y-97587369D01*
X109356925Y-97418890D01*
X108925128Y-97333000D01*
X108484872Y-97333000D01*
X108053075Y-97418890D01*
X107646331Y-97587369D01*
X107280271Y-97831962D01*
X106968962Y-98143271D01*
X106724369Y-98509331D01*
X106555890Y-98916075D01*
X106470000Y-99347872D01*
X82243083Y-99347872D01*
X44184749Y-89365358D01*
X43855117Y-89257490D01*
X43544138Y-89112703D01*
X43252632Y-88931881D01*
X42984754Y-88717598D01*
X42744334Y-88472919D01*
X42534786Y-88201319D01*
X42359110Y-87906687D01*
X42219805Y-87593212D01*
X42174856Y-87447229D01*
X60895000Y-87447229D01*
X60895000Y-88064771D01*
X61015476Y-88670446D01*
X61251799Y-89240979D01*
X61594886Y-89754446D01*
X62031554Y-90191114D01*
X62545021Y-90534201D01*
X63115554Y-90770524D01*
X63721229Y-90891000D01*
X64338771Y-90891000D01*
X64944446Y-90770524D01*
X65514979Y-90534201D01*
X66028446Y-90191114D01*
X66465114Y-89754446D01*
X66808201Y-89240979D01*
X67044524Y-88670446D01*
X67165000Y-88064771D01*
X67165000Y-87447229D01*
X95395000Y-87447229D01*
X95395000Y-88064771D01*
X95515476Y-88670446D01*
X95751799Y-89240979D01*
X96094886Y-89754446D01*
X96531554Y-90191114D01*
X97045021Y-90534201D01*
X97615554Y-90770524D01*
X98221229Y-90891000D01*
X98838771Y-90891000D01*
X99444446Y-90770524D01*
X100014979Y-90534201D01*
X100528446Y-90191114D01*
X100965114Y-89754446D01*
X101308201Y-89240979D01*
X101544524Y-88670446D01*
X101665000Y-88064771D01*
X101665000Y-87447229D01*
X101544524Y-86841554D01*
X101308201Y-86271021D01*
X100965114Y-85757554D01*
X100528446Y-85320886D01*
X100014979Y-84977799D01*
X99444446Y-84741476D01*
X98838771Y-84621000D01*
X98221229Y-84621000D01*
X97615554Y-84741476D01*
X97045021Y-84977799D01*
X96531554Y-85320886D01*
X96094886Y-85757554D01*
X95751799Y-86271021D01*
X95515476Y-86841554D01*
X95395000Y-87447229D01*
X67165000Y-87447229D01*
X67044524Y-86841554D01*
X66808201Y-86271021D01*
X66465114Y-85757554D01*
X66028446Y-85320886D01*
X65514979Y-84977799D01*
X64944446Y-84741476D01*
X64338771Y-84621000D01*
X63721229Y-84621000D01*
X63115554Y-84741476D01*
X62545021Y-84977799D01*
X62031554Y-85320886D01*
X61594886Y-85757554D01*
X61251799Y-86271021D01*
X61015476Y-86841554D01*
X60895000Y-87447229D01*
X42174856Y-87447229D01*
X42118859Y-87265371D01*
X42057707Y-86927822D01*
X42037000Y-86581616D01*
X42037000Y-77442000D01*
X42061928Y-77442000D01*
X42074188Y-77566482D01*
X42110498Y-77686180D01*
X42169463Y-77796494D01*
X42248815Y-77893185D01*
X42345506Y-77972537D01*
X42455820Y-78031502D01*
X42575518Y-78067812D01*
X42700000Y-78080072D01*
X43668250Y-78077000D01*
X43827000Y-77918250D01*
X43827000Y-76315000D01*
X45073000Y-76315000D01*
X45073000Y-77918250D01*
X45231750Y-78077000D01*
X46200000Y-78080072D01*
X46324482Y-78067812D01*
X46444180Y-78031502D01*
X46554494Y-77972537D01*
X46651185Y-77893185D01*
X46730537Y-77796494D01*
X46789502Y-77686180D01*
X46825812Y-77566482D01*
X46838072Y-77442000D01*
X46835000Y-76473750D01*
X46676250Y-76315000D01*
X45073000Y-76315000D01*
X43827000Y-76315000D01*
X42223750Y-76315000D01*
X42065000Y-76473750D01*
X42061928Y-77442000D01*
X42037000Y-77442000D01*
X42037000Y-75471872D01*
X50860000Y-75471872D01*
X50860000Y-75912128D01*
X50945890Y-76343925D01*
X51114369Y-76750669D01*
X51358962Y-77116729D01*
X51670271Y-77428038D01*
X52036331Y-77672631D01*
X52443075Y-77841110D01*
X52874872Y-77927000D01*
X53315128Y-77927000D01*
X53746925Y-77841110D01*
X54153669Y-77672631D01*
X54519729Y-77428038D01*
X54831038Y-77116729D01*
X55075631Y-76750669D01*
X55244110Y-76343925D01*
X55330000Y-75912128D01*
X55330000Y-75471872D01*
X55244110Y-75040075D01*
X55075631Y-74633331D01*
X54831038Y-74267271D01*
X54519729Y-73955962D01*
X54153669Y-73711369D01*
X53746925Y-73542890D01*
X53315128Y-73457000D01*
X52874872Y-73457000D01*
X52443075Y-73542890D01*
X52036331Y-73711369D01*
X51670271Y-73955962D01*
X51358962Y-74267271D01*
X51114369Y-74633331D01*
X50945890Y-75040075D01*
X50860000Y-75471872D01*
X42037000Y-75471872D01*
X42037000Y-73942000D01*
X42061928Y-73942000D01*
X42065000Y-74910250D01*
X42223750Y-75069000D01*
X43827000Y-75069000D01*
X43827000Y-73465750D01*
X45073000Y-73465750D01*
X45073000Y-75069000D01*
X46676250Y-75069000D01*
X46835000Y-74910250D01*
X46838072Y-73942000D01*
X46825812Y-73817518D01*
X46789502Y-73697820D01*
X46730537Y-73587506D01*
X46651185Y-73490815D01*
X46554494Y-73411463D01*
X46444180Y-73352498D01*
X46324482Y-73316188D01*
X46200000Y-73303928D01*
X45231750Y-73307000D01*
X45073000Y-73465750D01*
X43827000Y-73465750D01*
X43668250Y-73307000D01*
X42700000Y-73303928D01*
X42575518Y-73316188D01*
X42455820Y-73352498D01*
X42345506Y-73411463D01*
X42248815Y-73490815D01*
X42169463Y-73587506D01*
X42110498Y-73697820D01*
X42074188Y-73817518D01*
X42061928Y-73942000D01*
X42037000Y-73942000D01*
X42037000Y-69931994D01*
X42055923Y-69600986D01*
X42111823Y-69277876D01*
X42204184Y-68963226D01*
X42331793Y-68661170D01*
X42493002Y-68375607D01*
X42685694Y-68110290D01*
X42907367Y-67868659D01*
X43155144Y-67653852D01*
X43425768Y-67468693D01*
X43715749Y-67315571D01*
X44021281Y-67196497D01*
X44338383Y-67113017D01*
X44662941Y-67066218D01*
X44990728Y-67056708D01*
X45317447Y-67084615D01*
%TA.AperFunction,Conductor*%
D20*
G36*
X45317447Y-67084615D02*
G01*
X45642411Y-67150290D01*
X117105251Y-85894642D01*
X117434883Y-86002510D01*
X117745862Y-86147297D01*
X118037368Y-86328119D01*
X118305246Y-86542402D01*
X118545666Y-86787081D01*
X118755214Y-87058681D01*
X118930890Y-87353313D01*
X119070195Y-87666788D01*
X119171141Y-87994629D01*
X119232293Y-88332178D01*
X119253000Y-88678384D01*
X119253000Y-105328006D01*
X119234077Y-105659014D01*
X119178177Y-105982124D01*
X119085816Y-106296774D01*
X118958207Y-106598830D01*
X118796998Y-106884393D01*
X118604306Y-107149710D01*
X118382633Y-107391341D01*
X118134856Y-107606148D01*
X117864232Y-107791307D01*
X117574251Y-107944429D01*
X117268719Y-108063503D01*
X116951617Y-108146983D01*
X116627059Y-108193782D01*
X116299272Y-108203292D01*
X115972553Y-108175385D01*
X115647589Y-108109710D01*
X82243083Y-99347872D01*
X106470000Y-99347872D01*
X106470000Y-99788128D01*
X106555890Y-100219925D01*
X106724369Y-100626669D01*
X106968962Y-100992729D01*
X107280271Y-101304038D01*
X107646331Y-101548631D01*
X108053075Y-101717110D01*
X108484872Y-101803000D01*
X108925128Y-101803000D01*
X109356925Y-101717110D01*
X109763669Y-101548631D01*
X109794057Y-101528326D01*
X115370729Y-101528326D01*
X115593796Y-101806374D01*
X116046934Y-101930401D01*
X116515560Y-101963642D01*
X116981667Y-101904820D01*
X117306204Y-101806374D01*
X117529271Y-101528326D01*
X116450000Y-100449055D01*
X115370729Y-101528326D01*
X109794057Y-101528326D01*
X110129729Y-101304038D01*
X110441038Y-100992729D01*
X110685631Y-100626669D01*
X110854110Y-100219925D01*
X110940000Y-99788128D01*
X110940000Y-99633560D01*
X114054358Y-99633560D01*
X114113180Y-100099667D01*
X114211626Y-100424204D01*
X114489674Y-100647271D01*
X115568945Y-99568000D01*
X117331055Y-99568000D01*
X118410326Y-100647271D01*
X118688374Y-100424204D01*
X118812401Y-99971066D01*
X118845642Y-99502440D01*
X118786820Y-99036333D01*
X118688374Y-98711796D01*
X118410326Y-98488729D01*
X117331055Y-99568000D01*
X115568945Y-99568000D01*
X114489674Y-98488729D01*
X114211626Y-98711796D01*
X114087599Y-99164934D01*
X114054358Y-99633560D01*
X110940000Y-99633560D01*
X110940000Y-99347872D01*
X110854110Y-98916075D01*
X110685631Y-98509331D01*
X110441038Y-98143271D01*
X110129729Y-97831962D01*
X109794058Y-97607674D01*
X115370729Y-97607674D01*
X116450000Y-98686945D01*
X117529271Y-97607674D01*
X117306204Y-97329626D01*
X116853066Y-97205599D01*
X116384440Y-97172358D01*
X115918333Y-97231180D01*
X115593796Y-97329626D01*
X115370729Y-97607674D01*
X109794058Y-97607674D01*
X109763669Y-97587369D01*
X109356925Y-97418890D01*
X108925128Y-97333000D01*
X108484872Y-97333000D01*
X108053075Y-97418890D01*
X107646331Y-97587369D01*
X107280271Y-97831962D01*
X106968962Y-98143271D01*
X106724369Y-98509331D01*
X106555890Y-98916075D01*
X106470000Y-99347872D01*
X82243083Y-99347872D01*
X44184749Y-89365358D01*
X43855117Y-89257490D01*
X43544138Y-89112703D01*
X43252632Y-88931881D01*
X42984754Y-88717598D01*
X42744334Y-88472919D01*
X42534786Y-88201319D01*
X42359110Y-87906687D01*
X42219805Y-87593212D01*
X42174856Y-87447229D01*
X60895000Y-87447229D01*
X60895000Y-88064771D01*
X61015476Y-88670446D01*
X61251799Y-89240979D01*
X61594886Y-89754446D01*
X62031554Y-90191114D01*
X62545021Y-90534201D01*
X63115554Y-90770524D01*
X63721229Y-90891000D01*
X64338771Y-90891000D01*
X64944446Y-90770524D01*
X65514979Y-90534201D01*
X66028446Y-90191114D01*
X66465114Y-89754446D01*
X66808201Y-89240979D01*
X67044524Y-88670446D01*
X67165000Y-88064771D01*
X67165000Y-87447229D01*
X95395000Y-87447229D01*
X95395000Y-88064771D01*
X95515476Y-88670446D01*
X95751799Y-89240979D01*
X96094886Y-89754446D01*
X96531554Y-90191114D01*
X97045021Y-90534201D01*
X97615554Y-90770524D01*
X98221229Y-90891000D01*
X98838771Y-90891000D01*
X99444446Y-90770524D01*
X100014979Y-90534201D01*
X100528446Y-90191114D01*
X100965114Y-89754446D01*
X101308201Y-89240979D01*
X101544524Y-88670446D01*
X101665000Y-88064771D01*
X101665000Y-87447229D01*
X101544524Y-86841554D01*
X101308201Y-86271021D01*
X100965114Y-85757554D01*
X100528446Y-85320886D01*
X100014979Y-84977799D01*
X99444446Y-84741476D01*
X98838771Y-84621000D01*
X98221229Y-84621000D01*
X97615554Y-84741476D01*
X97045021Y-84977799D01*
X96531554Y-85320886D01*
X96094886Y-85757554D01*
X95751799Y-86271021D01*
X95515476Y-86841554D01*
X95395000Y-87447229D01*
X67165000Y-87447229D01*
X67044524Y-86841554D01*
X66808201Y-86271021D01*
X66465114Y-85757554D01*
X66028446Y-85320886D01*
X65514979Y-84977799D01*
X64944446Y-84741476D01*
X64338771Y-84621000D01*
X63721229Y-84621000D01*
X63115554Y-84741476D01*
X62545021Y-84977799D01*
X62031554Y-85320886D01*
X61594886Y-85757554D01*
X61251799Y-86271021D01*
X61015476Y-86841554D01*
X60895000Y-87447229D01*
X42174856Y-87447229D01*
X42118859Y-87265371D01*
X42057707Y-86927822D01*
X42037000Y-86581616D01*
X42037000Y-77442000D01*
X42061928Y-77442000D01*
X42074188Y-77566482D01*
X42110498Y-77686180D01*
X42169463Y-77796494D01*
X42248815Y-77893185D01*
X42345506Y-77972537D01*
X42455820Y-78031502D01*
X42575518Y-78067812D01*
X42700000Y-78080072D01*
X43668250Y-78077000D01*
X43827000Y-77918250D01*
X43827000Y-76315000D01*
X45073000Y-76315000D01*
X45073000Y-77918250D01*
X45231750Y-78077000D01*
X46200000Y-78080072D01*
X46324482Y-78067812D01*
X46444180Y-78031502D01*
X46554494Y-77972537D01*
X46651185Y-77893185D01*
X46730537Y-77796494D01*
X46789502Y-77686180D01*
X46825812Y-77566482D01*
X46838072Y-77442000D01*
X46835000Y-76473750D01*
X46676250Y-76315000D01*
X45073000Y-76315000D01*
X43827000Y-76315000D01*
X42223750Y-76315000D01*
X42065000Y-76473750D01*
X42061928Y-77442000D01*
X42037000Y-77442000D01*
X42037000Y-75471872D01*
X50860000Y-75471872D01*
X50860000Y-75912128D01*
X50945890Y-76343925D01*
X51114369Y-76750669D01*
X51358962Y-77116729D01*
X51670271Y-77428038D01*
X52036331Y-77672631D01*
X52443075Y-77841110D01*
X52874872Y-77927000D01*
X53315128Y-77927000D01*
X53746925Y-77841110D01*
X54153669Y-77672631D01*
X54519729Y-77428038D01*
X54831038Y-77116729D01*
X55075631Y-76750669D01*
X55244110Y-76343925D01*
X55330000Y-75912128D01*
X55330000Y-75471872D01*
X55244110Y-75040075D01*
X55075631Y-74633331D01*
X54831038Y-74267271D01*
X54519729Y-73955962D01*
X54153669Y-73711369D01*
X53746925Y-73542890D01*
X53315128Y-73457000D01*
X52874872Y-73457000D01*
X52443075Y-73542890D01*
X52036331Y-73711369D01*
X51670271Y-73955962D01*
X51358962Y-74267271D01*
X51114369Y-74633331D01*
X50945890Y-75040075D01*
X50860000Y-75471872D01*
X42037000Y-75471872D01*
X42037000Y-73942000D01*
X42061928Y-73942000D01*
X42065000Y-74910250D01*
X42223750Y-75069000D01*
X43827000Y-75069000D01*
X43827000Y-73465750D01*
X45073000Y-73465750D01*
X45073000Y-75069000D01*
X46676250Y-75069000D01*
X46835000Y-74910250D01*
X46838072Y-73942000D01*
X46825812Y-73817518D01*
X46789502Y-73697820D01*
X46730537Y-73587506D01*
X46651185Y-73490815D01*
X46554494Y-73411463D01*
X46444180Y-73352498D01*
X46324482Y-73316188D01*
X46200000Y-73303928D01*
X45231750Y-73307000D01*
X45073000Y-73465750D01*
X43827000Y-73465750D01*
X43668250Y-73307000D01*
X42700000Y-73303928D01*
X42575518Y-73316188D01*
X42455820Y-73352498D01*
X42345506Y-73411463D01*
X42248815Y-73490815D01*
X42169463Y-73587506D01*
X42110498Y-73697820D01*
X42074188Y-73817518D01*
X42061928Y-73942000D01*
X42037000Y-73942000D01*
X42037000Y-69931994D01*
X42055923Y-69600986D01*
X42111823Y-69277876D01*
X42204184Y-68963226D01*
X42331793Y-68661170D01*
X42493002Y-68375607D01*
X42685694Y-68110290D01*
X42907367Y-67868659D01*
X43155144Y-67653852D01*
X43425768Y-67468693D01*
X43715749Y-67315571D01*
X44021281Y-67196497D01*
X44338383Y-67113017D01*
X44662941Y-67066218D01*
X44990728Y-67056708D01*
X45317447Y-67084615D01*
G37*
%TD.AperFunction*%
%TD*%
D19*
%TO.N,BAT_BAL4*%
X45317447Y-91214615D02*
X45642411Y-91280290D01*
X117105251Y-110024642D01*
X117434883Y-110132510D01*
X117745862Y-110277297D01*
X118037368Y-110458119D01*
X118305246Y-110672402D01*
X118545666Y-110917081D01*
X118755214Y-111188681D01*
X118930890Y-111483313D01*
X119070195Y-111796788D01*
X119171141Y-112124629D01*
X119232293Y-112462178D01*
X119253000Y-112808384D01*
X119253000Y-125648006D01*
X119234077Y-125979014D01*
X119178177Y-126302124D01*
X119085816Y-126616774D01*
X118958207Y-126918830D01*
X118796998Y-127204393D01*
X118604306Y-127469710D01*
X118382633Y-127711341D01*
X118134856Y-127926148D01*
X117864232Y-128111307D01*
X117574251Y-128264429D01*
X117268719Y-128383503D01*
X116951617Y-128466983D01*
X116627059Y-128513782D01*
X116299272Y-128523292D01*
X115972553Y-128495385D01*
X115647589Y-128429710D01*
X82243083Y-119667872D01*
X106470000Y-119667872D01*
X106470000Y-120108128D01*
X106555890Y-120539925D01*
X106724369Y-120946669D01*
X106968962Y-121312729D01*
X107280271Y-121624038D01*
X107646331Y-121868631D01*
X108053075Y-122037110D01*
X108484872Y-122123000D01*
X108925128Y-122123000D01*
X109356925Y-122037110D01*
X109763669Y-121868631D01*
X109794057Y-121848326D01*
X115370729Y-121848326D01*
X115593796Y-122126374D01*
X116046934Y-122250401D01*
X116515560Y-122283642D01*
X116981667Y-122224820D01*
X117306204Y-122126374D01*
X117529271Y-121848326D01*
X116450000Y-120769055D01*
X115370729Y-121848326D01*
X109794057Y-121848326D01*
X110129729Y-121624038D01*
X110441038Y-121312729D01*
X110685631Y-120946669D01*
X110854110Y-120539925D01*
X110940000Y-120108128D01*
X110940000Y-119953560D01*
X114054358Y-119953560D01*
X114113180Y-120419667D01*
X114211626Y-120744204D01*
X114489674Y-120967271D01*
X115568945Y-119888000D01*
X117331055Y-119888000D01*
X118410326Y-120967271D01*
X118688374Y-120744204D01*
X118812401Y-120291066D01*
X118845642Y-119822440D01*
X118786820Y-119356333D01*
X118688374Y-119031796D01*
X118410326Y-118808729D01*
X117331055Y-119888000D01*
X115568945Y-119888000D01*
X114489674Y-118808729D01*
X114211626Y-119031796D01*
X114087599Y-119484934D01*
X114054358Y-119953560D01*
X110940000Y-119953560D01*
X110940000Y-119667872D01*
X110854110Y-119236075D01*
X110685631Y-118829331D01*
X110441038Y-118463271D01*
X110129729Y-118151962D01*
X109794058Y-117927674D01*
X115370729Y-117927674D01*
X116450000Y-119006945D01*
X117529271Y-117927674D01*
X117306204Y-117649626D01*
X116853066Y-117525599D01*
X116384440Y-117492358D01*
X115918333Y-117551180D01*
X115593796Y-117649626D01*
X115370729Y-117927674D01*
X109794058Y-117927674D01*
X109763669Y-117907369D01*
X109356925Y-117738890D01*
X108925128Y-117653000D01*
X108484872Y-117653000D01*
X108053075Y-117738890D01*
X107646331Y-117907369D01*
X107280271Y-118151962D01*
X106968962Y-118463271D01*
X106724369Y-118829331D01*
X106555890Y-119236075D01*
X106470000Y-119667872D01*
X82243083Y-119667872D01*
X44184749Y-109685358D01*
X43855117Y-109577490D01*
X43544138Y-109432703D01*
X43252632Y-109251881D01*
X42984754Y-109037598D01*
X42744334Y-108792919D01*
X42534786Y-108521319D01*
X42359110Y-108226687D01*
X42219805Y-107913212D01*
X42118859Y-107585371D01*
X42057707Y-107247822D01*
X42037000Y-106901616D01*
X42037000Y-101318000D01*
X42061928Y-101318000D01*
X42074188Y-101442482D01*
X42110498Y-101562180D01*
X42169463Y-101672494D01*
X42248815Y-101769185D01*
X42345506Y-101848537D01*
X42455820Y-101907502D01*
X42575518Y-101943812D01*
X42700000Y-101956072D01*
X43668250Y-101953000D01*
X43827000Y-101794250D01*
X43827000Y-100191000D01*
X45073000Y-100191000D01*
X45073000Y-101794250D01*
X45231750Y-101953000D01*
X46200000Y-101956072D01*
X46324482Y-101943812D01*
X46444180Y-101907502D01*
X46554494Y-101848537D01*
X46651185Y-101769185D01*
X46730537Y-101672494D01*
X46789502Y-101562180D01*
X46825812Y-101442482D01*
X46838072Y-101318000D01*
X46835000Y-100349750D01*
X46676250Y-100191000D01*
X45073000Y-100191000D01*
X43827000Y-100191000D01*
X42223750Y-100191000D01*
X42065000Y-100349750D01*
X42061928Y-101318000D01*
X42037000Y-101318000D01*
X42037000Y-99347872D01*
X50860000Y-99347872D01*
X50860000Y-99788128D01*
X50945890Y-100219925D01*
X51114369Y-100626669D01*
X51358962Y-100992729D01*
X51670271Y-101304038D01*
X52036331Y-101548631D01*
X52443075Y-101717110D01*
X52874872Y-101803000D01*
X53315128Y-101803000D01*
X53746925Y-101717110D01*
X54153669Y-101548631D01*
X54519729Y-101304038D01*
X54831038Y-100992729D01*
X55075631Y-100626669D01*
X55244110Y-100219925D01*
X55330000Y-99788128D01*
X55330000Y-99347872D01*
X55244110Y-98916075D01*
X55075631Y-98509331D01*
X54831038Y-98143271D01*
X54519729Y-97831962D01*
X54153669Y-97587369D01*
X53746925Y-97418890D01*
X53315128Y-97333000D01*
X52874872Y-97333000D01*
X52443075Y-97418890D01*
X52036331Y-97587369D01*
X51670271Y-97831962D01*
X51358962Y-98143271D01*
X51114369Y-98509331D01*
X50945890Y-98916075D01*
X50860000Y-99347872D01*
X42037000Y-99347872D01*
X42037000Y-97818000D01*
X42061928Y-97818000D01*
X42065000Y-98786250D01*
X42223750Y-98945000D01*
X43827000Y-98945000D01*
X43827000Y-97341750D01*
X45073000Y-97341750D01*
X45073000Y-98945000D01*
X46676250Y-98945000D01*
X46835000Y-98786250D01*
X46838072Y-97818000D01*
X46825812Y-97693518D01*
X46789502Y-97573820D01*
X46730537Y-97463506D01*
X46651185Y-97366815D01*
X46554494Y-97287463D01*
X46444180Y-97228498D01*
X46324482Y-97192188D01*
X46200000Y-97179928D01*
X45231750Y-97183000D01*
X45073000Y-97341750D01*
X43827000Y-97341750D01*
X43668250Y-97183000D01*
X42700000Y-97179928D01*
X42575518Y-97192188D01*
X42455820Y-97228498D01*
X42345506Y-97287463D01*
X42248815Y-97366815D01*
X42169463Y-97463506D01*
X42110498Y-97573820D01*
X42074188Y-97693518D01*
X42061928Y-97818000D01*
X42037000Y-97818000D01*
X42037000Y-94061994D01*
X42055923Y-93730986D01*
X42111823Y-93407876D01*
X42204184Y-93093226D01*
X42331793Y-92791170D01*
X42493002Y-92505607D01*
X42685694Y-92240290D01*
X42907367Y-91998659D01*
X43155144Y-91783852D01*
X43425768Y-91598693D01*
X43715749Y-91445571D01*
X44021281Y-91326497D01*
X44338383Y-91243017D01*
X44662941Y-91196218D01*
X44990728Y-91186708D01*
X45317447Y-91214615D01*
%TA.AperFunction,Conductor*%
D20*
G36*
X45317447Y-91214615D02*
G01*
X45642411Y-91280290D01*
X117105251Y-110024642D01*
X117434883Y-110132510D01*
X117745862Y-110277297D01*
X118037368Y-110458119D01*
X118305246Y-110672402D01*
X118545666Y-110917081D01*
X118755214Y-111188681D01*
X118930890Y-111483313D01*
X119070195Y-111796788D01*
X119171141Y-112124629D01*
X119232293Y-112462178D01*
X119253000Y-112808384D01*
X119253000Y-125648006D01*
X119234077Y-125979014D01*
X119178177Y-126302124D01*
X119085816Y-126616774D01*
X118958207Y-126918830D01*
X118796998Y-127204393D01*
X118604306Y-127469710D01*
X118382633Y-127711341D01*
X118134856Y-127926148D01*
X117864232Y-128111307D01*
X117574251Y-128264429D01*
X117268719Y-128383503D01*
X116951617Y-128466983D01*
X116627059Y-128513782D01*
X116299272Y-128523292D01*
X115972553Y-128495385D01*
X115647589Y-128429710D01*
X82243083Y-119667872D01*
X106470000Y-119667872D01*
X106470000Y-120108128D01*
X106555890Y-120539925D01*
X106724369Y-120946669D01*
X106968962Y-121312729D01*
X107280271Y-121624038D01*
X107646331Y-121868631D01*
X108053075Y-122037110D01*
X108484872Y-122123000D01*
X108925128Y-122123000D01*
X109356925Y-122037110D01*
X109763669Y-121868631D01*
X109794057Y-121848326D01*
X115370729Y-121848326D01*
X115593796Y-122126374D01*
X116046934Y-122250401D01*
X116515560Y-122283642D01*
X116981667Y-122224820D01*
X117306204Y-122126374D01*
X117529271Y-121848326D01*
X116450000Y-120769055D01*
X115370729Y-121848326D01*
X109794057Y-121848326D01*
X110129729Y-121624038D01*
X110441038Y-121312729D01*
X110685631Y-120946669D01*
X110854110Y-120539925D01*
X110940000Y-120108128D01*
X110940000Y-119953560D01*
X114054358Y-119953560D01*
X114113180Y-120419667D01*
X114211626Y-120744204D01*
X114489674Y-120967271D01*
X115568945Y-119888000D01*
X117331055Y-119888000D01*
X118410326Y-120967271D01*
X118688374Y-120744204D01*
X118812401Y-120291066D01*
X118845642Y-119822440D01*
X118786820Y-119356333D01*
X118688374Y-119031796D01*
X118410326Y-118808729D01*
X117331055Y-119888000D01*
X115568945Y-119888000D01*
X114489674Y-118808729D01*
X114211626Y-119031796D01*
X114087599Y-119484934D01*
X114054358Y-119953560D01*
X110940000Y-119953560D01*
X110940000Y-119667872D01*
X110854110Y-119236075D01*
X110685631Y-118829331D01*
X110441038Y-118463271D01*
X110129729Y-118151962D01*
X109794058Y-117927674D01*
X115370729Y-117927674D01*
X116450000Y-119006945D01*
X117529271Y-117927674D01*
X117306204Y-117649626D01*
X116853066Y-117525599D01*
X116384440Y-117492358D01*
X115918333Y-117551180D01*
X115593796Y-117649626D01*
X115370729Y-117927674D01*
X109794058Y-117927674D01*
X109763669Y-117907369D01*
X109356925Y-117738890D01*
X108925128Y-117653000D01*
X108484872Y-117653000D01*
X108053075Y-117738890D01*
X107646331Y-117907369D01*
X107280271Y-118151962D01*
X106968962Y-118463271D01*
X106724369Y-118829331D01*
X106555890Y-119236075D01*
X106470000Y-119667872D01*
X82243083Y-119667872D01*
X44184749Y-109685358D01*
X43855117Y-109577490D01*
X43544138Y-109432703D01*
X43252632Y-109251881D01*
X42984754Y-109037598D01*
X42744334Y-108792919D01*
X42534786Y-108521319D01*
X42359110Y-108226687D01*
X42219805Y-107913212D01*
X42118859Y-107585371D01*
X42057707Y-107247822D01*
X42037000Y-106901616D01*
X42037000Y-101318000D01*
X42061928Y-101318000D01*
X42074188Y-101442482D01*
X42110498Y-101562180D01*
X42169463Y-101672494D01*
X42248815Y-101769185D01*
X42345506Y-101848537D01*
X42455820Y-101907502D01*
X42575518Y-101943812D01*
X42700000Y-101956072D01*
X43668250Y-101953000D01*
X43827000Y-101794250D01*
X43827000Y-100191000D01*
X45073000Y-100191000D01*
X45073000Y-101794250D01*
X45231750Y-101953000D01*
X46200000Y-101956072D01*
X46324482Y-101943812D01*
X46444180Y-101907502D01*
X46554494Y-101848537D01*
X46651185Y-101769185D01*
X46730537Y-101672494D01*
X46789502Y-101562180D01*
X46825812Y-101442482D01*
X46838072Y-101318000D01*
X46835000Y-100349750D01*
X46676250Y-100191000D01*
X45073000Y-100191000D01*
X43827000Y-100191000D01*
X42223750Y-100191000D01*
X42065000Y-100349750D01*
X42061928Y-101318000D01*
X42037000Y-101318000D01*
X42037000Y-99347872D01*
X50860000Y-99347872D01*
X50860000Y-99788128D01*
X50945890Y-100219925D01*
X51114369Y-100626669D01*
X51358962Y-100992729D01*
X51670271Y-101304038D01*
X52036331Y-101548631D01*
X52443075Y-101717110D01*
X52874872Y-101803000D01*
X53315128Y-101803000D01*
X53746925Y-101717110D01*
X54153669Y-101548631D01*
X54519729Y-101304038D01*
X54831038Y-100992729D01*
X55075631Y-100626669D01*
X55244110Y-100219925D01*
X55330000Y-99788128D01*
X55330000Y-99347872D01*
X55244110Y-98916075D01*
X55075631Y-98509331D01*
X54831038Y-98143271D01*
X54519729Y-97831962D01*
X54153669Y-97587369D01*
X53746925Y-97418890D01*
X53315128Y-97333000D01*
X52874872Y-97333000D01*
X52443075Y-97418890D01*
X52036331Y-97587369D01*
X51670271Y-97831962D01*
X51358962Y-98143271D01*
X51114369Y-98509331D01*
X50945890Y-98916075D01*
X50860000Y-99347872D01*
X42037000Y-99347872D01*
X42037000Y-97818000D01*
X42061928Y-97818000D01*
X42065000Y-98786250D01*
X42223750Y-98945000D01*
X43827000Y-98945000D01*
X43827000Y-97341750D01*
X45073000Y-97341750D01*
X45073000Y-98945000D01*
X46676250Y-98945000D01*
X46835000Y-98786250D01*
X46838072Y-97818000D01*
X46825812Y-97693518D01*
X46789502Y-97573820D01*
X46730537Y-97463506D01*
X46651185Y-97366815D01*
X46554494Y-97287463D01*
X46444180Y-97228498D01*
X46324482Y-97192188D01*
X46200000Y-97179928D01*
X45231750Y-97183000D01*
X45073000Y-97341750D01*
X43827000Y-97341750D01*
X43668250Y-97183000D01*
X42700000Y-97179928D01*
X42575518Y-97192188D01*
X42455820Y-97228498D01*
X42345506Y-97287463D01*
X42248815Y-97366815D01*
X42169463Y-97463506D01*
X42110498Y-97573820D01*
X42074188Y-97693518D01*
X42061928Y-97818000D01*
X42037000Y-97818000D01*
X42037000Y-94061994D01*
X42055923Y-93730986D01*
X42111823Y-93407876D01*
X42204184Y-93093226D01*
X42331793Y-92791170D01*
X42493002Y-92505607D01*
X42685694Y-92240290D01*
X42907367Y-91998659D01*
X43155144Y-91783852D01*
X43425768Y-91598693D01*
X43715749Y-91445571D01*
X44021281Y-91326497D01*
X44338383Y-91243017D01*
X44662941Y-91196218D01*
X44990728Y-91186708D01*
X45317447Y-91214615D01*
G37*
%TD.AperFunction*%
%TD*%
D19*
%TO.N,BAT_BAL5*%
X45317447Y-111534615D02*
X45642411Y-111600290D01*
X117105251Y-130344642D01*
X117434883Y-130452510D01*
X117745862Y-130597297D01*
X118037368Y-130778119D01*
X118305246Y-130992402D01*
X118545666Y-131237081D01*
X118755214Y-131508681D01*
X118930890Y-131803313D01*
X119070195Y-132116788D01*
X119171141Y-132444629D01*
X119232293Y-132782178D01*
X119253000Y-133128384D01*
X119253000Y-145968006D01*
X119234077Y-146299014D01*
X119178177Y-146622124D01*
X119085816Y-146936774D01*
X118958207Y-147238830D01*
X118796998Y-147524393D01*
X118604306Y-147789710D01*
X118382633Y-148031341D01*
X118134856Y-148246148D01*
X117864232Y-148431307D01*
X117574251Y-148584429D01*
X117268719Y-148703503D01*
X116951617Y-148786983D01*
X116627059Y-148833782D01*
X116299272Y-148843292D01*
X115972553Y-148815385D01*
X115647589Y-148749710D01*
X99844764Y-144604707D01*
X100014979Y-144534201D01*
X100528446Y-144191114D01*
X100965114Y-143754446D01*
X101308201Y-143240979D01*
X101544524Y-142670446D01*
X101665000Y-142064771D01*
X101665000Y-141447229D01*
X101544524Y-140841554D01*
X101308201Y-140271021D01*
X101119008Y-139987872D01*
X106470000Y-139987872D01*
X106470000Y-140428128D01*
X106555890Y-140859925D01*
X106724369Y-141266669D01*
X106968962Y-141632729D01*
X107280271Y-141944038D01*
X107646331Y-142188631D01*
X108053075Y-142357110D01*
X108484872Y-142443000D01*
X108925128Y-142443000D01*
X109356925Y-142357110D01*
X109763669Y-142188631D01*
X109794057Y-142168326D01*
X115370729Y-142168326D01*
X115593796Y-142446374D01*
X116046934Y-142570401D01*
X116515560Y-142603642D01*
X116981667Y-142544820D01*
X117306204Y-142446374D01*
X117529271Y-142168326D01*
X116450000Y-141089055D01*
X115370729Y-142168326D01*
X109794057Y-142168326D01*
X110129729Y-141944038D01*
X110441038Y-141632729D01*
X110685631Y-141266669D01*
X110854110Y-140859925D01*
X110940000Y-140428128D01*
X110940000Y-140273560D01*
X114054358Y-140273560D01*
X114113180Y-140739667D01*
X114211626Y-141064204D01*
X114489674Y-141287271D01*
X115568945Y-140208000D01*
X117331055Y-140208000D01*
X118410326Y-141287271D01*
X118688374Y-141064204D01*
X118812401Y-140611066D01*
X118845642Y-140142440D01*
X118786820Y-139676333D01*
X118688374Y-139351796D01*
X118410326Y-139128729D01*
X117331055Y-140208000D01*
X115568945Y-140208000D01*
X114489674Y-139128729D01*
X114211626Y-139351796D01*
X114087599Y-139804934D01*
X114054358Y-140273560D01*
X110940000Y-140273560D01*
X110940000Y-139987872D01*
X110854110Y-139556075D01*
X110685631Y-139149331D01*
X110441038Y-138783271D01*
X110129729Y-138471962D01*
X109794058Y-138247674D01*
X115370729Y-138247674D01*
X116450000Y-139326945D01*
X117529271Y-138247674D01*
X117306204Y-137969626D01*
X116853066Y-137845599D01*
X116384440Y-137812358D01*
X115918333Y-137871180D01*
X115593796Y-137969626D01*
X115370729Y-138247674D01*
X109794058Y-138247674D01*
X109763669Y-138227369D01*
X109356925Y-138058890D01*
X108925128Y-137973000D01*
X108484872Y-137973000D01*
X108053075Y-138058890D01*
X107646331Y-138227369D01*
X107280271Y-138471962D01*
X106968962Y-138783271D01*
X106724369Y-139149331D01*
X106555890Y-139556075D01*
X106470000Y-139987872D01*
X101119008Y-139987872D01*
X100965114Y-139757554D01*
X100528446Y-139320886D01*
X100014979Y-138977799D01*
X99444446Y-138741476D01*
X98838771Y-138621000D01*
X98221229Y-138621000D01*
X97615554Y-138741476D01*
X97045021Y-138977799D01*
X96531554Y-139320886D01*
X96094886Y-139757554D01*
X95751799Y-140271021D01*
X95515476Y-140841554D01*
X95395000Y-141447229D01*
X95395000Y-142064771D01*
X95515476Y-142670446D01*
X95751799Y-143240979D01*
X95986879Y-143592802D01*
X44184749Y-130005358D01*
X43855117Y-129897490D01*
X43544138Y-129752703D01*
X43252632Y-129571881D01*
X42984754Y-129357598D01*
X42744334Y-129112919D01*
X42534786Y-128841319D01*
X42359110Y-128546687D01*
X42219805Y-128233212D01*
X42118859Y-127905371D01*
X42057707Y-127567822D01*
X42037000Y-127221616D01*
X42037000Y-121638000D01*
X42061928Y-121638000D01*
X42074188Y-121762482D01*
X42110498Y-121882180D01*
X42169463Y-121992494D01*
X42248815Y-122089185D01*
X42345506Y-122168537D01*
X42455820Y-122227502D01*
X42575518Y-122263812D01*
X42700000Y-122276072D01*
X43668250Y-122273000D01*
X43827000Y-122114250D01*
X43827000Y-120511000D01*
X45073000Y-120511000D01*
X45073000Y-122114250D01*
X45231750Y-122273000D01*
X46200000Y-122276072D01*
X46324482Y-122263812D01*
X46444180Y-122227502D01*
X46554494Y-122168537D01*
X46651185Y-122089185D01*
X46730537Y-121992494D01*
X46789502Y-121882180D01*
X46825812Y-121762482D01*
X46838072Y-121638000D01*
X46835000Y-120669750D01*
X46676250Y-120511000D01*
X45073000Y-120511000D01*
X43827000Y-120511000D01*
X42223750Y-120511000D01*
X42065000Y-120669750D01*
X42061928Y-121638000D01*
X42037000Y-121638000D01*
X42037000Y-119667872D01*
X50860000Y-119667872D01*
X50860000Y-120108128D01*
X50945890Y-120539925D01*
X51114369Y-120946669D01*
X51358962Y-121312729D01*
X51670271Y-121624038D01*
X52036331Y-121868631D01*
X52443075Y-122037110D01*
X52874872Y-122123000D01*
X53315128Y-122123000D01*
X53746925Y-122037110D01*
X54153669Y-121868631D01*
X54519729Y-121624038D01*
X54831038Y-121312729D01*
X55075631Y-120946669D01*
X55244110Y-120539925D01*
X55330000Y-120108128D01*
X55330000Y-119667872D01*
X55244110Y-119236075D01*
X55075631Y-118829331D01*
X54831038Y-118463271D01*
X54519729Y-118151962D01*
X54153669Y-117907369D01*
X53746925Y-117738890D01*
X53315128Y-117653000D01*
X52874872Y-117653000D01*
X52443075Y-117738890D01*
X52036331Y-117907369D01*
X51670271Y-118151962D01*
X51358962Y-118463271D01*
X51114369Y-118829331D01*
X50945890Y-119236075D01*
X50860000Y-119667872D01*
X42037000Y-119667872D01*
X42037000Y-118138000D01*
X42061928Y-118138000D01*
X42065000Y-119106250D01*
X42223750Y-119265000D01*
X43827000Y-119265000D01*
X43827000Y-117661750D01*
X45073000Y-117661750D01*
X45073000Y-119265000D01*
X46676250Y-119265000D01*
X46835000Y-119106250D01*
X46838072Y-118138000D01*
X46825812Y-118013518D01*
X46789502Y-117893820D01*
X46730537Y-117783506D01*
X46651185Y-117686815D01*
X46554494Y-117607463D01*
X46444180Y-117548498D01*
X46324482Y-117512188D01*
X46200000Y-117499928D01*
X45231750Y-117503000D01*
X45073000Y-117661750D01*
X43827000Y-117661750D01*
X43668250Y-117503000D01*
X42700000Y-117499928D01*
X42575518Y-117512188D01*
X42455820Y-117548498D01*
X42345506Y-117607463D01*
X42248815Y-117686815D01*
X42169463Y-117783506D01*
X42110498Y-117893820D01*
X42074188Y-118013518D01*
X42061928Y-118138000D01*
X42037000Y-118138000D01*
X42037000Y-114381994D01*
X42055923Y-114050986D01*
X42111823Y-113727876D01*
X42204184Y-113413226D01*
X42331793Y-113111170D01*
X42493002Y-112825607D01*
X42685694Y-112560290D01*
X42907367Y-112318659D01*
X43155144Y-112103852D01*
X43425768Y-111918693D01*
X43715749Y-111765571D01*
X44021281Y-111646497D01*
X44338383Y-111563017D01*
X44662941Y-111516218D01*
X44990728Y-111506708D01*
X45317447Y-111534615D01*
%TA.AperFunction,Conductor*%
D20*
G36*
X45317447Y-111534615D02*
G01*
X45642411Y-111600290D01*
X117105251Y-130344642D01*
X117434883Y-130452510D01*
X117745862Y-130597297D01*
X118037368Y-130778119D01*
X118305246Y-130992402D01*
X118545666Y-131237081D01*
X118755214Y-131508681D01*
X118930890Y-131803313D01*
X119070195Y-132116788D01*
X119171141Y-132444629D01*
X119232293Y-132782178D01*
X119253000Y-133128384D01*
X119253000Y-145968006D01*
X119234077Y-146299014D01*
X119178177Y-146622124D01*
X119085816Y-146936774D01*
X118958207Y-147238830D01*
X118796998Y-147524393D01*
X118604306Y-147789710D01*
X118382633Y-148031341D01*
X118134856Y-148246148D01*
X117864232Y-148431307D01*
X117574251Y-148584429D01*
X117268719Y-148703503D01*
X116951617Y-148786983D01*
X116627059Y-148833782D01*
X116299272Y-148843292D01*
X115972553Y-148815385D01*
X115647589Y-148749710D01*
X99844764Y-144604707D01*
X100014979Y-144534201D01*
X100528446Y-144191114D01*
X100965114Y-143754446D01*
X101308201Y-143240979D01*
X101544524Y-142670446D01*
X101665000Y-142064771D01*
X101665000Y-141447229D01*
X101544524Y-140841554D01*
X101308201Y-140271021D01*
X101119008Y-139987872D01*
X106470000Y-139987872D01*
X106470000Y-140428128D01*
X106555890Y-140859925D01*
X106724369Y-141266669D01*
X106968962Y-141632729D01*
X107280271Y-141944038D01*
X107646331Y-142188631D01*
X108053075Y-142357110D01*
X108484872Y-142443000D01*
X108925128Y-142443000D01*
X109356925Y-142357110D01*
X109763669Y-142188631D01*
X109794057Y-142168326D01*
X115370729Y-142168326D01*
X115593796Y-142446374D01*
X116046934Y-142570401D01*
X116515560Y-142603642D01*
X116981667Y-142544820D01*
X117306204Y-142446374D01*
X117529271Y-142168326D01*
X116450000Y-141089055D01*
X115370729Y-142168326D01*
X109794057Y-142168326D01*
X110129729Y-141944038D01*
X110441038Y-141632729D01*
X110685631Y-141266669D01*
X110854110Y-140859925D01*
X110940000Y-140428128D01*
X110940000Y-140273560D01*
X114054358Y-140273560D01*
X114113180Y-140739667D01*
X114211626Y-141064204D01*
X114489674Y-141287271D01*
X115568945Y-140208000D01*
X117331055Y-140208000D01*
X118410326Y-141287271D01*
X118688374Y-141064204D01*
X118812401Y-140611066D01*
X118845642Y-140142440D01*
X118786820Y-139676333D01*
X118688374Y-139351796D01*
X118410326Y-139128729D01*
X117331055Y-140208000D01*
X115568945Y-140208000D01*
X114489674Y-139128729D01*
X114211626Y-139351796D01*
X114087599Y-139804934D01*
X114054358Y-140273560D01*
X110940000Y-140273560D01*
X110940000Y-139987872D01*
X110854110Y-139556075D01*
X110685631Y-139149331D01*
X110441038Y-138783271D01*
X110129729Y-138471962D01*
X109794058Y-138247674D01*
X115370729Y-138247674D01*
X116450000Y-139326945D01*
X117529271Y-138247674D01*
X117306204Y-137969626D01*
X116853066Y-137845599D01*
X116384440Y-137812358D01*
X115918333Y-137871180D01*
X115593796Y-137969626D01*
X115370729Y-138247674D01*
X109794058Y-138247674D01*
X109763669Y-138227369D01*
X109356925Y-138058890D01*
X108925128Y-137973000D01*
X108484872Y-137973000D01*
X108053075Y-138058890D01*
X107646331Y-138227369D01*
X107280271Y-138471962D01*
X106968962Y-138783271D01*
X106724369Y-139149331D01*
X106555890Y-139556075D01*
X106470000Y-139987872D01*
X101119008Y-139987872D01*
X100965114Y-139757554D01*
X100528446Y-139320886D01*
X100014979Y-138977799D01*
X99444446Y-138741476D01*
X98838771Y-138621000D01*
X98221229Y-138621000D01*
X97615554Y-138741476D01*
X97045021Y-138977799D01*
X96531554Y-139320886D01*
X96094886Y-139757554D01*
X95751799Y-140271021D01*
X95515476Y-140841554D01*
X95395000Y-141447229D01*
X95395000Y-142064771D01*
X95515476Y-142670446D01*
X95751799Y-143240979D01*
X95986879Y-143592802D01*
X44184749Y-130005358D01*
X43855117Y-129897490D01*
X43544138Y-129752703D01*
X43252632Y-129571881D01*
X42984754Y-129357598D01*
X42744334Y-129112919D01*
X42534786Y-128841319D01*
X42359110Y-128546687D01*
X42219805Y-128233212D01*
X42118859Y-127905371D01*
X42057707Y-127567822D01*
X42037000Y-127221616D01*
X42037000Y-121638000D01*
X42061928Y-121638000D01*
X42074188Y-121762482D01*
X42110498Y-121882180D01*
X42169463Y-121992494D01*
X42248815Y-122089185D01*
X42345506Y-122168537D01*
X42455820Y-122227502D01*
X42575518Y-122263812D01*
X42700000Y-122276072D01*
X43668250Y-122273000D01*
X43827000Y-122114250D01*
X43827000Y-120511000D01*
X45073000Y-120511000D01*
X45073000Y-122114250D01*
X45231750Y-122273000D01*
X46200000Y-122276072D01*
X46324482Y-122263812D01*
X46444180Y-122227502D01*
X46554494Y-122168537D01*
X46651185Y-122089185D01*
X46730537Y-121992494D01*
X46789502Y-121882180D01*
X46825812Y-121762482D01*
X46838072Y-121638000D01*
X46835000Y-120669750D01*
X46676250Y-120511000D01*
X45073000Y-120511000D01*
X43827000Y-120511000D01*
X42223750Y-120511000D01*
X42065000Y-120669750D01*
X42061928Y-121638000D01*
X42037000Y-121638000D01*
X42037000Y-119667872D01*
X50860000Y-119667872D01*
X50860000Y-120108128D01*
X50945890Y-120539925D01*
X51114369Y-120946669D01*
X51358962Y-121312729D01*
X51670271Y-121624038D01*
X52036331Y-121868631D01*
X52443075Y-122037110D01*
X52874872Y-122123000D01*
X53315128Y-122123000D01*
X53746925Y-122037110D01*
X54153669Y-121868631D01*
X54519729Y-121624038D01*
X54831038Y-121312729D01*
X55075631Y-120946669D01*
X55244110Y-120539925D01*
X55330000Y-120108128D01*
X55330000Y-119667872D01*
X55244110Y-119236075D01*
X55075631Y-118829331D01*
X54831038Y-118463271D01*
X54519729Y-118151962D01*
X54153669Y-117907369D01*
X53746925Y-117738890D01*
X53315128Y-117653000D01*
X52874872Y-117653000D01*
X52443075Y-117738890D01*
X52036331Y-117907369D01*
X51670271Y-118151962D01*
X51358962Y-118463271D01*
X51114369Y-118829331D01*
X50945890Y-119236075D01*
X50860000Y-119667872D01*
X42037000Y-119667872D01*
X42037000Y-118138000D01*
X42061928Y-118138000D01*
X42065000Y-119106250D01*
X42223750Y-119265000D01*
X43827000Y-119265000D01*
X43827000Y-117661750D01*
X45073000Y-117661750D01*
X45073000Y-119265000D01*
X46676250Y-119265000D01*
X46835000Y-119106250D01*
X46838072Y-118138000D01*
X46825812Y-118013518D01*
X46789502Y-117893820D01*
X46730537Y-117783506D01*
X46651185Y-117686815D01*
X46554494Y-117607463D01*
X46444180Y-117548498D01*
X46324482Y-117512188D01*
X46200000Y-117499928D01*
X45231750Y-117503000D01*
X45073000Y-117661750D01*
X43827000Y-117661750D01*
X43668250Y-117503000D01*
X42700000Y-117499928D01*
X42575518Y-117512188D01*
X42455820Y-117548498D01*
X42345506Y-117607463D01*
X42248815Y-117686815D01*
X42169463Y-117783506D01*
X42110498Y-117893820D01*
X42074188Y-118013518D01*
X42061928Y-118138000D01*
X42037000Y-118138000D01*
X42037000Y-114381994D01*
X42055923Y-114050986D01*
X42111823Y-113727876D01*
X42204184Y-113413226D01*
X42331793Y-113111170D01*
X42493002Y-112825607D01*
X42685694Y-112560290D01*
X42907367Y-112318659D01*
X43155144Y-112103852D01*
X43425768Y-111918693D01*
X43715749Y-111765571D01*
X44021281Y-111646497D01*
X44338383Y-111563017D01*
X44662941Y-111516218D01*
X44990728Y-111506708D01*
X45317447Y-111534615D01*
G37*
%TD.AperFunction*%
%TD*%
M02*
