%TF.GenerationSoftware,KiCad,Pcbnew,5.1.10*%
%TF.CreationDate,2021-10-06T22:42:20+01:00*%
%TF.ProjectId,BatteryPack,42617474-6572-4795-9061-636b2e6b6963,rev?*%
%TF.SameCoordinates,Original*%
%TF.FileFunction,Legend,Top*%
%TF.FilePolarity,Positive*%
%FSLAX46Y46*%
G04 Gerber Fmt 4.6, Leading zero omitted, Abs format (unit mm)*
G04 Created by KiCad (PCBNEW 5.1.10) date 2021-10-06 22:42:20*
%MOMM*%
%LPD*%
G01*
G04 APERTURE LIST*
%ADD10C,0.150000*%
%ADD11C,0.120000*%
G04 APERTURE END LIST*
D10*
X90290000Y-162488571D02*
X90432857Y-162536190D01*
X90480476Y-162583809D01*
X90528095Y-162679047D01*
X90528095Y-162821904D01*
X90480476Y-162917142D01*
X90432857Y-162964761D01*
X90337619Y-163012380D01*
X89956666Y-163012380D01*
X89956666Y-162012380D01*
X90290000Y-162012380D01*
X90385238Y-162060000D01*
X90432857Y-162107619D01*
X90480476Y-162202857D01*
X90480476Y-162298095D01*
X90432857Y-162393333D01*
X90385238Y-162440952D01*
X90290000Y-162488571D01*
X89956666Y-162488571D01*
X91385238Y-163012380D02*
X91385238Y-162488571D01*
X91337619Y-162393333D01*
X91242380Y-162345714D01*
X91051904Y-162345714D01*
X90956666Y-162393333D01*
X91385238Y-162964761D02*
X91290000Y-163012380D01*
X91051904Y-163012380D01*
X90956666Y-162964761D01*
X90909047Y-162869523D01*
X90909047Y-162774285D01*
X90956666Y-162679047D01*
X91051904Y-162631428D01*
X91290000Y-162631428D01*
X91385238Y-162583809D01*
X91861428Y-163012380D02*
X91861428Y-162345714D01*
X91861428Y-162536190D02*
X91909047Y-162440952D01*
X91956666Y-162393333D01*
X92051904Y-162345714D01*
X92147142Y-162345714D01*
X92480476Y-162345714D02*
X92480476Y-163012380D01*
X92480476Y-162440952D02*
X92528095Y-162393333D01*
X92623333Y-162345714D01*
X92766190Y-162345714D01*
X92861428Y-162393333D01*
X92909047Y-162488571D01*
X92909047Y-163012380D01*
X93813809Y-163012380D02*
X93813809Y-162488571D01*
X93766190Y-162393333D01*
X93670952Y-162345714D01*
X93480476Y-162345714D01*
X93385238Y-162393333D01*
X93813809Y-162964761D02*
X93718571Y-163012380D01*
X93480476Y-163012380D01*
X93385238Y-162964761D01*
X93337619Y-162869523D01*
X93337619Y-162774285D01*
X93385238Y-162679047D01*
X93480476Y-162631428D01*
X93718571Y-162631428D01*
X93813809Y-162583809D01*
X94290000Y-163012380D02*
X94290000Y-162012380D01*
X94290000Y-162393333D02*
X94385238Y-162345714D01*
X94575714Y-162345714D01*
X94670952Y-162393333D01*
X94718571Y-162440952D01*
X94766190Y-162536190D01*
X94766190Y-162821904D01*
X94718571Y-162917142D01*
X94670952Y-162964761D01*
X94575714Y-163012380D01*
X94385238Y-163012380D01*
X94290000Y-162964761D01*
X95099523Y-162345714D02*
X95337619Y-163012380D01*
X95575714Y-162345714D02*
X95337619Y-163012380D01*
X95242380Y-163250476D01*
X95194761Y-163298095D01*
X95099523Y-163345714D01*
X96718571Y-163012380D02*
X96718571Y-162012380D01*
X97099523Y-162012380D01*
X97194761Y-162060000D01*
X97242380Y-162107619D01*
X97290000Y-162202857D01*
X97290000Y-162345714D01*
X97242380Y-162440952D01*
X97194761Y-162488571D01*
X97099523Y-162536190D01*
X96718571Y-162536190D01*
X98147142Y-163012380D02*
X98147142Y-162488571D01*
X98099523Y-162393333D01*
X98004285Y-162345714D01*
X97813809Y-162345714D01*
X97718571Y-162393333D01*
X98147142Y-162964761D02*
X98051904Y-163012380D01*
X97813809Y-163012380D01*
X97718571Y-162964761D01*
X97670952Y-162869523D01*
X97670952Y-162774285D01*
X97718571Y-162679047D01*
X97813809Y-162631428D01*
X98051904Y-162631428D01*
X98147142Y-162583809D01*
X98623333Y-163012380D02*
X98623333Y-162345714D01*
X98623333Y-162536190D02*
X98670952Y-162440952D01*
X98718571Y-162393333D01*
X98813809Y-162345714D01*
X98909047Y-162345714D01*
X99242380Y-163012380D02*
X99242380Y-162012380D01*
X99337619Y-162631428D02*
X99623333Y-163012380D01*
X99623333Y-162345714D02*
X99242380Y-162726666D01*
X100432857Y-162964761D02*
X100337619Y-163012380D01*
X100147142Y-163012380D01*
X100051904Y-162964761D01*
X100004285Y-162869523D01*
X100004285Y-162488571D01*
X100051904Y-162393333D01*
X100147142Y-162345714D01*
X100337619Y-162345714D01*
X100432857Y-162393333D01*
X100480476Y-162488571D01*
X100480476Y-162583809D01*
X100004285Y-162679047D01*
X100909047Y-163012380D02*
X100909047Y-162345714D01*
X100909047Y-162536190D02*
X100956666Y-162440952D01*
X101004285Y-162393333D01*
X101099523Y-162345714D01*
X101194761Y-162345714D01*
X102242380Y-162107619D02*
X102290000Y-162060000D01*
X102385238Y-162012380D01*
X102623333Y-162012380D01*
X102718571Y-162060000D01*
X102766190Y-162107619D01*
X102813809Y-162202857D01*
X102813809Y-162298095D01*
X102766190Y-162440952D01*
X102194761Y-163012380D01*
X102813809Y-163012380D01*
X103432857Y-162012380D02*
X103528095Y-162012380D01*
X103623333Y-162060000D01*
X103670952Y-162107619D01*
X103718571Y-162202857D01*
X103766190Y-162393333D01*
X103766190Y-162631428D01*
X103718571Y-162821904D01*
X103670952Y-162917142D01*
X103623333Y-162964761D01*
X103528095Y-163012380D01*
X103432857Y-163012380D01*
X103337619Y-162964761D01*
X103290000Y-162917142D01*
X103242380Y-162821904D01*
X103194761Y-162631428D01*
X103194761Y-162393333D01*
X103242380Y-162202857D01*
X103290000Y-162107619D01*
X103337619Y-162060000D01*
X103432857Y-162012380D01*
X104147142Y-162107619D02*
X104194761Y-162060000D01*
X104290000Y-162012380D01*
X104528095Y-162012380D01*
X104623333Y-162060000D01*
X104670952Y-162107619D01*
X104718571Y-162202857D01*
X104718571Y-162298095D01*
X104670952Y-162440952D01*
X104099523Y-163012380D01*
X104718571Y-163012380D01*
X105670952Y-163012380D02*
X105099523Y-163012380D01*
X105385238Y-163012380D02*
X105385238Y-162012380D01*
X105290000Y-162155238D01*
X105194761Y-162250476D01*
X105099523Y-162298095D01*
X94956666Y-160472380D02*
X94385238Y-160472380D01*
X94670952Y-160472380D02*
X94670952Y-159472380D01*
X94575714Y-159615238D01*
X94480476Y-159710476D01*
X94385238Y-159758095D01*
X95575714Y-159472380D02*
X95670952Y-159472380D01*
X95766190Y-159520000D01*
X95813809Y-159567619D01*
X95861428Y-159662857D01*
X95909047Y-159853333D01*
X95909047Y-160091428D01*
X95861428Y-160281904D01*
X95813809Y-160377142D01*
X95766190Y-160424761D01*
X95670952Y-160472380D01*
X95575714Y-160472380D01*
X95480476Y-160424761D01*
X95432857Y-160377142D01*
X95385238Y-160281904D01*
X95337619Y-160091428D01*
X95337619Y-159853333D01*
X95385238Y-159662857D01*
X95432857Y-159567619D01*
X95480476Y-159520000D01*
X95575714Y-159472380D01*
X96290000Y-160186666D02*
X96766190Y-160186666D01*
X96194761Y-160472380D02*
X96528095Y-159472380D01*
X96861428Y-160472380D01*
X98432857Y-160472380D02*
X97956666Y-160472380D01*
X97956666Y-159472380D01*
X98766190Y-160472380D02*
X98766190Y-159805714D01*
X98766190Y-159472380D02*
X98718571Y-159520000D01*
X98766190Y-159567619D01*
X98813809Y-159520000D01*
X98766190Y-159472380D01*
X98766190Y-159567619D01*
X99242380Y-160472380D02*
X99242380Y-159805714D01*
X99242380Y-159900952D02*
X99290000Y-159853333D01*
X99385238Y-159805714D01*
X99528095Y-159805714D01*
X99623333Y-159853333D01*
X99670952Y-159948571D01*
X99670952Y-160472380D01*
X99670952Y-159948571D02*
X99718571Y-159853333D01*
X99813809Y-159805714D01*
X99956666Y-159805714D01*
X100051904Y-159853333D01*
X100099523Y-159948571D01*
X100099523Y-160472380D01*
X100575714Y-160472380D02*
X100575714Y-159805714D01*
X100575714Y-159472380D02*
X100528095Y-159520000D01*
X100575714Y-159567619D01*
X100623333Y-159520000D01*
X100575714Y-159472380D01*
X100575714Y-159567619D01*
X100909047Y-159805714D02*
X101290000Y-159805714D01*
X101051904Y-159472380D02*
X101051904Y-160329523D01*
X101099523Y-160424761D01*
X101194761Y-160472380D01*
X101290000Y-160472380D01*
X90551904Y-157027619D02*
X90599523Y-156980000D01*
X90694761Y-156932380D01*
X90932857Y-156932380D01*
X91028095Y-156980000D01*
X91075714Y-157027619D01*
X91123333Y-157122857D01*
X91123333Y-157218095D01*
X91075714Y-157360952D01*
X90504285Y-157932380D01*
X91123333Y-157932380D01*
X91504285Y-157027619D02*
X91551904Y-156980000D01*
X91647142Y-156932380D01*
X91885238Y-156932380D01*
X91980476Y-156980000D01*
X92028095Y-157027619D01*
X92075714Y-157122857D01*
X92075714Y-157218095D01*
X92028095Y-157360952D01*
X91456666Y-157932380D01*
X92075714Y-157932380D01*
X92504285Y-157837142D02*
X92551904Y-157884761D01*
X92504285Y-157932380D01*
X92456666Y-157884761D01*
X92504285Y-157837142D01*
X92504285Y-157932380D01*
X92932857Y-157027619D02*
X92980476Y-156980000D01*
X93075714Y-156932380D01*
X93313809Y-156932380D01*
X93409047Y-156980000D01*
X93456666Y-157027619D01*
X93504285Y-157122857D01*
X93504285Y-157218095D01*
X93456666Y-157360952D01*
X92885238Y-157932380D01*
X93504285Y-157932380D01*
X93837619Y-157265714D02*
X94075714Y-157932380D01*
X94313809Y-157265714D01*
X95742380Y-158313333D02*
X95694761Y-158265714D01*
X95599523Y-158122857D01*
X95551904Y-158027619D01*
X95504285Y-157884761D01*
X95456666Y-157646666D01*
X95456666Y-157456190D01*
X95504285Y-157218095D01*
X95551904Y-157075238D01*
X95599523Y-156980000D01*
X95694761Y-156837142D01*
X95742380Y-156789523D01*
X96075714Y-157027619D02*
X96123333Y-156980000D01*
X96218571Y-156932380D01*
X96456666Y-156932380D01*
X96551904Y-156980000D01*
X96599523Y-157027619D01*
X96647142Y-157122857D01*
X96647142Y-157218095D01*
X96599523Y-157360952D01*
X96028095Y-157932380D01*
X96647142Y-157932380D01*
X97551904Y-156932380D02*
X97075714Y-156932380D01*
X97028095Y-157408571D01*
X97075714Y-157360952D01*
X97170952Y-157313333D01*
X97409047Y-157313333D01*
X97504285Y-157360952D01*
X97551904Y-157408571D01*
X97599523Y-157503809D01*
X97599523Y-157741904D01*
X97551904Y-157837142D01*
X97504285Y-157884761D01*
X97409047Y-157932380D01*
X97170952Y-157932380D01*
X97075714Y-157884761D01*
X97028095Y-157837142D01*
X98028095Y-157837142D02*
X98075714Y-157884761D01*
X98028095Y-157932380D01*
X97980476Y-157884761D01*
X98028095Y-157837142D01*
X98028095Y-157932380D01*
X98456666Y-157027619D02*
X98504285Y-156980000D01*
X98599523Y-156932380D01*
X98837619Y-156932380D01*
X98932857Y-156980000D01*
X98980476Y-157027619D01*
X99028095Y-157122857D01*
X99028095Y-157218095D01*
X98980476Y-157360952D01*
X98409047Y-157932380D01*
X99028095Y-157932380D01*
X99361428Y-157265714D02*
X99599523Y-157932380D01*
X99837619Y-157265714D01*
X100980476Y-157932380D02*
X100980476Y-157265714D01*
X100980476Y-157360952D02*
X101028095Y-157313333D01*
X101123333Y-157265714D01*
X101266190Y-157265714D01*
X101361428Y-157313333D01*
X101409047Y-157408571D01*
X101409047Y-157932380D01*
X101409047Y-157408571D02*
X101456666Y-157313333D01*
X101551904Y-157265714D01*
X101694761Y-157265714D01*
X101790000Y-157313333D01*
X101837619Y-157408571D01*
X101837619Y-157932380D01*
X102742380Y-157932380D02*
X102742380Y-157408571D01*
X102694761Y-157313333D01*
X102599523Y-157265714D01*
X102409047Y-157265714D01*
X102313809Y-157313333D01*
X102742380Y-157884761D02*
X102647142Y-157932380D01*
X102409047Y-157932380D01*
X102313809Y-157884761D01*
X102266190Y-157789523D01*
X102266190Y-157694285D01*
X102313809Y-157599047D01*
X102409047Y-157551428D01*
X102647142Y-157551428D01*
X102742380Y-157503809D01*
X103123333Y-157932380D02*
X103647142Y-157265714D01*
X103123333Y-157265714D02*
X103647142Y-157932380D01*
X103932857Y-158313333D02*
X103980476Y-158265714D01*
X104075714Y-158122857D01*
X104123333Y-158027619D01*
X104170952Y-157884761D01*
X104218571Y-157646666D01*
X104218571Y-157456190D01*
X104170952Y-157218095D01*
X104123333Y-157075238D01*
X104075714Y-156980000D01*
X103980476Y-156837142D01*
X103932857Y-156789523D01*
X90147142Y-155392380D02*
X89575714Y-155392380D01*
X89861428Y-155392380D02*
X89861428Y-154392380D01*
X89766190Y-154535238D01*
X89670952Y-154630476D01*
X89575714Y-154678095D01*
X90718571Y-154820952D02*
X90623333Y-154773333D01*
X90575714Y-154725714D01*
X90528095Y-154630476D01*
X90528095Y-154582857D01*
X90575714Y-154487619D01*
X90623333Y-154440000D01*
X90718571Y-154392380D01*
X90909047Y-154392380D01*
X91004285Y-154440000D01*
X91051904Y-154487619D01*
X91099523Y-154582857D01*
X91099523Y-154630476D01*
X91051904Y-154725714D01*
X91004285Y-154773333D01*
X90909047Y-154820952D01*
X90718571Y-154820952D01*
X90623333Y-154868571D01*
X90575714Y-154916190D01*
X90528095Y-155011428D01*
X90528095Y-155201904D01*
X90575714Y-155297142D01*
X90623333Y-155344761D01*
X90718571Y-155392380D01*
X90909047Y-155392380D01*
X91004285Y-155344761D01*
X91051904Y-155297142D01*
X91099523Y-155201904D01*
X91099523Y-155011428D01*
X91051904Y-154916190D01*
X91004285Y-154868571D01*
X90909047Y-154820952D01*
X91956666Y-154392380D02*
X91766190Y-154392380D01*
X91670952Y-154440000D01*
X91623333Y-154487619D01*
X91528095Y-154630476D01*
X91480476Y-154820952D01*
X91480476Y-155201904D01*
X91528095Y-155297142D01*
X91575714Y-155344761D01*
X91670952Y-155392380D01*
X91861428Y-155392380D01*
X91956666Y-155344761D01*
X92004285Y-155297142D01*
X92051904Y-155201904D01*
X92051904Y-154963809D01*
X92004285Y-154868571D01*
X91956666Y-154820952D01*
X91861428Y-154773333D01*
X91670952Y-154773333D01*
X91575714Y-154820952D01*
X91528095Y-154868571D01*
X91480476Y-154963809D01*
X92956666Y-154392380D02*
X92480476Y-154392380D01*
X92432857Y-154868571D01*
X92480476Y-154820952D01*
X92575714Y-154773333D01*
X92813809Y-154773333D01*
X92909047Y-154820952D01*
X92956666Y-154868571D01*
X93004285Y-154963809D01*
X93004285Y-155201904D01*
X92956666Y-155297142D01*
X92909047Y-155344761D01*
X92813809Y-155392380D01*
X92575714Y-155392380D01*
X92480476Y-155344761D01*
X92432857Y-155297142D01*
X93623333Y-154392380D02*
X93718571Y-154392380D01*
X93813809Y-154440000D01*
X93861428Y-154487619D01*
X93909047Y-154582857D01*
X93956666Y-154773333D01*
X93956666Y-155011428D01*
X93909047Y-155201904D01*
X93861428Y-155297142D01*
X93813809Y-155344761D01*
X93718571Y-155392380D01*
X93623333Y-155392380D01*
X93528095Y-155344761D01*
X93480476Y-155297142D01*
X93432857Y-155201904D01*
X93385238Y-155011428D01*
X93385238Y-154773333D01*
X93432857Y-154582857D01*
X93480476Y-154487619D01*
X93528095Y-154440000D01*
X93623333Y-154392380D01*
X95480476Y-154868571D02*
X95623333Y-154916190D01*
X95670952Y-154963809D01*
X95718571Y-155059047D01*
X95718571Y-155201904D01*
X95670952Y-155297142D01*
X95623333Y-155344761D01*
X95528095Y-155392380D01*
X95147142Y-155392380D01*
X95147142Y-154392380D01*
X95480476Y-154392380D01*
X95575714Y-154440000D01*
X95623333Y-154487619D01*
X95670952Y-154582857D01*
X95670952Y-154678095D01*
X95623333Y-154773333D01*
X95575714Y-154820952D01*
X95480476Y-154868571D01*
X95147142Y-154868571D01*
X96575714Y-155392380D02*
X96575714Y-154868571D01*
X96528095Y-154773333D01*
X96432857Y-154725714D01*
X96242380Y-154725714D01*
X96147142Y-154773333D01*
X96575714Y-155344761D02*
X96480476Y-155392380D01*
X96242380Y-155392380D01*
X96147142Y-155344761D01*
X96099523Y-155249523D01*
X96099523Y-155154285D01*
X96147142Y-155059047D01*
X96242380Y-155011428D01*
X96480476Y-155011428D01*
X96575714Y-154963809D01*
X96909047Y-154725714D02*
X97290000Y-154725714D01*
X97051904Y-154392380D02*
X97051904Y-155249523D01*
X97099523Y-155344761D01*
X97194761Y-155392380D01*
X97290000Y-155392380D01*
X97480476Y-154725714D02*
X97861428Y-154725714D01*
X97623333Y-154392380D02*
X97623333Y-155249523D01*
X97670952Y-155344761D01*
X97766190Y-155392380D01*
X97861428Y-155392380D01*
X98575714Y-155344761D02*
X98480476Y-155392380D01*
X98290000Y-155392380D01*
X98194761Y-155344761D01*
X98147142Y-155249523D01*
X98147142Y-154868571D01*
X98194761Y-154773333D01*
X98290000Y-154725714D01*
X98480476Y-154725714D01*
X98575714Y-154773333D01*
X98623333Y-154868571D01*
X98623333Y-154963809D01*
X98147142Y-155059047D01*
X99051904Y-155392380D02*
X99051904Y-154725714D01*
X99051904Y-154916190D02*
X99099523Y-154820952D01*
X99147142Y-154773333D01*
X99242380Y-154725714D01*
X99337619Y-154725714D01*
X99575714Y-154725714D02*
X99813809Y-155392380D01*
X100051904Y-154725714D02*
X99813809Y-155392380D01*
X99718571Y-155630476D01*
X99670952Y-155678095D01*
X99575714Y-155725714D01*
X101194761Y-155392380D02*
X101194761Y-154392380D01*
X101528095Y-155106666D01*
X101861428Y-154392380D01*
X101861428Y-155392380D01*
X102480476Y-155392380D02*
X102385238Y-155344761D01*
X102337619Y-155297142D01*
X102290000Y-155201904D01*
X102290000Y-154916190D01*
X102337619Y-154820952D01*
X102385238Y-154773333D01*
X102480476Y-154725714D01*
X102623333Y-154725714D01*
X102718571Y-154773333D01*
X102766190Y-154820952D01*
X102813809Y-154916190D01*
X102813809Y-155201904D01*
X102766190Y-155297142D01*
X102718571Y-155344761D01*
X102623333Y-155392380D01*
X102480476Y-155392380D01*
X103670952Y-155392380D02*
X103670952Y-154392380D01*
X103670952Y-155344761D02*
X103575714Y-155392380D01*
X103385238Y-155392380D01*
X103290000Y-155344761D01*
X103242380Y-155297142D01*
X103194761Y-155201904D01*
X103194761Y-154916190D01*
X103242380Y-154820952D01*
X103290000Y-154773333D01*
X103385238Y-154725714D01*
X103575714Y-154725714D01*
X103670952Y-154773333D01*
X104575714Y-154725714D02*
X104575714Y-155392380D01*
X104147142Y-154725714D02*
X104147142Y-155249523D01*
X104194761Y-155344761D01*
X104290000Y-155392380D01*
X104432857Y-155392380D01*
X104528095Y-155344761D01*
X104575714Y-155297142D01*
X105194761Y-155392380D02*
X105099523Y-155344761D01*
X105051904Y-155249523D01*
X105051904Y-154392380D01*
X105956666Y-155344761D02*
X105861428Y-155392380D01*
X105670952Y-155392380D01*
X105575714Y-155344761D01*
X105528095Y-155249523D01*
X105528095Y-154868571D01*
X105575714Y-154773333D01*
X105670952Y-154725714D01*
X105861428Y-154725714D01*
X105956666Y-154773333D01*
X106004285Y-154868571D01*
X106004285Y-154963809D01*
X105528095Y-155059047D01*
D11*
%TO.C,J1*%
X82720000Y-155200000D02*
X82720000Y-163920000D01*
X82720000Y-163920000D02*
X77300000Y-163920000D01*
X77300000Y-155200000D02*
X77300000Y-163920000D01*
X81420000Y-153500000D02*
X82720000Y-155200000D01*
X78600000Y-153500000D02*
X77300000Y-155200000D01*
X81420000Y-153500000D02*
X78600000Y-153500000D01*
%TO.C,BT6*%
X41450000Y-150258000D02*
X41450000Y-130158000D01*
X119450000Y-150258000D02*
X41450000Y-150258000D01*
X119450000Y-130158000D02*
X119450000Y-150258000D01*
X41450000Y-130158000D02*
X119450000Y-130158000D01*
%TO.C,BT5*%
X41450000Y-129938000D02*
X41450000Y-109838000D01*
X119450000Y-129938000D02*
X41450000Y-129938000D01*
X119450000Y-109838000D02*
X119450000Y-129938000D01*
X41450000Y-109838000D02*
X119450000Y-109838000D01*
%TO.C,BT4*%
X41450000Y-109618000D02*
X41450000Y-89518000D01*
X119450000Y-109618000D02*
X41450000Y-109618000D01*
X119450000Y-89518000D02*
X119450000Y-109618000D01*
X41450000Y-89518000D02*
X119450000Y-89518000D01*
%TO.C,BT3*%
X41450000Y-85742000D02*
X41450000Y-65642000D01*
X119450000Y-85742000D02*
X41450000Y-85742000D01*
X119450000Y-65642000D02*
X119450000Y-85742000D01*
X41450000Y-65642000D02*
X119450000Y-65642000D01*
%TO.C,BT2*%
X41450000Y-65422000D02*
X41450000Y-45322000D01*
X119450000Y-65422000D02*
X41450000Y-65422000D01*
X119450000Y-45322000D02*
X119450000Y-65422000D01*
X41450000Y-45322000D02*
X119450000Y-45322000D01*
%TO.C,BT1*%
X41450000Y-45102000D02*
X41450000Y-25002000D01*
X119450000Y-45102000D02*
X41450000Y-45102000D01*
X119450000Y-25002000D02*
X119450000Y-45102000D01*
X41450000Y-25002000D02*
X119450000Y-25002000D01*
%TO.C,J2*%
D10*
X84186666Y-24154380D02*
X84186666Y-24868666D01*
X84139047Y-25011523D01*
X84043809Y-25106761D01*
X83900952Y-25154380D01*
X83805714Y-25154380D01*
X84615238Y-24249619D02*
X84662857Y-24202000D01*
X84758095Y-24154380D01*
X84996190Y-24154380D01*
X85091428Y-24202000D01*
X85139047Y-24249619D01*
X85186666Y-24344857D01*
X85186666Y-24440095D01*
X85139047Y-24582952D01*
X84567619Y-25154380D01*
X85186666Y-25154380D01*
%TO.C,J1*%
X83462380Y-159043333D02*
X84176666Y-159043333D01*
X84319523Y-159090952D01*
X84414761Y-159186190D01*
X84462380Y-159329047D01*
X84462380Y-159424285D01*
X84462380Y-158043333D02*
X84462380Y-158614761D01*
X84462380Y-158329047D02*
X83462380Y-158329047D01*
X83605238Y-158424285D01*
X83700476Y-158519523D01*
X83748095Y-158614761D01*
X80117142Y-152781428D02*
X80117142Y-151638571D01*
X80117142Y-165781428D02*
X80117142Y-164638571D01*
X80688571Y-165210000D02*
X79545714Y-165210000D01*
%TO.C,F1*%
X60626666Y-161218571D02*
X60293333Y-161218571D01*
X60293333Y-161742380D02*
X60293333Y-160742380D01*
X60769523Y-160742380D01*
X61674285Y-161742380D02*
X61102857Y-161742380D01*
X61388571Y-161742380D02*
X61388571Y-160742380D01*
X61293333Y-160885238D01*
X61198095Y-160980476D01*
X61102857Y-161028095D01*
%TO.C,BT6*%
X79664285Y-141136571D02*
X79807142Y-141184190D01*
X79854761Y-141231809D01*
X79902380Y-141327047D01*
X79902380Y-141469904D01*
X79854761Y-141565142D01*
X79807142Y-141612761D01*
X79711904Y-141660380D01*
X79330952Y-141660380D01*
X79330952Y-140660380D01*
X79664285Y-140660380D01*
X79759523Y-140708000D01*
X79807142Y-140755619D01*
X79854761Y-140850857D01*
X79854761Y-140946095D01*
X79807142Y-141041333D01*
X79759523Y-141088952D01*
X79664285Y-141136571D01*
X79330952Y-141136571D01*
X80188095Y-140660380D02*
X80759523Y-140660380D01*
X80473809Y-141660380D02*
X80473809Y-140660380D01*
X81521428Y-140660380D02*
X81330952Y-140660380D01*
X81235714Y-140708000D01*
X81188095Y-140755619D01*
X81092857Y-140898476D01*
X81045238Y-141088952D01*
X81045238Y-141469904D01*
X81092857Y-141565142D01*
X81140476Y-141612761D01*
X81235714Y-141660380D01*
X81426190Y-141660380D01*
X81521428Y-141612761D01*
X81569047Y-141565142D01*
X81616666Y-141469904D01*
X81616666Y-141231809D01*
X81569047Y-141136571D01*
X81521428Y-141088952D01*
X81426190Y-141041333D01*
X81235714Y-141041333D01*
X81140476Y-141088952D01*
X81092857Y-141136571D01*
X81045238Y-141231809D01*
%TO.C,BT5*%
X79664285Y-120816571D02*
X79807142Y-120864190D01*
X79854761Y-120911809D01*
X79902380Y-121007047D01*
X79902380Y-121149904D01*
X79854761Y-121245142D01*
X79807142Y-121292761D01*
X79711904Y-121340380D01*
X79330952Y-121340380D01*
X79330952Y-120340380D01*
X79664285Y-120340380D01*
X79759523Y-120388000D01*
X79807142Y-120435619D01*
X79854761Y-120530857D01*
X79854761Y-120626095D01*
X79807142Y-120721333D01*
X79759523Y-120768952D01*
X79664285Y-120816571D01*
X79330952Y-120816571D01*
X80188095Y-120340380D02*
X80759523Y-120340380D01*
X80473809Y-121340380D02*
X80473809Y-120340380D01*
X81569047Y-120340380D02*
X81092857Y-120340380D01*
X81045238Y-120816571D01*
X81092857Y-120768952D01*
X81188095Y-120721333D01*
X81426190Y-120721333D01*
X81521428Y-120768952D01*
X81569047Y-120816571D01*
X81616666Y-120911809D01*
X81616666Y-121149904D01*
X81569047Y-121245142D01*
X81521428Y-121292761D01*
X81426190Y-121340380D01*
X81188095Y-121340380D01*
X81092857Y-121292761D01*
X81045238Y-121245142D01*
%TO.C,BT4*%
X79664285Y-100496571D02*
X79807142Y-100544190D01*
X79854761Y-100591809D01*
X79902380Y-100687047D01*
X79902380Y-100829904D01*
X79854761Y-100925142D01*
X79807142Y-100972761D01*
X79711904Y-101020380D01*
X79330952Y-101020380D01*
X79330952Y-100020380D01*
X79664285Y-100020380D01*
X79759523Y-100068000D01*
X79807142Y-100115619D01*
X79854761Y-100210857D01*
X79854761Y-100306095D01*
X79807142Y-100401333D01*
X79759523Y-100448952D01*
X79664285Y-100496571D01*
X79330952Y-100496571D01*
X80188095Y-100020380D02*
X80759523Y-100020380D01*
X80473809Y-101020380D02*
X80473809Y-100020380D01*
X81521428Y-100353714D02*
X81521428Y-101020380D01*
X81283333Y-99972761D02*
X81045238Y-100687047D01*
X81664285Y-100687047D01*
%TO.C,BT3*%
X79664285Y-76620571D02*
X79807142Y-76668190D01*
X79854761Y-76715809D01*
X79902380Y-76811047D01*
X79902380Y-76953904D01*
X79854761Y-77049142D01*
X79807142Y-77096761D01*
X79711904Y-77144380D01*
X79330952Y-77144380D01*
X79330952Y-76144380D01*
X79664285Y-76144380D01*
X79759523Y-76192000D01*
X79807142Y-76239619D01*
X79854761Y-76334857D01*
X79854761Y-76430095D01*
X79807142Y-76525333D01*
X79759523Y-76572952D01*
X79664285Y-76620571D01*
X79330952Y-76620571D01*
X80188095Y-76144380D02*
X80759523Y-76144380D01*
X80473809Y-77144380D02*
X80473809Y-76144380D01*
X80997619Y-76144380D02*
X81616666Y-76144380D01*
X81283333Y-76525333D01*
X81426190Y-76525333D01*
X81521428Y-76572952D01*
X81569047Y-76620571D01*
X81616666Y-76715809D01*
X81616666Y-76953904D01*
X81569047Y-77049142D01*
X81521428Y-77096761D01*
X81426190Y-77144380D01*
X81140476Y-77144380D01*
X81045238Y-77096761D01*
X80997619Y-77049142D01*
%TO.C,BT2*%
X79664285Y-56300571D02*
X79807142Y-56348190D01*
X79854761Y-56395809D01*
X79902380Y-56491047D01*
X79902380Y-56633904D01*
X79854761Y-56729142D01*
X79807142Y-56776761D01*
X79711904Y-56824380D01*
X79330952Y-56824380D01*
X79330952Y-55824380D01*
X79664285Y-55824380D01*
X79759523Y-55872000D01*
X79807142Y-55919619D01*
X79854761Y-56014857D01*
X79854761Y-56110095D01*
X79807142Y-56205333D01*
X79759523Y-56252952D01*
X79664285Y-56300571D01*
X79330952Y-56300571D01*
X80188095Y-55824380D02*
X80759523Y-55824380D01*
X80473809Y-56824380D02*
X80473809Y-55824380D01*
X81045238Y-55919619D02*
X81092857Y-55872000D01*
X81188095Y-55824380D01*
X81426190Y-55824380D01*
X81521428Y-55872000D01*
X81569047Y-55919619D01*
X81616666Y-56014857D01*
X81616666Y-56110095D01*
X81569047Y-56252952D01*
X80997619Y-56824380D01*
X81616666Y-56824380D01*
%TO.C,BT1*%
X79664285Y-35980571D02*
X79807142Y-36028190D01*
X79854761Y-36075809D01*
X79902380Y-36171047D01*
X79902380Y-36313904D01*
X79854761Y-36409142D01*
X79807142Y-36456761D01*
X79711904Y-36504380D01*
X79330952Y-36504380D01*
X79330952Y-35504380D01*
X79664285Y-35504380D01*
X79759523Y-35552000D01*
X79807142Y-35599619D01*
X79854761Y-35694857D01*
X79854761Y-35790095D01*
X79807142Y-35885333D01*
X79759523Y-35932952D01*
X79664285Y-35980571D01*
X79330952Y-35980571D01*
X80188095Y-35504380D02*
X80759523Y-35504380D01*
X80473809Y-36504380D02*
X80473809Y-35504380D01*
X81616666Y-36504380D02*
X81045238Y-36504380D01*
X81330952Y-36504380D02*
X81330952Y-35504380D01*
X81235714Y-35647238D01*
X81140476Y-35742476D01*
X81045238Y-35790095D01*
%TD*%
M02*
