M48
; DRILL file {KiCad 5.1.10} date Wed Oct  6 22:42:18 2021
; FORMAT={-:-/ absolute / inch / decimal}
; #@! TF.CreationDate,2021-10-06T22:42:18+01:00
; #@! TF.GenerationSoftware,Kicad,Pcbnew,5.1.10
; #@! TF.FileFunction,Plated,1,2,PTH
FMAT,2
INCH
T1C0.0300
T2C0.0433
T3C0.0787
T4C0.1063
T5C0.1260
%
G90
G05
T2
X2.6657Y-0.88
X2.8551Y-0.88
X3.0441Y-0.88
X3.2331Y-0.88
X3.422Y-0.88
X3.611Y-0.88
X3.8Y-0.88
T3
X1.75Y-1.38
X1.75Y-2.18
X1.75Y-2.98
X1.75Y-3.92
X1.75Y-4.72
X1.75Y-5.52
X2.5209Y-3.455
X2.5209Y-5.5809
X3.8791Y-3.455
X3.8791Y-5.5809
X4.5846Y-1.38
X4.5846Y-2.18
X4.5846Y-2.98
X4.5846Y-3.92
X4.5846Y-4.72
X4.5846Y-5.52
T4
X3.15Y-6.15
X3.15Y-6.3469
T5
X1.85Y-0.75
X1.85Y-6.3
X4.5Y-0.75
X4.5Y-6.3
T1
G00X2.17Y-6.2256
M15
G01X2.17Y-6.2744
M16
G05
G00X2.32Y-6.2256
M15
G01X2.32Y-6.2744
M16
G05
G00X2.49Y-6.2256
M15
G01X2.49Y-6.2744
M16
G05
G00X2.64Y-6.2256
M15
G01X2.64Y-6.2744
M16
G05
T0
M30
