%TF.GenerationSoftware,KiCad,Pcbnew,5.1.10*%
%TF.CreationDate,2021-10-06T22:42:20+01:00*%
%TF.ProjectId,BatteryPack,42617474-6572-4795-9061-636b2e6b6963,rev?*%
%TF.SameCoordinates,Original*%
%TF.FileFunction,Soldermask,Top*%
%TF.FilePolarity,Negative*%
%FSLAX46Y46*%
G04 Gerber Fmt 4.6, Leading zero omitted, Abs format (unit mm)*
G04 Created by KiCad (PCBNEW 5.1.10) date 2021-10-06 22:42:20*
%MOMM*%
%LPD*%
G01*
G04 APERTURE LIST*
%ADD10C,5.000000*%
%ADD11C,5.700000*%
%ADD12C,2.300000*%
%ADD13C,3.800000*%
%ADD14R,3.800000X3.800000*%
%ADD15O,1.524000X3.000000*%
%ADD16C,3.200000*%
%ADD17R,3.500000X3.500000*%
%ADD18C,3.500000*%
G04 APERTURE END LIST*
D10*
%TO.C,J3*%
X64030000Y-87756000D03*
X98530000Y-87756000D03*
X98530000Y-141756000D03*
X64030000Y-141756000D03*
%TD*%
D11*
%TO.C,REF\u002A\u002A*%
X114300000Y-19050000D03*
%TD*%
%TO.C,REF\u002A\u002A*%
X46990000Y-19050000D03*
%TD*%
D12*
%TO.C,J2*%
X67710000Y-22352000D03*
X72520000Y-22352000D03*
X77320000Y-22352000D03*
X82120000Y-22352000D03*
X86920000Y-22352000D03*
X91720000Y-22352000D03*
G36*
G01*
X97670000Y-21452000D02*
X97670000Y-23252000D01*
G75*
G02*
X97420000Y-23502000I-250000J0D01*
G01*
X95620000Y-23502000D01*
G75*
G02*
X95370000Y-23252000I0J250000D01*
G01*
X95370000Y-21452000D01*
G75*
G02*
X95620000Y-21202000I250000J0D01*
G01*
X97420000Y-21202000D01*
G75*
G02*
X97670000Y-21452000I0J-250000D01*
G01*
G37*
%TD*%
D13*
%TO.C,J1*%
X80010000Y-161210000D03*
D14*
X80010000Y-156210000D03*
%TD*%
D15*
%TO.C,F1*%
X67056000Y-158750000D03*
X63246000Y-158750000D03*
X55118000Y-158750000D03*
X58928000Y-158750000D03*
%TD*%
D16*
%TO.C,BT6*%
X108705000Y-140208000D03*
X53095000Y-140208000D03*
D17*
X44450000Y-140208000D03*
D18*
X116450000Y-140208000D03*
%TD*%
D16*
%TO.C,BT5*%
X108705000Y-119888000D03*
X53095000Y-119888000D03*
D17*
X44450000Y-119888000D03*
D18*
X116450000Y-119888000D03*
%TD*%
D16*
%TO.C,BT4*%
X108705000Y-99568000D03*
X53095000Y-99568000D03*
D17*
X44450000Y-99568000D03*
D18*
X116450000Y-99568000D03*
%TD*%
D16*
%TO.C,BT3*%
X108705000Y-75692000D03*
X53095000Y-75692000D03*
D17*
X44450000Y-75692000D03*
D18*
X116450000Y-75692000D03*
%TD*%
D16*
%TO.C,BT2*%
X108705000Y-55372000D03*
X53095000Y-55372000D03*
D17*
X44450000Y-55372000D03*
D18*
X116450000Y-55372000D03*
%TD*%
D16*
%TO.C,BT1*%
X108705000Y-35052000D03*
X53095000Y-35052000D03*
D17*
X44450000Y-35052000D03*
D18*
X116450000Y-35052000D03*
%TD*%
D11*
%TO.C,REF\u002A\u002A*%
X114300000Y-160020000D03*
%TD*%
%TO.C,REF\u002A\u002A*%
X46990000Y-160020000D03*
%TD*%
M02*
