G04 #@! TF.GenerationSoftware,KiCad,Pcbnew,5.1.8*
G04 #@! TF.CreationDate,2021-01-05T23:40:21+00:00*
G04 #@! TF.ProjectId,TheSun2,54686553-756e-4322-9e6b-696361645f70,1.0.8*
G04 #@! TF.SameCoordinates,Original*
G04 #@! TF.FileFunction,Soldermask,Top*
G04 #@! TF.FilePolarity,Negative*
%FSLAX46Y46*%
G04 Gerber Fmt 4.6, Leading zero omitted, Abs format (unit mm)*
G04 Created by KiCad (PCBNEW 5.1.8) date 2021-01-05 23:40:21*
%MOMM*%
%LPD*%
G01*
G04 APERTURE LIST*
%ADD10C,6.200000*%
%ADD11O,3.402000X2.802000*%
%ADD12O,2.802000X3.402000*%
%ADD13O,1.902000X3.702000*%
%ADD14O,1.802000X1.802000*%
%ADD15O,2.007000X2.102000*%
%ADD16O,3.602000X3.602000*%
%ADD17C,0.100000*%
G04 APERTURE END LIST*
D10*
X252000000Y-50000000D03*
X252000000Y-110000000D03*
X148000000Y-110000000D03*
X148000000Y-50000000D03*
X230000000Y-132000000D03*
X170000000Y-132000000D03*
X279400000Y-127000000D03*
D11*
X162680000Y-79760000D03*
X162680000Y-75560000D03*
X162680000Y-71360000D03*
X162680000Y-67160000D03*
X162680000Y-62960000D03*
X162680000Y-58760000D03*
X162680000Y-54560000D03*
X162680000Y-50360000D03*
X162680000Y-46160000D03*
X162680000Y-41960000D03*
X162680000Y-37760000D03*
X162680000Y-33560000D03*
X168180000Y-79760000D03*
X168180000Y-75560000D03*
X168180000Y-71360000D03*
X168180000Y-67160000D03*
X168180000Y-62960000D03*
X168180000Y-58760000D03*
X168180000Y-54560000D03*
X168180000Y-50360000D03*
X168180000Y-46160000D03*
X168180000Y-41960000D03*
X168180000Y-37760000D03*
G36*
G01*
X166738445Y-32159000D02*
X169621555Y-32159000D01*
G75*
G02*
X169881000Y-32418445I0J-259445D01*
G01*
X169881000Y-34701555D01*
G75*
G02*
X169621555Y-34961000I-259445J0D01*
G01*
X166738445Y-34961000D01*
G75*
G02*
X166479000Y-34701555I0J259445D01*
G01*
X166479000Y-32418445D01*
G75*
G02*
X166738445Y-32159000I259445J0D01*
G01*
G37*
G36*
G01*
X199530000Y-74953000D02*
X200330000Y-74953000D01*
G75*
G02*
X200381000Y-75004000I0J-51000D01*
G01*
X200381000Y-75904000D01*
G75*
G02*
X200330000Y-75955000I-51000J0D01*
G01*
X199530000Y-75955000D01*
G75*
G02*
X199479000Y-75904000I0J51000D01*
G01*
X199479000Y-75004000D01*
G75*
G02*
X199530000Y-74953000I51000J0D01*
G01*
G37*
G36*
G01*
X198580000Y-72953000D02*
X199380000Y-72953000D01*
G75*
G02*
X199431000Y-73004000I0J-51000D01*
G01*
X199431000Y-73904000D01*
G75*
G02*
X199380000Y-73955000I-51000J0D01*
G01*
X198580000Y-73955000D01*
G75*
G02*
X198529000Y-73904000I0J51000D01*
G01*
X198529000Y-73004000D01*
G75*
G02*
X198580000Y-72953000I51000J0D01*
G01*
G37*
G36*
G01*
X200480000Y-72953000D02*
X201280000Y-72953000D01*
G75*
G02*
X201331000Y-73004000I0J-51000D01*
G01*
X201331000Y-73904000D01*
G75*
G02*
X201280000Y-73955000I-51000J0D01*
G01*
X200480000Y-73955000D01*
G75*
G02*
X200429000Y-73904000I0J51000D01*
G01*
X200429000Y-73004000D01*
G75*
G02*
X200480000Y-72953000I51000J0D01*
G01*
G37*
G36*
G01*
X193431615Y-75049000D02*
X194744385Y-75049000D01*
G75*
G02*
X195014000Y-75318615I0J-269615D01*
G01*
X195014000Y-76181385D01*
G75*
G02*
X194744385Y-76451000I-269615J0D01*
G01*
X193431615Y-76451000D01*
G75*
G02*
X193162000Y-76181385I0J269615D01*
G01*
X193162000Y-75318615D01*
G75*
G02*
X193431615Y-75049000I269615J0D01*
G01*
G37*
G36*
G01*
X193431615Y-71949000D02*
X194744385Y-71949000D01*
G75*
G02*
X195014000Y-72218615I0J-269615D01*
G01*
X195014000Y-73081385D01*
G75*
G02*
X194744385Y-73351000I-269615J0D01*
G01*
X193431615Y-73351000D01*
G75*
G02*
X193162000Y-73081385I0J269615D01*
G01*
X193162000Y-72218615D01*
G75*
G02*
X193431615Y-71949000I269615J0D01*
G01*
G37*
G36*
G01*
X206428385Y-73351000D02*
X205115615Y-73351000D01*
G75*
G02*
X204846000Y-73081385I0J269615D01*
G01*
X204846000Y-72218615D01*
G75*
G02*
X205115615Y-71949000I269615J0D01*
G01*
X206428385Y-71949000D01*
G75*
G02*
X206698000Y-72218615I0J-269615D01*
G01*
X206698000Y-73081385D01*
G75*
G02*
X206428385Y-73351000I-269615J0D01*
G01*
G37*
G36*
G01*
X206428385Y-76451000D02*
X205115615Y-76451000D01*
G75*
G02*
X204846000Y-76181385I0J269615D01*
G01*
X204846000Y-75318615D01*
G75*
G02*
X205115615Y-75049000I269615J0D01*
G01*
X206428385Y-75049000D01*
G75*
G02*
X206698000Y-75318615I0J-269615D01*
G01*
X206698000Y-76181385D01*
G75*
G02*
X206428385Y-76451000I-269615J0D01*
G01*
G37*
G36*
G01*
X161699000Y-90881555D02*
X161699000Y-87998445D01*
G75*
G02*
X161958445Y-87739000I259445J0D01*
G01*
X164241555Y-87739000D01*
G75*
G02*
X164501000Y-87998445I0J-259445D01*
G01*
X164501000Y-90881555D01*
G75*
G02*
X164241555Y-91141000I-259445J0D01*
G01*
X161958445Y-91141000D01*
G75*
G02*
X161699000Y-90881555I0J259445D01*
G01*
G37*
D12*
X167300000Y-89440000D03*
X171500000Y-89440000D03*
X175700000Y-89440000D03*
X163100000Y-94940000D03*
X167300000Y-94940000D03*
X171500000Y-94940000D03*
X175700000Y-94940000D03*
G36*
G01*
X220709500Y-45169000D02*
X221060500Y-45169000D01*
G75*
G02*
X221236000Y-45344500I0J-175500D01*
G01*
X221236000Y-47045500D01*
G75*
G02*
X221060500Y-47221000I-175500J0D01*
G01*
X220709500Y-47221000D01*
G75*
G02*
X220534000Y-47045500I0J175500D01*
G01*
X220534000Y-45344500D01*
G75*
G02*
X220709500Y-45169000I175500J0D01*
G01*
G37*
G36*
G01*
X219439500Y-45169000D02*
X219790500Y-45169000D01*
G75*
G02*
X219966000Y-45344500I0J-175500D01*
G01*
X219966000Y-47045500D01*
G75*
G02*
X219790500Y-47221000I-175500J0D01*
G01*
X219439500Y-47221000D01*
G75*
G02*
X219264000Y-47045500I0J175500D01*
G01*
X219264000Y-45344500D01*
G75*
G02*
X219439500Y-45169000I175500J0D01*
G01*
G37*
G36*
G01*
X218169500Y-45169000D02*
X218520500Y-45169000D01*
G75*
G02*
X218696000Y-45344500I0J-175500D01*
G01*
X218696000Y-47045500D01*
G75*
G02*
X218520500Y-47221000I-175500J0D01*
G01*
X218169500Y-47221000D01*
G75*
G02*
X217994000Y-47045500I0J175500D01*
G01*
X217994000Y-45344500D01*
G75*
G02*
X218169500Y-45169000I175500J0D01*
G01*
G37*
G36*
G01*
X216899500Y-45169000D02*
X217250500Y-45169000D01*
G75*
G02*
X217426000Y-45344500I0J-175500D01*
G01*
X217426000Y-47045500D01*
G75*
G02*
X217250500Y-47221000I-175500J0D01*
G01*
X216899500Y-47221000D01*
G75*
G02*
X216724000Y-47045500I0J175500D01*
G01*
X216724000Y-45344500D01*
G75*
G02*
X216899500Y-45169000I175500J0D01*
G01*
G37*
G36*
G01*
X215629500Y-45169000D02*
X215980500Y-45169000D01*
G75*
G02*
X216156000Y-45344500I0J-175500D01*
G01*
X216156000Y-47045500D01*
G75*
G02*
X215980500Y-47221000I-175500J0D01*
G01*
X215629500Y-47221000D01*
G75*
G02*
X215454000Y-47045500I0J175500D01*
G01*
X215454000Y-45344500D01*
G75*
G02*
X215629500Y-45169000I175500J0D01*
G01*
G37*
G36*
G01*
X214359500Y-45169000D02*
X214710500Y-45169000D01*
G75*
G02*
X214886000Y-45344500I0J-175500D01*
G01*
X214886000Y-47045500D01*
G75*
G02*
X214710500Y-47221000I-175500J0D01*
G01*
X214359500Y-47221000D01*
G75*
G02*
X214184000Y-47045500I0J175500D01*
G01*
X214184000Y-45344500D01*
G75*
G02*
X214359500Y-45169000I175500J0D01*
G01*
G37*
G36*
G01*
X213089500Y-45169000D02*
X213440500Y-45169000D01*
G75*
G02*
X213616000Y-45344500I0J-175500D01*
G01*
X213616000Y-47045500D01*
G75*
G02*
X213440500Y-47221000I-175500J0D01*
G01*
X213089500Y-47221000D01*
G75*
G02*
X212914000Y-47045500I0J175500D01*
G01*
X212914000Y-45344500D01*
G75*
G02*
X213089500Y-45169000I175500J0D01*
G01*
G37*
G36*
G01*
X211819500Y-45169000D02*
X212170500Y-45169000D01*
G75*
G02*
X212346000Y-45344500I0J-175500D01*
G01*
X212346000Y-47045500D01*
G75*
G02*
X212170500Y-47221000I-175500J0D01*
G01*
X211819500Y-47221000D01*
G75*
G02*
X211644000Y-47045500I0J175500D01*
G01*
X211644000Y-45344500D01*
G75*
G02*
X211819500Y-45169000I175500J0D01*
G01*
G37*
G36*
G01*
X211819500Y-40219000D02*
X212170500Y-40219000D01*
G75*
G02*
X212346000Y-40394500I0J-175500D01*
G01*
X212346000Y-42095500D01*
G75*
G02*
X212170500Y-42271000I-175500J0D01*
G01*
X211819500Y-42271000D01*
G75*
G02*
X211644000Y-42095500I0J175500D01*
G01*
X211644000Y-40394500D01*
G75*
G02*
X211819500Y-40219000I175500J0D01*
G01*
G37*
G36*
G01*
X213089500Y-40219000D02*
X213440500Y-40219000D01*
G75*
G02*
X213616000Y-40394500I0J-175500D01*
G01*
X213616000Y-42095500D01*
G75*
G02*
X213440500Y-42271000I-175500J0D01*
G01*
X213089500Y-42271000D01*
G75*
G02*
X212914000Y-42095500I0J175500D01*
G01*
X212914000Y-40394500D01*
G75*
G02*
X213089500Y-40219000I175500J0D01*
G01*
G37*
G36*
G01*
X214359500Y-40219000D02*
X214710500Y-40219000D01*
G75*
G02*
X214886000Y-40394500I0J-175500D01*
G01*
X214886000Y-42095500D01*
G75*
G02*
X214710500Y-42271000I-175500J0D01*
G01*
X214359500Y-42271000D01*
G75*
G02*
X214184000Y-42095500I0J175500D01*
G01*
X214184000Y-40394500D01*
G75*
G02*
X214359500Y-40219000I175500J0D01*
G01*
G37*
G36*
G01*
X215629500Y-40219000D02*
X215980500Y-40219000D01*
G75*
G02*
X216156000Y-40394500I0J-175500D01*
G01*
X216156000Y-42095500D01*
G75*
G02*
X215980500Y-42271000I-175500J0D01*
G01*
X215629500Y-42271000D01*
G75*
G02*
X215454000Y-42095500I0J175500D01*
G01*
X215454000Y-40394500D01*
G75*
G02*
X215629500Y-40219000I175500J0D01*
G01*
G37*
G36*
G01*
X216899500Y-40219000D02*
X217250500Y-40219000D01*
G75*
G02*
X217426000Y-40394500I0J-175500D01*
G01*
X217426000Y-42095500D01*
G75*
G02*
X217250500Y-42271000I-175500J0D01*
G01*
X216899500Y-42271000D01*
G75*
G02*
X216724000Y-42095500I0J175500D01*
G01*
X216724000Y-40394500D01*
G75*
G02*
X216899500Y-40219000I175500J0D01*
G01*
G37*
G36*
G01*
X218169500Y-40219000D02*
X218520500Y-40219000D01*
G75*
G02*
X218696000Y-40394500I0J-175500D01*
G01*
X218696000Y-42095500D01*
G75*
G02*
X218520500Y-42271000I-175500J0D01*
G01*
X218169500Y-42271000D01*
G75*
G02*
X217994000Y-42095500I0J175500D01*
G01*
X217994000Y-40394500D01*
G75*
G02*
X218169500Y-40219000I175500J0D01*
G01*
G37*
G36*
G01*
X219439500Y-40219000D02*
X219790500Y-40219000D01*
G75*
G02*
X219966000Y-40394500I0J-175500D01*
G01*
X219966000Y-42095500D01*
G75*
G02*
X219790500Y-42271000I-175500J0D01*
G01*
X219439500Y-42271000D01*
G75*
G02*
X219264000Y-42095500I0J175500D01*
G01*
X219264000Y-40394500D01*
G75*
G02*
X219439500Y-40219000I175500J0D01*
G01*
G37*
G36*
G01*
X220709500Y-40219000D02*
X221060500Y-40219000D01*
G75*
G02*
X221236000Y-40394500I0J-175500D01*
G01*
X221236000Y-42095500D01*
G75*
G02*
X221060500Y-42271000I-175500J0D01*
G01*
X220709500Y-42271000D01*
G75*
G02*
X220534000Y-42095500I0J175500D01*
G01*
X220534000Y-40394500D01*
G75*
G02*
X220709500Y-40219000I175500J0D01*
G01*
G37*
G36*
G01*
X223192385Y-73351000D02*
X221879615Y-73351000D01*
G75*
G02*
X221610000Y-73081385I0J269615D01*
G01*
X221610000Y-72218615D01*
G75*
G02*
X221879615Y-71949000I269615J0D01*
G01*
X223192385Y-71949000D01*
G75*
G02*
X223462000Y-72218615I0J-269615D01*
G01*
X223462000Y-73081385D01*
G75*
G02*
X223192385Y-73351000I-269615J0D01*
G01*
G37*
G36*
G01*
X223192385Y-76451000D02*
X221879615Y-76451000D01*
G75*
G02*
X221610000Y-76181385I0J269615D01*
G01*
X221610000Y-75318615D01*
G75*
G02*
X221879615Y-75049000I269615J0D01*
G01*
X223192385Y-75049000D01*
G75*
G02*
X223462000Y-75318615I0J-269615D01*
G01*
X223462000Y-76181385D01*
G75*
G02*
X223192385Y-76451000I-269615J0D01*
G01*
G37*
G36*
G01*
X238178385Y-73097000D02*
X236865615Y-73097000D01*
G75*
G02*
X236596000Y-72827385I0J269615D01*
G01*
X236596000Y-71964615D01*
G75*
G02*
X236865615Y-71695000I269615J0D01*
G01*
X238178385Y-71695000D01*
G75*
G02*
X238448000Y-71964615I0J-269615D01*
G01*
X238448000Y-72827385D01*
G75*
G02*
X238178385Y-73097000I-269615J0D01*
G01*
G37*
G36*
G01*
X238178385Y-76197000D02*
X236865615Y-76197000D01*
G75*
G02*
X236596000Y-75927385I0J269615D01*
G01*
X236596000Y-75064615D01*
G75*
G02*
X236865615Y-74795000I269615J0D01*
G01*
X238178385Y-74795000D01*
G75*
G02*
X238448000Y-75064615I0J-269615D01*
G01*
X238448000Y-75927385D01*
G75*
G02*
X238178385Y-76197000I-269615J0D01*
G01*
G37*
G36*
G01*
X209941615Y-75049000D02*
X211254385Y-75049000D01*
G75*
G02*
X211524000Y-75318615I0J-269615D01*
G01*
X211524000Y-76181385D01*
G75*
G02*
X211254385Y-76451000I-269615J0D01*
G01*
X209941615Y-76451000D01*
G75*
G02*
X209672000Y-76181385I0J269615D01*
G01*
X209672000Y-75318615D01*
G75*
G02*
X209941615Y-75049000I269615J0D01*
G01*
G37*
G36*
G01*
X209941615Y-71949000D02*
X211254385Y-71949000D01*
G75*
G02*
X211524000Y-72218615I0J-269615D01*
G01*
X211524000Y-73081385D01*
G75*
G02*
X211254385Y-73351000I-269615J0D01*
G01*
X209941615Y-73351000D01*
G75*
G02*
X209672000Y-73081385I0J269615D01*
G01*
X209672000Y-72218615D01*
G75*
G02*
X209941615Y-71949000I269615J0D01*
G01*
G37*
G36*
G01*
X225181615Y-75049000D02*
X226494385Y-75049000D01*
G75*
G02*
X226764000Y-75318615I0J-269615D01*
G01*
X226764000Y-76181385D01*
G75*
G02*
X226494385Y-76451000I-269615J0D01*
G01*
X225181615Y-76451000D01*
G75*
G02*
X224912000Y-76181385I0J269615D01*
G01*
X224912000Y-75318615D01*
G75*
G02*
X225181615Y-75049000I269615J0D01*
G01*
G37*
G36*
G01*
X225181615Y-71949000D02*
X226494385Y-71949000D01*
G75*
G02*
X226764000Y-72218615I0J-269615D01*
G01*
X226764000Y-73081385D01*
G75*
G02*
X226494385Y-73351000I-269615J0D01*
G01*
X225181615Y-73351000D01*
G75*
G02*
X224912000Y-73081385I0J269615D01*
G01*
X224912000Y-72218615D01*
G75*
G02*
X225181615Y-71949000I269615J0D01*
G01*
G37*
G36*
G01*
X177841000Y-66180000D02*
X177841000Y-66980000D01*
G75*
G02*
X177790000Y-67031000I-51000J0D01*
G01*
X176890000Y-67031000D01*
G75*
G02*
X176839000Y-66980000I0J51000D01*
G01*
X176839000Y-66180000D01*
G75*
G02*
X176890000Y-66129000I51000J0D01*
G01*
X177790000Y-66129000D01*
G75*
G02*
X177841000Y-66180000I0J-51000D01*
G01*
G37*
G36*
G01*
X179841000Y-65230000D02*
X179841000Y-66030000D01*
G75*
G02*
X179790000Y-66081000I-51000J0D01*
G01*
X178890000Y-66081000D01*
G75*
G02*
X178839000Y-66030000I0J51000D01*
G01*
X178839000Y-65230000D01*
G75*
G02*
X178890000Y-65179000I51000J0D01*
G01*
X179790000Y-65179000D01*
G75*
G02*
X179841000Y-65230000I0J-51000D01*
G01*
G37*
G36*
G01*
X179841000Y-67130000D02*
X179841000Y-67930000D01*
G75*
G02*
X179790000Y-67981000I-51000J0D01*
G01*
X178890000Y-67981000D01*
G75*
G02*
X178839000Y-67930000I0J51000D01*
G01*
X178839000Y-67130000D01*
G75*
G02*
X178890000Y-67079000I51000J0D01*
G01*
X179790000Y-67079000D01*
G75*
G02*
X179841000Y-67130000I0J-51000D01*
G01*
G37*
D13*
X171990000Y-119920000D03*
X168180000Y-119920000D03*
X164370000Y-119920000D03*
X160560000Y-119920000D03*
X156750000Y-119920000D03*
G36*
G01*
X151989000Y-121506834D02*
X151989000Y-118333166D01*
G75*
G02*
X152253166Y-118069000I264166J0D01*
G01*
X153626834Y-118069000D01*
G75*
G02*
X153891000Y-118333166I0J-264166D01*
G01*
X153891000Y-121506834D01*
G75*
G02*
X153626834Y-121771000I-264166J0D01*
G01*
X152253166Y-121771000D01*
G75*
G02*
X151989000Y-121506834I0J264166D01*
G01*
G37*
X197390000Y-119920000D03*
X193580000Y-119920000D03*
X189770000Y-119920000D03*
X185960000Y-119920000D03*
X182150000Y-119920000D03*
G36*
G01*
X177389000Y-121506834D02*
X177389000Y-118333166D01*
G75*
G02*
X177653166Y-118069000I264166J0D01*
G01*
X179026834Y-118069000D01*
G75*
G02*
X179291000Y-118333166I0J-264166D01*
G01*
X179291000Y-121506834D01*
G75*
G02*
X179026834Y-121771000I-264166J0D01*
G01*
X177653166Y-121771000D01*
G75*
G02*
X177389000Y-121506834I0J264166D01*
G01*
G37*
X248190000Y-119920000D03*
X244380000Y-119920000D03*
X240570000Y-119920000D03*
X236760000Y-119920000D03*
X232950000Y-119920000D03*
G36*
G01*
X228189000Y-121506834D02*
X228189000Y-118333166D01*
G75*
G02*
X228453166Y-118069000I264166J0D01*
G01*
X229826834Y-118069000D01*
G75*
G02*
X230091000Y-118333166I0J-264166D01*
G01*
X230091000Y-121506834D01*
G75*
G02*
X229826834Y-121771000I-264166J0D01*
G01*
X228453166Y-121771000D01*
G75*
G02*
X228189000Y-121506834I0J264166D01*
G01*
G37*
X222790000Y-119920000D03*
X218980000Y-119920000D03*
X215170000Y-119920000D03*
X211360000Y-119920000D03*
X207550000Y-119920000D03*
G36*
G01*
X202789000Y-121506834D02*
X202789000Y-118333166D01*
G75*
G02*
X203053166Y-118069000I264166J0D01*
G01*
X204426834Y-118069000D01*
G75*
G02*
X204691000Y-118333166I0J-264166D01*
G01*
X204691000Y-121506834D01*
G75*
G02*
X204426834Y-121771000I-264166J0D01*
G01*
X203053166Y-121771000D01*
G75*
G02*
X202789000Y-121506834I0J264166D01*
G01*
G37*
G36*
G01*
X191661400Y-55225500D02*
X189961400Y-55225500D01*
G75*
G02*
X189910400Y-55174500I0J51000D01*
G01*
X189910400Y-53474500D01*
G75*
G02*
X189961400Y-53423500I51000J0D01*
G01*
X191661400Y-53423500D01*
G75*
G02*
X191712400Y-53474500I0J-51000D01*
G01*
X191712400Y-55174500D01*
G75*
G02*
X191661400Y-55225500I-51000J0D01*
G01*
G37*
D14*
X190811400Y-56864500D03*
X193351400Y-54324500D03*
X193351400Y-56864500D03*
X195891400Y-54324500D03*
X195891400Y-56864500D03*
X198431400Y-54324500D03*
X198431400Y-56864500D03*
X200971400Y-54324500D03*
X200971400Y-56864500D03*
X203511400Y-54324500D03*
X203511400Y-56864500D03*
X206051400Y-54324500D03*
X206051400Y-56864500D03*
X208591400Y-54324500D03*
X208591400Y-56864500D03*
X211131400Y-54324500D03*
X211131400Y-56864500D03*
X213671400Y-54324500D03*
X213671400Y-56864500D03*
X216211400Y-54324500D03*
X216211400Y-56864500D03*
X218751400Y-54324500D03*
X218751400Y-56864500D03*
X221291400Y-54324500D03*
X221291400Y-56864500D03*
X223831400Y-54324500D03*
X223831400Y-56864500D03*
X226371400Y-54324500D03*
X226371400Y-56864500D03*
X228911400Y-54324500D03*
X228911400Y-56864500D03*
X231451400Y-54324500D03*
X231451400Y-56864500D03*
X233991400Y-54324500D03*
X233991400Y-56864500D03*
X236531400Y-54324500D03*
X236531400Y-56864500D03*
X239071400Y-54324500D03*
X239071400Y-56864500D03*
D15*
X185960000Y-90710000D03*
X188500000Y-90710000D03*
G36*
G01*
X192043500Y-89710000D02*
X192043500Y-91710000D01*
G75*
G02*
X191992500Y-91761000I-51000J0D01*
G01*
X190087500Y-91761000D01*
G75*
G02*
X190036500Y-91710000I0J51000D01*
G01*
X190036500Y-89710000D01*
G75*
G02*
X190087500Y-89659000I51000J0D01*
G01*
X191992500Y-89659000D01*
G75*
G02*
X192043500Y-89710000I0J-51000D01*
G01*
G37*
D16*
X188500000Y-107370000D03*
D15*
X240570000Y-90710000D03*
X243110000Y-90710000D03*
G36*
G01*
X246653500Y-89710000D02*
X246653500Y-91710000D01*
G75*
G02*
X246602500Y-91761000I-51000J0D01*
G01*
X244697500Y-91761000D01*
G75*
G02*
X244646500Y-91710000I0J51000D01*
G01*
X244646500Y-89710000D01*
G75*
G02*
X244697500Y-89659000I51000J0D01*
G01*
X246602500Y-89659000D01*
G75*
G02*
X246653500Y-89710000I0J-51000D01*
G01*
G37*
D16*
X243110000Y-107370000D03*
D15*
X213900000Y-85630000D03*
X216440000Y-85630000D03*
G36*
G01*
X219983500Y-84630000D02*
X219983500Y-86630000D01*
G75*
G02*
X219932500Y-86681000I-51000J0D01*
G01*
X218027500Y-86681000D01*
G75*
G02*
X217976500Y-86630000I0J51000D01*
G01*
X217976500Y-84630000D01*
G75*
G02*
X218027500Y-84579000I51000J0D01*
G01*
X219932500Y-84579000D01*
G75*
G02*
X219983500Y-84630000I0J-51000D01*
G01*
G37*
D16*
X216440000Y-102290000D03*
D15*
X198660000Y-90710000D03*
X201200000Y-90710000D03*
G36*
G01*
X204743500Y-89710000D02*
X204743500Y-91710000D01*
G75*
G02*
X204692500Y-91761000I-51000J0D01*
G01*
X202787500Y-91761000D01*
G75*
G02*
X202736500Y-91710000I0J51000D01*
G01*
X202736500Y-89710000D01*
G75*
G02*
X202787500Y-89659000I51000J0D01*
G01*
X204692500Y-89659000D01*
G75*
G02*
X204743500Y-89710000I0J-51000D01*
G01*
G37*
D16*
X201200000Y-107370000D03*
D15*
X228570000Y-90710000D03*
X231110000Y-90710000D03*
G36*
G01*
X234653500Y-89710000D02*
X234653500Y-91710000D01*
G75*
G02*
X234602500Y-91761000I-51000J0D01*
G01*
X232697500Y-91761000D01*
G75*
G02*
X232646500Y-91710000I0J51000D01*
G01*
X232646500Y-89710000D01*
G75*
G02*
X232697500Y-89659000I51000J0D01*
G01*
X234602500Y-89659000D01*
G75*
G02*
X234653500Y-89710000I0J-51000D01*
G01*
G37*
D16*
X231110000Y-107370000D03*
D14*
X203740000Y-46260000D03*
G36*
G01*
X202839000Y-44570000D02*
X202839000Y-42870000D01*
G75*
G02*
X202890000Y-42819000I51000J0D01*
G01*
X204590000Y-42819000D01*
G75*
G02*
X204641000Y-42870000I0J-51000D01*
G01*
X204641000Y-44570000D01*
G75*
G02*
X204590000Y-44621000I-51000J0D01*
G01*
X202890000Y-44621000D01*
G75*
G02*
X202839000Y-44570000I0J51000D01*
G01*
G37*
X229140000Y-46260000D03*
G36*
G01*
X228239000Y-44570000D02*
X228239000Y-42870000D01*
G75*
G02*
X228290000Y-42819000I51000J0D01*
G01*
X229990000Y-42819000D01*
G75*
G02*
X230041000Y-42870000I0J-51000D01*
G01*
X230041000Y-44570000D01*
G75*
G02*
X229990000Y-44621000I-51000J0D01*
G01*
X228290000Y-44621000D01*
G75*
G02*
X228239000Y-44570000I0J51000D01*
G01*
G37*
X236760000Y-46260000D03*
G36*
G01*
X235859000Y-44570000D02*
X235859000Y-42870000D01*
G75*
G02*
X235910000Y-42819000I51000J0D01*
G01*
X237610000Y-42819000D01*
G75*
G02*
X237661000Y-42870000I0J-51000D01*
G01*
X237661000Y-44570000D01*
G75*
G02*
X237610000Y-44621000I-51000J0D01*
G01*
X235910000Y-44621000D01*
G75*
G02*
X235859000Y-44570000I0J51000D01*
G01*
G37*
X193580000Y-46260000D03*
G36*
G01*
X192679000Y-44570000D02*
X192679000Y-42870000D01*
G75*
G02*
X192730000Y-42819000I51000J0D01*
G01*
X194430000Y-42819000D01*
G75*
G02*
X194481000Y-42870000I0J-51000D01*
G01*
X194481000Y-44570000D01*
G75*
G02*
X194430000Y-44621000I-51000J0D01*
G01*
X192730000Y-44621000D01*
G75*
G02*
X192679000Y-44570000I0J51000D01*
G01*
G37*
X218980000Y-111030000D03*
X216440000Y-111030000D03*
G36*
G01*
X214750000Y-111931000D02*
X213050000Y-111931000D01*
G75*
G02*
X212999000Y-111880000I0J51000D01*
G01*
X212999000Y-110180000D01*
G75*
G02*
X213050000Y-110129000I51000J0D01*
G01*
X214750000Y-110129000D01*
G75*
G02*
X214801000Y-110180000I0J-51000D01*
G01*
X214801000Y-111880000D01*
G75*
G02*
X214750000Y-111931000I-51000J0D01*
G01*
G37*
X197136000Y-28480000D03*
X197136000Y-31020000D03*
G36*
G01*
X198037000Y-32710000D02*
X198037000Y-34410000D01*
G75*
G02*
X197986000Y-34461000I-51000J0D01*
G01*
X196286000Y-34461000D01*
G75*
G02*
X196235000Y-34410000I0J51000D01*
G01*
X196235000Y-32710000D01*
G75*
G02*
X196286000Y-32659000I51000J0D01*
G01*
X197986000Y-32659000D01*
G75*
G02*
X198037000Y-32710000I0J-51000D01*
G01*
G37*
X202216000Y-28480000D03*
X202216000Y-31020000D03*
G36*
G01*
X203117000Y-32710000D02*
X203117000Y-34410000D01*
G75*
G02*
X203066000Y-34461000I-51000J0D01*
G01*
X201366000Y-34461000D01*
G75*
G02*
X201315000Y-34410000I0J51000D01*
G01*
X201315000Y-32710000D01*
G75*
G02*
X201366000Y-32659000I51000J0D01*
G01*
X203066000Y-32659000D01*
G75*
G02*
X203117000Y-32710000I0J-51000D01*
G01*
G37*
X207296000Y-28480000D03*
X207296000Y-31020000D03*
G36*
G01*
X208197000Y-32710000D02*
X208197000Y-34410000D01*
G75*
G02*
X208146000Y-34461000I-51000J0D01*
G01*
X206446000Y-34461000D01*
G75*
G02*
X206395000Y-34410000I0J51000D01*
G01*
X206395000Y-32710000D01*
G75*
G02*
X206446000Y-32659000I51000J0D01*
G01*
X208146000Y-32659000D01*
G75*
G02*
X208197000Y-32710000I0J-51000D01*
G01*
G37*
X212376000Y-28480000D03*
X212376000Y-31020000D03*
G36*
G01*
X213277000Y-32710000D02*
X213277000Y-34410000D01*
G75*
G02*
X213226000Y-34461000I-51000J0D01*
G01*
X211526000Y-34461000D01*
G75*
G02*
X211475000Y-34410000I0J51000D01*
G01*
X211475000Y-32710000D01*
G75*
G02*
X211526000Y-32659000I51000J0D01*
G01*
X213226000Y-32659000D01*
G75*
G02*
X213277000Y-32710000I0J-51000D01*
G01*
G37*
X220758000Y-28480000D03*
X220758000Y-31020000D03*
G36*
G01*
X221659000Y-32710000D02*
X221659000Y-34410000D01*
G75*
G02*
X221608000Y-34461000I-51000J0D01*
G01*
X219908000Y-34461000D01*
G75*
G02*
X219857000Y-34410000I0J51000D01*
G01*
X219857000Y-32710000D01*
G75*
G02*
X219908000Y-32659000I51000J0D01*
G01*
X221608000Y-32659000D01*
G75*
G02*
X221659000Y-32710000I0J-51000D01*
G01*
G37*
X225838000Y-28480000D03*
X225838000Y-31020000D03*
G36*
G01*
X226739000Y-32710000D02*
X226739000Y-34410000D01*
G75*
G02*
X226688000Y-34461000I-51000J0D01*
G01*
X224988000Y-34461000D01*
G75*
G02*
X224937000Y-34410000I0J51000D01*
G01*
X224937000Y-32710000D01*
G75*
G02*
X224988000Y-32659000I51000J0D01*
G01*
X226688000Y-32659000D01*
G75*
G02*
X226739000Y-32710000I0J-51000D01*
G01*
G37*
X230918000Y-28480000D03*
X230918000Y-31020000D03*
G36*
G01*
X231819000Y-32710000D02*
X231819000Y-34410000D01*
G75*
G02*
X231768000Y-34461000I-51000J0D01*
G01*
X230068000Y-34461000D01*
G75*
G02*
X230017000Y-34410000I0J51000D01*
G01*
X230017000Y-32710000D01*
G75*
G02*
X230068000Y-32659000I51000J0D01*
G01*
X231768000Y-32659000D01*
G75*
G02*
X231819000Y-32710000I0J-51000D01*
G01*
G37*
X235998000Y-28480000D03*
X235998000Y-31020000D03*
G36*
G01*
X236899000Y-32710000D02*
X236899000Y-34410000D01*
G75*
G02*
X236848000Y-34461000I-51000J0D01*
G01*
X235148000Y-34461000D01*
G75*
G02*
X235097000Y-34410000I0J51000D01*
G01*
X235097000Y-32710000D01*
G75*
G02*
X235148000Y-32659000I51000J0D01*
G01*
X236848000Y-32659000D01*
G75*
G02*
X236899000Y-32710000I0J-51000D01*
G01*
G37*
G36*
G01*
X216040000Y-74953000D02*
X216840000Y-74953000D01*
G75*
G02*
X216891000Y-75004000I0J-51000D01*
G01*
X216891000Y-75904000D01*
G75*
G02*
X216840000Y-75955000I-51000J0D01*
G01*
X216040000Y-75955000D01*
G75*
G02*
X215989000Y-75904000I0J51000D01*
G01*
X215989000Y-75004000D01*
G75*
G02*
X216040000Y-74953000I51000J0D01*
G01*
G37*
G36*
G01*
X215090000Y-72953000D02*
X215890000Y-72953000D01*
G75*
G02*
X215941000Y-73004000I0J-51000D01*
G01*
X215941000Y-73904000D01*
G75*
G02*
X215890000Y-73955000I-51000J0D01*
G01*
X215090000Y-73955000D01*
G75*
G02*
X215039000Y-73904000I0J51000D01*
G01*
X215039000Y-73004000D01*
G75*
G02*
X215090000Y-72953000I51000J0D01*
G01*
G37*
G36*
G01*
X216990000Y-72953000D02*
X217790000Y-72953000D01*
G75*
G02*
X217841000Y-73004000I0J-51000D01*
G01*
X217841000Y-73904000D01*
G75*
G02*
X217790000Y-73955000I-51000J0D01*
G01*
X216990000Y-73955000D01*
G75*
G02*
X216939000Y-73904000I0J51000D01*
G01*
X216939000Y-73004000D01*
G75*
G02*
X216990000Y-72953000I51000J0D01*
G01*
G37*
G36*
G01*
X231280000Y-74699000D02*
X232080000Y-74699000D01*
G75*
G02*
X232131000Y-74750000I0J-51000D01*
G01*
X232131000Y-75650000D01*
G75*
G02*
X232080000Y-75701000I-51000J0D01*
G01*
X231280000Y-75701000D01*
G75*
G02*
X231229000Y-75650000I0J51000D01*
G01*
X231229000Y-74750000D01*
G75*
G02*
X231280000Y-74699000I51000J0D01*
G01*
G37*
G36*
G01*
X230330000Y-72699000D02*
X231130000Y-72699000D01*
G75*
G02*
X231181000Y-72750000I0J-51000D01*
G01*
X231181000Y-73650000D01*
G75*
G02*
X231130000Y-73701000I-51000J0D01*
G01*
X230330000Y-73701000D01*
G75*
G02*
X230279000Y-73650000I0J51000D01*
G01*
X230279000Y-72750000D01*
G75*
G02*
X230330000Y-72699000I51000J0D01*
G01*
G37*
G36*
G01*
X232230000Y-72699000D02*
X233030000Y-72699000D01*
G75*
G02*
X233081000Y-72750000I0J-51000D01*
G01*
X233081000Y-73650000D01*
G75*
G02*
X233030000Y-73701000I-51000J0D01*
G01*
X232230000Y-73701000D01*
G75*
G02*
X232179000Y-73650000I0J51000D01*
G01*
X232179000Y-72750000D01*
G75*
G02*
X232230000Y-72699000I51000J0D01*
G01*
G37*
D10*
X185866000Y-55580000D03*
X185966000Y-78580000D03*
X243966000Y-78680000D03*
X243966000Y-55580000D03*
D17*
G36*
X153892165Y-121505208D02*
G01*
X153893000Y-121506834D01*
X153893000Y-121590971D01*
X153892990Y-121591167D01*
X153889056Y-121631111D01*
X153888980Y-121631496D01*
X153879119Y-121664005D01*
X153878969Y-121664367D01*
X153862955Y-121694325D01*
X153862737Y-121694651D01*
X153841187Y-121720910D01*
X153840910Y-121721187D01*
X153814651Y-121742737D01*
X153814325Y-121742955D01*
X153784367Y-121758969D01*
X153784005Y-121759119D01*
X153751496Y-121768980D01*
X153751111Y-121769056D01*
X153711167Y-121772990D01*
X153710971Y-121773000D01*
X153626834Y-121773000D01*
X153625102Y-121772000D01*
X153625102Y-121770000D01*
X153626638Y-121769010D01*
X153677975Y-121763954D01*
X153727157Y-121749035D01*
X153772481Y-121724809D01*
X153812207Y-121692207D01*
X153844809Y-121652481D01*
X153869035Y-121607157D01*
X153883954Y-121557975D01*
X153889010Y-121506638D01*
X153890175Y-121505012D01*
X153892165Y-121505208D01*
G37*
G36*
X204692165Y-121505208D02*
G01*
X204693000Y-121506834D01*
X204693000Y-121590971D01*
X204692990Y-121591167D01*
X204689056Y-121631111D01*
X204688980Y-121631496D01*
X204679119Y-121664005D01*
X204678969Y-121664367D01*
X204662955Y-121694325D01*
X204662737Y-121694651D01*
X204641187Y-121720910D01*
X204640910Y-121721187D01*
X204614651Y-121742737D01*
X204614325Y-121742955D01*
X204584367Y-121758969D01*
X204584005Y-121759119D01*
X204551496Y-121768980D01*
X204551111Y-121769056D01*
X204511167Y-121772990D01*
X204510971Y-121773000D01*
X204426834Y-121773000D01*
X204425102Y-121772000D01*
X204425102Y-121770000D01*
X204426638Y-121769010D01*
X204477975Y-121763954D01*
X204527157Y-121749035D01*
X204572481Y-121724809D01*
X204612207Y-121692207D01*
X204644809Y-121652481D01*
X204669035Y-121607157D01*
X204683954Y-121557975D01*
X204689010Y-121506638D01*
X204690175Y-121505012D01*
X204692165Y-121505208D01*
G37*
G36*
X228190990Y-121506638D02*
G01*
X228196046Y-121557975D01*
X228210965Y-121607157D01*
X228235191Y-121652481D01*
X228267793Y-121692207D01*
X228307519Y-121724809D01*
X228352843Y-121749035D01*
X228402025Y-121763954D01*
X228453362Y-121769010D01*
X228454988Y-121770175D01*
X228454792Y-121772165D01*
X228453166Y-121773000D01*
X228369029Y-121773000D01*
X228368833Y-121772990D01*
X228328889Y-121769056D01*
X228328504Y-121768980D01*
X228295995Y-121759119D01*
X228295633Y-121758969D01*
X228265675Y-121742955D01*
X228265349Y-121742737D01*
X228239090Y-121721187D01*
X228238813Y-121720910D01*
X228217263Y-121694651D01*
X228217045Y-121694325D01*
X228201031Y-121664367D01*
X228200881Y-121664005D01*
X228191020Y-121631496D01*
X228190944Y-121631111D01*
X228187010Y-121591167D01*
X228187000Y-121590971D01*
X228187000Y-121506834D01*
X228188000Y-121505102D01*
X228190000Y-121505102D01*
X228190990Y-121506638D01*
G37*
G36*
X177390990Y-121506638D02*
G01*
X177396046Y-121557975D01*
X177410965Y-121607157D01*
X177435191Y-121652481D01*
X177467793Y-121692207D01*
X177507519Y-121724809D01*
X177552843Y-121749035D01*
X177602025Y-121763954D01*
X177653362Y-121769010D01*
X177654988Y-121770175D01*
X177654792Y-121772165D01*
X177653166Y-121773000D01*
X177569029Y-121773000D01*
X177568833Y-121772990D01*
X177528889Y-121769056D01*
X177528504Y-121768980D01*
X177495995Y-121759119D01*
X177495633Y-121758969D01*
X177465675Y-121742955D01*
X177465349Y-121742737D01*
X177439090Y-121721187D01*
X177438813Y-121720910D01*
X177417263Y-121694651D01*
X177417045Y-121694325D01*
X177401031Y-121664367D01*
X177400881Y-121664005D01*
X177391020Y-121631496D01*
X177390944Y-121631111D01*
X177387010Y-121591167D01*
X177387000Y-121590971D01*
X177387000Y-121506834D01*
X177388000Y-121505102D01*
X177390000Y-121505102D01*
X177390990Y-121506638D01*
G37*
G36*
X151990990Y-121506638D02*
G01*
X151996046Y-121557975D01*
X152010965Y-121607157D01*
X152035191Y-121652481D01*
X152067793Y-121692207D01*
X152107519Y-121724809D01*
X152152843Y-121749035D01*
X152202025Y-121763954D01*
X152253362Y-121769010D01*
X152254988Y-121770175D01*
X152254792Y-121772165D01*
X152253166Y-121773000D01*
X152169029Y-121773000D01*
X152168833Y-121772990D01*
X152128889Y-121769056D01*
X152128504Y-121768980D01*
X152095995Y-121759119D01*
X152095633Y-121758969D01*
X152065675Y-121742955D01*
X152065349Y-121742737D01*
X152039090Y-121721187D01*
X152038813Y-121720910D01*
X152017263Y-121694651D01*
X152017045Y-121694325D01*
X152001031Y-121664367D01*
X152000881Y-121664005D01*
X151991020Y-121631496D01*
X151990944Y-121631111D01*
X151987010Y-121591167D01*
X151987000Y-121590971D01*
X151987000Y-121506834D01*
X151988000Y-121505102D01*
X151990000Y-121505102D01*
X151990990Y-121506638D01*
G37*
G36*
X230092165Y-121505208D02*
G01*
X230093000Y-121506834D01*
X230093000Y-121590971D01*
X230092990Y-121591167D01*
X230089056Y-121631111D01*
X230088980Y-121631496D01*
X230079119Y-121664005D01*
X230078969Y-121664367D01*
X230062955Y-121694325D01*
X230062737Y-121694651D01*
X230041187Y-121720910D01*
X230040910Y-121721187D01*
X230014651Y-121742737D01*
X230014325Y-121742955D01*
X229984367Y-121758969D01*
X229984005Y-121759119D01*
X229951496Y-121768980D01*
X229951111Y-121769056D01*
X229911167Y-121772990D01*
X229910971Y-121773000D01*
X229826834Y-121773000D01*
X229825102Y-121772000D01*
X229825102Y-121770000D01*
X229826638Y-121769010D01*
X229877975Y-121763954D01*
X229927157Y-121749035D01*
X229972481Y-121724809D01*
X230012207Y-121692207D01*
X230044809Y-121652481D01*
X230069035Y-121607157D01*
X230083954Y-121557975D01*
X230089010Y-121506638D01*
X230090175Y-121505012D01*
X230092165Y-121505208D01*
G37*
G36*
X179292165Y-121505208D02*
G01*
X179293000Y-121506834D01*
X179293000Y-121590971D01*
X179292990Y-121591167D01*
X179289056Y-121631111D01*
X179288980Y-121631496D01*
X179279119Y-121664005D01*
X179278969Y-121664367D01*
X179262955Y-121694325D01*
X179262737Y-121694651D01*
X179241187Y-121720910D01*
X179240910Y-121721187D01*
X179214651Y-121742737D01*
X179214325Y-121742955D01*
X179184367Y-121758969D01*
X179184005Y-121759119D01*
X179151496Y-121768980D01*
X179151111Y-121769056D01*
X179111167Y-121772990D01*
X179110971Y-121773000D01*
X179026834Y-121773000D01*
X179025102Y-121772000D01*
X179025102Y-121770000D01*
X179026638Y-121769010D01*
X179077975Y-121763954D01*
X179127157Y-121749035D01*
X179172481Y-121724809D01*
X179212207Y-121692207D01*
X179244809Y-121652481D01*
X179269035Y-121607157D01*
X179283954Y-121557975D01*
X179289010Y-121506638D01*
X179290175Y-121505012D01*
X179292165Y-121505208D01*
G37*
G36*
X202790990Y-121506638D02*
G01*
X202796046Y-121557975D01*
X202810965Y-121607157D01*
X202835191Y-121652481D01*
X202867793Y-121692207D01*
X202907519Y-121724809D01*
X202952843Y-121749035D01*
X203002025Y-121763954D01*
X203053362Y-121769010D01*
X203054988Y-121770175D01*
X203054792Y-121772165D01*
X203053166Y-121773000D01*
X202969029Y-121773000D01*
X202968833Y-121772990D01*
X202928889Y-121769056D01*
X202928504Y-121768980D01*
X202895995Y-121759119D01*
X202895633Y-121758969D01*
X202865675Y-121742955D01*
X202865349Y-121742737D01*
X202839090Y-121721187D01*
X202838813Y-121720910D01*
X202817263Y-121694651D01*
X202817045Y-121694325D01*
X202801031Y-121664367D01*
X202800881Y-121664005D01*
X202791020Y-121631496D01*
X202790944Y-121631111D01*
X202787010Y-121591167D01*
X202787000Y-121590971D01*
X202787000Y-121506834D01*
X202788000Y-121505102D01*
X202790000Y-121505102D01*
X202790990Y-121506638D01*
G37*
G36*
X152254898Y-118068000D02*
G01*
X152254898Y-118070000D01*
X152253362Y-118070990D01*
X152202025Y-118076046D01*
X152152843Y-118090965D01*
X152107519Y-118115191D01*
X152067793Y-118147793D01*
X152035191Y-118187519D01*
X152010965Y-118232843D01*
X151996046Y-118282025D01*
X151990990Y-118333362D01*
X151989825Y-118334988D01*
X151987835Y-118334792D01*
X151987000Y-118333166D01*
X151987000Y-118249029D01*
X151987010Y-118248833D01*
X151990944Y-118208889D01*
X151991020Y-118208504D01*
X152000881Y-118175995D01*
X152001031Y-118175633D01*
X152017045Y-118145675D01*
X152017263Y-118145349D01*
X152038813Y-118119090D01*
X152039090Y-118118813D01*
X152065349Y-118097263D01*
X152065675Y-118097045D01*
X152095633Y-118081031D01*
X152095995Y-118080881D01*
X152128504Y-118071020D01*
X152128889Y-118070944D01*
X152168833Y-118067010D01*
X152169029Y-118067000D01*
X152253166Y-118067000D01*
X152254898Y-118068000D01*
G37*
G36*
X203054898Y-118068000D02*
G01*
X203054898Y-118070000D01*
X203053362Y-118070990D01*
X203002025Y-118076046D01*
X202952843Y-118090965D01*
X202907519Y-118115191D01*
X202867793Y-118147793D01*
X202835191Y-118187519D01*
X202810965Y-118232843D01*
X202796046Y-118282025D01*
X202790990Y-118333362D01*
X202789825Y-118334988D01*
X202787835Y-118334792D01*
X202787000Y-118333166D01*
X202787000Y-118249029D01*
X202787010Y-118248833D01*
X202790944Y-118208889D01*
X202791020Y-118208504D01*
X202800881Y-118175995D01*
X202801031Y-118175633D01*
X202817045Y-118145675D01*
X202817263Y-118145349D01*
X202838813Y-118119090D01*
X202839090Y-118118813D01*
X202865349Y-118097263D01*
X202865675Y-118097045D01*
X202895633Y-118081031D01*
X202895995Y-118080881D01*
X202928504Y-118071020D01*
X202928889Y-118070944D01*
X202968833Y-118067010D01*
X202969029Y-118067000D01*
X203053166Y-118067000D01*
X203054898Y-118068000D01*
G37*
G36*
X228454898Y-118068000D02*
G01*
X228454898Y-118070000D01*
X228453362Y-118070990D01*
X228402025Y-118076046D01*
X228352843Y-118090965D01*
X228307519Y-118115191D01*
X228267793Y-118147793D01*
X228235191Y-118187519D01*
X228210965Y-118232843D01*
X228196046Y-118282025D01*
X228190990Y-118333362D01*
X228189825Y-118334988D01*
X228187835Y-118334792D01*
X228187000Y-118333166D01*
X228187000Y-118249029D01*
X228187010Y-118248833D01*
X228190944Y-118208889D01*
X228191020Y-118208504D01*
X228200881Y-118175995D01*
X228201031Y-118175633D01*
X228217045Y-118145675D01*
X228217263Y-118145349D01*
X228238813Y-118119090D01*
X228239090Y-118118813D01*
X228265349Y-118097263D01*
X228265675Y-118097045D01*
X228295633Y-118081031D01*
X228295995Y-118080881D01*
X228328504Y-118071020D01*
X228328889Y-118070944D01*
X228368833Y-118067010D01*
X228369029Y-118067000D01*
X228453166Y-118067000D01*
X228454898Y-118068000D01*
G37*
G36*
X177654898Y-118068000D02*
G01*
X177654898Y-118070000D01*
X177653362Y-118070990D01*
X177602025Y-118076046D01*
X177552843Y-118090965D01*
X177507519Y-118115191D01*
X177467793Y-118147793D01*
X177435191Y-118187519D01*
X177410965Y-118232843D01*
X177396046Y-118282025D01*
X177390990Y-118333362D01*
X177389825Y-118334988D01*
X177387835Y-118334792D01*
X177387000Y-118333166D01*
X177387000Y-118249029D01*
X177387010Y-118248833D01*
X177390944Y-118208889D01*
X177391020Y-118208504D01*
X177400881Y-118175995D01*
X177401031Y-118175633D01*
X177417045Y-118145675D01*
X177417263Y-118145349D01*
X177438813Y-118119090D01*
X177439090Y-118118813D01*
X177465349Y-118097263D01*
X177465675Y-118097045D01*
X177495633Y-118081031D01*
X177495995Y-118080881D01*
X177528504Y-118071020D01*
X177528889Y-118070944D01*
X177568833Y-118067010D01*
X177569029Y-118067000D01*
X177653166Y-118067000D01*
X177654898Y-118068000D01*
G37*
G36*
X153711167Y-118067010D02*
G01*
X153751111Y-118070944D01*
X153751496Y-118071020D01*
X153784005Y-118080881D01*
X153784367Y-118081031D01*
X153814325Y-118097045D01*
X153814651Y-118097263D01*
X153840910Y-118118813D01*
X153841187Y-118119090D01*
X153862737Y-118145349D01*
X153862955Y-118145675D01*
X153878969Y-118175633D01*
X153879119Y-118175995D01*
X153888980Y-118208504D01*
X153889056Y-118208889D01*
X153892990Y-118248833D01*
X153893000Y-118249029D01*
X153893000Y-118333166D01*
X153892000Y-118334898D01*
X153890000Y-118334898D01*
X153889010Y-118333362D01*
X153883954Y-118282025D01*
X153869035Y-118232843D01*
X153844809Y-118187519D01*
X153812207Y-118147793D01*
X153772481Y-118115191D01*
X153727157Y-118090965D01*
X153677975Y-118076046D01*
X153626638Y-118070990D01*
X153625012Y-118069825D01*
X153625208Y-118067835D01*
X153626834Y-118067000D01*
X153710971Y-118067000D01*
X153711167Y-118067010D01*
G37*
G36*
X229911167Y-118067010D02*
G01*
X229951111Y-118070944D01*
X229951496Y-118071020D01*
X229984005Y-118080881D01*
X229984367Y-118081031D01*
X230014325Y-118097045D01*
X230014651Y-118097263D01*
X230040910Y-118118813D01*
X230041187Y-118119090D01*
X230062737Y-118145349D01*
X230062955Y-118145675D01*
X230078969Y-118175633D01*
X230079119Y-118175995D01*
X230088980Y-118208504D01*
X230089056Y-118208889D01*
X230092990Y-118248833D01*
X230093000Y-118249029D01*
X230093000Y-118333166D01*
X230092000Y-118334898D01*
X230090000Y-118334898D01*
X230089010Y-118333362D01*
X230083954Y-118282025D01*
X230069035Y-118232843D01*
X230044809Y-118187519D01*
X230012207Y-118147793D01*
X229972481Y-118115191D01*
X229927157Y-118090965D01*
X229877975Y-118076046D01*
X229826638Y-118070990D01*
X229825012Y-118069825D01*
X229825208Y-118067835D01*
X229826834Y-118067000D01*
X229910971Y-118067000D01*
X229911167Y-118067010D01*
G37*
G36*
X179111167Y-118067010D02*
G01*
X179151111Y-118070944D01*
X179151496Y-118071020D01*
X179184005Y-118080881D01*
X179184367Y-118081031D01*
X179214325Y-118097045D01*
X179214651Y-118097263D01*
X179240910Y-118118813D01*
X179241187Y-118119090D01*
X179262737Y-118145349D01*
X179262955Y-118145675D01*
X179278969Y-118175633D01*
X179279119Y-118175995D01*
X179288980Y-118208504D01*
X179289056Y-118208889D01*
X179292990Y-118248833D01*
X179293000Y-118249029D01*
X179293000Y-118333166D01*
X179292000Y-118334898D01*
X179290000Y-118334898D01*
X179289010Y-118333362D01*
X179283954Y-118282025D01*
X179269035Y-118232843D01*
X179244809Y-118187519D01*
X179212207Y-118147793D01*
X179172481Y-118115191D01*
X179127157Y-118090965D01*
X179077975Y-118076046D01*
X179026638Y-118070990D01*
X179025012Y-118069825D01*
X179025208Y-118067835D01*
X179026834Y-118067000D01*
X179110971Y-118067000D01*
X179111167Y-118067010D01*
G37*
G36*
X204511167Y-118067010D02*
G01*
X204551111Y-118070944D01*
X204551496Y-118071020D01*
X204584005Y-118080881D01*
X204584367Y-118081031D01*
X204614325Y-118097045D01*
X204614651Y-118097263D01*
X204640910Y-118118813D01*
X204641187Y-118119090D01*
X204662737Y-118145349D01*
X204662955Y-118145675D01*
X204678969Y-118175633D01*
X204679119Y-118175995D01*
X204688980Y-118208504D01*
X204689056Y-118208889D01*
X204692990Y-118248833D01*
X204693000Y-118249029D01*
X204693000Y-118333166D01*
X204692000Y-118334898D01*
X204690000Y-118334898D01*
X204689010Y-118333362D01*
X204683954Y-118282025D01*
X204669035Y-118232843D01*
X204644809Y-118187519D01*
X204612207Y-118147793D01*
X204572481Y-118115191D01*
X204527157Y-118090965D01*
X204477975Y-118076046D01*
X204426638Y-118070990D01*
X204425012Y-118069825D01*
X204425208Y-118067835D01*
X204426834Y-118067000D01*
X204510971Y-118067000D01*
X204511167Y-118067010D01*
G37*
G36*
X164502165Y-90879929D02*
G01*
X164503000Y-90881555D01*
X164503000Y-90977266D01*
X164502990Y-90977462D01*
X164499369Y-91014227D01*
X164499293Y-91014612D01*
X164490358Y-91044067D01*
X164490208Y-91044429D01*
X164475702Y-91071566D01*
X164475484Y-91071892D01*
X164455960Y-91095683D01*
X164455683Y-91095960D01*
X164431892Y-91115484D01*
X164431566Y-91115702D01*
X164404429Y-91130208D01*
X164404067Y-91130358D01*
X164374612Y-91139293D01*
X164374227Y-91139369D01*
X164337462Y-91142990D01*
X164337266Y-91143000D01*
X164241555Y-91143000D01*
X164239823Y-91142000D01*
X164239823Y-91140000D01*
X164241359Y-91139010D01*
X164291775Y-91134045D01*
X164340071Y-91119394D01*
X164384579Y-91095605D01*
X164423589Y-91063589D01*
X164455605Y-91024579D01*
X164479394Y-90980071D01*
X164494045Y-90931775D01*
X164499010Y-90881359D01*
X164500175Y-90879733D01*
X164502165Y-90879929D01*
G37*
G36*
X161700990Y-90881359D02*
G01*
X161705955Y-90931775D01*
X161720606Y-90980071D01*
X161744395Y-91024579D01*
X161776411Y-91063589D01*
X161815421Y-91095605D01*
X161859929Y-91119394D01*
X161908225Y-91134045D01*
X161958641Y-91139010D01*
X161960267Y-91140175D01*
X161960071Y-91142165D01*
X161958445Y-91143000D01*
X161862734Y-91143000D01*
X161862538Y-91142990D01*
X161825773Y-91139369D01*
X161825388Y-91139293D01*
X161795933Y-91130358D01*
X161795571Y-91130208D01*
X161768434Y-91115702D01*
X161768108Y-91115484D01*
X161744317Y-91095960D01*
X161744040Y-91095683D01*
X161724516Y-91071892D01*
X161724298Y-91071566D01*
X161709792Y-91044429D01*
X161709642Y-91044067D01*
X161700707Y-91014612D01*
X161700631Y-91014227D01*
X161697010Y-90977462D01*
X161697000Y-90977266D01*
X161697000Y-90881555D01*
X161698000Y-90879823D01*
X161700000Y-90879823D01*
X161700990Y-90881359D01*
G37*
G36*
X161960177Y-87738000D02*
G01*
X161960177Y-87740000D01*
X161958641Y-87740990D01*
X161908225Y-87745955D01*
X161859929Y-87760606D01*
X161815421Y-87784395D01*
X161776411Y-87816411D01*
X161744395Y-87855421D01*
X161720606Y-87899929D01*
X161705955Y-87948225D01*
X161700990Y-87998641D01*
X161699825Y-88000267D01*
X161697835Y-88000071D01*
X161697000Y-87998445D01*
X161697000Y-87902734D01*
X161697010Y-87902538D01*
X161700631Y-87865773D01*
X161700707Y-87865388D01*
X161709642Y-87835933D01*
X161709792Y-87835571D01*
X161724298Y-87808434D01*
X161724516Y-87808108D01*
X161744040Y-87784317D01*
X161744317Y-87784040D01*
X161768108Y-87764516D01*
X161768434Y-87764298D01*
X161795571Y-87749792D01*
X161795933Y-87749642D01*
X161825388Y-87740707D01*
X161825773Y-87740631D01*
X161862538Y-87737010D01*
X161862734Y-87737000D01*
X161958445Y-87737000D01*
X161960177Y-87738000D01*
G37*
G36*
X164337462Y-87737010D02*
G01*
X164374227Y-87740631D01*
X164374612Y-87740707D01*
X164404067Y-87749642D01*
X164404429Y-87749792D01*
X164431566Y-87764298D01*
X164431892Y-87764516D01*
X164455683Y-87784040D01*
X164455960Y-87784317D01*
X164475484Y-87808108D01*
X164475702Y-87808434D01*
X164490208Y-87835571D01*
X164490358Y-87835933D01*
X164499293Y-87865388D01*
X164499369Y-87865773D01*
X164502990Y-87902538D01*
X164503000Y-87902734D01*
X164503000Y-87998445D01*
X164502000Y-88000177D01*
X164500000Y-88000177D01*
X164499010Y-87998641D01*
X164494045Y-87948225D01*
X164479394Y-87899929D01*
X164455605Y-87855421D01*
X164423589Y-87816411D01*
X164384579Y-87784395D01*
X164340071Y-87760606D01*
X164291775Y-87745955D01*
X164241359Y-87740990D01*
X164239733Y-87739825D01*
X164239929Y-87737835D01*
X164241555Y-87737000D01*
X164337266Y-87737000D01*
X164337462Y-87737010D01*
G37*
G36*
X169882165Y-34699929D02*
G01*
X169883000Y-34701555D01*
X169883000Y-34797266D01*
X169882990Y-34797462D01*
X169879369Y-34834227D01*
X169879293Y-34834612D01*
X169870358Y-34864067D01*
X169870208Y-34864429D01*
X169855702Y-34891566D01*
X169855484Y-34891892D01*
X169835960Y-34915683D01*
X169835683Y-34915960D01*
X169811892Y-34935484D01*
X169811566Y-34935702D01*
X169784429Y-34950208D01*
X169784067Y-34950358D01*
X169754612Y-34959293D01*
X169754227Y-34959369D01*
X169717462Y-34962990D01*
X169717266Y-34963000D01*
X169621555Y-34963000D01*
X169619823Y-34962000D01*
X169619823Y-34960000D01*
X169621359Y-34959010D01*
X169671775Y-34954045D01*
X169720071Y-34939394D01*
X169764579Y-34915605D01*
X169803589Y-34883589D01*
X169835605Y-34844579D01*
X169859394Y-34800071D01*
X169874045Y-34751775D01*
X169879010Y-34701359D01*
X169880175Y-34699733D01*
X169882165Y-34699929D01*
G37*
G36*
X166480990Y-34701359D02*
G01*
X166485955Y-34751775D01*
X166500606Y-34800071D01*
X166524395Y-34844579D01*
X166556411Y-34883589D01*
X166595421Y-34915605D01*
X166639929Y-34939394D01*
X166688225Y-34954045D01*
X166738641Y-34959010D01*
X166740267Y-34960175D01*
X166740071Y-34962165D01*
X166738445Y-34963000D01*
X166642734Y-34963000D01*
X166642538Y-34962990D01*
X166605773Y-34959369D01*
X166605388Y-34959293D01*
X166575933Y-34950358D01*
X166575571Y-34950208D01*
X166548434Y-34935702D01*
X166548108Y-34935484D01*
X166524317Y-34915960D01*
X166524040Y-34915683D01*
X166504516Y-34891892D01*
X166504298Y-34891566D01*
X166489792Y-34864429D01*
X166489642Y-34864067D01*
X166480707Y-34834612D01*
X166480631Y-34834227D01*
X166477010Y-34797462D01*
X166477000Y-34797266D01*
X166477000Y-34701555D01*
X166478000Y-34699823D01*
X166480000Y-34699823D01*
X166480990Y-34701359D01*
G37*
G36*
X166740177Y-32158000D02*
G01*
X166740177Y-32160000D01*
X166738641Y-32160990D01*
X166688225Y-32165955D01*
X166639929Y-32180606D01*
X166595421Y-32204395D01*
X166556411Y-32236411D01*
X166524395Y-32275421D01*
X166500606Y-32319929D01*
X166485955Y-32368225D01*
X166480990Y-32418641D01*
X166479825Y-32420267D01*
X166477835Y-32420071D01*
X166477000Y-32418445D01*
X166477000Y-32322734D01*
X166477010Y-32322538D01*
X166480631Y-32285773D01*
X166480707Y-32285388D01*
X166489642Y-32255933D01*
X166489792Y-32255571D01*
X166504298Y-32228434D01*
X166504516Y-32228108D01*
X166524040Y-32204317D01*
X166524317Y-32204040D01*
X166548108Y-32184516D01*
X166548434Y-32184298D01*
X166575571Y-32169792D01*
X166575933Y-32169642D01*
X166605388Y-32160707D01*
X166605773Y-32160631D01*
X166642538Y-32157010D01*
X166642734Y-32157000D01*
X166738445Y-32157000D01*
X166740177Y-32158000D01*
G37*
G36*
X169717462Y-32157010D02*
G01*
X169754227Y-32160631D01*
X169754612Y-32160707D01*
X169784067Y-32169642D01*
X169784429Y-32169792D01*
X169811566Y-32184298D01*
X169811892Y-32184516D01*
X169835683Y-32204040D01*
X169835960Y-32204317D01*
X169855484Y-32228108D01*
X169855702Y-32228434D01*
X169870208Y-32255571D01*
X169870358Y-32255933D01*
X169879293Y-32285388D01*
X169879369Y-32285773D01*
X169882990Y-32322538D01*
X169883000Y-32322734D01*
X169883000Y-32418445D01*
X169882000Y-32420177D01*
X169880000Y-32420177D01*
X169879010Y-32418641D01*
X169874045Y-32368225D01*
X169859394Y-32319929D01*
X169835605Y-32275421D01*
X169803589Y-32236411D01*
X169764579Y-32204395D01*
X169720071Y-32180606D01*
X169671775Y-32165955D01*
X169621359Y-32160990D01*
X169619733Y-32159825D01*
X169619929Y-32157835D01*
X169621555Y-32157000D01*
X169717266Y-32157000D01*
X169717462Y-32157010D01*
G37*
M02*
