G04 #@! TF.GenerationSoftware,KiCad,Pcbnew,5.1.8*
G04 #@! TF.CreationDate,2021-01-05T23:40:21+00:00*
G04 #@! TF.ProjectId,TheSun2,54686553-756e-4322-9e6b-696361645f70,1.0.8*
G04 #@! TF.SameCoordinates,Original*
G04 #@! TF.FileFunction,Copper,L1,Top*
G04 #@! TF.FilePolarity,Positive*
%FSLAX46Y46*%
G04 Gerber Fmt 4.6, Leading zero omitted, Abs format (unit mm)*
G04 Created by KiCad (PCBNEW 5.1.8) date 2021-01-05 23:40:21*
%MOMM*%
%LPD*%
G01*
G04 APERTURE LIST*
G04 #@! TA.AperFunction,ComponentPad*
%ADD10O,3.300000X2.700000*%
G04 #@! TD*
G04 #@! TA.AperFunction,SMDPad,CuDef*
%ADD11R,0.800000X0.900000*%
G04 #@! TD*
G04 #@! TA.AperFunction,ComponentPad*
%ADD12O,2.700000X3.300000*%
G04 #@! TD*
G04 #@! TA.AperFunction,SMDPad,CuDef*
%ADD13R,0.900000X0.800000*%
G04 #@! TD*
G04 #@! TA.AperFunction,ComponentPad*
%ADD14O,1.800000X3.600000*%
G04 #@! TD*
G04 #@! TA.AperFunction,ComponentPad*
%ADD15R,1.700000X1.700000*%
G04 #@! TD*
G04 #@! TA.AperFunction,ComponentPad*
%ADD16O,1.700000X1.700000*%
G04 #@! TD*
G04 #@! TA.AperFunction,ComponentPad*
%ADD17O,1.905000X2.000000*%
G04 #@! TD*
G04 #@! TA.AperFunction,ComponentPad*
%ADD18R,1.905000X2.000000*%
G04 #@! TD*
G04 #@! TA.AperFunction,ViaPad*
%ADD19C,2.000000*%
G04 #@! TD*
G04 #@! TA.AperFunction,ViaPad*
%ADD20C,0.800000*%
G04 #@! TD*
G04 #@! TA.AperFunction,Conductor*
%ADD21C,2.000000*%
G04 #@! TD*
G04 #@! TA.AperFunction,Conductor*
%ADD22C,0.250000*%
G04 #@! TD*
G04 #@! TA.AperFunction,Conductor*
%ADD23C,1.000000*%
G04 #@! TD*
G04 #@! TA.AperFunction,Conductor*
%ADD24C,0.500000*%
G04 #@! TD*
G04 #@! TA.AperFunction,Conductor*
%ADD25C,5.000000*%
G04 #@! TD*
G04 #@! TA.AperFunction,NonConductor*
%ADD26C,0.254000*%
G04 #@! TD*
G04 #@! TA.AperFunction,NonConductor*
%ADD27C,0.100000*%
G04 #@! TD*
G04 APERTURE END LIST*
D10*
X162680000Y-79760000D03*
X162680000Y-75560000D03*
X162680000Y-71360000D03*
X162680000Y-67160000D03*
X162680000Y-62960000D03*
X162680000Y-58760000D03*
X162680000Y-54560000D03*
X162680000Y-50360000D03*
X162680000Y-46160000D03*
X162680000Y-41960000D03*
X162680000Y-37760000D03*
X162680000Y-33560000D03*
X168180000Y-79760000D03*
X168180000Y-75560000D03*
X168180000Y-71360000D03*
X168180000Y-67160000D03*
X168180000Y-62960000D03*
X168180000Y-58760000D03*
X168180000Y-54560000D03*
X168180000Y-50360000D03*
X168180000Y-46160000D03*
X168180000Y-41960000D03*
X168180000Y-37760000D03*
G04 #@! TA.AperFunction,ComponentPad*
G36*
G01*
X166780001Y-32210000D02*
X169579999Y-32210000D01*
G75*
G02*
X169830000Y-32460001I0J-250001D01*
G01*
X169830000Y-34659999D01*
G75*
G02*
X169579999Y-34910000I-250001J0D01*
G01*
X166780001Y-34910000D01*
G75*
G02*
X166530000Y-34659999I0J250001D01*
G01*
X166530000Y-32460001D01*
G75*
G02*
X166780001Y-32210000I250001J0D01*
G01*
G37*
G04 #@! TD.AperFunction*
D11*
X199930000Y-75454000D03*
X198980000Y-73454000D03*
X200880000Y-73454000D03*
G04 #@! TA.AperFunction,SMDPad,CuDef*
G36*
G01*
X193463000Y-75100000D02*
X194713000Y-75100000D01*
G75*
G02*
X194963000Y-75350000I0J-250000D01*
G01*
X194963000Y-76150000D01*
G75*
G02*
X194713000Y-76400000I-250000J0D01*
G01*
X193463000Y-76400000D01*
G75*
G02*
X193213000Y-76150000I0J250000D01*
G01*
X193213000Y-75350000D01*
G75*
G02*
X193463000Y-75100000I250000J0D01*
G01*
G37*
G04 #@! TD.AperFunction*
G04 #@! TA.AperFunction,SMDPad,CuDef*
G36*
G01*
X193463000Y-72000000D02*
X194713000Y-72000000D01*
G75*
G02*
X194963000Y-72250000I0J-250000D01*
G01*
X194963000Y-73050000D01*
G75*
G02*
X194713000Y-73300000I-250000J0D01*
G01*
X193463000Y-73300000D01*
G75*
G02*
X193213000Y-73050000I0J250000D01*
G01*
X193213000Y-72250000D01*
G75*
G02*
X193463000Y-72000000I250000J0D01*
G01*
G37*
G04 #@! TD.AperFunction*
G04 #@! TA.AperFunction,SMDPad,CuDef*
G36*
G01*
X206397000Y-73300000D02*
X205147000Y-73300000D01*
G75*
G02*
X204897000Y-73050000I0J250000D01*
G01*
X204897000Y-72250000D01*
G75*
G02*
X205147000Y-72000000I250000J0D01*
G01*
X206397000Y-72000000D01*
G75*
G02*
X206647000Y-72250000I0J-250000D01*
G01*
X206647000Y-73050000D01*
G75*
G02*
X206397000Y-73300000I-250000J0D01*
G01*
G37*
G04 #@! TD.AperFunction*
G04 #@! TA.AperFunction,SMDPad,CuDef*
G36*
G01*
X206397000Y-76400000D02*
X205147000Y-76400000D01*
G75*
G02*
X204897000Y-76150000I0J250000D01*
G01*
X204897000Y-75350000D01*
G75*
G02*
X205147000Y-75100000I250000J0D01*
G01*
X206397000Y-75100000D01*
G75*
G02*
X206647000Y-75350000I0J-250000D01*
G01*
X206647000Y-76150000D01*
G75*
G02*
X206397000Y-76400000I-250000J0D01*
G01*
G37*
G04 #@! TD.AperFunction*
G04 #@! TA.AperFunction,ComponentPad*
G36*
G01*
X161750000Y-90839999D02*
X161750000Y-88040001D01*
G75*
G02*
X162000001Y-87790000I250001J0D01*
G01*
X164199999Y-87790000D01*
G75*
G02*
X164450000Y-88040001I0J-250001D01*
G01*
X164450000Y-90839999D01*
G75*
G02*
X164199999Y-91090000I-250001J0D01*
G01*
X162000001Y-91090000D01*
G75*
G02*
X161750000Y-90839999I0J250001D01*
G01*
G37*
G04 #@! TD.AperFunction*
D12*
X167300000Y-89440000D03*
X171500000Y-89440000D03*
X175700000Y-89440000D03*
X163100000Y-94940000D03*
X167300000Y-94940000D03*
X171500000Y-94940000D03*
X175700000Y-94940000D03*
G04 #@! TA.AperFunction,SMDPad,CuDef*
G36*
G01*
X220735000Y-45220000D02*
X221035000Y-45220000D01*
G75*
G02*
X221185000Y-45370000I0J-150000D01*
G01*
X221185000Y-47020000D01*
G75*
G02*
X221035000Y-47170000I-150000J0D01*
G01*
X220735000Y-47170000D01*
G75*
G02*
X220585000Y-47020000I0J150000D01*
G01*
X220585000Y-45370000D01*
G75*
G02*
X220735000Y-45220000I150000J0D01*
G01*
G37*
G04 #@! TD.AperFunction*
G04 #@! TA.AperFunction,SMDPad,CuDef*
G36*
G01*
X219465000Y-45220000D02*
X219765000Y-45220000D01*
G75*
G02*
X219915000Y-45370000I0J-150000D01*
G01*
X219915000Y-47020000D01*
G75*
G02*
X219765000Y-47170000I-150000J0D01*
G01*
X219465000Y-47170000D01*
G75*
G02*
X219315000Y-47020000I0J150000D01*
G01*
X219315000Y-45370000D01*
G75*
G02*
X219465000Y-45220000I150000J0D01*
G01*
G37*
G04 #@! TD.AperFunction*
G04 #@! TA.AperFunction,SMDPad,CuDef*
G36*
G01*
X218195000Y-45220000D02*
X218495000Y-45220000D01*
G75*
G02*
X218645000Y-45370000I0J-150000D01*
G01*
X218645000Y-47020000D01*
G75*
G02*
X218495000Y-47170000I-150000J0D01*
G01*
X218195000Y-47170000D01*
G75*
G02*
X218045000Y-47020000I0J150000D01*
G01*
X218045000Y-45370000D01*
G75*
G02*
X218195000Y-45220000I150000J0D01*
G01*
G37*
G04 #@! TD.AperFunction*
G04 #@! TA.AperFunction,SMDPad,CuDef*
G36*
G01*
X216925000Y-45220000D02*
X217225000Y-45220000D01*
G75*
G02*
X217375000Y-45370000I0J-150000D01*
G01*
X217375000Y-47020000D01*
G75*
G02*
X217225000Y-47170000I-150000J0D01*
G01*
X216925000Y-47170000D01*
G75*
G02*
X216775000Y-47020000I0J150000D01*
G01*
X216775000Y-45370000D01*
G75*
G02*
X216925000Y-45220000I150000J0D01*
G01*
G37*
G04 #@! TD.AperFunction*
G04 #@! TA.AperFunction,SMDPad,CuDef*
G36*
G01*
X215655000Y-45220000D02*
X215955000Y-45220000D01*
G75*
G02*
X216105000Y-45370000I0J-150000D01*
G01*
X216105000Y-47020000D01*
G75*
G02*
X215955000Y-47170000I-150000J0D01*
G01*
X215655000Y-47170000D01*
G75*
G02*
X215505000Y-47020000I0J150000D01*
G01*
X215505000Y-45370000D01*
G75*
G02*
X215655000Y-45220000I150000J0D01*
G01*
G37*
G04 #@! TD.AperFunction*
G04 #@! TA.AperFunction,SMDPad,CuDef*
G36*
G01*
X214385000Y-45220000D02*
X214685000Y-45220000D01*
G75*
G02*
X214835000Y-45370000I0J-150000D01*
G01*
X214835000Y-47020000D01*
G75*
G02*
X214685000Y-47170000I-150000J0D01*
G01*
X214385000Y-47170000D01*
G75*
G02*
X214235000Y-47020000I0J150000D01*
G01*
X214235000Y-45370000D01*
G75*
G02*
X214385000Y-45220000I150000J0D01*
G01*
G37*
G04 #@! TD.AperFunction*
G04 #@! TA.AperFunction,SMDPad,CuDef*
G36*
G01*
X213115000Y-45220000D02*
X213415000Y-45220000D01*
G75*
G02*
X213565000Y-45370000I0J-150000D01*
G01*
X213565000Y-47020000D01*
G75*
G02*
X213415000Y-47170000I-150000J0D01*
G01*
X213115000Y-47170000D01*
G75*
G02*
X212965000Y-47020000I0J150000D01*
G01*
X212965000Y-45370000D01*
G75*
G02*
X213115000Y-45220000I150000J0D01*
G01*
G37*
G04 #@! TD.AperFunction*
G04 #@! TA.AperFunction,SMDPad,CuDef*
G36*
G01*
X211845000Y-45220000D02*
X212145000Y-45220000D01*
G75*
G02*
X212295000Y-45370000I0J-150000D01*
G01*
X212295000Y-47020000D01*
G75*
G02*
X212145000Y-47170000I-150000J0D01*
G01*
X211845000Y-47170000D01*
G75*
G02*
X211695000Y-47020000I0J150000D01*
G01*
X211695000Y-45370000D01*
G75*
G02*
X211845000Y-45220000I150000J0D01*
G01*
G37*
G04 #@! TD.AperFunction*
G04 #@! TA.AperFunction,SMDPad,CuDef*
G36*
G01*
X211845000Y-40270000D02*
X212145000Y-40270000D01*
G75*
G02*
X212295000Y-40420000I0J-150000D01*
G01*
X212295000Y-42070000D01*
G75*
G02*
X212145000Y-42220000I-150000J0D01*
G01*
X211845000Y-42220000D01*
G75*
G02*
X211695000Y-42070000I0J150000D01*
G01*
X211695000Y-40420000D01*
G75*
G02*
X211845000Y-40270000I150000J0D01*
G01*
G37*
G04 #@! TD.AperFunction*
G04 #@! TA.AperFunction,SMDPad,CuDef*
G36*
G01*
X213115000Y-40270000D02*
X213415000Y-40270000D01*
G75*
G02*
X213565000Y-40420000I0J-150000D01*
G01*
X213565000Y-42070000D01*
G75*
G02*
X213415000Y-42220000I-150000J0D01*
G01*
X213115000Y-42220000D01*
G75*
G02*
X212965000Y-42070000I0J150000D01*
G01*
X212965000Y-40420000D01*
G75*
G02*
X213115000Y-40270000I150000J0D01*
G01*
G37*
G04 #@! TD.AperFunction*
G04 #@! TA.AperFunction,SMDPad,CuDef*
G36*
G01*
X214385000Y-40270000D02*
X214685000Y-40270000D01*
G75*
G02*
X214835000Y-40420000I0J-150000D01*
G01*
X214835000Y-42070000D01*
G75*
G02*
X214685000Y-42220000I-150000J0D01*
G01*
X214385000Y-42220000D01*
G75*
G02*
X214235000Y-42070000I0J150000D01*
G01*
X214235000Y-40420000D01*
G75*
G02*
X214385000Y-40270000I150000J0D01*
G01*
G37*
G04 #@! TD.AperFunction*
G04 #@! TA.AperFunction,SMDPad,CuDef*
G36*
G01*
X215655000Y-40270000D02*
X215955000Y-40270000D01*
G75*
G02*
X216105000Y-40420000I0J-150000D01*
G01*
X216105000Y-42070000D01*
G75*
G02*
X215955000Y-42220000I-150000J0D01*
G01*
X215655000Y-42220000D01*
G75*
G02*
X215505000Y-42070000I0J150000D01*
G01*
X215505000Y-40420000D01*
G75*
G02*
X215655000Y-40270000I150000J0D01*
G01*
G37*
G04 #@! TD.AperFunction*
G04 #@! TA.AperFunction,SMDPad,CuDef*
G36*
G01*
X216925000Y-40270000D02*
X217225000Y-40270000D01*
G75*
G02*
X217375000Y-40420000I0J-150000D01*
G01*
X217375000Y-42070000D01*
G75*
G02*
X217225000Y-42220000I-150000J0D01*
G01*
X216925000Y-42220000D01*
G75*
G02*
X216775000Y-42070000I0J150000D01*
G01*
X216775000Y-40420000D01*
G75*
G02*
X216925000Y-40270000I150000J0D01*
G01*
G37*
G04 #@! TD.AperFunction*
G04 #@! TA.AperFunction,SMDPad,CuDef*
G36*
G01*
X218195000Y-40270000D02*
X218495000Y-40270000D01*
G75*
G02*
X218645000Y-40420000I0J-150000D01*
G01*
X218645000Y-42070000D01*
G75*
G02*
X218495000Y-42220000I-150000J0D01*
G01*
X218195000Y-42220000D01*
G75*
G02*
X218045000Y-42070000I0J150000D01*
G01*
X218045000Y-40420000D01*
G75*
G02*
X218195000Y-40270000I150000J0D01*
G01*
G37*
G04 #@! TD.AperFunction*
G04 #@! TA.AperFunction,SMDPad,CuDef*
G36*
G01*
X219465000Y-40270000D02*
X219765000Y-40270000D01*
G75*
G02*
X219915000Y-40420000I0J-150000D01*
G01*
X219915000Y-42070000D01*
G75*
G02*
X219765000Y-42220000I-150000J0D01*
G01*
X219465000Y-42220000D01*
G75*
G02*
X219315000Y-42070000I0J150000D01*
G01*
X219315000Y-40420000D01*
G75*
G02*
X219465000Y-40270000I150000J0D01*
G01*
G37*
G04 #@! TD.AperFunction*
G04 #@! TA.AperFunction,SMDPad,CuDef*
G36*
G01*
X220735000Y-40270000D02*
X221035000Y-40270000D01*
G75*
G02*
X221185000Y-40420000I0J-150000D01*
G01*
X221185000Y-42070000D01*
G75*
G02*
X221035000Y-42220000I-150000J0D01*
G01*
X220735000Y-42220000D01*
G75*
G02*
X220585000Y-42070000I0J150000D01*
G01*
X220585000Y-40420000D01*
G75*
G02*
X220735000Y-40270000I150000J0D01*
G01*
G37*
G04 #@! TD.AperFunction*
G04 #@! TA.AperFunction,SMDPad,CuDef*
G36*
G01*
X223161000Y-73300000D02*
X221911000Y-73300000D01*
G75*
G02*
X221661000Y-73050000I0J250000D01*
G01*
X221661000Y-72250000D01*
G75*
G02*
X221911000Y-72000000I250000J0D01*
G01*
X223161000Y-72000000D01*
G75*
G02*
X223411000Y-72250000I0J-250000D01*
G01*
X223411000Y-73050000D01*
G75*
G02*
X223161000Y-73300000I-250000J0D01*
G01*
G37*
G04 #@! TD.AperFunction*
G04 #@! TA.AperFunction,SMDPad,CuDef*
G36*
G01*
X223161000Y-76400000D02*
X221911000Y-76400000D01*
G75*
G02*
X221661000Y-76150000I0J250000D01*
G01*
X221661000Y-75350000D01*
G75*
G02*
X221911000Y-75100000I250000J0D01*
G01*
X223161000Y-75100000D01*
G75*
G02*
X223411000Y-75350000I0J-250000D01*
G01*
X223411000Y-76150000D01*
G75*
G02*
X223161000Y-76400000I-250000J0D01*
G01*
G37*
G04 #@! TD.AperFunction*
G04 #@! TA.AperFunction,SMDPad,CuDef*
G36*
G01*
X238147000Y-73046000D02*
X236897000Y-73046000D01*
G75*
G02*
X236647000Y-72796000I0J250000D01*
G01*
X236647000Y-71996000D01*
G75*
G02*
X236897000Y-71746000I250000J0D01*
G01*
X238147000Y-71746000D01*
G75*
G02*
X238397000Y-71996000I0J-250000D01*
G01*
X238397000Y-72796000D01*
G75*
G02*
X238147000Y-73046000I-250000J0D01*
G01*
G37*
G04 #@! TD.AperFunction*
G04 #@! TA.AperFunction,SMDPad,CuDef*
G36*
G01*
X238147000Y-76146000D02*
X236897000Y-76146000D01*
G75*
G02*
X236647000Y-75896000I0J250000D01*
G01*
X236647000Y-75096000D01*
G75*
G02*
X236897000Y-74846000I250000J0D01*
G01*
X238147000Y-74846000D01*
G75*
G02*
X238397000Y-75096000I0J-250000D01*
G01*
X238397000Y-75896000D01*
G75*
G02*
X238147000Y-76146000I-250000J0D01*
G01*
G37*
G04 #@! TD.AperFunction*
G04 #@! TA.AperFunction,SMDPad,CuDef*
G36*
G01*
X209973000Y-75100000D02*
X211223000Y-75100000D01*
G75*
G02*
X211473000Y-75350000I0J-250000D01*
G01*
X211473000Y-76150000D01*
G75*
G02*
X211223000Y-76400000I-250000J0D01*
G01*
X209973000Y-76400000D01*
G75*
G02*
X209723000Y-76150000I0J250000D01*
G01*
X209723000Y-75350000D01*
G75*
G02*
X209973000Y-75100000I250000J0D01*
G01*
G37*
G04 #@! TD.AperFunction*
G04 #@! TA.AperFunction,SMDPad,CuDef*
G36*
G01*
X209973000Y-72000000D02*
X211223000Y-72000000D01*
G75*
G02*
X211473000Y-72250000I0J-250000D01*
G01*
X211473000Y-73050000D01*
G75*
G02*
X211223000Y-73300000I-250000J0D01*
G01*
X209973000Y-73300000D01*
G75*
G02*
X209723000Y-73050000I0J250000D01*
G01*
X209723000Y-72250000D01*
G75*
G02*
X209973000Y-72000000I250000J0D01*
G01*
G37*
G04 #@! TD.AperFunction*
G04 #@! TA.AperFunction,SMDPad,CuDef*
G36*
G01*
X225213000Y-75100000D02*
X226463000Y-75100000D01*
G75*
G02*
X226713000Y-75350000I0J-250000D01*
G01*
X226713000Y-76150000D01*
G75*
G02*
X226463000Y-76400000I-250000J0D01*
G01*
X225213000Y-76400000D01*
G75*
G02*
X224963000Y-76150000I0J250000D01*
G01*
X224963000Y-75350000D01*
G75*
G02*
X225213000Y-75100000I250000J0D01*
G01*
G37*
G04 #@! TD.AperFunction*
G04 #@! TA.AperFunction,SMDPad,CuDef*
G36*
G01*
X225213000Y-72000000D02*
X226463000Y-72000000D01*
G75*
G02*
X226713000Y-72250000I0J-250000D01*
G01*
X226713000Y-73050000D01*
G75*
G02*
X226463000Y-73300000I-250000J0D01*
G01*
X225213000Y-73300000D01*
G75*
G02*
X224963000Y-73050000I0J250000D01*
G01*
X224963000Y-72250000D01*
G75*
G02*
X225213000Y-72000000I250000J0D01*
G01*
G37*
G04 #@! TD.AperFunction*
D13*
X177340000Y-66580000D03*
X179340000Y-65630000D03*
X179340000Y-67530000D03*
D14*
X171990000Y-119920000D03*
X168180000Y-119920000D03*
X164370000Y-119920000D03*
X160560000Y-119920000D03*
X156750000Y-119920000D03*
G04 #@! TA.AperFunction,ComponentPad*
G36*
G01*
X152040000Y-121470000D02*
X152040000Y-118370000D01*
G75*
G02*
X152290000Y-118120000I250000J0D01*
G01*
X153590000Y-118120000D01*
G75*
G02*
X153840000Y-118370000I0J-250000D01*
G01*
X153840000Y-121470000D01*
G75*
G02*
X153590000Y-121720000I-250000J0D01*
G01*
X152290000Y-121720000D01*
G75*
G02*
X152040000Y-121470000I0J250000D01*
G01*
G37*
G04 #@! TD.AperFunction*
X197390000Y-119920000D03*
X193580000Y-119920000D03*
X189770000Y-119920000D03*
X185960000Y-119920000D03*
X182150000Y-119920000D03*
G04 #@! TA.AperFunction,ComponentPad*
G36*
G01*
X177440000Y-121470000D02*
X177440000Y-118370000D01*
G75*
G02*
X177690000Y-118120000I250000J0D01*
G01*
X178990000Y-118120000D01*
G75*
G02*
X179240000Y-118370000I0J-250000D01*
G01*
X179240000Y-121470000D01*
G75*
G02*
X178990000Y-121720000I-250000J0D01*
G01*
X177690000Y-121720000D01*
G75*
G02*
X177440000Y-121470000I0J250000D01*
G01*
G37*
G04 #@! TD.AperFunction*
X248190000Y-119920000D03*
X244380000Y-119920000D03*
X240570000Y-119920000D03*
X236760000Y-119920000D03*
X232950000Y-119920000D03*
G04 #@! TA.AperFunction,ComponentPad*
G36*
G01*
X228240000Y-121470000D02*
X228240000Y-118370000D01*
G75*
G02*
X228490000Y-118120000I250000J0D01*
G01*
X229790000Y-118120000D01*
G75*
G02*
X230040000Y-118370000I0J-250000D01*
G01*
X230040000Y-121470000D01*
G75*
G02*
X229790000Y-121720000I-250000J0D01*
G01*
X228490000Y-121720000D01*
G75*
G02*
X228240000Y-121470000I0J250000D01*
G01*
G37*
G04 #@! TD.AperFunction*
X222790000Y-119920000D03*
X218980000Y-119920000D03*
X215170000Y-119920000D03*
X211360000Y-119920000D03*
X207550000Y-119920000D03*
G04 #@! TA.AperFunction,ComponentPad*
G36*
G01*
X202840000Y-121470000D02*
X202840000Y-118370000D01*
G75*
G02*
X203090000Y-118120000I250000J0D01*
G01*
X204390000Y-118120000D01*
G75*
G02*
X204640000Y-118370000I0J-250000D01*
G01*
X204640000Y-121470000D01*
G75*
G02*
X204390000Y-121720000I-250000J0D01*
G01*
X203090000Y-121720000D01*
G75*
G02*
X202840000Y-121470000I0J250000D01*
G01*
G37*
G04 #@! TD.AperFunction*
D15*
X190811400Y-54324500D03*
D16*
X190811400Y-56864500D03*
X193351400Y-54324500D03*
X193351400Y-56864500D03*
X195891400Y-54324500D03*
X195891400Y-56864500D03*
X198431400Y-54324500D03*
X198431400Y-56864500D03*
X200971400Y-54324500D03*
X200971400Y-56864500D03*
X203511400Y-54324500D03*
X203511400Y-56864500D03*
X206051400Y-54324500D03*
X206051400Y-56864500D03*
X208591400Y-54324500D03*
X208591400Y-56864500D03*
X211131400Y-54324500D03*
X211131400Y-56864500D03*
X213671400Y-54324500D03*
X213671400Y-56864500D03*
X216211400Y-54324500D03*
X216211400Y-56864500D03*
X218751400Y-54324500D03*
X218751400Y-56864500D03*
X221291400Y-54324500D03*
X221291400Y-56864500D03*
X223831400Y-54324500D03*
X223831400Y-56864500D03*
X226371400Y-54324500D03*
X226371400Y-56864500D03*
X228911400Y-54324500D03*
X228911400Y-56864500D03*
X231451400Y-54324500D03*
X231451400Y-56864500D03*
X233991400Y-54324500D03*
X233991400Y-56864500D03*
X236531400Y-54324500D03*
X236531400Y-56864500D03*
X239071400Y-54324500D03*
X239071400Y-56864500D03*
D17*
X185960000Y-90710000D03*
X188500000Y-90710000D03*
D18*
X191040000Y-90710000D03*
D17*
X240570000Y-90710000D03*
X243110000Y-90710000D03*
D18*
X245650000Y-90710000D03*
D17*
X213900000Y-85630000D03*
X216440000Y-85630000D03*
D18*
X218980000Y-85630000D03*
D17*
X198660000Y-90710000D03*
X201200000Y-90710000D03*
D18*
X203740000Y-90710000D03*
D17*
X228570000Y-90710000D03*
X231110000Y-90710000D03*
D18*
X233650000Y-90710000D03*
D16*
X203740000Y-46260000D03*
D15*
X203740000Y-43720000D03*
D16*
X229140000Y-46260000D03*
D15*
X229140000Y-43720000D03*
D16*
X236760000Y-46260000D03*
D15*
X236760000Y-43720000D03*
D16*
X193580000Y-46260000D03*
D15*
X193580000Y-43720000D03*
D16*
X218980000Y-111030000D03*
X216440000Y-111030000D03*
D15*
X213900000Y-111030000D03*
D16*
X197136000Y-28480000D03*
X197136000Y-31020000D03*
D15*
X197136000Y-33560000D03*
D16*
X202216000Y-28480000D03*
X202216000Y-31020000D03*
D15*
X202216000Y-33560000D03*
D16*
X207296000Y-28480000D03*
X207296000Y-31020000D03*
D15*
X207296000Y-33560000D03*
D16*
X212376000Y-28480000D03*
X212376000Y-31020000D03*
D15*
X212376000Y-33560000D03*
D16*
X220758000Y-28480000D03*
X220758000Y-31020000D03*
D15*
X220758000Y-33560000D03*
D16*
X225838000Y-28480000D03*
X225838000Y-31020000D03*
D15*
X225838000Y-33560000D03*
D16*
X230918000Y-28480000D03*
X230918000Y-31020000D03*
D15*
X230918000Y-33560000D03*
D16*
X235998000Y-28480000D03*
X235998000Y-31020000D03*
D15*
X235998000Y-33560000D03*
D11*
X216440000Y-75454000D03*
X215490000Y-73454000D03*
X217390000Y-73454000D03*
X231680000Y-75200000D03*
X230730000Y-73200000D03*
X232630000Y-73200000D03*
D19*
X203740000Y-66580000D03*
D20*
X234702000Y-75496000D03*
X226600000Y-69120000D03*
X202454000Y-75454000D03*
X218964000Y-75454000D03*
X208820000Y-69120000D03*
D19*
X180880000Y-61500000D03*
X224060000Y-48800000D03*
D21*
X190811400Y-59068602D02*
X190811400Y-56864500D01*
X173800001Y-69130001D02*
X180750001Y-69130001D01*
X180750001Y-69130001D02*
X190811400Y-59068602D01*
X171830000Y-67160000D02*
X173800001Y-69130001D01*
X168180000Y-67160000D02*
X171830000Y-67160000D01*
X237522000Y-72396000D02*
X237522000Y-67342000D01*
X237522000Y-67342000D02*
X236760000Y-66580000D01*
X236760000Y-66580000D02*
X224060000Y-66580000D01*
X222536000Y-68104000D02*
X222536000Y-72650000D01*
X224060000Y-66580000D02*
X222536000Y-68104000D01*
X224060000Y-66580000D02*
X206280000Y-66580000D01*
X206280000Y-72142000D02*
X205772000Y-72650000D01*
X206280000Y-66580000D02*
X206280000Y-72142000D01*
X206280000Y-66580000D02*
X203740000Y-66580000D01*
X190811400Y-56864500D02*
X193351400Y-56864500D01*
D22*
X207376410Y-55539490D02*
X208591400Y-54324500D01*
X190262563Y-55539490D02*
X207376410Y-55539490D01*
X189486390Y-56315663D02*
X190262563Y-55539490D01*
X189486390Y-57383610D02*
X189486390Y-56315663D01*
X179340000Y-67530000D02*
X189486390Y-57383610D01*
D23*
X214535000Y-53460900D02*
X213671400Y-54324500D01*
X214535000Y-46195000D02*
X214535000Y-53460900D01*
X215805000Y-53918100D02*
X216211400Y-54324500D01*
X215805000Y-46195000D02*
X215805000Y-53918100D01*
X217075000Y-52648100D02*
X218751400Y-54324500D01*
X217075000Y-46195000D02*
X217075000Y-52648100D01*
D22*
X217576399Y-55689499D02*
X218751400Y-56864500D01*
X213297397Y-55689499D02*
X217576399Y-55689499D01*
X212496399Y-54888501D02*
X213297397Y-55689499D01*
X212496399Y-53760499D02*
X212496399Y-54888501D01*
X213265000Y-52991898D02*
X212496399Y-53760499D01*
X213265000Y-46195000D02*
X213265000Y-52991898D01*
D24*
X231976000Y-75496000D02*
X231680000Y-75200000D01*
X234702000Y-75496000D02*
X231976000Y-75496000D01*
X237522000Y-75496000D02*
X234702000Y-75496000D01*
X230180000Y-72650000D02*
X230730000Y-73200000D01*
X225838000Y-72650000D02*
X230180000Y-72650000D01*
D22*
X225838000Y-69882000D02*
X226600000Y-69120000D01*
X225838000Y-72650000D02*
X225838000Y-69882000D01*
D23*
X197136000Y-28480000D02*
X202216000Y-28480000D01*
X202216000Y-28480000D02*
X207296000Y-28480000D01*
X212376000Y-28480000D02*
X207296000Y-28480000D01*
X212376000Y-28480000D02*
X220758000Y-28480000D01*
X225838000Y-28480000D02*
X220758000Y-28480000D01*
X225838000Y-28480000D02*
X230918000Y-28480000D01*
X230918000Y-28480000D02*
X235998000Y-28480000D01*
X237548001Y-30030001D02*
X235998000Y-28480000D01*
X237548001Y-34970001D02*
X237548001Y-30030001D01*
X237408001Y-35110001D02*
X237548001Y-34970001D01*
X234789997Y-35110001D02*
X237408001Y-35110001D01*
X223704998Y-46195000D02*
X234789997Y-35110001D01*
X220885000Y-46195000D02*
X223704998Y-46195000D01*
X219615000Y-46195000D02*
X220885000Y-46195000D01*
D24*
X195334010Y-74503990D02*
X199830010Y-74503990D01*
X199830010Y-74503990D02*
X200880000Y-73454000D01*
X194088000Y-75750000D02*
X195334010Y-74503990D01*
X208948008Y-74100008D02*
X210598000Y-75750000D01*
X201526008Y-74100008D02*
X208948008Y-74100008D01*
X200880000Y-73454000D02*
X201526008Y-74100008D01*
X216290001Y-74553999D02*
X217390000Y-73454000D01*
X211794001Y-74553999D02*
X216290001Y-74553999D01*
X210598000Y-75750000D02*
X211794001Y-74553999D01*
X224188010Y-74100010D02*
X225838000Y-75750000D01*
X218036010Y-74100010D02*
X224188010Y-74100010D01*
X217390000Y-73454000D02*
X218036010Y-74100010D01*
X231530001Y-74299999D02*
X232630000Y-73200000D01*
X227288001Y-74299999D02*
X231530001Y-74299999D01*
X225838000Y-75750000D02*
X227288001Y-74299999D01*
D22*
X209956399Y-53149499D02*
X211131400Y-54324500D01*
X191986401Y-53149499D02*
X209956399Y-53149499D01*
X190811400Y-54324500D02*
X191986401Y-53149499D01*
X192887990Y-74549990D02*
X194088000Y-75750000D01*
X192887990Y-72011820D02*
X192887990Y-74549990D01*
X207226401Y-57673409D02*
X192887990Y-72011820D01*
X207226401Y-56325909D02*
X207226401Y-57673409D01*
X208052809Y-55499501D02*
X207226401Y-56325909D01*
X209956399Y-55499501D02*
X208052809Y-55499501D01*
X211131400Y-54324500D02*
X209956399Y-55499501D01*
D24*
X211044990Y-54238090D02*
X211131400Y-54324500D01*
X211044990Y-44826493D02*
X211044990Y-54238090D01*
X212301503Y-43569980D02*
X211044990Y-44826493D01*
X217970595Y-43569980D02*
X212301503Y-43569980D01*
X219615000Y-45214385D02*
X217970595Y-43569980D01*
X219615000Y-46195000D02*
X219615000Y-45214385D01*
D23*
X205476000Y-75454000D02*
X205772000Y-75750000D01*
X202454000Y-75454000D02*
X205476000Y-75454000D01*
X199930000Y-75454000D02*
X202454000Y-75454000D01*
D24*
X194088000Y-72650000D02*
X194184001Y-72553999D01*
X194184001Y-72553999D02*
X198079999Y-72553999D01*
X198079999Y-72553999D02*
X198980000Y-73454000D01*
D22*
X230276399Y-55499501D02*
X231451400Y-54324500D01*
X230276399Y-57428501D02*
X230276399Y-55499501D01*
X222449910Y-65254990D02*
X230276399Y-57428501D01*
X201483010Y-65254990D02*
X222449910Y-65254990D01*
X194088000Y-72650000D02*
X201483010Y-65254990D01*
D24*
X222240000Y-75454000D02*
X222536000Y-75750000D01*
X218964000Y-75454000D02*
X222240000Y-75454000D01*
X216440000Y-75454000D02*
X218964000Y-75454000D01*
X214686000Y-72650000D02*
X215490000Y-73454000D01*
X210598000Y-72650000D02*
X214686000Y-72650000D01*
D22*
X210598000Y-70898000D02*
X208820000Y-69120000D01*
X210598000Y-72650000D02*
X210598000Y-70898000D01*
D23*
X235577998Y-31020000D02*
X235998000Y-31020000D01*
X234447999Y-32990003D02*
X234447999Y-32149999D01*
X234447999Y-32149999D02*
X235577998Y-31020000D01*
X226193002Y-41245000D02*
X234447999Y-32990003D01*
X220885000Y-41245000D02*
X226193002Y-41245000D01*
X217577088Y-44519990D02*
X218345000Y-45287902D01*
X218345000Y-45287902D02*
X218345000Y-46195000D01*
X212695010Y-44519990D02*
X217577088Y-44519990D01*
X211995000Y-45220000D02*
X212695010Y-44519990D01*
X211995000Y-46195000D02*
X211995000Y-45220000D01*
X179340000Y-63040000D02*
X180880000Y-61500000D01*
X179340000Y-65630000D02*
X179340000Y-63040000D01*
X219975000Y-48800000D02*
X224060000Y-48800000D01*
X218345000Y-47170000D02*
X219975000Y-48800000D01*
X218345000Y-46195000D02*
X218345000Y-47170000D01*
X230497998Y-31020000D02*
X230918000Y-31020000D01*
X229367999Y-32149999D02*
X230497998Y-31020000D01*
X229367999Y-32990003D02*
X229367999Y-32149999D01*
X227248001Y-35110001D02*
X229367999Y-32990003D01*
X224842901Y-35110001D02*
X227248001Y-35110001D01*
X219615000Y-40337902D02*
X224842901Y-35110001D01*
X219615000Y-41245000D02*
X219615000Y-40337902D01*
X224635919Y-31020000D02*
X225838000Y-31020000D01*
X224287999Y-31367920D02*
X224635919Y-31020000D01*
X224287999Y-32990003D02*
X224287999Y-31367920D01*
X218345000Y-38933002D02*
X224287999Y-32990003D01*
X218345000Y-41245000D02*
X218345000Y-38933002D01*
X217075000Y-33500919D02*
X217075000Y-41245000D01*
X219555919Y-31020000D02*
X217075000Y-33500919D01*
X220758000Y-31020000D02*
X219555919Y-31020000D01*
X213578081Y-31020000D02*
X212376000Y-31020000D01*
X215805000Y-33246919D02*
X213578081Y-31020000D01*
X215805000Y-41245000D02*
X215805000Y-33246919D01*
X208498081Y-31020000D02*
X207296000Y-31020000D01*
X208846001Y-31367920D02*
X208498081Y-31020000D01*
X208846001Y-32990003D02*
X208846001Y-31367920D01*
X214535000Y-38679002D02*
X208846001Y-32990003D01*
X214535000Y-41245000D02*
X214535000Y-38679002D01*
X203766001Y-32149999D02*
X202636002Y-31020000D01*
X203766001Y-32990003D02*
X203766001Y-32149999D01*
X205885999Y-35110001D02*
X203766001Y-32990003D01*
X208037099Y-35110001D02*
X205885999Y-35110001D01*
X213265000Y-40337902D02*
X208037099Y-35110001D01*
X202636002Y-31020000D02*
X202216000Y-31020000D01*
X213265000Y-41245000D02*
X213265000Y-40337902D01*
X198338081Y-31020000D02*
X197136000Y-31020000D01*
X198686001Y-31367920D02*
X198338081Y-31020000D01*
X198686001Y-32990003D02*
X198686001Y-31367920D01*
X206940998Y-41245000D02*
X198686001Y-32990003D01*
X211995000Y-41245000D02*
X206940998Y-41245000D01*
D21*
X213489999Y-86040001D02*
X213900000Y-85630000D01*
X216440000Y-106656002D02*
X213489999Y-103706001D01*
X213489999Y-103706001D02*
X213489999Y-86040001D01*
X216440000Y-111030000D02*
X216440000Y-106656002D01*
X219813992Y-113230010D02*
X228570000Y-104474002D01*
X217149990Y-113230010D02*
X219813992Y-113230010D01*
X228570000Y-104474002D02*
X228570000Y-90710000D01*
X211360000Y-119020000D02*
X217149990Y-113230010D01*
X211360000Y-119920000D02*
X211360000Y-119020000D01*
X218980000Y-119979862D02*
X218980000Y-119920000D01*
X216039852Y-122920010D02*
X218980000Y-119979862D01*
X214300148Y-122920010D02*
X216039852Y-122920010D01*
X213069990Y-121689852D02*
X214300148Y-122920010D01*
X213069990Y-121629990D02*
X213069990Y-121689852D01*
X211360000Y-119920000D02*
X213069990Y-121629990D01*
X203740000Y-119979862D02*
X203740000Y-119920000D01*
X206680148Y-122920010D02*
X203740000Y-119979862D01*
X208419852Y-122920010D02*
X206680148Y-122920010D01*
X209650010Y-121689852D02*
X208419852Y-122920010D01*
X209650010Y-121629990D02*
X209650010Y-121689852D01*
X211360000Y-119920000D02*
X209650010Y-121629990D01*
D25*
X175700000Y-89440000D02*
X171500000Y-89440000D01*
X163100000Y-89440000D02*
X167300000Y-89440000D01*
X167300000Y-89440000D02*
X171500000Y-89440000D01*
X170007579Y-75560000D02*
X168180000Y-75560000D01*
X172530010Y-78082431D02*
X170007579Y-75560000D01*
X172530010Y-84209990D02*
X172530010Y-78082431D01*
X167300000Y-89440000D02*
X172530010Y-84209990D01*
X168180000Y-75560000D02*
X168180000Y-71360000D01*
X207287397Y-87009999D02*
X212367405Y-81929991D01*
X175700000Y-89440000D02*
X178130001Y-87009999D01*
X221629991Y-81929991D02*
X226600000Y-86900000D01*
X239300000Y-86900000D02*
X244380000Y-86900000D01*
D21*
X188500000Y-87119998D02*
X188609999Y-87009999D01*
X188500000Y-90710000D02*
X188500000Y-87119998D01*
D25*
X178130001Y-87009999D02*
X188609999Y-87009999D01*
D21*
X201200000Y-90710000D02*
X201200000Y-87119998D01*
D25*
X201090001Y-87009999D02*
X207287397Y-87009999D01*
D21*
X201200000Y-87119998D02*
X201090001Y-87009999D01*
D25*
X188609999Y-87009999D02*
X201090001Y-87009999D01*
D21*
X216440000Y-84360000D02*
X218870009Y-81929991D01*
X216440000Y-85630000D02*
X216440000Y-84360000D01*
D25*
X218870009Y-81929991D02*
X221629991Y-81929991D01*
X212367405Y-81929991D02*
X218870009Y-81929991D01*
D21*
X231110000Y-87470000D02*
X231680000Y-86900000D01*
X231110000Y-90710000D02*
X231110000Y-87470000D01*
D25*
X231680000Y-86900000D02*
X239300000Y-86900000D01*
X226600000Y-86900000D02*
X231680000Y-86900000D01*
D21*
X242722510Y-90322510D02*
X242722510Y-88557490D01*
X242722510Y-88557490D02*
X244380000Y-86900000D01*
X243110000Y-90710000D02*
X242722510Y-90322510D01*
X198660000Y-101576002D02*
X198660000Y-90710000D01*
X187669990Y-112566012D02*
X198660000Y-101576002D01*
X187669990Y-118210010D02*
X187669990Y-112566012D01*
X185960000Y-119920000D02*
X187669990Y-118210010D01*
X190639852Y-122920010D02*
X193580000Y-119979862D01*
X188900148Y-122920010D02*
X190639852Y-122920010D01*
X187669990Y-121689852D02*
X188900148Y-122920010D01*
X187669990Y-121629990D02*
X187669990Y-121689852D01*
X185960000Y-119920000D02*
X187669990Y-121629990D01*
X181280148Y-122920010D02*
X178340000Y-119979862D01*
X178340000Y-119979862D02*
X178340000Y-119920000D01*
X183019852Y-122920010D02*
X181280148Y-122920010D01*
X184250010Y-121689852D02*
X183019852Y-122920010D01*
X184250010Y-121629990D02*
X184250010Y-121689852D01*
X185960000Y-119920000D02*
X184250010Y-121629990D01*
X236760000Y-94472500D02*
X240522500Y-90710000D01*
X236760000Y-119920000D02*
X236760000Y-94472500D01*
X229140000Y-119979862D02*
X229140000Y-119920000D01*
X232080148Y-122920010D02*
X229140000Y-119979862D01*
X233819852Y-122920010D02*
X232080148Y-122920010D01*
X235050010Y-121689852D02*
X233819852Y-122920010D01*
X235050010Y-121629990D02*
X235050010Y-121689852D01*
X236760000Y-119920000D02*
X235050010Y-121629990D01*
X240639862Y-123720000D02*
X244380000Y-119979862D01*
X239660000Y-123720000D02*
X240639862Y-123720000D01*
X244380000Y-119979862D02*
X244380000Y-119920000D01*
X236760000Y-120820000D02*
X239660000Y-123720000D01*
X236760000Y-119920000D02*
X236760000Y-120820000D01*
X160560000Y-116110000D02*
X160560000Y-119920000D01*
X185960000Y-90710000D02*
X160560000Y-116110000D01*
X168180000Y-119979862D02*
X168180000Y-119920000D01*
X165239852Y-122920010D02*
X168180000Y-119979862D01*
X163500148Y-122920010D02*
X165239852Y-122920010D01*
X162269990Y-121689852D02*
X163500148Y-122920010D01*
X162269990Y-121629990D02*
X162269990Y-121689852D01*
X160560000Y-119920000D02*
X162269990Y-121629990D01*
X155880148Y-122920010D02*
X152940000Y-119979862D01*
X157619852Y-122920010D02*
X155880148Y-122920010D01*
X158850010Y-121689852D02*
X157619852Y-122920010D01*
X158850010Y-121629990D02*
X158850010Y-121689852D01*
X152940000Y-119979862D02*
X152940000Y-119920000D01*
X160560000Y-119920000D02*
X158850010Y-121629990D01*
D23*
X164829990Y-48309990D02*
X162680000Y-46160000D01*
X169329141Y-48309990D02*
X164829990Y-48309990D01*
X177340000Y-56320849D02*
X169329141Y-48309990D01*
X177340000Y-66580000D02*
X177340000Y-56320849D01*
D26*
X160969602Y-78349602D02*
X160721547Y-78651857D01*
X160537226Y-78996698D01*
X160423722Y-79370872D01*
X160385396Y-79760000D01*
X160423722Y-80149128D01*
X160537226Y-80523302D01*
X160721547Y-80868143D01*
X160969602Y-81170398D01*
X161271857Y-81418453D01*
X161616698Y-81602774D01*
X161990872Y-81716278D01*
X162282490Y-81745000D01*
X163077510Y-81745000D01*
X163369128Y-81716278D01*
X163743302Y-81602774D01*
X164088143Y-81418453D01*
X164390398Y-81170398D01*
X164638453Y-80868143D01*
X164822774Y-80523302D01*
X164936278Y-80149128D01*
X164974604Y-79760000D01*
X164936278Y-79370872D01*
X164822774Y-78996698D01*
X164638453Y-78651857D01*
X164390398Y-78349602D01*
X164119157Y-78127000D01*
X166366170Y-78127000D01*
X166429860Y-78179269D01*
X166579616Y-78259315D01*
X166469602Y-78349602D01*
X166221547Y-78651857D01*
X166037226Y-78996698D01*
X165923722Y-79370872D01*
X165885396Y-79760000D01*
X165923722Y-80149128D01*
X166037226Y-80523302D01*
X166221547Y-80868143D01*
X166469602Y-81170398D01*
X166771857Y-81418453D01*
X167116698Y-81602774D01*
X167490872Y-81716278D01*
X167782490Y-81745000D01*
X168577510Y-81745000D01*
X168869128Y-81716278D01*
X169243302Y-81602774D01*
X169395010Y-81521684D01*
X169395010Y-82911431D01*
X166001442Y-86305000D01*
X162945998Y-86305000D01*
X162485433Y-86350362D01*
X161894483Y-86529624D01*
X161349860Y-86820731D01*
X160872495Y-87212495D01*
X160480731Y-87689860D01*
X160189624Y-88234483D01*
X160010362Y-88825433D01*
X159949832Y-89440000D01*
X160010362Y-90054567D01*
X160189624Y-90645517D01*
X160480731Y-91190140D01*
X160872495Y-91667505D01*
X161349860Y-92059269D01*
X161894483Y-92350376D01*
X162485433Y-92529638D01*
X162945998Y-92575000D01*
X167146005Y-92575000D01*
X167300000Y-92590167D01*
X167453995Y-92575000D01*
X175546005Y-92575000D01*
X175700000Y-92590167D01*
X175853995Y-92575000D01*
X175854002Y-92575000D01*
X176314567Y-92529638D01*
X176905517Y-92350376D01*
X177450140Y-92059269D01*
X177927505Y-91667505D01*
X178025682Y-91547876D01*
X179428560Y-90144999D01*
X184212762Y-90144999D01*
X159460687Y-114897075D01*
X159398286Y-114948286D01*
X159193969Y-115197249D01*
X159042148Y-115481286D01*
X158948657Y-115789485D01*
X158925000Y-116029678D01*
X158917089Y-116110000D01*
X158925000Y-116190320D01*
X158925001Y-119242760D01*
X158285000Y-119882762D01*
X158285000Y-118944592D01*
X158262790Y-118719087D01*
X158175017Y-118429739D01*
X158032481Y-118163073D01*
X157840661Y-117929339D01*
X157606926Y-117737519D01*
X157340260Y-117594983D01*
X157050912Y-117507210D01*
X156750000Y-117477573D01*
X156449087Y-117507210D01*
X156159739Y-117594983D01*
X155893073Y-117737519D01*
X155659339Y-117929339D01*
X155467519Y-118163074D01*
X155324983Y-118429740D01*
X155237210Y-118719088D01*
X155215000Y-118944593D01*
X155215000Y-119942624D01*
X154478072Y-119205696D01*
X154478072Y-118370000D01*
X154461008Y-118196746D01*
X154410472Y-118030150D01*
X154328405Y-117876614D01*
X154217962Y-117742038D01*
X154083386Y-117631595D01*
X153929850Y-117549528D01*
X153763254Y-117498992D01*
X153590000Y-117481928D01*
X152290000Y-117481928D01*
X152116746Y-117498992D01*
X151950150Y-117549528D01*
X151796614Y-117631595D01*
X151662038Y-117742038D01*
X151551595Y-117876614D01*
X151469528Y-118030150D01*
X151418992Y-118196746D01*
X151401928Y-118370000D01*
X151401928Y-119357942D01*
X151328657Y-119599484D01*
X151305000Y-119839678D01*
X151305000Y-119899543D01*
X151297089Y-119979862D01*
X151305000Y-120060181D01*
X151305000Y-120060183D01*
X151328657Y-120300377D01*
X151401928Y-120541919D01*
X151401928Y-121470000D01*
X151418992Y-121643254D01*
X151469528Y-121809850D01*
X151551595Y-121963386D01*
X151662038Y-122097962D01*
X151796614Y-122208405D01*
X151950150Y-122290472D01*
X152116746Y-122341008D01*
X152290000Y-122358072D01*
X153005972Y-122358072D01*
X154667228Y-124019329D01*
X154718434Y-124081724D01*
X154967396Y-124286041D01*
X155251433Y-124437862D01*
X155559632Y-124531353D01*
X155799826Y-124555010D01*
X155799828Y-124555010D01*
X155880147Y-124562921D01*
X155960467Y-124555010D01*
X157539533Y-124555010D01*
X157619852Y-124562921D01*
X157700171Y-124555010D01*
X157700174Y-124555010D01*
X157940368Y-124531353D01*
X158248567Y-124437862D01*
X158532604Y-124286041D01*
X158781566Y-124081724D01*
X158832776Y-124019324D01*
X159949328Y-122902773D01*
X160011724Y-122851566D01*
X160144708Y-122689523D01*
X160216040Y-122602605D01*
X160246362Y-122545876D01*
X160441484Y-122350754D01*
X160560000Y-122362427D01*
X160678516Y-122350754D01*
X160873637Y-122545876D01*
X160903959Y-122602604D01*
X161108276Y-122851566D01*
X161170675Y-122902775D01*
X162287227Y-124019328D01*
X162338434Y-124081724D01*
X162587396Y-124286041D01*
X162871433Y-124437862D01*
X163179632Y-124531353D01*
X163419826Y-124555010D01*
X163419828Y-124555010D01*
X163500147Y-124562921D01*
X163580467Y-124555010D01*
X165159533Y-124555010D01*
X165239852Y-124562921D01*
X165320171Y-124555010D01*
X165320174Y-124555010D01*
X165560368Y-124531353D01*
X165868567Y-124437862D01*
X166152604Y-124286041D01*
X166401566Y-124081724D01*
X166452777Y-124019323D01*
X168115979Y-122356122D01*
X168180000Y-122362427D01*
X168480913Y-122332790D01*
X168770261Y-122245017D01*
X169036927Y-122102481D01*
X169270661Y-121910661D01*
X169462481Y-121676927D01*
X169605017Y-121410261D01*
X169692790Y-121120913D01*
X169715000Y-120895408D01*
X169715000Y-120552048D01*
X169791343Y-120300378D01*
X169815000Y-120060184D01*
X169815000Y-120060182D01*
X169822911Y-119979863D01*
X169815000Y-119899543D01*
X169815000Y-119839679D01*
X169791343Y-119599485D01*
X169715000Y-119347815D01*
X169715000Y-118944593D01*
X170455000Y-118944593D01*
X170455000Y-120895408D01*
X170477211Y-121120913D01*
X170564984Y-121410261D01*
X170707520Y-121676927D01*
X170899340Y-121910661D01*
X171133074Y-122102481D01*
X171399740Y-122245017D01*
X171689088Y-122332790D01*
X171990000Y-122362427D01*
X172290913Y-122332790D01*
X172580261Y-122245017D01*
X172846927Y-122102481D01*
X173080661Y-121910661D01*
X173272481Y-121676927D01*
X173415017Y-121410261D01*
X173502790Y-121120913D01*
X173525000Y-120895408D01*
X173525000Y-118944592D01*
X173502790Y-118719087D01*
X173415017Y-118429739D01*
X173272481Y-118163073D01*
X173080661Y-117929339D01*
X172846926Y-117737519D01*
X172580260Y-117594983D01*
X172290912Y-117507210D01*
X171990000Y-117477573D01*
X171689087Y-117507210D01*
X171399739Y-117594983D01*
X171133073Y-117737519D01*
X170899339Y-117929339D01*
X170707519Y-118163074D01*
X170564983Y-118429740D01*
X170477210Y-118719088D01*
X170455000Y-118944593D01*
X169715000Y-118944593D01*
X169715000Y-118944592D01*
X169692790Y-118719087D01*
X169605017Y-118429739D01*
X169462481Y-118163073D01*
X169270661Y-117929339D01*
X169036926Y-117737519D01*
X168770260Y-117594983D01*
X168480912Y-117507210D01*
X168180000Y-117477573D01*
X167879087Y-117507210D01*
X167589739Y-117594983D01*
X167323073Y-117737519D01*
X167089339Y-117929339D01*
X166897519Y-118163074D01*
X166754983Y-118429740D01*
X166667210Y-118719088D01*
X166645000Y-118944593D01*
X166645000Y-119202623D01*
X165905000Y-119942623D01*
X165905000Y-118944592D01*
X165882790Y-118719087D01*
X165795017Y-118429739D01*
X165652481Y-118163073D01*
X165460661Y-117929339D01*
X165226926Y-117737519D01*
X164960260Y-117594983D01*
X164670912Y-117507210D01*
X164370000Y-117477573D01*
X164069087Y-117507210D01*
X163779739Y-117594983D01*
X163513073Y-117737519D01*
X163279339Y-117929339D01*
X163087519Y-118163074D01*
X162944983Y-118429740D01*
X162857210Y-118719088D01*
X162835000Y-118944593D01*
X162835000Y-119882761D01*
X162195000Y-119242762D01*
X162195000Y-116787238D01*
X187172915Y-91809324D01*
X187230000Y-91739766D01*
X187338286Y-91871714D01*
X187587248Y-92076031D01*
X187871285Y-92227852D01*
X188179484Y-92321343D01*
X188500000Y-92352911D01*
X188820515Y-92321343D01*
X189128714Y-92227852D01*
X189412751Y-92076031D01*
X189517278Y-91990249D01*
X189556963Y-92064494D01*
X189636315Y-92161185D01*
X189733006Y-92240537D01*
X189843320Y-92299502D01*
X189963018Y-92335812D01*
X190087500Y-92348072D01*
X191992500Y-92348072D01*
X192116982Y-92335812D01*
X192236680Y-92299502D01*
X192346994Y-92240537D01*
X192443685Y-92161185D01*
X192523037Y-92064494D01*
X192582002Y-91954180D01*
X192618312Y-91834482D01*
X192630572Y-91710000D01*
X192630572Y-90144999D01*
X197122822Y-90144999D01*
X197048658Y-90389484D01*
X197025001Y-90629678D01*
X197025000Y-100898763D01*
X190869017Y-107054746D01*
X190793346Y-106674321D01*
X190613560Y-106240279D01*
X190352550Y-105849651D01*
X190020349Y-105517450D01*
X189629721Y-105256440D01*
X189195679Y-105076654D01*
X188734902Y-104985000D01*
X188265098Y-104985000D01*
X187804321Y-105076654D01*
X187370279Y-105256440D01*
X186979651Y-105517450D01*
X186647450Y-105849651D01*
X186386440Y-106240279D01*
X186206654Y-106674321D01*
X186115000Y-107135098D01*
X186115000Y-107604902D01*
X186206654Y-108065679D01*
X186386440Y-108499721D01*
X186647450Y-108890349D01*
X186979651Y-109222550D01*
X187370279Y-109483560D01*
X187804321Y-109663346D01*
X188184747Y-109739017D01*
X186570672Y-111353092D01*
X186508277Y-111404298D01*
X186332350Y-111618667D01*
X186303960Y-111653260D01*
X186152138Y-111937298D01*
X186058648Y-112245496D01*
X186027079Y-112566012D01*
X186034991Y-112646341D01*
X186034990Y-117484959D01*
X185960000Y-117477573D01*
X185659087Y-117507210D01*
X185369739Y-117594983D01*
X185103073Y-117737519D01*
X184869339Y-117929339D01*
X184677519Y-118163074D01*
X184534983Y-118429740D01*
X184447210Y-118719088D01*
X184425000Y-118944593D01*
X184425000Y-119142761D01*
X183685000Y-119882762D01*
X183685000Y-118944592D01*
X183662790Y-118719087D01*
X183575017Y-118429739D01*
X183432481Y-118163073D01*
X183240661Y-117929339D01*
X183006926Y-117737519D01*
X182740260Y-117594983D01*
X182450912Y-117507210D01*
X182150000Y-117477573D01*
X181849087Y-117507210D01*
X181559739Y-117594983D01*
X181293073Y-117737519D01*
X181059339Y-117929339D01*
X180867519Y-118163074D01*
X180724983Y-118429740D01*
X180637210Y-118719088D01*
X180615000Y-118944593D01*
X180615000Y-119942624D01*
X179878072Y-119205696D01*
X179878072Y-118370000D01*
X179861008Y-118196746D01*
X179810472Y-118030150D01*
X179728405Y-117876614D01*
X179617962Y-117742038D01*
X179483386Y-117631595D01*
X179329850Y-117549528D01*
X179163254Y-117498992D01*
X178990000Y-117481928D01*
X177690000Y-117481928D01*
X177516746Y-117498992D01*
X177350150Y-117549528D01*
X177196614Y-117631595D01*
X177062038Y-117742038D01*
X176951595Y-117876614D01*
X176869528Y-118030150D01*
X176818992Y-118196746D01*
X176801928Y-118370000D01*
X176801928Y-119357942D01*
X176728657Y-119599484D01*
X176705000Y-119839678D01*
X176705000Y-119899543D01*
X176697089Y-119979862D01*
X176705000Y-120060181D01*
X176705000Y-120060183D01*
X176728657Y-120300377D01*
X176801928Y-120541919D01*
X176801928Y-121470000D01*
X176818992Y-121643254D01*
X176869528Y-121809850D01*
X176951595Y-121963386D01*
X177062038Y-122097962D01*
X177196614Y-122208405D01*
X177350150Y-122290472D01*
X177516746Y-122341008D01*
X177690000Y-122358072D01*
X178405972Y-122358072D01*
X180067228Y-124019329D01*
X180118434Y-124081724D01*
X180367396Y-124286041D01*
X180651433Y-124437862D01*
X180959632Y-124531353D01*
X181199826Y-124555010D01*
X181199828Y-124555010D01*
X181280147Y-124562921D01*
X181360467Y-124555010D01*
X182939533Y-124555010D01*
X183019852Y-124562921D01*
X183100171Y-124555010D01*
X183100174Y-124555010D01*
X183340368Y-124531353D01*
X183648567Y-124437862D01*
X183932604Y-124286041D01*
X184181566Y-124081724D01*
X184232776Y-124019324D01*
X185349328Y-122902773D01*
X185411724Y-122851566D01*
X185544708Y-122689523D01*
X185616040Y-122602605D01*
X185646362Y-122545876D01*
X185841484Y-122350754D01*
X185960000Y-122362427D01*
X186078516Y-122350754D01*
X186273637Y-122545876D01*
X186303959Y-122602604D01*
X186508276Y-122851566D01*
X186570675Y-122902775D01*
X187687227Y-124019328D01*
X187738434Y-124081724D01*
X187987396Y-124286041D01*
X188271433Y-124437862D01*
X188579632Y-124531353D01*
X188819826Y-124555010D01*
X188819828Y-124555010D01*
X188900147Y-124562921D01*
X188980467Y-124555010D01*
X190559533Y-124555010D01*
X190639852Y-124562921D01*
X190720171Y-124555010D01*
X190720174Y-124555010D01*
X190960368Y-124531353D01*
X191268567Y-124437862D01*
X191552604Y-124286041D01*
X191801566Y-124081724D01*
X191852777Y-124019323D01*
X193515979Y-122356122D01*
X193580000Y-122362427D01*
X193880913Y-122332790D01*
X194170261Y-122245017D01*
X194436927Y-122102481D01*
X194670661Y-121910661D01*
X194862481Y-121676927D01*
X195005017Y-121410261D01*
X195092790Y-121120913D01*
X195115000Y-120895408D01*
X195115000Y-120552044D01*
X195191342Y-120300379D01*
X195222911Y-119979863D01*
X195191342Y-119659346D01*
X195115000Y-119407681D01*
X195115000Y-118944593D01*
X195855000Y-118944593D01*
X195855000Y-120895408D01*
X195877211Y-121120913D01*
X195964984Y-121410261D01*
X196107520Y-121676927D01*
X196299340Y-121910661D01*
X196533074Y-122102481D01*
X196799740Y-122245017D01*
X197089088Y-122332790D01*
X197390000Y-122362427D01*
X197690913Y-122332790D01*
X197980261Y-122245017D01*
X198246927Y-122102481D01*
X198480661Y-121910661D01*
X198672481Y-121676927D01*
X198815017Y-121410261D01*
X198902790Y-121120913D01*
X198925000Y-120895408D01*
X198925000Y-118944592D01*
X198902790Y-118719087D01*
X198815017Y-118429739D01*
X198672481Y-118163073D01*
X198480661Y-117929339D01*
X198246926Y-117737519D01*
X197980260Y-117594983D01*
X197690912Y-117507210D01*
X197390000Y-117477573D01*
X197089087Y-117507210D01*
X196799739Y-117594983D01*
X196533073Y-117737519D01*
X196299339Y-117929339D01*
X196107519Y-118163074D01*
X195964983Y-118429740D01*
X195877210Y-118719088D01*
X195855000Y-118944593D01*
X195115000Y-118944593D01*
X195115000Y-118944592D01*
X195092790Y-118719087D01*
X195005017Y-118429739D01*
X194862481Y-118163073D01*
X194670661Y-117929339D01*
X194436926Y-117737519D01*
X194170260Y-117594983D01*
X193880912Y-117507210D01*
X193580000Y-117477573D01*
X193279087Y-117507210D01*
X192989739Y-117594983D01*
X192723073Y-117737519D01*
X192489339Y-117929339D01*
X192297519Y-118163074D01*
X192154983Y-118429740D01*
X192067210Y-118719088D01*
X192045000Y-118944593D01*
X192045000Y-119202623D01*
X191305000Y-119942623D01*
X191305000Y-118944592D01*
X191282790Y-118719087D01*
X191195017Y-118429739D01*
X191052481Y-118163073D01*
X190860661Y-117929339D01*
X190626926Y-117737519D01*
X190360260Y-117594983D01*
X190070912Y-117507210D01*
X189770000Y-117477573D01*
X189469087Y-117507210D01*
X189304990Y-117556988D01*
X189304990Y-113243250D01*
X195413142Y-107135098D01*
X198815000Y-107135098D01*
X198815000Y-107604902D01*
X198906654Y-108065679D01*
X199086440Y-108499721D01*
X199347450Y-108890349D01*
X199679651Y-109222550D01*
X200070279Y-109483560D01*
X200504321Y-109663346D01*
X200965098Y-109755000D01*
X201434902Y-109755000D01*
X201895679Y-109663346D01*
X202329721Y-109483560D01*
X202720349Y-109222550D01*
X203052550Y-108890349D01*
X203313560Y-108499721D01*
X203493346Y-108065679D01*
X203585000Y-107604902D01*
X203585000Y-107135098D01*
X203493346Y-106674321D01*
X203313560Y-106240279D01*
X203052550Y-105849651D01*
X202720349Y-105517450D01*
X202329721Y-105256440D01*
X201895679Y-105076654D01*
X201434902Y-104985000D01*
X200965098Y-104985000D01*
X200504321Y-105076654D01*
X200070279Y-105256440D01*
X199679651Y-105517450D01*
X199347450Y-105849651D01*
X199086440Y-106240279D01*
X198906654Y-106674321D01*
X198815000Y-107135098D01*
X195413142Y-107135098D01*
X199759320Y-102788921D01*
X199821714Y-102737716D01*
X200026031Y-102488754D01*
X200177852Y-102204717D01*
X200271343Y-101896518D01*
X200295000Y-101656324D01*
X200295000Y-101656322D01*
X200302911Y-101576003D01*
X200295000Y-101495683D01*
X200295000Y-92080175D01*
X200571285Y-92227852D01*
X200879484Y-92321343D01*
X201200000Y-92352911D01*
X201520515Y-92321343D01*
X201828714Y-92227852D01*
X202112751Y-92076031D01*
X202217278Y-91990249D01*
X202256963Y-92064494D01*
X202336315Y-92161185D01*
X202433006Y-92240537D01*
X202543320Y-92299502D01*
X202663018Y-92335812D01*
X202787500Y-92348072D01*
X204692500Y-92348072D01*
X204816982Y-92335812D01*
X204936680Y-92299502D01*
X205046994Y-92240537D01*
X205143685Y-92161185D01*
X205223037Y-92064494D01*
X205282002Y-91954180D01*
X205318312Y-91834482D01*
X205330572Y-91710000D01*
X205330572Y-90144999D01*
X207133402Y-90144999D01*
X207287397Y-90160166D01*
X207441392Y-90144999D01*
X207441399Y-90144999D01*
X207901964Y-90099637D01*
X208492914Y-89920375D01*
X209037537Y-89629268D01*
X209514902Y-89237504D01*
X209613079Y-89117875D01*
X211855000Y-86875955D01*
X211854999Y-103625682D01*
X211847088Y-103706001D01*
X211854999Y-103786320D01*
X211854999Y-103786322D01*
X211878656Y-104026516D01*
X211972147Y-104334715D01*
X212123968Y-104618752D01*
X212328285Y-104867715D01*
X212390686Y-104918926D01*
X214805001Y-107333242D01*
X214805000Y-109547345D01*
X214750000Y-109541928D01*
X213050000Y-109541928D01*
X212925518Y-109554188D01*
X212805820Y-109590498D01*
X212695506Y-109649463D01*
X212598815Y-109728815D01*
X212519463Y-109825506D01*
X212460498Y-109935820D01*
X212424188Y-110055518D01*
X212411928Y-110180000D01*
X212411928Y-111880000D01*
X212424188Y-112004482D01*
X212460498Y-112124180D01*
X212519463Y-112234494D01*
X212598815Y-112331185D01*
X212695506Y-112410537D01*
X212805820Y-112469502D01*
X212925518Y-112505812D01*
X213050000Y-112518072D01*
X214750000Y-112518072D01*
X214874482Y-112505812D01*
X214994180Y-112469502D01*
X215104494Y-112410537D01*
X215201185Y-112331185D01*
X215280537Y-112234494D01*
X215295745Y-112206042D01*
X215527248Y-112396031D01*
X215621403Y-112446358D01*
X210260682Y-117807080D01*
X210198287Y-117858286D01*
X209993969Y-118107248D01*
X209842148Y-118391285D01*
X209748657Y-118699484D01*
X209725000Y-118939678D01*
X209717089Y-119020000D01*
X209725000Y-119100319D01*
X209725000Y-119242761D01*
X209085000Y-119882762D01*
X209085000Y-118944592D01*
X209062790Y-118719087D01*
X208975017Y-118429739D01*
X208832481Y-118163073D01*
X208640661Y-117929339D01*
X208406926Y-117737519D01*
X208140260Y-117594983D01*
X207850912Y-117507210D01*
X207550000Y-117477573D01*
X207249087Y-117507210D01*
X206959739Y-117594983D01*
X206693073Y-117737519D01*
X206459339Y-117929339D01*
X206267519Y-118163074D01*
X206124983Y-118429740D01*
X206037210Y-118719088D01*
X206015000Y-118944593D01*
X206015000Y-119942624D01*
X205278072Y-119205696D01*
X205278072Y-118370000D01*
X205261008Y-118196746D01*
X205210472Y-118030150D01*
X205128405Y-117876614D01*
X205017962Y-117742038D01*
X204883386Y-117631595D01*
X204729850Y-117549528D01*
X204563254Y-117498992D01*
X204390000Y-117481928D01*
X203090000Y-117481928D01*
X202916746Y-117498992D01*
X202750150Y-117549528D01*
X202596614Y-117631595D01*
X202462038Y-117742038D01*
X202351595Y-117876614D01*
X202269528Y-118030150D01*
X202218992Y-118196746D01*
X202201928Y-118370000D01*
X202201928Y-119357942D01*
X202128657Y-119599484D01*
X202105000Y-119839678D01*
X202105000Y-119899543D01*
X202097089Y-119979862D01*
X202105000Y-120060181D01*
X202105000Y-120060183D01*
X202128657Y-120300377D01*
X202201928Y-120541919D01*
X202201928Y-121470000D01*
X202218992Y-121643254D01*
X202269528Y-121809850D01*
X202351595Y-121963386D01*
X202462038Y-122097962D01*
X202596614Y-122208405D01*
X202750150Y-122290472D01*
X202916746Y-122341008D01*
X203090000Y-122358072D01*
X203805972Y-122358072D01*
X205467228Y-124019329D01*
X205518434Y-124081724D01*
X205767396Y-124286041D01*
X206051433Y-124437862D01*
X206359632Y-124531353D01*
X206599826Y-124555010D01*
X206599828Y-124555010D01*
X206680147Y-124562921D01*
X206760467Y-124555010D01*
X208339533Y-124555010D01*
X208419852Y-124562921D01*
X208500171Y-124555010D01*
X208500174Y-124555010D01*
X208740368Y-124531353D01*
X209048567Y-124437862D01*
X209332604Y-124286041D01*
X209581566Y-124081724D01*
X209632776Y-124019324D01*
X210749328Y-122902773D01*
X210811724Y-122851566D01*
X210944708Y-122689523D01*
X211016040Y-122602605D01*
X211046362Y-122545876D01*
X211241484Y-122350754D01*
X211360000Y-122362427D01*
X211478516Y-122350754D01*
X211673637Y-122545876D01*
X211703959Y-122602604D01*
X211908276Y-122851566D01*
X211970675Y-122902775D01*
X213087227Y-124019328D01*
X213138434Y-124081724D01*
X213387396Y-124286041D01*
X213671433Y-124437862D01*
X213979632Y-124531353D01*
X214219826Y-124555010D01*
X214219828Y-124555010D01*
X214300147Y-124562921D01*
X214380467Y-124555010D01*
X215959533Y-124555010D01*
X216039852Y-124562921D01*
X216120171Y-124555010D01*
X216120174Y-124555010D01*
X216360368Y-124531353D01*
X216668567Y-124437862D01*
X216952604Y-124286041D01*
X217201566Y-124081724D01*
X217252777Y-124019323D01*
X218915979Y-122356122D01*
X218980000Y-122362427D01*
X219280913Y-122332790D01*
X219570261Y-122245017D01*
X219836927Y-122102481D01*
X220070661Y-121910661D01*
X220262481Y-121676927D01*
X220405017Y-121410261D01*
X220492790Y-121120913D01*
X220515000Y-120895408D01*
X220515000Y-120552048D01*
X220591343Y-120300378D01*
X220615000Y-120060184D01*
X220615000Y-120060182D01*
X220622911Y-119979863D01*
X220615000Y-119899543D01*
X220615000Y-119839679D01*
X220591343Y-119599485D01*
X220515000Y-119347815D01*
X220515000Y-118944593D01*
X221255000Y-118944593D01*
X221255000Y-120895408D01*
X221277211Y-121120913D01*
X221364984Y-121410261D01*
X221507520Y-121676927D01*
X221699340Y-121910661D01*
X221933074Y-122102481D01*
X222199740Y-122245017D01*
X222489088Y-122332790D01*
X222790000Y-122362427D01*
X223090913Y-122332790D01*
X223380261Y-122245017D01*
X223646927Y-122102481D01*
X223880661Y-121910661D01*
X224072481Y-121676927D01*
X224215017Y-121410261D01*
X224302790Y-121120913D01*
X224325000Y-120895408D01*
X224325000Y-118944592D01*
X224302790Y-118719087D01*
X224215017Y-118429739D01*
X224072481Y-118163073D01*
X223880661Y-117929339D01*
X223646926Y-117737519D01*
X223380260Y-117594983D01*
X223090912Y-117507210D01*
X222790000Y-117477573D01*
X222489087Y-117507210D01*
X222199739Y-117594983D01*
X221933073Y-117737519D01*
X221699339Y-117929339D01*
X221507519Y-118163074D01*
X221364983Y-118429740D01*
X221277210Y-118719088D01*
X221255000Y-118944593D01*
X220515000Y-118944593D01*
X220515000Y-118944592D01*
X220492790Y-118719087D01*
X220405017Y-118429739D01*
X220262481Y-118163073D01*
X220070661Y-117929339D01*
X219836926Y-117737519D01*
X219570260Y-117594983D01*
X219280912Y-117507210D01*
X218980000Y-117477573D01*
X218679087Y-117507210D01*
X218389739Y-117594983D01*
X218123073Y-117737519D01*
X217889339Y-117929339D01*
X217697519Y-118163074D01*
X217554983Y-118429740D01*
X217467210Y-118719088D01*
X217445000Y-118944593D01*
X217445000Y-119202623D01*
X216705000Y-119942623D01*
X216705000Y-118944592D01*
X216682790Y-118719087D01*
X216595017Y-118429739D01*
X216452481Y-118163073D01*
X216260661Y-117929339D01*
X216026926Y-117737519D01*
X215760260Y-117594983D01*
X215470912Y-117507210D01*
X215210661Y-117481578D01*
X217827229Y-114865010D01*
X219733673Y-114865010D01*
X219813992Y-114872921D01*
X219894311Y-114865010D01*
X219894314Y-114865010D01*
X220134508Y-114841353D01*
X220442707Y-114747862D01*
X220726744Y-114596041D01*
X220975706Y-114391724D01*
X221026917Y-114329323D01*
X228911925Y-106444316D01*
X228816654Y-106674321D01*
X228725000Y-107135098D01*
X228725000Y-107604902D01*
X228816654Y-108065679D01*
X228996440Y-108499721D01*
X229257450Y-108890349D01*
X229589651Y-109222550D01*
X229980279Y-109483560D01*
X230414321Y-109663346D01*
X230875098Y-109755000D01*
X231344902Y-109755000D01*
X231805679Y-109663346D01*
X232239721Y-109483560D01*
X232630349Y-109222550D01*
X232962550Y-108890349D01*
X233223560Y-108499721D01*
X233403346Y-108065679D01*
X233495000Y-107604902D01*
X233495000Y-107135098D01*
X233403346Y-106674321D01*
X233223560Y-106240279D01*
X232962550Y-105849651D01*
X232630349Y-105517450D01*
X232239721Y-105256440D01*
X231805679Y-105076654D01*
X231344902Y-104985000D01*
X230875098Y-104985000D01*
X230414321Y-105076654D01*
X230012910Y-105242924D01*
X230087852Y-105102717D01*
X230181343Y-104794518D01*
X230205000Y-104554324D01*
X230205000Y-104554322D01*
X230212911Y-104474003D01*
X230205000Y-104393683D01*
X230205000Y-92080175D01*
X230481285Y-92227852D01*
X230789484Y-92321343D01*
X231110000Y-92352911D01*
X231430515Y-92321343D01*
X231738714Y-92227852D01*
X232022751Y-92076031D01*
X232127278Y-91990249D01*
X232166963Y-92064494D01*
X232246315Y-92161185D01*
X232343006Y-92240537D01*
X232453320Y-92299502D01*
X232573018Y-92335812D01*
X232697500Y-92348072D01*
X234602500Y-92348072D01*
X234726982Y-92335812D01*
X234846680Y-92299502D01*
X234956994Y-92240537D01*
X235053685Y-92161185D01*
X235133037Y-92064494D01*
X235192002Y-91954180D01*
X235228312Y-91834482D01*
X235240572Y-91710000D01*
X235240572Y-90035000D01*
X238885260Y-90035000D01*
X235660682Y-93259580D01*
X235598287Y-93310786D01*
X235393970Y-93559748D01*
X235242148Y-93843786D01*
X235148658Y-94151984D01*
X235117089Y-94472500D01*
X235125001Y-94552829D01*
X235125000Y-119242761D01*
X234485000Y-119882762D01*
X234485000Y-118944592D01*
X234462790Y-118719087D01*
X234375017Y-118429739D01*
X234232481Y-118163073D01*
X234040661Y-117929339D01*
X233806926Y-117737519D01*
X233540260Y-117594983D01*
X233250912Y-117507210D01*
X232950000Y-117477573D01*
X232649087Y-117507210D01*
X232359739Y-117594983D01*
X232093073Y-117737519D01*
X231859339Y-117929339D01*
X231667519Y-118163074D01*
X231524983Y-118429740D01*
X231437210Y-118719088D01*
X231415000Y-118944593D01*
X231415000Y-119942624D01*
X230678072Y-119205696D01*
X230678072Y-118370000D01*
X230661008Y-118196746D01*
X230610472Y-118030150D01*
X230528405Y-117876614D01*
X230417962Y-117742038D01*
X230283386Y-117631595D01*
X230129850Y-117549528D01*
X229963254Y-117498992D01*
X229790000Y-117481928D01*
X228490000Y-117481928D01*
X228316746Y-117498992D01*
X228150150Y-117549528D01*
X227996614Y-117631595D01*
X227862038Y-117742038D01*
X227751595Y-117876614D01*
X227669528Y-118030150D01*
X227618992Y-118196746D01*
X227601928Y-118370000D01*
X227601928Y-119357942D01*
X227528657Y-119599484D01*
X227505000Y-119839678D01*
X227505000Y-119899543D01*
X227497089Y-119979862D01*
X227505000Y-120060181D01*
X227505000Y-120060183D01*
X227528657Y-120300377D01*
X227601928Y-120541919D01*
X227601928Y-121470000D01*
X227618992Y-121643254D01*
X227669528Y-121809850D01*
X227751595Y-121963386D01*
X227862038Y-122097962D01*
X227996614Y-122208405D01*
X228150150Y-122290472D01*
X228316746Y-122341008D01*
X228490000Y-122358072D01*
X229205972Y-122358072D01*
X230867228Y-124019329D01*
X230918434Y-124081724D01*
X231167396Y-124286041D01*
X231451433Y-124437862D01*
X231759632Y-124531353D01*
X231999826Y-124555010D01*
X231999828Y-124555010D01*
X232080147Y-124562921D01*
X232160467Y-124555010D01*
X233739533Y-124555010D01*
X233819852Y-124562921D01*
X233900171Y-124555010D01*
X233900174Y-124555010D01*
X234140368Y-124531353D01*
X234448567Y-124437862D01*
X234732604Y-124286041D01*
X234981566Y-124081724D01*
X235032776Y-124019324D01*
X236149328Y-122902773D01*
X236211724Y-122851566D01*
X236332347Y-122704585D01*
X238447080Y-124819319D01*
X238498286Y-124881714D01*
X238747248Y-125086031D01*
X239031285Y-125237852D01*
X239339484Y-125331343D01*
X239579678Y-125355000D01*
X239579680Y-125355000D01*
X239659999Y-125362911D01*
X239740319Y-125355000D01*
X240559543Y-125355000D01*
X240639862Y-125362911D01*
X240720181Y-125355000D01*
X240720184Y-125355000D01*
X240960378Y-125331343D01*
X241268577Y-125237852D01*
X241552614Y-125086031D01*
X241801576Y-124881714D01*
X241852787Y-124819313D01*
X244315979Y-122356122D01*
X244380000Y-122362427D01*
X244680913Y-122332790D01*
X244970261Y-122245017D01*
X245236927Y-122102481D01*
X245470661Y-121910661D01*
X245662481Y-121676927D01*
X245805017Y-121410261D01*
X245892790Y-121120913D01*
X245915000Y-120895408D01*
X245915000Y-120552048D01*
X245991343Y-120300378D01*
X246015000Y-120060184D01*
X246015000Y-120060182D01*
X246022911Y-119979862D01*
X246015000Y-119899543D01*
X246015000Y-119839679D01*
X245991343Y-119599485D01*
X245915000Y-119347815D01*
X245915000Y-118944593D01*
X246655000Y-118944593D01*
X246655000Y-120895408D01*
X246677211Y-121120913D01*
X246764984Y-121410261D01*
X246907520Y-121676927D01*
X247099340Y-121910661D01*
X247333074Y-122102481D01*
X247599740Y-122245017D01*
X247889088Y-122332790D01*
X248190000Y-122362427D01*
X248490913Y-122332790D01*
X248780261Y-122245017D01*
X249046927Y-122102481D01*
X249280661Y-121910661D01*
X249472481Y-121676927D01*
X249615017Y-121410261D01*
X249702790Y-121120913D01*
X249725000Y-120895408D01*
X249725000Y-118944592D01*
X249702790Y-118719087D01*
X249615017Y-118429739D01*
X249472481Y-118163073D01*
X249280661Y-117929339D01*
X249046926Y-117737519D01*
X248780260Y-117594983D01*
X248490912Y-117507210D01*
X248190000Y-117477573D01*
X247889087Y-117507210D01*
X247599739Y-117594983D01*
X247333073Y-117737519D01*
X247099339Y-117929339D01*
X246907519Y-118163074D01*
X246764983Y-118429740D01*
X246677210Y-118719088D01*
X246655000Y-118944593D01*
X245915000Y-118944593D01*
X245915000Y-118944592D01*
X245892790Y-118719087D01*
X245805017Y-118429739D01*
X245662481Y-118163073D01*
X245470661Y-117929339D01*
X245236926Y-117737519D01*
X244970260Y-117594983D01*
X244680912Y-117507210D01*
X244380000Y-117477573D01*
X244079087Y-117507210D01*
X243789739Y-117594983D01*
X243523073Y-117737519D01*
X243289339Y-117929339D01*
X243097519Y-118163074D01*
X242954983Y-118429740D01*
X242867210Y-118719088D01*
X242845000Y-118944593D01*
X242845000Y-119202623D01*
X242105000Y-119942623D01*
X242105000Y-118944592D01*
X242082790Y-118719087D01*
X241995017Y-118429739D01*
X241852481Y-118163073D01*
X241660661Y-117929339D01*
X241426926Y-117737519D01*
X241160260Y-117594983D01*
X240870912Y-117507210D01*
X240570000Y-117477573D01*
X240269087Y-117507210D01*
X239979739Y-117594983D01*
X239713073Y-117737519D01*
X239479339Y-117929339D01*
X239287519Y-118163074D01*
X239144983Y-118429740D01*
X239057210Y-118719088D01*
X239035000Y-118944593D01*
X239035000Y-120782762D01*
X238395000Y-120142762D01*
X238395000Y-120000320D01*
X238402911Y-119920001D01*
X238395000Y-119839678D01*
X238395000Y-107135098D01*
X240725000Y-107135098D01*
X240725000Y-107604902D01*
X240816654Y-108065679D01*
X240996440Y-108499721D01*
X241257450Y-108890349D01*
X241589651Y-109222550D01*
X241980279Y-109483560D01*
X242414321Y-109663346D01*
X242875098Y-109755000D01*
X243344902Y-109755000D01*
X243711054Y-109682168D01*
X248773000Y-109682168D01*
X248773000Y-110317832D01*
X248897012Y-110941281D01*
X249140270Y-111528558D01*
X249493425Y-112057093D01*
X249942907Y-112506575D01*
X250471442Y-112859730D01*
X251058719Y-113102988D01*
X251682168Y-113227000D01*
X252317832Y-113227000D01*
X252941281Y-113102988D01*
X253528558Y-112859730D01*
X254057093Y-112506575D01*
X254506575Y-112057093D01*
X254859730Y-111528558D01*
X255102988Y-110941281D01*
X255227000Y-110317832D01*
X255227000Y-109682168D01*
X255102988Y-109058719D01*
X254859730Y-108471442D01*
X254506575Y-107942907D01*
X254057093Y-107493425D01*
X253528558Y-107140270D01*
X252941281Y-106897012D01*
X252317832Y-106773000D01*
X251682168Y-106773000D01*
X251058719Y-106897012D01*
X250471442Y-107140270D01*
X249942907Y-107493425D01*
X249493425Y-107942907D01*
X249140270Y-108471442D01*
X248897012Y-109058719D01*
X248773000Y-109682168D01*
X243711054Y-109682168D01*
X243805679Y-109663346D01*
X244239721Y-109483560D01*
X244630349Y-109222550D01*
X244962550Y-108890349D01*
X245223560Y-108499721D01*
X245403346Y-108065679D01*
X245495000Y-107604902D01*
X245495000Y-107135098D01*
X245403346Y-106674321D01*
X245223560Y-106240279D01*
X244962550Y-105849651D01*
X244630349Y-105517450D01*
X244239721Y-105256440D01*
X243805679Y-105076654D01*
X243344902Y-104985000D01*
X242875098Y-104985000D01*
X242414321Y-105076654D01*
X241980279Y-105256440D01*
X241589651Y-105517450D01*
X241257450Y-105849651D01*
X240996440Y-106240279D01*
X240816654Y-106674321D01*
X240725000Y-107135098D01*
X238395000Y-107135098D01*
X238395000Y-95149738D01*
X241482226Y-92062514D01*
X241697963Y-91885463D01*
X241822039Y-91734277D01*
X242010677Y-91922916D01*
X242197248Y-92076030D01*
X242481286Y-92227852D01*
X242789483Y-92321343D01*
X243110000Y-92352911D01*
X243430516Y-92321343D01*
X243738715Y-92227852D01*
X244022752Y-92076030D01*
X244127277Y-91990248D01*
X244166963Y-92064494D01*
X244246315Y-92161185D01*
X244343006Y-92240537D01*
X244453320Y-92299502D01*
X244573018Y-92335812D01*
X244697500Y-92348072D01*
X246602500Y-92348072D01*
X246726982Y-92335812D01*
X246846680Y-92299502D01*
X246956994Y-92240537D01*
X247053685Y-92161185D01*
X247133037Y-92064494D01*
X247192002Y-91954180D01*
X247228312Y-91834482D01*
X247240572Y-91710000D01*
X247240572Y-89710000D01*
X247228312Y-89585518D01*
X247192002Y-89465820D01*
X247133037Y-89355506D01*
X247053685Y-89258815D01*
X246956994Y-89179463D01*
X246846680Y-89120498D01*
X246726982Y-89084188D01*
X246649331Y-89076540D01*
X246999269Y-88650140D01*
X247290376Y-88105517D01*
X247469638Y-87514567D01*
X247530168Y-86900000D01*
X247469638Y-86285433D01*
X247290376Y-85694483D01*
X246999269Y-85149860D01*
X246607505Y-84672495D01*
X246130140Y-84280731D01*
X245585517Y-83989624D01*
X244994567Y-83810362D01*
X244534002Y-83765000D01*
X227898559Y-83765000D01*
X223955674Y-79822116D01*
X223857496Y-79702486D01*
X223380131Y-79310722D01*
X222835508Y-79019615D01*
X222244558Y-78840353D01*
X221783993Y-78794991D01*
X221783986Y-78794991D01*
X221629991Y-78779824D01*
X221475996Y-78794991D01*
X212521399Y-78794991D01*
X212367404Y-78779824D01*
X212213409Y-78794991D01*
X212213403Y-78794991D01*
X211814875Y-78834243D01*
X211752837Y-78840353D01*
X211573575Y-78894732D01*
X211161888Y-79019615D01*
X210617265Y-79310722D01*
X210139900Y-79702486D01*
X210041731Y-79822105D01*
X205988839Y-83874999D01*
X178283995Y-83874999D01*
X178130000Y-83859832D01*
X177976005Y-83874999D01*
X177975999Y-83874999D01*
X177577471Y-83914251D01*
X177515433Y-83920361D01*
X177336171Y-83974740D01*
X176924484Y-84099623D01*
X176379861Y-84390730D01*
X176239992Y-84505518D01*
X176034733Y-84673970D01*
X175902496Y-84782494D01*
X175804327Y-84902114D01*
X175505462Y-85200978D01*
X175619648Y-84824557D01*
X175665010Y-84363992D01*
X175665010Y-84363986D01*
X175680177Y-84209991D01*
X175665010Y-84055996D01*
X175665010Y-78236425D01*
X175675787Y-78127000D01*
X182765887Y-78127000D01*
X182739000Y-78262168D01*
X182739000Y-78897832D01*
X182863012Y-79521281D01*
X183106270Y-80108558D01*
X183459425Y-80637093D01*
X183908907Y-81086575D01*
X184437442Y-81439730D01*
X185024719Y-81682988D01*
X185648168Y-81807000D01*
X186283832Y-81807000D01*
X186907281Y-81682988D01*
X187494558Y-81439730D01*
X188023093Y-81086575D01*
X188472575Y-80637093D01*
X188825730Y-80108558D01*
X189068988Y-79521281D01*
X189193000Y-78897832D01*
X189193000Y-78262168D01*
X189166113Y-78127000D01*
X240785778Y-78127000D01*
X240739000Y-78362168D01*
X240739000Y-78997832D01*
X240863012Y-79621281D01*
X241106270Y-80208558D01*
X241459425Y-80737093D01*
X241908907Y-81186575D01*
X242437442Y-81539730D01*
X243024719Y-81782988D01*
X243648168Y-81907000D01*
X244283832Y-81907000D01*
X244907281Y-81782988D01*
X245494558Y-81539730D01*
X246023093Y-81186575D01*
X246472575Y-80737093D01*
X246825730Y-80208558D01*
X247068988Y-79621281D01*
X247193000Y-78997832D01*
X247193000Y-78362168D01*
X247146222Y-78127000D01*
X257873000Y-78127000D01*
X257873000Y-119947394D01*
X239947394Y-137873000D01*
X160052606Y-137873000D01*
X153861774Y-131682168D01*
X166773000Y-131682168D01*
X166773000Y-132317832D01*
X166897012Y-132941281D01*
X167140270Y-133528558D01*
X167493425Y-134057093D01*
X167942907Y-134506575D01*
X168471442Y-134859730D01*
X169058719Y-135102988D01*
X169682168Y-135227000D01*
X170317832Y-135227000D01*
X170941281Y-135102988D01*
X171528558Y-134859730D01*
X172057093Y-134506575D01*
X172506575Y-134057093D01*
X172859730Y-133528558D01*
X173102988Y-132941281D01*
X173227000Y-132317832D01*
X173227000Y-131682168D01*
X226773000Y-131682168D01*
X226773000Y-132317832D01*
X226897012Y-132941281D01*
X227140270Y-133528558D01*
X227493425Y-134057093D01*
X227942907Y-134506575D01*
X228471442Y-134859730D01*
X229058719Y-135102988D01*
X229682168Y-135227000D01*
X230317832Y-135227000D01*
X230941281Y-135102988D01*
X231528558Y-134859730D01*
X232057093Y-134506575D01*
X232506575Y-134057093D01*
X232859730Y-133528558D01*
X233102988Y-132941281D01*
X233227000Y-132317832D01*
X233227000Y-131682168D01*
X233102988Y-131058719D01*
X232859730Y-130471442D01*
X232506575Y-129942907D01*
X232057093Y-129493425D01*
X231528558Y-129140270D01*
X230941281Y-128897012D01*
X230317832Y-128773000D01*
X229682168Y-128773000D01*
X229058719Y-128897012D01*
X228471442Y-129140270D01*
X227942907Y-129493425D01*
X227493425Y-129942907D01*
X227140270Y-130471442D01*
X226897012Y-131058719D01*
X226773000Y-131682168D01*
X173227000Y-131682168D01*
X173102988Y-131058719D01*
X172859730Y-130471442D01*
X172506575Y-129942907D01*
X172057093Y-129493425D01*
X171528558Y-129140270D01*
X170941281Y-128897012D01*
X170317832Y-128773000D01*
X169682168Y-128773000D01*
X169058719Y-128897012D01*
X168471442Y-129140270D01*
X167942907Y-129493425D01*
X167493425Y-129942907D01*
X167140270Y-130471442D01*
X166897012Y-131058719D01*
X166773000Y-131682168D01*
X153861774Y-131682168D01*
X142127000Y-119947394D01*
X142127000Y-109682168D01*
X144773000Y-109682168D01*
X144773000Y-110317832D01*
X144897012Y-110941281D01*
X145140270Y-111528558D01*
X145493425Y-112057093D01*
X145942907Y-112506575D01*
X146471442Y-112859730D01*
X147058719Y-113102988D01*
X147682168Y-113227000D01*
X148317832Y-113227000D01*
X148941281Y-113102988D01*
X149528558Y-112859730D01*
X150057093Y-112506575D01*
X150506575Y-112057093D01*
X150859730Y-111528558D01*
X151102988Y-110941281D01*
X151227000Y-110317832D01*
X151227000Y-109682168D01*
X151102988Y-109058719D01*
X150859730Y-108471442D01*
X150506575Y-107942907D01*
X150057093Y-107493425D01*
X149528558Y-107140270D01*
X148941281Y-106897012D01*
X148317832Y-106773000D01*
X147682168Y-106773000D01*
X147058719Y-106897012D01*
X146471442Y-107140270D01*
X145942907Y-107493425D01*
X145493425Y-107942907D01*
X145140270Y-108471442D01*
X144897012Y-109058719D01*
X144773000Y-109682168D01*
X142127000Y-109682168D01*
X142127000Y-94542491D01*
X161115000Y-94542491D01*
X161115000Y-95337510D01*
X161143722Y-95629128D01*
X161257226Y-96003302D01*
X161441547Y-96348143D01*
X161689603Y-96650398D01*
X161991858Y-96898453D01*
X162336699Y-97082774D01*
X162710873Y-97196278D01*
X163100000Y-97234604D01*
X163489128Y-97196278D01*
X163863302Y-97082774D01*
X164208143Y-96898453D01*
X164510398Y-96650398D01*
X164758453Y-96348143D01*
X164942774Y-96003302D01*
X165056278Y-95629127D01*
X165085000Y-95337509D01*
X165085000Y-94542491D01*
X165315000Y-94542491D01*
X165315000Y-95337510D01*
X165343722Y-95629128D01*
X165457226Y-96003302D01*
X165641547Y-96348143D01*
X165889603Y-96650398D01*
X166191858Y-96898453D01*
X166536699Y-97082774D01*
X166910873Y-97196278D01*
X167300000Y-97234604D01*
X167689128Y-97196278D01*
X168063302Y-97082774D01*
X168408143Y-96898453D01*
X168710398Y-96650398D01*
X168958453Y-96348143D01*
X169142774Y-96003302D01*
X169256278Y-95629127D01*
X169285000Y-95337509D01*
X169285000Y-94542491D01*
X169515000Y-94542491D01*
X169515000Y-95337510D01*
X169543722Y-95629128D01*
X169657226Y-96003302D01*
X169841547Y-96348143D01*
X170089603Y-96650398D01*
X170391858Y-96898453D01*
X170736699Y-97082774D01*
X171110873Y-97196278D01*
X171500000Y-97234604D01*
X171889128Y-97196278D01*
X172263302Y-97082774D01*
X172608143Y-96898453D01*
X172910398Y-96650398D01*
X173158453Y-96348143D01*
X173342774Y-96003302D01*
X173456278Y-95629127D01*
X173485000Y-95337509D01*
X173485000Y-94542491D01*
X173715000Y-94542491D01*
X173715000Y-95337510D01*
X173743722Y-95629128D01*
X173857226Y-96003302D01*
X174041547Y-96348143D01*
X174289603Y-96650398D01*
X174591858Y-96898453D01*
X174936699Y-97082774D01*
X175310873Y-97196278D01*
X175700000Y-97234604D01*
X176089128Y-97196278D01*
X176463302Y-97082774D01*
X176808143Y-96898453D01*
X177110398Y-96650398D01*
X177358453Y-96348143D01*
X177542774Y-96003302D01*
X177656278Y-95629127D01*
X177685000Y-95337509D01*
X177685000Y-94542490D01*
X177656278Y-94250872D01*
X177542774Y-93876698D01*
X177358453Y-93531857D01*
X177110398Y-93229602D01*
X176808143Y-92981547D01*
X176463301Y-92797226D01*
X176089127Y-92683722D01*
X175700000Y-92645396D01*
X175310872Y-92683722D01*
X174936698Y-92797226D01*
X174591857Y-92981547D01*
X174289602Y-93229602D01*
X174041547Y-93531857D01*
X173857226Y-93876699D01*
X173743722Y-94250873D01*
X173715000Y-94542491D01*
X173485000Y-94542491D01*
X173485000Y-94542490D01*
X173456278Y-94250872D01*
X173342774Y-93876698D01*
X173158453Y-93531857D01*
X172910398Y-93229602D01*
X172608143Y-92981547D01*
X172263301Y-92797226D01*
X171889127Y-92683722D01*
X171500000Y-92645396D01*
X171110872Y-92683722D01*
X170736698Y-92797226D01*
X170391857Y-92981547D01*
X170089602Y-93229602D01*
X169841547Y-93531857D01*
X169657226Y-93876699D01*
X169543722Y-94250873D01*
X169515000Y-94542491D01*
X169285000Y-94542491D01*
X169285000Y-94542490D01*
X169256278Y-94250872D01*
X169142774Y-93876698D01*
X168958453Y-93531857D01*
X168710398Y-93229602D01*
X168408143Y-92981547D01*
X168063301Y-92797226D01*
X167689127Y-92683722D01*
X167300000Y-92645396D01*
X166910872Y-92683722D01*
X166536698Y-92797226D01*
X166191857Y-92981547D01*
X165889602Y-93229602D01*
X165641547Y-93531857D01*
X165457226Y-93876699D01*
X165343722Y-94250873D01*
X165315000Y-94542491D01*
X165085000Y-94542491D01*
X165085000Y-94542490D01*
X165056278Y-94250872D01*
X164942774Y-93876698D01*
X164758453Y-93531857D01*
X164510398Y-93229602D01*
X164208143Y-92981547D01*
X163863301Y-92797226D01*
X163489127Y-92683722D01*
X163100000Y-92645396D01*
X162710872Y-92683722D01*
X162336698Y-92797226D01*
X161991857Y-92981547D01*
X161689602Y-93229602D01*
X161441547Y-93531857D01*
X161257226Y-93876699D01*
X161143722Y-94250873D01*
X161115000Y-94542491D01*
X142127000Y-94542491D01*
X142127000Y-78127000D01*
X161240843Y-78127000D01*
X160969602Y-78349602D01*
G04 #@! TA.AperFunction,NonConductor*
D27*
G36*
X160969602Y-78349602D02*
G01*
X160721547Y-78651857D01*
X160537226Y-78996698D01*
X160423722Y-79370872D01*
X160385396Y-79760000D01*
X160423722Y-80149128D01*
X160537226Y-80523302D01*
X160721547Y-80868143D01*
X160969602Y-81170398D01*
X161271857Y-81418453D01*
X161616698Y-81602774D01*
X161990872Y-81716278D01*
X162282490Y-81745000D01*
X163077510Y-81745000D01*
X163369128Y-81716278D01*
X163743302Y-81602774D01*
X164088143Y-81418453D01*
X164390398Y-81170398D01*
X164638453Y-80868143D01*
X164822774Y-80523302D01*
X164936278Y-80149128D01*
X164974604Y-79760000D01*
X164936278Y-79370872D01*
X164822774Y-78996698D01*
X164638453Y-78651857D01*
X164390398Y-78349602D01*
X164119157Y-78127000D01*
X166366170Y-78127000D01*
X166429860Y-78179269D01*
X166579616Y-78259315D01*
X166469602Y-78349602D01*
X166221547Y-78651857D01*
X166037226Y-78996698D01*
X165923722Y-79370872D01*
X165885396Y-79760000D01*
X165923722Y-80149128D01*
X166037226Y-80523302D01*
X166221547Y-80868143D01*
X166469602Y-81170398D01*
X166771857Y-81418453D01*
X167116698Y-81602774D01*
X167490872Y-81716278D01*
X167782490Y-81745000D01*
X168577510Y-81745000D01*
X168869128Y-81716278D01*
X169243302Y-81602774D01*
X169395010Y-81521684D01*
X169395010Y-82911431D01*
X166001442Y-86305000D01*
X162945998Y-86305000D01*
X162485433Y-86350362D01*
X161894483Y-86529624D01*
X161349860Y-86820731D01*
X160872495Y-87212495D01*
X160480731Y-87689860D01*
X160189624Y-88234483D01*
X160010362Y-88825433D01*
X159949832Y-89440000D01*
X160010362Y-90054567D01*
X160189624Y-90645517D01*
X160480731Y-91190140D01*
X160872495Y-91667505D01*
X161349860Y-92059269D01*
X161894483Y-92350376D01*
X162485433Y-92529638D01*
X162945998Y-92575000D01*
X167146005Y-92575000D01*
X167300000Y-92590167D01*
X167453995Y-92575000D01*
X175546005Y-92575000D01*
X175700000Y-92590167D01*
X175853995Y-92575000D01*
X175854002Y-92575000D01*
X176314567Y-92529638D01*
X176905517Y-92350376D01*
X177450140Y-92059269D01*
X177927505Y-91667505D01*
X178025682Y-91547876D01*
X179428560Y-90144999D01*
X184212762Y-90144999D01*
X159460687Y-114897075D01*
X159398286Y-114948286D01*
X159193969Y-115197249D01*
X159042148Y-115481286D01*
X158948657Y-115789485D01*
X158925000Y-116029678D01*
X158917089Y-116110000D01*
X158925000Y-116190320D01*
X158925001Y-119242760D01*
X158285000Y-119882762D01*
X158285000Y-118944592D01*
X158262790Y-118719087D01*
X158175017Y-118429739D01*
X158032481Y-118163073D01*
X157840661Y-117929339D01*
X157606926Y-117737519D01*
X157340260Y-117594983D01*
X157050912Y-117507210D01*
X156750000Y-117477573D01*
X156449087Y-117507210D01*
X156159739Y-117594983D01*
X155893073Y-117737519D01*
X155659339Y-117929339D01*
X155467519Y-118163074D01*
X155324983Y-118429740D01*
X155237210Y-118719088D01*
X155215000Y-118944593D01*
X155215000Y-119942624D01*
X154478072Y-119205696D01*
X154478072Y-118370000D01*
X154461008Y-118196746D01*
X154410472Y-118030150D01*
X154328405Y-117876614D01*
X154217962Y-117742038D01*
X154083386Y-117631595D01*
X153929850Y-117549528D01*
X153763254Y-117498992D01*
X153590000Y-117481928D01*
X152290000Y-117481928D01*
X152116746Y-117498992D01*
X151950150Y-117549528D01*
X151796614Y-117631595D01*
X151662038Y-117742038D01*
X151551595Y-117876614D01*
X151469528Y-118030150D01*
X151418992Y-118196746D01*
X151401928Y-118370000D01*
X151401928Y-119357942D01*
X151328657Y-119599484D01*
X151305000Y-119839678D01*
X151305000Y-119899543D01*
X151297089Y-119979862D01*
X151305000Y-120060181D01*
X151305000Y-120060183D01*
X151328657Y-120300377D01*
X151401928Y-120541919D01*
X151401928Y-121470000D01*
X151418992Y-121643254D01*
X151469528Y-121809850D01*
X151551595Y-121963386D01*
X151662038Y-122097962D01*
X151796614Y-122208405D01*
X151950150Y-122290472D01*
X152116746Y-122341008D01*
X152290000Y-122358072D01*
X153005972Y-122358072D01*
X154667228Y-124019329D01*
X154718434Y-124081724D01*
X154967396Y-124286041D01*
X155251433Y-124437862D01*
X155559632Y-124531353D01*
X155799826Y-124555010D01*
X155799828Y-124555010D01*
X155880147Y-124562921D01*
X155960467Y-124555010D01*
X157539533Y-124555010D01*
X157619852Y-124562921D01*
X157700171Y-124555010D01*
X157700174Y-124555010D01*
X157940368Y-124531353D01*
X158248567Y-124437862D01*
X158532604Y-124286041D01*
X158781566Y-124081724D01*
X158832776Y-124019324D01*
X159949328Y-122902773D01*
X160011724Y-122851566D01*
X160144708Y-122689523D01*
X160216040Y-122602605D01*
X160246362Y-122545876D01*
X160441484Y-122350754D01*
X160560000Y-122362427D01*
X160678516Y-122350754D01*
X160873637Y-122545876D01*
X160903959Y-122602604D01*
X161108276Y-122851566D01*
X161170675Y-122902775D01*
X162287227Y-124019328D01*
X162338434Y-124081724D01*
X162587396Y-124286041D01*
X162871433Y-124437862D01*
X163179632Y-124531353D01*
X163419826Y-124555010D01*
X163419828Y-124555010D01*
X163500147Y-124562921D01*
X163580467Y-124555010D01*
X165159533Y-124555010D01*
X165239852Y-124562921D01*
X165320171Y-124555010D01*
X165320174Y-124555010D01*
X165560368Y-124531353D01*
X165868567Y-124437862D01*
X166152604Y-124286041D01*
X166401566Y-124081724D01*
X166452777Y-124019323D01*
X168115979Y-122356122D01*
X168180000Y-122362427D01*
X168480913Y-122332790D01*
X168770261Y-122245017D01*
X169036927Y-122102481D01*
X169270661Y-121910661D01*
X169462481Y-121676927D01*
X169605017Y-121410261D01*
X169692790Y-121120913D01*
X169715000Y-120895408D01*
X169715000Y-120552048D01*
X169791343Y-120300378D01*
X169815000Y-120060184D01*
X169815000Y-120060182D01*
X169822911Y-119979863D01*
X169815000Y-119899543D01*
X169815000Y-119839679D01*
X169791343Y-119599485D01*
X169715000Y-119347815D01*
X169715000Y-118944593D01*
X170455000Y-118944593D01*
X170455000Y-120895408D01*
X170477211Y-121120913D01*
X170564984Y-121410261D01*
X170707520Y-121676927D01*
X170899340Y-121910661D01*
X171133074Y-122102481D01*
X171399740Y-122245017D01*
X171689088Y-122332790D01*
X171990000Y-122362427D01*
X172290913Y-122332790D01*
X172580261Y-122245017D01*
X172846927Y-122102481D01*
X173080661Y-121910661D01*
X173272481Y-121676927D01*
X173415017Y-121410261D01*
X173502790Y-121120913D01*
X173525000Y-120895408D01*
X173525000Y-118944592D01*
X173502790Y-118719087D01*
X173415017Y-118429739D01*
X173272481Y-118163073D01*
X173080661Y-117929339D01*
X172846926Y-117737519D01*
X172580260Y-117594983D01*
X172290912Y-117507210D01*
X171990000Y-117477573D01*
X171689087Y-117507210D01*
X171399739Y-117594983D01*
X171133073Y-117737519D01*
X170899339Y-117929339D01*
X170707519Y-118163074D01*
X170564983Y-118429740D01*
X170477210Y-118719088D01*
X170455000Y-118944593D01*
X169715000Y-118944593D01*
X169715000Y-118944592D01*
X169692790Y-118719087D01*
X169605017Y-118429739D01*
X169462481Y-118163073D01*
X169270661Y-117929339D01*
X169036926Y-117737519D01*
X168770260Y-117594983D01*
X168480912Y-117507210D01*
X168180000Y-117477573D01*
X167879087Y-117507210D01*
X167589739Y-117594983D01*
X167323073Y-117737519D01*
X167089339Y-117929339D01*
X166897519Y-118163074D01*
X166754983Y-118429740D01*
X166667210Y-118719088D01*
X166645000Y-118944593D01*
X166645000Y-119202623D01*
X165905000Y-119942623D01*
X165905000Y-118944592D01*
X165882790Y-118719087D01*
X165795017Y-118429739D01*
X165652481Y-118163073D01*
X165460661Y-117929339D01*
X165226926Y-117737519D01*
X164960260Y-117594983D01*
X164670912Y-117507210D01*
X164370000Y-117477573D01*
X164069087Y-117507210D01*
X163779739Y-117594983D01*
X163513073Y-117737519D01*
X163279339Y-117929339D01*
X163087519Y-118163074D01*
X162944983Y-118429740D01*
X162857210Y-118719088D01*
X162835000Y-118944593D01*
X162835000Y-119882761D01*
X162195000Y-119242762D01*
X162195000Y-116787238D01*
X187172915Y-91809324D01*
X187230000Y-91739766D01*
X187338286Y-91871714D01*
X187587248Y-92076031D01*
X187871285Y-92227852D01*
X188179484Y-92321343D01*
X188500000Y-92352911D01*
X188820515Y-92321343D01*
X189128714Y-92227852D01*
X189412751Y-92076031D01*
X189517278Y-91990249D01*
X189556963Y-92064494D01*
X189636315Y-92161185D01*
X189733006Y-92240537D01*
X189843320Y-92299502D01*
X189963018Y-92335812D01*
X190087500Y-92348072D01*
X191992500Y-92348072D01*
X192116982Y-92335812D01*
X192236680Y-92299502D01*
X192346994Y-92240537D01*
X192443685Y-92161185D01*
X192523037Y-92064494D01*
X192582002Y-91954180D01*
X192618312Y-91834482D01*
X192630572Y-91710000D01*
X192630572Y-90144999D01*
X197122822Y-90144999D01*
X197048658Y-90389484D01*
X197025001Y-90629678D01*
X197025000Y-100898763D01*
X190869017Y-107054746D01*
X190793346Y-106674321D01*
X190613560Y-106240279D01*
X190352550Y-105849651D01*
X190020349Y-105517450D01*
X189629721Y-105256440D01*
X189195679Y-105076654D01*
X188734902Y-104985000D01*
X188265098Y-104985000D01*
X187804321Y-105076654D01*
X187370279Y-105256440D01*
X186979651Y-105517450D01*
X186647450Y-105849651D01*
X186386440Y-106240279D01*
X186206654Y-106674321D01*
X186115000Y-107135098D01*
X186115000Y-107604902D01*
X186206654Y-108065679D01*
X186386440Y-108499721D01*
X186647450Y-108890349D01*
X186979651Y-109222550D01*
X187370279Y-109483560D01*
X187804321Y-109663346D01*
X188184747Y-109739017D01*
X186570672Y-111353092D01*
X186508277Y-111404298D01*
X186332350Y-111618667D01*
X186303960Y-111653260D01*
X186152138Y-111937298D01*
X186058648Y-112245496D01*
X186027079Y-112566012D01*
X186034991Y-112646341D01*
X186034990Y-117484959D01*
X185960000Y-117477573D01*
X185659087Y-117507210D01*
X185369739Y-117594983D01*
X185103073Y-117737519D01*
X184869339Y-117929339D01*
X184677519Y-118163074D01*
X184534983Y-118429740D01*
X184447210Y-118719088D01*
X184425000Y-118944593D01*
X184425000Y-119142761D01*
X183685000Y-119882762D01*
X183685000Y-118944592D01*
X183662790Y-118719087D01*
X183575017Y-118429739D01*
X183432481Y-118163073D01*
X183240661Y-117929339D01*
X183006926Y-117737519D01*
X182740260Y-117594983D01*
X182450912Y-117507210D01*
X182150000Y-117477573D01*
X181849087Y-117507210D01*
X181559739Y-117594983D01*
X181293073Y-117737519D01*
X181059339Y-117929339D01*
X180867519Y-118163074D01*
X180724983Y-118429740D01*
X180637210Y-118719088D01*
X180615000Y-118944593D01*
X180615000Y-119942624D01*
X179878072Y-119205696D01*
X179878072Y-118370000D01*
X179861008Y-118196746D01*
X179810472Y-118030150D01*
X179728405Y-117876614D01*
X179617962Y-117742038D01*
X179483386Y-117631595D01*
X179329850Y-117549528D01*
X179163254Y-117498992D01*
X178990000Y-117481928D01*
X177690000Y-117481928D01*
X177516746Y-117498992D01*
X177350150Y-117549528D01*
X177196614Y-117631595D01*
X177062038Y-117742038D01*
X176951595Y-117876614D01*
X176869528Y-118030150D01*
X176818992Y-118196746D01*
X176801928Y-118370000D01*
X176801928Y-119357942D01*
X176728657Y-119599484D01*
X176705000Y-119839678D01*
X176705000Y-119899543D01*
X176697089Y-119979862D01*
X176705000Y-120060181D01*
X176705000Y-120060183D01*
X176728657Y-120300377D01*
X176801928Y-120541919D01*
X176801928Y-121470000D01*
X176818992Y-121643254D01*
X176869528Y-121809850D01*
X176951595Y-121963386D01*
X177062038Y-122097962D01*
X177196614Y-122208405D01*
X177350150Y-122290472D01*
X177516746Y-122341008D01*
X177690000Y-122358072D01*
X178405972Y-122358072D01*
X180067228Y-124019329D01*
X180118434Y-124081724D01*
X180367396Y-124286041D01*
X180651433Y-124437862D01*
X180959632Y-124531353D01*
X181199826Y-124555010D01*
X181199828Y-124555010D01*
X181280147Y-124562921D01*
X181360467Y-124555010D01*
X182939533Y-124555010D01*
X183019852Y-124562921D01*
X183100171Y-124555010D01*
X183100174Y-124555010D01*
X183340368Y-124531353D01*
X183648567Y-124437862D01*
X183932604Y-124286041D01*
X184181566Y-124081724D01*
X184232776Y-124019324D01*
X185349328Y-122902773D01*
X185411724Y-122851566D01*
X185544708Y-122689523D01*
X185616040Y-122602605D01*
X185646362Y-122545876D01*
X185841484Y-122350754D01*
X185960000Y-122362427D01*
X186078516Y-122350754D01*
X186273637Y-122545876D01*
X186303959Y-122602604D01*
X186508276Y-122851566D01*
X186570675Y-122902775D01*
X187687227Y-124019328D01*
X187738434Y-124081724D01*
X187987396Y-124286041D01*
X188271433Y-124437862D01*
X188579632Y-124531353D01*
X188819826Y-124555010D01*
X188819828Y-124555010D01*
X188900147Y-124562921D01*
X188980467Y-124555010D01*
X190559533Y-124555010D01*
X190639852Y-124562921D01*
X190720171Y-124555010D01*
X190720174Y-124555010D01*
X190960368Y-124531353D01*
X191268567Y-124437862D01*
X191552604Y-124286041D01*
X191801566Y-124081724D01*
X191852777Y-124019323D01*
X193515979Y-122356122D01*
X193580000Y-122362427D01*
X193880913Y-122332790D01*
X194170261Y-122245017D01*
X194436927Y-122102481D01*
X194670661Y-121910661D01*
X194862481Y-121676927D01*
X195005017Y-121410261D01*
X195092790Y-121120913D01*
X195115000Y-120895408D01*
X195115000Y-120552044D01*
X195191342Y-120300379D01*
X195222911Y-119979863D01*
X195191342Y-119659346D01*
X195115000Y-119407681D01*
X195115000Y-118944593D01*
X195855000Y-118944593D01*
X195855000Y-120895408D01*
X195877211Y-121120913D01*
X195964984Y-121410261D01*
X196107520Y-121676927D01*
X196299340Y-121910661D01*
X196533074Y-122102481D01*
X196799740Y-122245017D01*
X197089088Y-122332790D01*
X197390000Y-122362427D01*
X197690913Y-122332790D01*
X197980261Y-122245017D01*
X198246927Y-122102481D01*
X198480661Y-121910661D01*
X198672481Y-121676927D01*
X198815017Y-121410261D01*
X198902790Y-121120913D01*
X198925000Y-120895408D01*
X198925000Y-118944592D01*
X198902790Y-118719087D01*
X198815017Y-118429739D01*
X198672481Y-118163073D01*
X198480661Y-117929339D01*
X198246926Y-117737519D01*
X197980260Y-117594983D01*
X197690912Y-117507210D01*
X197390000Y-117477573D01*
X197089087Y-117507210D01*
X196799739Y-117594983D01*
X196533073Y-117737519D01*
X196299339Y-117929339D01*
X196107519Y-118163074D01*
X195964983Y-118429740D01*
X195877210Y-118719088D01*
X195855000Y-118944593D01*
X195115000Y-118944593D01*
X195115000Y-118944592D01*
X195092790Y-118719087D01*
X195005017Y-118429739D01*
X194862481Y-118163073D01*
X194670661Y-117929339D01*
X194436926Y-117737519D01*
X194170260Y-117594983D01*
X193880912Y-117507210D01*
X193580000Y-117477573D01*
X193279087Y-117507210D01*
X192989739Y-117594983D01*
X192723073Y-117737519D01*
X192489339Y-117929339D01*
X192297519Y-118163074D01*
X192154983Y-118429740D01*
X192067210Y-118719088D01*
X192045000Y-118944593D01*
X192045000Y-119202623D01*
X191305000Y-119942623D01*
X191305000Y-118944592D01*
X191282790Y-118719087D01*
X191195017Y-118429739D01*
X191052481Y-118163073D01*
X190860661Y-117929339D01*
X190626926Y-117737519D01*
X190360260Y-117594983D01*
X190070912Y-117507210D01*
X189770000Y-117477573D01*
X189469087Y-117507210D01*
X189304990Y-117556988D01*
X189304990Y-113243250D01*
X195413142Y-107135098D01*
X198815000Y-107135098D01*
X198815000Y-107604902D01*
X198906654Y-108065679D01*
X199086440Y-108499721D01*
X199347450Y-108890349D01*
X199679651Y-109222550D01*
X200070279Y-109483560D01*
X200504321Y-109663346D01*
X200965098Y-109755000D01*
X201434902Y-109755000D01*
X201895679Y-109663346D01*
X202329721Y-109483560D01*
X202720349Y-109222550D01*
X203052550Y-108890349D01*
X203313560Y-108499721D01*
X203493346Y-108065679D01*
X203585000Y-107604902D01*
X203585000Y-107135098D01*
X203493346Y-106674321D01*
X203313560Y-106240279D01*
X203052550Y-105849651D01*
X202720349Y-105517450D01*
X202329721Y-105256440D01*
X201895679Y-105076654D01*
X201434902Y-104985000D01*
X200965098Y-104985000D01*
X200504321Y-105076654D01*
X200070279Y-105256440D01*
X199679651Y-105517450D01*
X199347450Y-105849651D01*
X199086440Y-106240279D01*
X198906654Y-106674321D01*
X198815000Y-107135098D01*
X195413142Y-107135098D01*
X199759320Y-102788921D01*
X199821714Y-102737716D01*
X200026031Y-102488754D01*
X200177852Y-102204717D01*
X200271343Y-101896518D01*
X200295000Y-101656324D01*
X200295000Y-101656322D01*
X200302911Y-101576003D01*
X200295000Y-101495683D01*
X200295000Y-92080175D01*
X200571285Y-92227852D01*
X200879484Y-92321343D01*
X201200000Y-92352911D01*
X201520515Y-92321343D01*
X201828714Y-92227852D01*
X202112751Y-92076031D01*
X202217278Y-91990249D01*
X202256963Y-92064494D01*
X202336315Y-92161185D01*
X202433006Y-92240537D01*
X202543320Y-92299502D01*
X202663018Y-92335812D01*
X202787500Y-92348072D01*
X204692500Y-92348072D01*
X204816982Y-92335812D01*
X204936680Y-92299502D01*
X205046994Y-92240537D01*
X205143685Y-92161185D01*
X205223037Y-92064494D01*
X205282002Y-91954180D01*
X205318312Y-91834482D01*
X205330572Y-91710000D01*
X205330572Y-90144999D01*
X207133402Y-90144999D01*
X207287397Y-90160166D01*
X207441392Y-90144999D01*
X207441399Y-90144999D01*
X207901964Y-90099637D01*
X208492914Y-89920375D01*
X209037537Y-89629268D01*
X209514902Y-89237504D01*
X209613079Y-89117875D01*
X211855000Y-86875955D01*
X211854999Y-103625682D01*
X211847088Y-103706001D01*
X211854999Y-103786320D01*
X211854999Y-103786322D01*
X211878656Y-104026516D01*
X211972147Y-104334715D01*
X212123968Y-104618752D01*
X212328285Y-104867715D01*
X212390686Y-104918926D01*
X214805001Y-107333242D01*
X214805000Y-109547345D01*
X214750000Y-109541928D01*
X213050000Y-109541928D01*
X212925518Y-109554188D01*
X212805820Y-109590498D01*
X212695506Y-109649463D01*
X212598815Y-109728815D01*
X212519463Y-109825506D01*
X212460498Y-109935820D01*
X212424188Y-110055518D01*
X212411928Y-110180000D01*
X212411928Y-111880000D01*
X212424188Y-112004482D01*
X212460498Y-112124180D01*
X212519463Y-112234494D01*
X212598815Y-112331185D01*
X212695506Y-112410537D01*
X212805820Y-112469502D01*
X212925518Y-112505812D01*
X213050000Y-112518072D01*
X214750000Y-112518072D01*
X214874482Y-112505812D01*
X214994180Y-112469502D01*
X215104494Y-112410537D01*
X215201185Y-112331185D01*
X215280537Y-112234494D01*
X215295745Y-112206042D01*
X215527248Y-112396031D01*
X215621403Y-112446358D01*
X210260682Y-117807080D01*
X210198287Y-117858286D01*
X209993969Y-118107248D01*
X209842148Y-118391285D01*
X209748657Y-118699484D01*
X209725000Y-118939678D01*
X209717089Y-119020000D01*
X209725000Y-119100319D01*
X209725000Y-119242761D01*
X209085000Y-119882762D01*
X209085000Y-118944592D01*
X209062790Y-118719087D01*
X208975017Y-118429739D01*
X208832481Y-118163073D01*
X208640661Y-117929339D01*
X208406926Y-117737519D01*
X208140260Y-117594983D01*
X207850912Y-117507210D01*
X207550000Y-117477573D01*
X207249087Y-117507210D01*
X206959739Y-117594983D01*
X206693073Y-117737519D01*
X206459339Y-117929339D01*
X206267519Y-118163074D01*
X206124983Y-118429740D01*
X206037210Y-118719088D01*
X206015000Y-118944593D01*
X206015000Y-119942624D01*
X205278072Y-119205696D01*
X205278072Y-118370000D01*
X205261008Y-118196746D01*
X205210472Y-118030150D01*
X205128405Y-117876614D01*
X205017962Y-117742038D01*
X204883386Y-117631595D01*
X204729850Y-117549528D01*
X204563254Y-117498992D01*
X204390000Y-117481928D01*
X203090000Y-117481928D01*
X202916746Y-117498992D01*
X202750150Y-117549528D01*
X202596614Y-117631595D01*
X202462038Y-117742038D01*
X202351595Y-117876614D01*
X202269528Y-118030150D01*
X202218992Y-118196746D01*
X202201928Y-118370000D01*
X202201928Y-119357942D01*
X202128657Y-119599484D01*
X202105000Y-119839678D01*
X202105000Y-119899543D01*
X202097089Y-119979862D01*
X202105000Y-120060181D01*
X202105000Y-120060183D01*
X202128657Y-120300377D01*
X202201928Y-120541919D01*
X202201928Y-121470000D01*
X202218992Y-121643254D01*
X202269528Y-121809850D01*
X202351595Y-121963386D01*
X202462038Y-122097962D01*
X202596614Y-122208405D01*
X202750150Y-122290472D01*
X202916746Y-122341008D01*
X203090000Y-122358072D01*
X203805972Y-122358072D01*
X205467228Y-124019329D01*
X205518434Y-124081724D01*
X205767396Y-124286041D01*
X206051433Y-124437862D01*
X206359632Y-124531353D01*
X206599826Y-124555010D01*
X206599828Y-124555010D01*
X206680147Y-124562921D01*
X206760467Y-124555010D01*
X208339533Y-124555010D01*
X208419852Y-124562921D01*
X208500171Y-124555010D01*
X208500174Y-124555010D01*
X208740368Y-124531353D01*
X209048567Y-124437862D01*
X209332604Y-124286041D01*
X209581566Y-124081724D01*
X209632776Y-124019324D01*
X210749328Y-122902773D01*
X210811724Y-122851566D01*
X210944708Y-122689523D01*
X211016040Y-122602605D01*
X211046362Y-122545876D01*
X211241484Y-122350754D01*
X211360000Y-122362427D01*
X211478516Y-122350754D01*
X211673637Y-122545876D01*
X211703959Y-122602604D01*
X211908276Y-122851566D01*
X211970675Y-122902775D01*
X213087227Y-124019328D01*
X213138434Y-124081724D01*
X213387396Y-124286041D01*
X213671433Y-124437862D01*
X213979632Y-124531353D01*
X214219826Y-124555010D01*
X214219828Y-124555010D01*
X214300147Y-124562921D01*
X214380467Y-124555010D01*
X215959533Y-124555010D01*
X216039852Y-124562921D01*
X216120171Y-124555010D01*
X216120174Y-124555010D01*
X216360368Y-124531353D01*
X216668567Y-124437862D01*
X216952604Y-124286041D01*
X217201566Y-124081724D01*
X217252777Y-124019323D01*
X218915979Y-122356122D01*
X218980000Y-122362427D01*
X219280913Y-122332790D01*
X219570261Y-122245017D01*
X219836927Y-122102481D01*
X220070661Y-121910661D01*
X220262481Y-121676927D01*
X220405017Y-121410261D01*
X220492790Y-121120913D01*
X220515000Y-120895408D01*
X220515000Y-120552048D01*
X220591343Y-120300378D01*
X220615000Y-120060184D01*
X220615000Y-120060182D01*
X220622911Y-119979863D01*
X220615000Y-119899543D01*
X220615000Y-119839679D01*
X220591343Y-119599485D01*
X220515000Y-119347815D01*
X220515000Y-118944593D01*
X221255000Y-118944593D01*
X221255000Y-120895408D01*
X221277211Y-121120913D01*
X221364984Y-121410261D01*
X221507520Y-121676927D01*
X221699340Y-121910661D01*
X221933074Y-122102481D01*
X222199740Y-122245017D01*
X222489088Y-122332790D01*
X222790000Y-122362427D01*
X223090913Y-122332790D01*
X223380261Y-122245017D01*
X223646927Y-122102481D01*
X223880661Y-121910661D01*
X224072481Y-121676927D01*
X224215017Y-121410261D01*
X224302790Y-121120913D01*
X224325000Y-120895408D01*
X224325000Y-118944592D01*
X224302790Y-118719087D01*
X224215017Y-118429739D01*
X224072481Y-118163073D01*
X223880661Y-117929339D01*
X223646926Y-117737519D01*
X223380260Y-117594983D01*
X223090912Y-117507210D01*
X222790000Y-117477573D01*
X222489087Y-117507210D01*
X222199739Y-117594983D01*
X221933073Y-117737519D01*
X221699339Y-117929339D01*
X221507519Y-118163074D01*
X221364983Y-118429740D01*
X221277210Y-118719088D01*
X221255000Y-118944593D01*
X220515000Y-118944593D01*
X220515000Y-118944592D01*
X220492790Y-118719087D01*
X220405017Y-118429739D01*
X220262481Y-118163073D01*
X220070661Y-117929339D01*
X219836926Y-117737519D01*
X219570260Y-117594983D01*
X219280912Y-117507210D01*
X218980000Y-117477573D01*
X218679087Y-117507210D01*
X218389739Y-117594983D01*
X218123073Y-117737519D01*
X217889339Y-117929339D01*
X217697519Y-118163074D01*
X217554983Y-118429740D01*
X217467210Y-118719088D01*
X217445000Y-118944593D01*
X217445000Y-119202623D01*
X216705000Y-119942623D01*
X216705000Y-118944592D01*
X216682790Y-118719087D01*
X216595017Y-118429739D01*
X216452481Y-118163073D01*
X216260661Y-117929339D01*
X216026926Y-117737519D01*
X215760260Y-117594983D01*
X215470912Y-117507210D01*
X215210661Y-117481578D01*
X217827229Y-114865010D01*
X219733673Y-114865010D01*
X219813992Y-114872921D01*
X219894311Y-114865010D01*
X219894314Y-114865010D01*
X220134508Y-114841353D01*
X220442707Y-114747862D01*
X220726744Y-114596041D01*
X220975706Y-114391724D01*
X221026917Y-114329323D01*
X228911925Y-106444316D01*
X228816654Y-106674321D01*
X228725000Y-107135098D01*
X228725000Y-107604902D01*
X228816654Y-108065679D01*
X228996440Y-108499721D01*
X229257450Y-108890349D01*
X229589651Y-109222550D01*
X229980279Y-109483560D01*
X230414321Y-109663346D01*
X230875098Y-109755000D01*
X231344902Y-109755000D01*
X231805679Y-109663346D01*
X232239721Y-109483560D01*
X232630349Y-109222550D01*
X232962550Y-108890349D01*
X233223560Y-108499721D01*
X233403346Y-108065679D01*
X233495000Y-107604902D01*
X233495000Y-107135098D01*
X233403346Y-106674321D01*
X233223560Y-106240279D01*
X232962550Y-105849651D01*
X232630349Y-105517450D01*
X232239721Y-105256440D01*
X231805679Y-105076654D01*
X231344902Y-104985000D01*
X230875098Y-104985000D01*
X230414321Y-105076654D01*
X230012910Y-105242924D01*
X230087852Y-105102717D01*
X230181343Y-104794518D01*
X230205000Y-104554324D01*
X230205000Y-104554322D01*
X230212911Y-104474003D01*
X230205000Y-104393683D01*
X230205000Y-92080175D01*
X230481285Y-92227852D01*
X230789484Y-92321343D01*
X231110000Y-92352911D01*
X231430515Y-92321343D01*
X231738714Y-92227852D01*
X232022751Y-92076031D01*
X232127278Y-91990249D01*
X232166963Y-92064494D01*
X232246315Y-92161185D01*
X232343006Y-92240537D01*
X232453320Y-92299502D01*
X232573018Y-92335812D01*
X232697500Y-92348072D01*
X234602500Y-92348072D01*
X234726982Y-92335812D01*
X234846680Y-92299502D01*
X234956994Y-92240537D01*
X235053685Y-92161185D01*
X235133037Y-92064494D01*
X235192002Y-91954180D01*
X235228312Y-91834482D01*
X235240572Y-91710000D01*
X235240572Y-90035000D01*
X238885260Y-90035000D01*
X235660682Y-93259580D01*
X235598287Y-93310786D01*
X235393970Y-93559748D01*
X235242148Y-93843786D01*
X235148658Y-94151984D01*
X235117089Y-94472500D01*
X235125001Y-94552829D01*
X235125000Y-119242761D01*
X234485000Y-119882762D01*
X234485000Y-118944592D01*
X234462790Y-118719087D01*
X234375017Y-118429739D01*
X234232481Y-118163073D01*
X234040661Y-117929339D01*
X233806926Y-117737519D01*
X233540260Y-117594983D01*
X233250912Y-117507210D01*
X232950000Y-117477573D01*
X232649087Y-117507210D01*
X232359739Y-117594983D01*
X232093073Y-117737519D01*
X231859339Y-117929339D01*
X231667519Y-118163074D01*
X231524983Y-118429740D01*
X231437210Y-118719088D01*
X231415000Y-118944593D01*
X231415000Y-119942624D01*
X230678072Y-119205696D01*
X230678072Y-118370000D01*
X230661008Y-118196746D01*
X230610472Y-118030150D01*
X230528405Y-117876614D01*
X230417962Y-117742038D01*
X230283386Y-117631595D01*
X230129850Y-117549528D01*
X229963254Y-117498992D01*
X229790000Y-117481928D01*
X228490000Y-117481928D01*
X228316746Y-117498992D01*
X228150150Y-117549528D01*
X227996614Y-117631595D01*
X227862038Y-117742038D01*
X227751595Y-117876614D01*
X227669528Y-118030150D01*
X227618992Y-118196746D01*
X227601928Y-118370000D01*
X227601928Y-119357942D01*
X227528657Y-119599484D01*
X227505000Y-119839678D01*
X227505000Y-119899543D01*
X227497089Y-119979862D01*
X227505000Y-120060181D01*
X227505000Y-120060183D01*
X227528657Y-120300377D01*
X227601928Y-120541919D01*
X227601928Y-121470000D01*
X227618992Y-121643254D01*
X227669528Y-121809850D01*
X227751595Y-121963386D01*
X227862038Y-122097962D01*
X227996614Y-122208405D01*
X228150150Y-122290472D01*
X228316746Y-122341008D01*
X228490000Y-122358072D01*
X229205972Y-122358072D01*
X230867228Y-124019329D01*
X230918434Y-124081724D01*
X231167396Y-124286041D01*
X231451433Y-124437862D01*
X231759632Y-124531353D01*
X231999826Y-124555010D01*
X231999828Y-124555010D01*
X232080147Y-124562921D01*
X232160467Y-124555010D01*
X233739533Y-124555010D01*
X233819852Y-124562921D01*
X233900171Y-124555010D01*
X233900174Y-124555010D01*
X234140368Y-124531353D01*
X234448567Y-124437862D01*
X234732604Y-124286041D01*
X234981566Y-124081724D01*
X235032776Y-124019324D01*
X236149328Y-122902773D01*
X236211724Y-122851566D01*
X236332347Y-122704585D01*
X238447080Y-124819319D01*
X238498286Y-124881714D01*
X238747248Y-125086031D01*
X239031285Y-125237852D01*
X239339484Y-125331343D01*
X239579678Y-125355000D01*
X239579680Y-125355000D01*
X239659999Y-125362911D01*
X239740319Y-125355000D01*
X240559543Y-125355000D01*
X240639862Y-125362911D01*
X240720181Y-125355000D01*
X240720184Y-125355000D01*
X240960378Y-125331343D01*
X241268577Y-125237852D01*
X241552614Y-125086031D01*
X241801576Y-124881714D01*
X241852787Y-124819313D01*
X244315979Y-122356122D01*
X244380000Y-122362427D01*
X244680913Y-122332790D01*
X244970261Y-122245017D01*
X245236927Y-122102481D01*
X245470661Y-121910661D01*
X245662481Y-121676927D01*
X245805017Y-121410261D01*
X245892790Y-121120913D01*
X245915000Y-120895408D01*
X245915000Y-120552048D01*
X245991343Y-120300378D01*
X246015000Y-120060184D01*
X246015000Y-120060182D01*
X246022911Y-119979862D01*
X246015000Y-119899543D01*
X246015000Y-119839679D01*
X245991343Y-119599485D01*
X245915000Y-119347815D01*
X245915000Y-118944593D01*
X246655000Y-118944593D01*
X246655000Y-120895408D01*
X246677211Y-121120913D01*
X246764984Y-121410261D01*
X246907520Y-121676927D01*
X247099340Y-121910661D01*
X247333074Y-122102481D01*
X247599740Y-122245017D01*
X247889088Y-122332790D01*
X248190000Y-122362427D01*
X248490913Y-122332790D01*
X248780261Y-122245017D01*
X249046927Y-122102481D01*
X249280661Y-121910661D01*
X249472481Y-121676927D01*
X249615017Y-121410261D01*
X249702790Y-121120913D01*
X249725000Y-120895408D01*
X249725000Y-118944592D01*
X249702790Y-118719087D01*
X249615017Y-118429739D01*
X249472481Y-118163073D01*
X249280661Y-117929339D01*
X249046926Y-117737519D01*
X248780260Y-117594983D01*
X248490912Y-117507210D01*
X248190000Y-117477573D01*
X247889087Y-117507210D01*
X247599739Y-117594983D01*
X247333073Y-117737519D01*
X247099339Y-117929339D01*
X246907519Y-118163074D01*
X246764983Y-118429740D01*
X246677210Y-118719088D01*
X246655000Y-118944593D01*
X245915000Y-118944593D01*
X245915000Y-118944592D01*
X245892790Y-118719087D01*
X245805017Y-118429739D01*
X245662481Y-118163073D01*
X245470661Y-117929339D01*
X245236926Y-117737519D01*
X244970260Y-117594983D01*
X244680912Y-117507210D01*
X244380000Y-117477573D01*
X244079087Y-117507210D01*
X243789739Y-117594983D01*
X243523073Y-117737519D01*
X243289339Y-117929339D01*
X243097519Y-118163074D01*
X242954983Y-118429740D01*
X242867210Y-118719088D01*
X242845000Y-118944593D01*
X242845000Y-119202623D01*
X242105000Y-119942623D01*
X242105000Y-118944592D01*
X242082790Y-118719087D01*
X241995017Y-118429739D01*
X241852481Y-118163073D01*
X241660661Y-117929339D01*
X241426926Y-117737519D01*
X241160260Y-117594983D01*
X240870912Y-117507210D01*
X240570000Y-117477573D01*
X240269087Y-117507210D01*
X239979739Y-117594983D01*
X239713073Y-117737519D01*
X239479339Y-117929339D01*
X239287519Y-118163074D01*
X239144983Y-118429740D01*
X239057210Y-118719088D01*
X239035000Y-118944593D01*
X239035000Y-120782762D01*
X238395000Y-120142762D01*
X238395000Y-120000320D01*
X238402911Y-119920001D01*
X238395000Y-119839678D01*
X238395000Y-107135098D01*
X240725000Y-107135098D01*
X240725000Y-107604902D01*
X240816654Y-108065679D01*
X240996440Y-108499721D01*
X241257450Y-108890349D01*
X241589651Y-109222550D01*
X241980279Y-109483560D01*
X242414321Y-109663346D01*
X242875098Y-109755000D01*
X243344902Y-109755000D01*
X243711054Y-109682168D01*
X248773000Y-109682168D01*
X248773000Y-110317832D01*
X248897012Y-110941281D01*
X249140270Y-111528558D01*
X249493425Y-112057093D01*
X249942907Y-112506575D01*
X250471442Y-112859730D01*
X251058719Y-113102988D01*
X251682168Y-113227000D01*
X252317832Y-113227000D01*
X252941281Y-113102988D01*
X253528558Y-112859730D01*
X254057093Y-112506575D01*
X254506575Y-112057093D01*
X254859730Y-111528558D01*
X255102988Y-110941281D01*
X255227000Y-110317832D01*
X255227000Y-109682168D01*
X255102988Y-109058719D01*
X254859730Y-108471442D01*
X254506575Y-107942907D01*
X254057093Y-107493425D01*
X253528558Y-107140270D01*
X252941281Y-106897012D01*
X252317832Y-106773000D01*
X251682168Y-106773000D01*
X251058719Y-106897012D01*
X250471442Y-107140270D01*
X249942907Y-107493425D01*
X249493425Y-107942907D01*
X249140270Y-108471442D01*
X248897012Y-109058719D01*
X248773000Y-109682168D01*
X243711054Y-109682168D01*
X243805679Y-109663346D01*
X244239721Y-109483560D01*
X244630349Y-109222550D01*
X244962550Y-108890349D01*
X245223560Y-108499721D01*
X245403346Y-108065679D01*
X245495000Y-107604902D01*
X245495000Y-107135098D01*
X245403346Y-106674321D01*
X245223560Y-106240279D01*
X244962550Y-105849651D01*
X244630349Y-105517450D01*
X244239721Y-105256440D01*
X243805679Y-105076654D01*
X243344902Y-104985000D01*
X242875098Y-104985000D01*
X242414321Y-105076654D01*
X241980279Y-105256440D01*
X241589651Y-105517450D01*
X241257450Y-105849651D01*
X240996440Y-106240279D01*
X240816654Y-106674321D01*
X240725000Y-107135098D01*
X238395000Y-107135098D01*
X238395000Y-95149738D01*
X241482226Y-92062514D01*
X241697963Y-91885463D01*
X241822039Y-91734277D01*
X242010677Y-91922916D01*
X242197248Y-92076030D01*
X242481286Y-92227852D01*
X242789483Y-92321343D01*
X243110000Y-92352911D01*
X243430516Y-92321343D01*
X243738715Y-92227852D01*
X244022752Y-92076030D01*
X244127277Y-91990248D01*
X244166963Y-92064494D01*
X244246315Y-92161185D01*
X244343006Y-92240537D01*
X244453320Y-92299502D01*
X244573018Y-92335812D01*
X244697500Y-92348072D01*
X246602500Y-92348072D01*
X246726982Y-92335812D01*
X246846680Y-92299502D01*
X246956994Y-92240537D01*
X247053685Y-92161185D01*
X247133037Y-92064494D01*
X247192002Y-91954180D01*
X247228312Y-91834482D01*
X247240572Y-91710000D01*
X247240572Y-89710000D01*
X247228312Y-89585518D01*
X247192002Y-89465820D01*
X247133037Y-89355506D01*
X247053685Y-89258815D01*
X246956994Y-89179463D01*
X246846680Y-89120498D01*
X246726982Y-89084188D01*
X246649331Y-89076540D01*
X246999269Y-88650140D01*
X247290376Y-88105517D01*
X247469638Y-87514567D01*
X247530168Y-86900000D01*
X247469638Y-86285433D01*
X247290376Y-85694483D01*
X246999269Y-85149860D01*
X246607505Y-84672495D01*
X246130140Y-84280731D01*
X245585517Y-83989624D01*
X244994567Y-83810362D01*
X244534002Y-83765000D01*
X227898559Y-83765000D01*
X223955674Y-79822116D01*
X223857496Y-79702486D01*
X223380131Y-79310722D01*
X222835508Y-79019615D01*
X222244558Y-78840353D01*
X221783993Y-78794991D01*
X221783986Y-78794991D01*
X221629991Y-78779824D01*
X221475996Y-78794991D01*
X212521399Y-78794991D01*
X212367404Y-78779824D01*
X212213409Y-78794991D01*
X212213403Y-78794991D01*
X211814875Y-78834243D01*
X211752837Y-78840353D01*
X211573575Y-78894732D01*
X211161888Y-79019615D01*
X210617265Y-79310722D01*
X210139900Y-79702486D01*
X210041731Y-79822105D01*
X205988839Y-83874999D01*
X178283995Y-83874999D01*
X178130000Y-83859832D01*
X177976005Y-83874999D01*
X177975999Y-83874999D01*
X177577471Y-83914251D01*
X177515433Y-83920361D01*
X177336171Y-83974740D01*
X176924484Y-84099623D01*
X176379861Y-84390730D01*
X176239992Y-84505518D01*
X176034733Y-84673970D01*
X175902496Y-84782494D01*
X175804327Y-84902114D01*
X175505462Y-85200978D01*
X175619648Y-84824557D01*
X175665010Y-84363992D01*
X175665010Y-84363986D01*
X175680177Y-84209991D01*
X175665010Y-84055996D01*
X175665010Y-78236425D01*
X175675787Y-78127000D01*
X182765887Y-78127000D01*
X182739000Y-78262168D01*
X182739000Y-78897832D01*
X182863012Y-79521281D01*
X183106270Y-80108558D01*
X183459425Y-80637093D01*
X183908907Y-81086575D01*
X184437442Y-81439730D01*
X185024719Y-81682988D01*
X185648168Y-81807000D01*
X186283832Y-81807000D01*
X186907281Y-81682988D01*
X187494558Y-81439730D01*
X188023093Y-81086575D01*
X188472575Y-80637093D01*
X188825730Y-80108558D01*
X189068988Y-79521281D01*
X189193000Y-78897832D01*
X189193000Y-78262168D01*
X189166113Y-78127000D01*
X240785778Y-78127000D01*
X240739000Y-78362168D01*
X240739000Y-78997832D01*
X240863012Y-79621281D01*
X241106270Y-80208558D01*
X241459425Y-80737093D01*
X241908907Y-81186575D01*
X242437442Y-81539730D01*
X243024719Y-81782988D01*
X243648168Y-81907000D01*
X244283832Y-81907000D01*
X244907281Y-81782988D01*
X245494558Y-81539730D01*
X246023093Y-81186575D01*
X246472575Y-80737093D01*
X246825730Y-80208558D01*
X247068988Y-79621281D01*
X247193000Y-78997832D01*
X247193000Y-78362168D01*
X247146222Y-78127000D01*
X257873000Y-78127000D01*
X257873000Y-119947394D01*
X239947394Y-137873000D01*
X160052606Y-137873000D01*
X153861774Y-131682168D01*
X166773000Y-131682168D01*
X166773000Y-132317832D01*
X166897012Y-132941281D01*
X167140270Y-133528558D01*
X167493425Y-134057093D01*
X167942907Y-134506575D01*
X168471442Y-134859730D01*
X169058719Y-135102988D01*
X169682168Y-135227000D01*
X170317832Y-135227000D01*
X170941281Y-135102988D01*
X171528558Y-134859730D01*
X172057093Y-134506575D01*
X172506575Y-134057093D01*
X172859730Y-133528558D01*
X173102988Y-132941281D01*
X173227000Y-132317832D01*
X173227000Y-131682168D01*
X226773000Y-131682168D01*
X226773000Y-132317832D01*
X226897012Y-132941281D01*
X227140270Y-133528558D01*
X227493425Y-134057093D01*
X227942907Y-134506575D01*
X228471442Y-134859730D01*
X229058719Y-135102988D01*
X229682168Y-135227000D01*
X230317832Y-135227000D01*
X230941281Y-135102988D01*
X231528558Y-134859730D01*
X232057093Y-134506575D01*
X232506575Y-134057093D01*
X232859730Y-133528558D01*
X233102988Y-132941281D01*
X233227000Y-132317832D01*
X233227000Y-131682168D01*
X233102988Y-131058719D01*
X232859730Y-130471442D01*
X232506575Y-129942907D01*
X232057093Y-129493425D01*
X231528558Y-129140270D01*
X230941281Y-128897012D01*
X230317832Y-128773000D01*
X229682168Y-128773000D01*
X229058719Y-128897012D01*
X228471442Y-129140270D01*
X227942907Y-129493425D01*
X227493425Y-129942907D01*
X227140270Y-130471442D01*
X226897012Y-131058719D01*
X226773000Y-131682168D01*
X173227000Y-131682168D01*
X173102988Y-131058719D01*
X172859730Y-130471442D01*
X172506575Y-129942907D01*
X172057093Y-129493425D01*
X171528558Y-129140270D01*
X170941281Y-128897012D01*
X170317832Y-128773000D01*
X169682168Y-128773000D01*
X169058719Y-128897012D01*
X168471442Y-129140270D01*
X167942907Y-129493425D01*
X167493425Y-129942907D01*
X167140270Y-130471442D01*
X166897012Y-131058719D01*
X166773000Y-131682168D01*
X153861774Y-131682168D01*
X142127000Y-119947394D01*
X142127000Y-109682168D01*
X144773000Y-109682168D01*
X144773000Y-110317832D01*
X144897012Y-110941281D01*
X145140270Y-111528558D01*
X145493425Y-112057093D01*
X145942907Y-112506575D01*
X146471442Y-112859730D01*
X147058719Y-113102988D01*
X147682168Y-113227000D01*
X148317832Y-113227000D01*
X148941281Y-113102988D01*
X149528558Y-112859730D01*
X150057093Y-112506575D01*
X150506575Y-112057093D01*
X150859730Y-111528558D01*
X151102988Y-110941281D01*
X151227000Y-110317832D01*
X151227000Y-109682168D01*
X151102988Y-109058719D01*
X150859730Y-108471442D01*
X150506575Y-107942907D01*
X150057093Y-107493425D01*
X149528558Y-107140270D01*
X148941281Y-106897012D01*
X148317832Y-106773000D01*
X147682168Y-106773000D01*
X147058719Y-106897012D01*
X146471442Y-107140270D01*
X145942907Y-107493425D01*
X145493425Y-107942907D01*
X145140270Y-108471442D01*
X144897012Y-109058719D01*
X144773000Y-109682168D01*
X142127000Y-109682168D01*
X142127000Y-94542491D01*
X161115000Y-94542491D01*
X161115000Y-95337510D01*
X161143722Y-95629128D01*
X161257226Y-96003302D01*
X161441547Y-96348143D01*
X161689603Y-96650398D01*
X161991858Y-96898453D01*
X162336699Y-97082774D01*
X162710873Y-97196278D01*
X163100000Y-97234604D01*
X163489128Y-97196278D01*
X163863302Y-97082774D01*
X164208143Y-96898453D01*
X164510398Y-96650398D01*
X164758453Y-96348143D01*
X164942774Y-96003302D01*
X165056278Y-95629127D01*
X165085000Y-95337509D01*
X165085000Y-94542491D01*
X165315000Y-94542491D01*
X165315000Y-95337510D01*
X165343722Y-95629128D01*
X165457226Y-96003302D01*
X165641547Y-96348143D01*
X165889603Y-96650398D01*
X166191858Y-96898453D01*
X166536699Y-97082774D01*
X166910873Y-97196278D01*
X167300000Y-97234604D01*
X167689128Y-97196278D01*
X168063302Y-97082774D01*
X168408143Y-96898453D01*
X168710398Y-96650398D01*
X168958453Y-96348143D01*
X169142774Y-96003302D01*
X169256278Y-95629127D01*
X169285000Y-95337509D01*
X169285000Y-94542491D01*
X169515000Y-94542491D01*
X169515000Y-95337510D01*
X169543722Y-95629128D01*
X169657226Y-96003302D01*
X169841547Y-96348143D01*
X170089603Y-96650398D01*
X170391858Y-96898453D01*
X170736699Y-97082774D01*
X171110873Y-97196278D01*
X171500000Y-97234604D01*
X171889128Y-97196278D01*
X172263302Y-97082774D01*
X172608143Y-96898453D01*
X172910398Y-96650398D01*
X173158453Y-96348143D01*
X173342774Y-96003302D01*
X173456278Y-95629127D01*
X173485000Y-95337509D01*
X173485000Y-94542491D01*
X173715000Y-94542491D01*
X173715000Y-95337510D01*
X173743722Y-95629128D01*
X173857226Y-96003302D01*
X174041547Y-96348143D01*
X174289603Y-96650398D01*
X174591858Y-96898453D01*
X174936699Y-97082774D01*
X175310873Y-97196278D01*
X175700000Y-97234604D01*
X176089128Y-97196278D01*
X176463302Y-97082774D01*
X176808143Y-96898453D01*
X177110398Y-96650398D01*
X177358453Y-96348143D01*
X177542774Y-96003302D01*
X177656278Y-95629127D01*
X177685000Y-95337509D01*
X177685000Y-94542490D01*
X177656278Y-94250872D01*
X177542774Y-93876698D01*
X177358453Y-93531857D01*
X177110398Y-93229602D01*
X176808143Y-92981547D01*
X176463301Y-92797226D01*
X176089127Y-92683722D01*
X175700000Y-92645396D01*
X175310872Y-92683722D01*
X174936698Y-92797226D01*
X174591857Y-92981547D01*
X174289602Y-93229602D01*
X174041547Y-93531857D01*
X173857226Y-93876699D01*
X173743722Y-94250873D01*
X173715000Y-94542491D01*
X173485000Y-94542491D01*
X173485000Y-94542490D01*
X173456278Y-94250872D01*
X173342774Y-93876698D01*
X173158453Y-93531857D01*
X172910398Y-93229602D01*
X172608143Y-92981547D01*
X172263301Y-92797226D01*
X171889127Y-92683722D01*
X171500000Y-92645396D01*
X171110872Y-92683722D01*
X170736698Y-92797226D01*
X170391857Y-92981547D01*
X170089602Y-93229602D01*
X169841547Y-93531857D01*
X169657226Y-93876699D01*
X169543722Y-94250873D01*
X169515000Y-94542491D01*
X169285000Y-94542491D01*
X169285000Y-94542490D01*
X169256278Y-94250872D01*
X169142774Y-93876698D01*
X168958453Y-93531857D01*
X168710398Y-93229602D01*
X168408143Y-92981547D01*
X168063301Y-92797226D01*
X167689127Y-92683722D01*
X167300000Y-92645396D01*
X166910872Y-92683722D01*
X166536698Y-92797226D01*
X166191857Y-92981547D01*
X165889602Y-93229602D01*
X165641547Y-93531857D01*
X165457226Y-93876699D01*
X165343722Y-94250873D01*
X165315000Y-94542491D01*
X165085000Y-94542491D01*
X165085000Y-94542490D01*
X165056278Y-94250872D01*
X164942774Y-93876698D01*
X164758453Y-93531857D01*
X164510398Y-93229602D01*
X164208143Y-92981547D01*
X163863301Y-92797226D01*
X163489127Y-92683722D01*
X163100000Y-92645396D01*
X162710872Y-92683722D01*
X162336698Y-92797226D01*
X161991857Y-92981547D01*
X161689602Y-93229602D01*
X161441547Y-93531857D01*
X161257226Y-93876699D01*
X161143722Y-94250873D01*
X161115000Y-94542491D01*
X142127000Y-94542491D01*
X142127000Y-78127000D01*
X161240843Y-78127000D01*
X160969602Y-78349602D01*
G37*
G04 #@! TD.AperFunction*
D26*
X213635000Y-119882761D02*
X213222238Y-119470000D01*
X213635000Y-119057238D01*
X213635000Y-119882761D01*
G04 #@! TA.AperFunction,NonConductor*
D27*
G36*
X213635000Y-119882761D02*
G01*
X213222238Y-119470000D01*
X213635000Y-119057238D01*
X213635000Y-119882761D01*
G37*
G04 #@! TD.AperFunction*
D26*
X224274322Y-89007881D02*
X224372495Y-89127505D01*
X224849860Y-89519269D01*
X225394483Y-89810376D01*
X225806170Y-89935259D01*
X225985432Y-89989638D01*
X226047470Y-89995748D01*
X226445998Y-90035000D01*
X226446004Y-90035000D01*
X226599999Y-90050167D01*
X226753994Y-90035000D01*
X227076889Y-90035000D01*
X227052149Y-90081285D01*
X226958658Y-90389484D01*
X226935001Y-90629678D01*
X226935000Y-103796763D01*
X220327969Y-110403794D01*
X220295990Y-110326589D01*
X220133475Y-110083368D01*
X219926632Y-109876525D01*
X219683411Y-109714010D01*
X219413158Y-109602068D01*
X219126260Y-109545000D01*
X218833740Y-109545000D01*
X218546842Y-109602068D01*
X218276589Y-109714010D01*
X218075000Y-109848707D01*
X218075000Y-106736321D01*
X218082911Y-106656001D01*
X218075000Y-106575680D01*
X218051343Y-106335486D01*
X217957852Y-106027287D01*
X217806031Y-105743250D01*
X217601714Y-105494288D01*
X217539319Y-105443082D01*
X216755254Y-104659017D01*
X217135679Y-104583346D01*
X217569721Y-104403560D01*
X217960349Y-104142550D01*
X218292550Y-103810349D01*
X218553560Y-103419721D01*
X218733346Y-102985679D01*
X218825000Y-102524902D01*
X218825000Y-102055098D01*
X218733346Y-101594321D01*
X218553560Y-101160279D01*
X218292550Y-100769651D01*
X217960349Y-100437450D01*
X217569721Y-100176440D01*
X217135679Y-99996654D01*
X216674902Y-99905000D01*
X216205098Y-99905000D01*
X215744321Y-99996654D01*
X215310279Y-100176440D01*
X215124999Y-100300240D01*
X215124999Y-86714599D01*
X215169999Y-86659765D01*
X215278286Y-86791714D01*
X215527248Y-86996031D01*
X215811285Y-87147852D01*
X216119484Y-87241343D01*
X216440000Y-87272911D01*
X216760515Y-87241343D01*
X217068714Y-87147852D01*
X217352751Y-86996031D01*
X217457278Y-86910249D01*
X217496963Y-86984494D01*
X217576315Y-87081185D01*
X217673006Y-87160537D01*
X217783320Y-87219502D01*
X217903018Y-87255812D01*
X218027500Y-87268072D01*
X219932500Y-87268072D01*
X220056982Y-87255812D01*
X220176680Y-87219502D01*
X220286994Y-87160537D01*
X220383685Y-87081185D01*
X220463037Y-86984494D01*
X220522002Y-86874180D01*
X220558312Y-86754482D01*
X220570572Y-86630000D01*
X220570572Y-85304130D01*
X224274322Y-89007881D01*
G04 #@! TA.AperFunction,NonConductor*
D27*
G36*
X224274322Y-89007881D02*
G01*
X224372495Y-89127505D01*
X224849860Y-89519269D01*
X225394483Y-89810376D01*
X225806170Y-89935259D01*
X225985432Y-89989638D01*
X226047470Y-89995748D01*
X226445998Y-90035000D01*
X226446004Y-90035000D01*
X226599999Y-90050167D01*
X226753994Y-90035000D01*
X227076889Y-90035000D01*
X227052149Y-90081285D01*
X226958658Y-90389484D01*
X226935001Y-90629678D01*
X226935000Y-103796763D01*
X220327969Y-110403794D01*
X220295990Y-110326589D01*
X220133475Y-110083368D01*
X219926632Y-109876525D01*
X219683411Y-109714010D01*
X219413158Y-109602068D01*
X219126260Y-109545000D01*
X218833740Y-109545000D01*
X218546842Y-109602068D01*
X218276589Y-109714010D01*
X218075000Y-109848707D01*
X218075000Y-106736321D01*
X218082911Y-106656001D01*
X218075000Y-106575680D01*
X218051343Y-106335486D01*
X217957852Y-106027287D01*
X217806031Y-105743250D01*
X217601714Y-105494288D01*
X217539319Y-105443082D01*
X216755254Y-104659017D01*
X217135679Y-104583346D01*
X217569721Y-104403560D01*
X217960349Y-104142550D01*
X218292550Y-103810349D01*
X218553560Y-103419721D01*
X218733346Y-102985679D01*
X218825000Y-102524902D01*
X218825000Y-102055098D01*
X218733346Y-101594321D01*
X218553560Y-101160279D01*
X218292550Y-100769651D01*
X217960349Y-100437450D01*
X217569721Y-100176440D01*
X217135679Y-99996654D01*
X216674902Y-99905000D01*
X216205098Y-99905000D01*
X215744321Y-99996654D01*
X215310279Y-100176440D01*
X215124999Y-100300240D01*
X215124999Y-86714599D01*
X215169999Y-86659765D01*
X215278286Y-86791714D01*
X215527248Y-86996031D01*
X215811285Y-87147852D01*
X216119484Y-87241343D01*
X216440000Y-87272911D01*
X216760515Y-87241343D01*
X217068714Y-87147852D01*
X217352751Y-86996031D01*
X217457278Y-86910249D01*
X217496963Y-86984494D01*
X217576315Y-87081185D01*
X217673006Y-87160537D01*
X217783320Y-87219502D01*
X217903018Y-87255812D01*
X218027500Y-87268072D01*
X219932500Y-87268072D01*
X220056982Y-87255812D01*
X220176680Y-87219502D01*
X220286994Y-87160537D01*
X220383685Y-87081185D01*
X220463037Y-86984494D01*
X220522002Y-86874180D01*
X220558312Y-86754482D01*
X220570572Y-86630000D01*
X220570572Y-85304130D01*
X224274322Y-89007881D01*
G37*
G04 #@! TD.AperFunction*
M02*
