G04 #@! TF.GenerationSoftware,KiCad,Pcbnew,5.1.8*
G04 #@! TF.CreationDate,2021-01-07T20:42:53+00:00*
G04 #@! TF.ProjectId,TheSun2,54686553-756e-4322-9e6b-696361645f70,1.0.8*
G04 #@! TF.SameCoordinates,Original*
G04 #@! TF.FileFunction,Legend,Top*
G04 #@! TF.FilePolarity,Positive*
%FSLAX46Y46*%
G04 Gerber Fmt 4.6, Leading zero omitted, Abs format (unit mm)*
G04 Created by KiCad (PCBNEW 5.1.8) date 2021-01-07 20:42:53*
%MOMM*%
%LPD*%
G01*
G04 APERTURE LIST*
%ADD10C,0.150000*%
%ADD11C,0.120000*%
%ADD12C,0.010000*%
G04 APERTURE END LIST*
D10*
X184270000Y-130738571D02*
X184412857Y-130786190D01*
X184460476Y-130833809D01*
X184508095Y-130929047D01*
X184508095Y-131071904D01*
X184460476Y-131167142D01*
X184412857Y-131214761D01*
X184317619Y-131262380D01*
X183936666Y-131262380D01*
X183936666Y-130262380D01*
X184270000Y-130262380D01*
X184365238Y-130310000D01*
X184412857Y-130357619D01*
X184460476Y-130452857D01*
X184460476Y-130548095D01*
X184412857Y-130643333D01*
X184365238Y-130690952D01*
X184270000Y-130738571D01*
X183936666Y-130738571D01*
X185365238Y-131262380D02*
X185365238Y-130738571D01*
X185317619Y-130643333D01*
X185222380Y-130595714D01*
X185031904Y-130595714D01*
X184936666Y-130643333D01*
X185365238Y-131214761D02*
X185270000Y-131262380D01*
X185031904Y-131262380D01*
X184936666Y-131214761D01*
X184889047Y-131119523D01*
X184889047Y-131024285D01*
X184936666Y-130929047D01*
X185031904Y-130881428D01*
X185270000Y-130881428D01*
X185365238Y-130833809D01*
X185841428Y-131262380D02*
X185841428Y-130595714D01*
X185841428Y-130786190D02*
X185889047Y-130690952D01*
X185936666Y-130643333D01*
X186031904Y-130595714D01*
X186127142Y-130595714D01*
X186460476Y-130595714D02*
X186460476Y-131262380D01*
X186460476Y-130690952D02*
X186508095Y-130643333D01*
X186603333Y-130595714D01*
X186746190Y-130595714D01*
X186841428Y-130643333D01*
X186889047Y-130738571D01*
X186889047Y-131262380D01*
X187793809Y-131262380D02*
X187793809Y-130738571D01*
X187746190Y-130643333D01*
X187650952Y-130595714D01*
X187460476Y-130595714D01*
X187365238Y-130643333D01*
X187793809Y-131214761D02*
X187698571Y-131262380D01*
X187460476Y-131262380D01*
X187365238Y-131214761D01*
X187317619Y-131119523D01*
X187317619Y-131024285D01*
X187365238Y-130929047D01*
X187460476Y-130881428D01*
X187698571Y-130881428D01*
X187793809Y-130833809D01*
X188270000Y-131262380D02*
X188270000Y-130262380D01*
X188270000Y-130643333D02*
X188365238Y-130595714D01*
X188555714Y-130595714D01*
X188650952Y-130643333D01*
X188698571Y-130690952D01*
X188746190Y-130786190D01*
X188746190Y-131071904D01*
X188698571Y-131167142D01*
X188650952Y-131214761D01*
X188555714Y-131262380D01*
X188365238Y-131262380D01*
X188270000Y-131214761D01*
X189079523Y-130595714D02*
X189317619Y-131262380D01*
X189555714Y-130595714D02*
X189317619Y-131262380D01*
X189222380Y-131500476D01*
X189174761Y-131548095D01*
X189079523Y-131595714D01*
X190698571Y-131262380D02*
X190698571Y-130262380D01*
X191079523Y-130262380D01*
X191174761Y-130310000D01*
X191222380Y-130357619D01*
X191270000Y-130452857D01*
X191270000Y-130595714D01*
X191222380Y-130690952D01*
X191174761Y-130738571D01*
X191079523Y-130786190D01*
X190698571Y-130786190D01*
X192127142Y-131262380D02*
X192127142Y-130738571D01*
X192079523Y-130643333D01*
X191984285Y-130595714D01*
X191793809Y-130595714D01*
X191698571Y-130643333D01*
X192127142Y-131214761D02*
X192031904Y-131262380D01*
X191793809Y-131262380D01*
X191698571Y-131214761D01*
X191650952Y-131119523D01*
X191650952Y-131024285D01*
X191698571Y-130929047D01*
X191793809Y-130881428D01*
X192031904Y-130881428D01*
X192127142Y-130833809D01*
X192603333Y-131262380D02*
X192603333Y-130595714D01*
X192603333Y-130786190D02*
X192650952Y-130690952D01*
X192698571Y-130643333D01*
X192793809Y-130595714D01*
X192889047Y-130595714D01*
X193222380Y-131262380D02*
X193222380Y-130262380D01*
X193317619Y-130881428D02*
X193603333Y-131262380D01*
X193603333Y-130595714D02*
X193222380Y-130976666D01*
X194412857Y-131214761D02*
X194317619Y-131262380D01*
X194127142Y-131262380D01*
X194031904Y-131214761D01*
X193984285Y-131119523D01*
X193984285Y-130738571D01*
X194031904Y-130643333D01*
X194127142Y-130595714D01*
X194317619Y-130595714D01*
X194412857Y-130643333D01*
X194460476Y-130738571D01*
X194460476Y-130833809D01*
X193984285Y-130929047D01*
X194889047Y-131262380D02*
X194889047Y-130595714D01*
X194889047Y-130786190D02*
X194936666Y-130690952D01*
X194984285Y-130643333D01*
X195079523Y-130595714D01*
X195174761Y-130595714D01*
X196222380Y-130357619D02*
X196270000Y-130310000D01*
X196365238Y-130262380D01*
X196603333Y-130262380D01*
X196698571Y-130310000D01*
X196746190Y-130357619D01*
X196793809Y-130452857D01*
X196793809Y-130548095D01*
X196746190Y-130690952D01*
X196174761Y-131262380D01*
X196793809Y-131262380D01*
X197412857Y-130262380D02*
X197508095Y-130262380D01*
X197603333Y-130310000D01*
X197650952Y-130357619D01*
X197698571Y-130452857D01*
X197746190Y-130643333D01*
X197746190Y-130881428D01*
X197698571Y-131071904D01*
X197650952Y-131167142D01*
X197603333Y-131214761D01*
X197508095Y-131262380D01*
X197412857Y-131262380D01*
X197317619Y-131214761D01*
X197270000Y-131167142D01*
X197222380Y-131071904D01*
X197174761Y-130881428D01*
X197174761Y-130643333D01*
X197222380Y-130452857D01*
X197270000Y-130357619D01*
X197317619Y-130310000D01*
X197412857Y-130262380D01*
X198127142Y-130357619D02*
X198174761Y-130310000D01*
X198270000Y-130262380D01*
X198508095Y-130262380D01*
X198603333Y-130310000D01*
X198650952Y-130357619D01*
X198698571Y-130452857D01*
X198698571Y-130548095D01*
X198650952Y-130690952D01*
X198079523Y-131262380D01*
X198698571Y-131262380D01*
X199650952Y-131262380D02*
X199079523Y-131262380D01*
X199365238Y-131262380D02*
X199365238Y-130262380D01*
X199270000Y-130405238D01*
X199174761Y-130500476D01*
X199079523Y-130548095D01*
X184168095Y-128436666D02*
X184644285Y-128436666D01*
X184072857Y-128722380D02*
X184406190Y-127722380D01*
X184739523Y-128722380D01*
X184930000Y-127722380D02*
X185501428Y-127722380D01*
X185215714Y-128722380D02*
X185215714Y-127722380D01*
X185739523Y-127722380D02*
X186406190Y-128722380D01*
X186406190Y-127722380D02*
X185739523Y-128722380D01*
X187549047Y-128341428D02*
X188310952Y-128341428D01*
X188787142Y-128055714D02*
X189549047Y-128341428D01*
X188787142Y-128627142D01*
X190787142Y-128722380D02*
X190787142Y-127722380D01*
X191168095Y-127722380D01*
X191263333Y-127770000D01*
X191310952Y-127817619D01*
X191358571Y-127912857D01*
X191358571Y-128055714D01*
X191310952Y-128150952D01*
X191263333Y-128198571D01*
X191168095Y-128246190D01*
X190787142Y-128246190D01*
X191787142Y-128722380D02*
X191787142Y-127722380D01*
X193025238Y-128722380D02*
X193025238Y-127722380D01*
X193501428Y-128055714D02*
X193501428Y-128722380D01*
X193501428Y-128150952D02*
X193549047Y-128103333D01*
X193644285Y-128055714D01*
X193787142Y-128055714D01*
X193882380Y-128103333D01*
X193930000Y-128198571D01*
X193930000Y-128722380D01*
X194263333Y-128055714D02*
X194644285Y-128055714D01*
X194406190Y-127722380D02*
X194406190Y-128579523D01*
X194453809Y-128674761D01*
X194549047Y-128722380D01*
X194644285Y-128722380D01*
X195358571Y-128674761D02*
X195263333Y-128722380D01*
X195072857Y-128722380D01*
X194977619Y-128674761D01*
X194930000Y-128579523D01*
X194930000Y-128198571D01*
X194977619Y-128103333D01*
X195072857Y-128055714D01*
X195263333Y-128055714D01*
X195358571Y-128103333D01*
X195406190Y-128198571D01*
X195406190Y-128293809D01*
X194930000Y-128389047D01*
X195834761Y-128722380D02*
X195834761Y-128055714D01*
X195834761Y-128246190D02*
X195882380Y-128150952D01*
X195930000Y-128103333D01*
X196025238Y-128055714D01*
X196120476Y-128055714D01*
X196310952Y-128055714D02*
X196691904Y-128055714D01*
X196453809Y-128722380D02*
X196453809Y-127865238D01*
X196501428Y-127770000D01*
X196596666Y-127722380D01*
X196691904Y-127722380D01*
X197453809Y-128722380D02*
X197453809Y-128198571D01*
X197406190Y-128103333D01*
X197310952Y-128055714D01*
X197120476Y-128055714D01*
X197025238Y-128103333D01*
X197453809Y-128674761D02*
X197358571Y-128722380D01*
X197120476Y-128722380D01*
X197025238Y-128674761D01*
X196977619Y-128579523D01*
X196977619Y-128484285D01*
X197025238Y-128389047D01*
X197120476Y-128341428D01*
X197358571Y-128341428D01*
X197453809Y-128293809D01*
X198358571Y-128674761D02*
X198263333Y-128722380D01*
X198072857Y-128722380D01*
X197977619Y-128674761D01*
X197930000Y-128627142D01*
X197882380Y-128531904D01*
X197882380Y-128246190D01*
X197930000Y-128150952D01*
X197977619Y-128103333D01*
X198072857Y-128055714D01*
X198263333Y-128055714D01*
X198358571Y-128103333D01*
X199168095Y-128674761D02*
X199072857Y-128722380D01*
X198882380Y-128722380D01*
X198787142Y-128674761D01*
X198739523Y-128579523D01*
X198739523Y-128198571D01*
X198787142Y-128103333D01*
X198882380Y-128055714D01*
X199072857Y-128055714D01*
X199168095Y-128103333D01*
X199215714Y-128198571D01*
X199215714Y-128293809D01*
X198739523Y-128389047D01*
X200406190Y-128722380D02*
X200406190Y-127722380D01*
X200406190Y-128103333D02*
X200501428Y-128055714D01*
X200691904Y-128055714D01*
X200787142Y-128103333D01*
X200834761Y-128150952D01*
X200882380Y-128246190D01*
X200882380Y-128531904D01*
X200834761Y-128627142D01*
X200787142Y-128674761D01*
X200691904Y-128722380D01*
X200501428Y-128722380D01*
X200406190Y-128674761D01*
X201453809Y-128722380D02*
X201358571Y-128674761D01*
X201310952Y-128627142D01*
X201263333Y-128531904D01*
X201263333Y-128246190D01*
X201310952Y-128150952D01*
X201358571Y-128103333D01*
X201453809Y-128055714D01*
X201596666Y-128055714D01*
X201691904Y-128103333D01*
X201739523Y-128150952D01*
X201787142Y-128246190D01*
X201787142Y-128531904D01*
X201739523Y-128627142D01*
X201691904Y-128674761D01*
X201596666Y-128722380D01*
X201453809Y-128722380D01*
X202644285Y-128722380D02*
X202644285Y-128198571D01*
X202596666Y-128103333D01*
X202501428Y-128055714D01*
X202310952Y-128055714D01*
X202215714Y-128103333D01*
X202644285Y-128674761D02*
X202549047Y-128722380D01*
X202310952Y-128722380D01*
X202215714Y-128674761D01*
X202168095Y-128579523D01*
X202168095Y-128484285D01*
X202215714Y-128389047D01*
X202310952Y-128341428D01*
X202549047Y-128341428D01*
X202644285Y-128293809D01*
X203120476Y-128722380D02*
X203120476Y-128055714D01*
X203120476Y-128246190D02*
X203168095Y-128150952D01*
X203215714Y-128103333D01*
X203310952Y-128055714D01*
X203406190Y-128055714D01*
X204168095Y-128722380D02*
X204168095Y-127722380D01*
X204168095Y-128674761D02*
X204072857Y-128722380D01*
X203882380Y-128722380D01*
X203787142Y-128674761D01*
X203739523Y-128627142D01*
X203691904Y-128531904D01*
X203691904Y-128246190D01*
X203739523Y-128150952D01*
X203787142Y-128103333D01*
X203882380Y-128055714D01*
X204072857Y-128055714D01*
X204168095Y-128103333D01*
X205310952Y-128055714D02*
X205549047Y-128722380D01*
X205787142Y-128055714D01*
X206691904Y-128722380D02*
X206120476Y-128722380D01*
X206406190Y-128722380D02*
X206406190Y-127722380D01*
X206310952Y-127865238D01*
X206215714Y-127960476D01*
X206120476Y-128008095D01*
X207120476Y-128627142D02*
X207168095Y-128674761D01*
X207120476Y-128722380D01*
X207072857Y-128674761D01*
X207120476Y-128627142D01*
X207120476Y-128722380D01*
X207787142Y-127722380D02*
X207882380Y-127722380D01*
X207977619Y-127770000D01*
X208025238Y-127817619D01*
X208072857Y-127912857D01*
X208120476Y-128103333D01*
X208120476Y-128341428D01*
X208072857Y-128531904D01*
X208025238Y-128627142D01*
X207977619Y-128674761D01*
X207882380Y-128722380D01*
X207787142Y-128722380D01*
X207691904Y-128674761D01*
X207644285Y-128627142D01*
X207596666Y-128531904D01*
X207549047Y-128341428D01*
X207549047Y-128103333D01*
X207596666Y-127912857D01*
X207644285Y-127817619D01*
X207691904Y-127770000D01*
X207787142Y-127722380D01*
X210358571Y-129103333D02*
X210310952Y-129055714D01*
X210215714Y-128912857D01*
X210168095Y-128817619D01*
X210120476Y-128674761D01*
X210072857Y-128436666D01*
X210072857Y-128246190D01*
X210120476Y-128008095D01*
X210168095Y-127865238D01*
X210215714Y-127770000D01*
X210310952Y-127627142D01*
X210358571Y-127579523D01*
X212025238Y-128722380D02*
X211453809Y-128722380D01*
X211739523Y-128722380D02*
X211739523Y-127722380D01*
X211644285Y-127865238D01*
X211549047Y-127960476D01*
X211453809Y-128008095D01*
X212644285Y-127722380D02*
X212739523Y-127722380D01*
X212834761Y-127770000D01*
X212882380Y-127817619D01*
X212929999Y-127912857D01*
X212977619Y-128103333D01*
X212977619Y-128341428D01*
X212929999Y-128531904D01*
X212882380Y-128627142D01*
X212834761Y-128674761D01*
X212739523Y-128722380D01*
X212644285Y-128722380D01*
X212549047Y-128674761D01*
X212501428Y-128627142D01*
X212453809Y-128531904D01*
X212406190Y-128341428D01*
X212406190Y-128103333D01*
X212453809Y-127912857D01*
X212501428Y-127817619D01*
X212549047Y-127770000D01*
X212644285Y-127722380D01*
X213358571Y-128436666D02*
X213834761Y-128436666D01*
X213263333Y-128722380D02*
X213596666Y-127722380D01*
X213929999Y-128722380D01*
X215501428Y-128722380D02*
X215025238Y-128722380D01*
X215025238Y-127722380D01*
X215834761Y-128722380D02*
X215834761Y-128055714D01*
X215834761Y-127722380D02*
X215787142Y-127770000D01*
X215834761Y-127817619D01*
X215882380Y-127770000D01*
X215834761Y-127722380D01*
X215834761Y-127817619D01*
X216310952Y-128722380D02*
X216310952Y-128055714D01*
X216310952Y-128150952D02*
X216358571Y-128103333D01*
X216453809Y-128055714D01*
X216596666Y-128055714D01*
X216691904Y-128103333D01*
X216739523Y-128198571D01*
X216739523Y-128722380D01*
X216739523Y-128198571D02*
X216787142Y-128103333D01*
X216882380Y-128055714D01*
X217025238Y-128055714D01*
X217120476Y-128103333D01*
X217168095Y-128198571D01*
X217168095Y-128722380D01*
X217644285Y-128722380D02*
X217644285Y-128055714D01*
X217644285Y-127722380D02*
X217596666Y-127770000D01*
X217644285Y-127817619D01*
X217691904Y-127770000D01*
X217644285Y-127722380D01*
X217644285Y-127817619D01*
X217977619Y-128055714D02*
X218358571Y-128055714D01*
X218120476Y-127722380D02*
X218120476Y-128579523D01*
X218168095Y-128674761D01*
X218263333Y-128722380D01*
X218358571Y-128722380D01*
X219358571Y-129103333D02*
X219406190Y-129055714D01*
X219501428Y-128912857D01*
X219549047Y-128817619D01*
X219596666Y-128674761D01*
X219644285Y-128436666D01*
X219644285Y-128246190D01*
X219596666Y-128008095D01*
X219549047Y-127865238D01*
X219501428Y-127770000D01*
X219406190Y-127627142D01*
X219358571Y-127579523D01*
D11*
X197210000Y-47717064D02*
X197210000Y-46262936D01*
X199030000Y-47717064D02*
X199030000Y-46262936D01*
X235310000Y-47717064D02*
X235310000Y-46262936D01*
X237130000Y-47717064D02*
X237130000Y-46262936D01*
X252187064Y-45360000D02*
X250732936Y-45360000D01*
X252187064Y-43540000D02*
X250732936Y-43540000D01*
X183240000Y-47717064D02*
X183240000Y-46262936D01*
X185060000Y-47717064D02*
X185060000Y-46262936D01*
X199330000Y-49590000D02*
X201990000Y-49590000D01*
X199330000Y-46990000D02*
X199330000Y-49590000D01*
X201990000Y-46990000D02*
X201990000Y-49590000D01*
X199330000Y-46990000D02*
X201990000Y-46990000D01*
X199330000Y-45720000D02*
X199330000Y-44390000D01*
X199330000Y-44390000D02*
X200660000Y-44390000D01*
X232350000Y-49590000D02*
X235010000Y-49590000D01*
X232350000Y-46990000D02*
X232350000Y-49590000D01*
X235010000Y-46990000D02*
X235010000Y-49590000D01*
X232350000Y-46990000D02*
X235010000Y-46990000D01*
X232350000Y-45720000D02*
X232350000Y-44390000D01*
X232350000Y-44390000D02*
X233680000Y-44390000D01*
X245050000Y-49590000D02*
X247710000Y-49590000D01*
X245050000Y-46990000D02*
X245050000Y-49590000D01*
X247710000Y-46990000D02*
X247710000Y-49590000D01*
X245050000Y-46990000D02*
X247710000Y-46990000D01*
X245050000Y-45720000D02*
X245050000Y-44390000D01*
X245050000Y-44390000D02*
X246380000Y-44390000D01*
X186630000Y-49590000D02*
X189290000Y-49590000D01*
X186630000Y-46990000D02*
X186630000Y-49590000D01*
X189290000Y-46990000D02*
X189290000Y-49590000D01*
X186630000Y-46990000D02*
X189290000Y-46990000D01*
X186630000Y-45720000D02*
X186630000Y-44390000D01*
X186630000Y-44390000D02*
X187960000Y-44390000D01*
X200760000Y-42220000D02*
X200760000Y-41290000D01*
X200760000Y-39060000D02*
X200760000Y-39990000D01*
X200760000Y-39060000D02*
X198600000Y-39060000D01*
X200760000Y-42220000D02*
X199300000Y-42220000D01*
X236100000Y-42360000D02*
X236100000Y-41430000D01*
X236100000Y-39200000D02*
X236100000Y-40130000D01*
X236100000Y-39200000D02*
X233940000Y-39200000D01*
X236100000Y-42360000D02*
X234640000Y-42360000D01*
X246890000Y-42220000D02*
X246890000Y-41290000D01*
X246890000Y-39060000D02*
X246890000Y-39990000D01*
X246890000Y-39060000D02*
X244730000Y-39060000D01*
X246890000Y-42220000D02*
X245430000Y-42220000D01*
X191260000Y-42220000D02*
X191260000Y-41290000D01*
X191260000Y-39060000D02*
X191260000Y-39990000D01*
X191260000Y-39060000D02*
X189100000Y-39060000D01*
X191260000Y-42220000D02*
X189800000Y-42220000D01*
X168250000Y-98850000D02*
X155400000Y-98850000D01*
X152550000Y-101400000D02*
X152550000Y-104550000D01*
X155400000Y-107150000D02*
X168250000Y-107150000D01*
X168250000Y-107150000D02*
X168250000Y-98850000D01*
X155400000Y-98850000D02*
X152550000Y-101400000D01*
X152550000Y-104550000D02*
X155400000Y-107150000D01*
X170780000Y-30510000D02*
X167930000Y-30510000D01*
X170780000Y-33360000D02*
X170780000Y-30510000D01*
X159320000Y-58470000D02*
X159320000Y-56660000D01*
X160720000Y-58470000D02*
X159320000Y-58470000D01*
X160720000Y-82570000D02*
X160720000Y-58470000D01*
X170540000Y-82570000D02*
X160720000Y-82570000D01*
X170540000Y-56660000D02*
X170540000Y-82570000D01*
X159320000Y-54850000D02*
X159320000Y-56660000D01*
X160720000Y-54850000D02*
X159320000Y-54850000D01*
X160720000Y-30750000D02*
X160720000Y-54850000D01*
X170540000Y-30750000D02*
X160720000Y-30750000D01*
X170540000Y-56660000D02*
X170540000Y-30750000D01*
X198350000Y-75214000D02*
X198350000Y-73754000D01*
X201510000Y-75214000D02*
X201510000Y-73054000D01*
X201510000Y-75214000D02*
X200580000Y-75214000D01*
X198350000Y-75214000D02*
X199280000Y-75214000D01*
X193178000Y-73472936D02*
X193178000Y-74927064D01*
X194998000Y-73472936D02*
X194998000Y-74927064D01*
X206682000Y-74927064D02*
X206682000Y-73472936D01*
X204862000Y-74927064D02*
X204862000Y-73472936D01*
X169400000Y-87080000D02*
X160290000Y-87080000D01*
X160290000Y-87080000D02*
X160290000Y-96900000D01*
X160290000Y-96900000D02*
X167590000Y-96900000D01*
X167590000Y-96900000D02*
X167590000Y-98300000D01*
X167590000Y-98300000D02*
X169400000Y-98300000D01*
X169400000Y-87080000D02*
X178510000Y-87080000D01*
X178510000Y-87080000D02*
X178510000Y-96900000D01*
X178510000Y-96900000D02*
X171210000Y-96900000D01*
X171210000Y-96900000D02*
X171210000Y-98300000D01*
X171210000Y-98300000D02*
X169400000Y-98300000D01*
X162900000Y-86840000D02*
X160050000Y-86840000D01*
X160050000Y-86840000D02*
X160050000Y-89690000D01*
X221500000Y-43720000D02*
X221500000Y-40270000D01*
X221500000Y-43720000D02*
X221500000Y-45670000D01*
X211380000Y-43720000D02*
X211380000Y-41770000D01*
X211380000Y-43720000D02*
X211380000Y-45670000D01*
X223446000Y-74927064D02*
X223446000Y-73472936D01*
X221626000Y-74927064D02*
X221626000Y-73472936D01*
X238432000Y-74673064D02*
X238432000Y-73218936D01*
X236612000Y-74673064D02*
X236612000Y-73218936D01*
X209688000Y-73472936D02*
X209688000Y-74927064D01*
X211508000Y-73472936D02*
X211508000Y-74927064D01*
X224928000Y-73472936D02*
X224928000Y-74927064D01*
X226748000Y-73472936D02*
X226748000Y-74927064D01*
X177580000Y-65000000D02*
X179040000Y-65000000D01*
X177580000Y-68160000D02*
X179740000Y-68160000D01*
X177580000Y-68160000D02*
X177580000Y-67230000D01*
X177580000Y-65000000D02*
X177580000Y-65930000D01*
X149840000Y-115170000D02*
X151840000Y-115170000D01*
X149840000Y-116420000D02*
X149840000Y-115170000D01*
X173490000Y-122170000D02*
X172740000Y-122170000D01*
X173490000Y-117870000D02*
X173490000Y-122170000D01*
X172740000Y-117870000D02*
X173490000Y-117870000D01*
X172740000Y-117520000D02*
X172740000Y-117870000D01*
X173240000Y-117520000D02*
X172740000Y-117520000D01*
X173490000Y-116520000D02*
X173240000Y-117520000D01*
X170490000Y-116520000D02*
X173490000Y-116520000D01*
X170740000Y-117520000D02*
X170490000Y-116520000D01*
X171240000Y-117520000D02*
X170740000Y-117520000D01*
X171240000Y-117870000D02*
X171240000Y-117520000D01*
X170490000Y-117870000D02*
X171240000Y-117870000D01*
X170490000Y-122170000D02*
X170490000Y-117870000D01*
X171240000Y-122170000D02*
X170490000Y-122170000D01*
X169680000Y-122170000D02*
X168930000Y-122170000D01*
X169680000Y-117870000D02*
X169680000Y-122170000D01*
X168930000Y-117870000D02*
X169680000Y-117870000D01*
X168930000Y-117520000D02*
X168930000Y-117870000D01*
X169430000Y-117520000D02*
X168930000Y-117520000D01*
X169680000Y-116520000D02*
X169430000Y-117520000D01*
X166680000Y-116520000D02*
X169680000Y-116520000D01*
X166930000Y-117520000D02*
X166680000Y-116520000D01*
X167430000Y-117520000D02*
X166930000Y-117520000D01*
X167430000Y-117870000D02*
X167430000Y-117520000D01*
X166680000Y-117870000D02*
X167430000Y-117870000D01*
X166680000Y-122170000D02*
X166680000Y-117870000D01*
X167430000Y-122170000D02*
X166680000Y-122170000D01*
X165870000Y-122170000D02*
X165120000Y-122170000D01*
X165870000Y-117870000D02*
X165870000Y-122170000D01*
X165120000Y-117870000D02*
X165870000Y-117870000D01*
X165120000Y-117520000D02*
X165120000Y-117870000D01*
X165620000Y-117520000D02*
X165120000Y-117520000D01*
X165870000Y-116520000D02*
X165620000Y-117520000D01*
X162870000Y-116520000D02*
X165870000Y-116520000D01*
X163120000Y-117520000D02*
X162870000Y-116520000D01*
X163620000Y-117520000D02*
X163120000Y-117520000D01*
X163620000Y-117870000D02*
X163620000Y-117520000D01*
X162870000Y-117870000D02*
X163620000Y-117870000D01*
X162870000Y-122170000D02*
X162870000Y-117870000D01*
X163620000Y-122170000D02*
X162870000Y-122170000D01*
X162060000Y-122170000D02*
X161310000Y-122170000D01*
X162060000Y-117870000D02*
X162060000Y-122170000D01*
X161310000Y-117870000D02*
X162060000Y-117870000D01*
X161310000Y-117520000D02*
X161310000Y-117870000D01*
X161810000Y-117520000D02*
X161310000Y-117520000D01*
X162060000Y-116520000D02*
X161810000Y-117520000D01*
X159060000Y-116520000D02*
X162060000Y-116520000D01*
X159310000Y-117520000D02*
X159060000Y-116520000D01*
X159810000Y-117520000D02*
X159310000Y-117520000D01*
X159810000Y-117870000D02*
X159810000Y-117520000D01*
X159060000Y-117870000D02*
X159810000Y-117870000D01*
X159060000Y-122170000D02*
X159060000Y-117870000D01*
X159810000Y-122170000D02*
X159060000Y-122170000D01*
X158250000Y-122170000D02*
X157500000Y-122170000D01*
X158250000Y-117870000D02*
X158250000Y-122170000D01*
X157500000Y-117870000D02*
X158250000Y-117870000D01*
X157500000Y-117520000D02*
X157500000Y-117870000D01*
X158000000Y-117520000D02*
X157500000Y-117520000D01*
X158250000Y-116520000D02*
X158000000Y-117520000D01*
X155250000Y-116520000D02*
X158250000Y-116520000D01*
X155500000Y-117520000D02*
X155250000Y-116520000D01*
X156000000Y-117520000D02*
X155500000Y-117520000D01*
X156000000Y-117870000D02*
X156000000Y-117520000D01*
X155250000Y-117870000D02*
X156000000Y-117870000D01*
X155250000Y-122170000D02*
X155250000Y-117870000D01*
X156000000Y-122170000D02*
X155250000Y-122170000D01*
X154440000Y-122170000D02*
X153690000Y-122170000D01*
X154440000Y-117870000D02*
X154440000Y-122170000D01*
X153690000Y-117870000D02*
X154440000Y-117870000D01*
X153690000Y-117520000D02*
X153690000Y-117870000D01*
X154190000Y-117520000D02*
X153690000Y-117520000D01*
X154440000Y-116520000D02*
X154190000Y-117520000D01*
X151440000Y-116520000D02*
X154440000Y-116520000D01*
X151690000Y-117520000D02*
X151440000Y-116520000D01*
X152190000Y-117520000D02*
X151690000Y-117520000D01*
X152190000Y-117870000D02*
X152190000Y-117520000D01*
X151440000Y-117870000D02*
X152190000Y-117870000D01*
X151440000Y-122170000D02*
X151440000Y-117870000D01*
X152190000Y-122170000D02*
X151440000Y-122170000D01*
X174700000Y-115560000D02*
X150230000Y-115560000D01*
X174700000Y-123030000D02*
X174700000Y-115560000D01*
X150230000Y-123030000D02*
X174700000Y-123030000D01*
X150230000Y-115560000D02*
X150230000Y-123030000D01*
X172739647Y-122169845D02*
G75*
G03*
X171240000Y-122170000I-749647J-1700155D01*
G01*
X168929647Y-122169845D02*
G75*
G03*
X167430000Y-122170000I-749647J-1700155D01*
G01*
X165119647Y-122169845D02*
G75*
G03*
X163620000Y-122170000I-749647J-1700155D01*
G01*
X161309647Y-122169845D02*
G75*
G03*
X159810000Y-122170000I-749647J-1700155D01*
G01*
X157499647Y-122169845D02*
G75*
G03*
X156000000Y-122170000I-749647J-1700155D01*
G01*
X153689647Y-122169845D02*
G75*
G03*
X152190000Y-122170000I-749647J-1700155D01*
G01*
X175240000Y-115170000D02*
X177240000Y-115170000D01*
X175240000Y-116420000D02*
X175240000Y-115170000D01*
X198890000Y-122170000D02*
X198140000Y-122170000D01*
X198890000Y-117870000D02*
X198890000Y-122170000D01*
X198140000Y-117870000D02*
X198890000Y-117870000D01*
X198140000Y-117520000D02*
X198140000Y-117870000D01*
X198640000Y-117520000D02*
X198140000Y-117520000D01*
X198890000Y-116520000D02*
X198640000Y-117520000D01*
X195890000Y-116520000D02*
X198890000Y-116520000D01*
X196140000Y-117520000D02*
X195890000Y-116520000D01*
X196640000Y-117520000D02*
X196140000Y-117520000D01*
X196640000Y-117870000D02*
X196640000Y-117520000D01*
X195890000Y-117870000D02*
X196640000Y-117870000D01*
X195890000Y-122170000D02*
X195890000Y-117870000D01*
X196640000Y-122170000D02*
X195890000Y-122170000D01*
X195080000Y-122170000D02*
X194330000Y-122170000D01*
X195080000Y-117870000D02*
X195080000Y-122170000D01*
X194330000Y-117870000D02*
X195080000Y-117870000D01*
X194330000Y-117520000D02*
X194330000Y-117870000D01*
X194830000Y-117520000D02*
X194330000Y-117520000D01*
X195080000Y-116520000D02*
X194830000Y-117520000D01*
X192080000Y-116520000D02*
X195080000Y-116520000D01*
X192330000Y-117520000D02*
X192080000Y-116520000D01*
X192830000Y-117520000D02*
X192330000Y-117520000D01*
X192830000Y-117870000D02*
X192830000Y-117520000D01*
X192080000Y-117870000D02*
X192830000Y-117870000D01*
X192080000Y-122170000D02*
X192080000Y-117870000D01*
X192830000Y-122170000D02*
X192080000Y-122170000D01*
X191270000Y-122170000D02*
X190520000Y-122170000D01*
X191270000Y-117870000D02*
X191270000Y-122170000D01*
X190520000Y-117870000D02*
X191270000Y-117870000D01*
X190520000Y-117520000D02*
X190520000Y-117870000D01*
X191020000Y-117520000D02*
X190520000Y-117520000D01*
X191270000Y-116520000D02*
X191020000Y-117520000D01*
X188270000Y-116520000D02*
X191270000Y-116520000D01*
X188520000Y-117520000D02*
X188270000Y-116520000D01*
X189020000Y-117520000D02*
X188520000Y-117520000D01*
X189020000Y-117870000D02*
X189020000Y-117520000D01*
X188270000Y-117870000D02*
X189020000Y-117870000D01*
X188270000Y-122170000D02*
X188270000Y-117870000D01*
X189020000Y-122170000D02*
X188270000Y-122170000D01*
X187460000Y-122170000D02*
X186710000Y-122170000D01*
X187460000Y-117870000D02*
X187460000Y-122170000D01*
X186710000Y-117870000D02*
X187460000Y-117870000D01*
X186710000Y-117520000D02*
X186710000Y-117870000D01*
X187210000Y-117520000D02*
X186710000Y-117520000D01*
X187460000Y-116520000D02*
X187210000Y-117520000D01*
X184460000Y-116520000D02*
X187460000Y-116520000D01*
X184710000Y-117520000D02*
X184460000Y-116520000D01*
X185210000Y-117520000D02*
X184710000Y-117520000D01*
X185210000Y-117870000D02*
X185210000Y-117520000D01*
X184460000Y-117870000D02*
X185210000Y-117870000D01*
X184460000Y-122170000D02*
X184460000Y-117870000D01*
X185210000Y-122170000D02*
X184460000Y-122170000D01*
X183650000Y-122170000D02*
X182900000Y-122170000D01*
X183650000Y-117870000D02*
X183650000Y-122170000D01*
X182900000Y-117870000D02*
X183650000Y-117870000D01*
X182900000Y-117520000D02*
X182900000Y-117870000D01*
X183400000Y-117520000D02*
X182900000Y-117520000D01*
X183650000Y-116520000D02*
X183400000Y-117520000D01*
X180650000Y-116520000D02*
X183650000Y-116520000D01*
X180900000Y-117520000D02*
X180650000Y-116520000D01*
X181400000Y-117520000D02*
X180900000Y-117520000D01*
X181400000Y-117870000D02*
X181400000Y-117520000D01*
X180650000Y-117870000D02*
X181400000Y-117870000D01*
X180650000Y-122170000D02*
X180650000Y-117870000D01*
X181400000Y-122170000D02*
X180650000Y-122170000D01*
X179840000Y-122170000D02*
X179090000Y-122170000D01*
X179840000Y-117870000D02*
X179840000Y-122170000D01*
X179090000Y-117870000D02*
X179840000Y-117870000D01*
X179090000Y-117520000D02*
X179090000Y-117870000D01*
X179590000Y-117520000D02*
X179090000Y-117520000D01*
X179840000Y-116520000D02*
X179590000Y-117520000D01*
X176840000Y-116520000D02*
X179840000Y-116520000D01*
X177090000Y-117520000D02*
X176840000Y-116520000D01*
X177590000Y-117520000D02*
X177090000Y-117520000D01*
X177590000Y-117870000D02*
X177590000Y-117520000D01*
X176840000Y-117870000D02*
X177590000Y-117870000D01*
X176840000Y-122170000D02*
X176840000Y-117870000D01*
X177590000Y-122170000D02*
X176840000Y-122170000D01*
X200100000Y-115560000D02*
X175630000Y-115560000D01*
X200100000Y-123030000D02*
X200100000Y-115560000D01*
X175630000Y-123030000D02*
X200100000Y-123030000D01*
X175630000Y-115560000D02*
X175630000Y-123030000D01*
X198139647Y-122169845D02*
G75*
G03*
X196640000Y-122170000I-749647J-1700155D01*
G01*
X194329647Y-122169845D02*
G75*
G03*
X192830000Y-122170000I-749647J-1700155D01*
G01*
X190519647Y-122169845D02*
G75*
G03*
X189020000Y-122170000I-749647J-1700155D01*
G01*
X186709647Y-122169845D02*
G75*
G03*
X185210000Y-122170000I-749647J-1700155D01*
G01*
X182899647Y-122169845D02*
G75*
G03*
X181400000Y-122170000I-749647J-1700155D01*
G01*
X179089647Y-122169845D02*
G75*
G03*
X177590000Y-122170000I-749647J-1700155D01*
G01*
X226040000Y-115170000D02*
X228040000Y-115170000D01*
X226040000Y-116420000D02*
X226040000Y-115170000D01*
X249690000Y-122170000D02*
X248940000Y-122170000D01*
X249690000Y-117870000D02*
X249690000Y-122170000D01*
X248940000Y-117870000D02*
X249690000Y-117870000D01*
X248940000Y-117520000D02*
X248940000Y-117870000D01*
X249440000Y-117520000D02*
X248940000Y-117520000D01*
X249690000Y-116520000D02*
X249440000Y-117520000D01*
X246690000Y-116520000D02*
X249690000Y-116520000D01*
X246940000Y-117520000D02*
X246690000Y-116520000D01*
X247440000Y-117520000D02*
X246940000Y-117520000D01*
X247440000Y-117870000D02*
X247440000Y-117520000D01*
X246690000Y-117870000D02*
X247440000Y-117870000D01*
X246690000Y-122170000D02*
X246690000Y-117870000D01*
X247440000Y-122170000D02*
X246690000Y-122170000D01*
X245880000Y-122170000D02*
X245130000Y-122170000D01*
X245880000Y-117870000D02*
X245880000Y-122170000D01*
X245130000Y-117870000D02*
X245880000Y-117870000D01*
X245130000Y-117520000D02*
X245130000Y-117870000D01*
X245630000Y-117520000D02*
X245130000Y-117520000D01*
X245880000Y-116520000D02*
X245630000Y-117520000D01*
X242880000Y-116520000D02*
X245880000Y-116520000D01*
X243130000Y-117520000D02*
X242880000Y-116520000D01*
X243630000Y-117520000D02*
X243130000Y-117520000D01*
X243630000Y-117870000D02*
X243630000Y-117520000D01*
X242880000Y-117870000D02*
X243630000Y-117870000D01*
X242880000Y-122170000D02*
X242880000Y-117870000D01*
X243630000Y-122170000D02*
X242880000Y-122170000D01*
X242070000Y-122170000D02*
X241320000Y-122170000D01*
X242070000Y-117870000D02*
X242070000Y-122170000D01*
X241320000Y-117870000D02*
X242070000Y-117870000D01*
X241320000Y-117520000D02*
X241320000Y-117870000D01*
X241820000Y-117520000D02*
X241320000Y-117520000D01*
X242070000Y-116520000D02*
X241820000Y-117520000D01*
X239070000Y-116520000D02*
X242070000Y-116520000D01*
X239320000Y-117520000D02*
X239070000Y-116520000D01*
X239820000Y-117520000D02*
X239320000Y-117520000D01*
X239820000Y-117870000D02*
X239820000Y-117520000D01*
X239070000Y-117870000D02*
X239820000Y-117870000D01*
X239070000Y-122170000D02*
X239070000Y-117870000D01*
X239820000Y-122170000D02*
X239070000Y-122170000D01*
X238260000Y-122170000D02*
X237510000Y-122170000D01*
X238260000Y-117870000D02*
X238260000Y-122170000D01*
X237510000Y-117870000D02*
X238260000Y-117870000D01*
X237510000Y-117520000D02*
X237510000Y-117870000D01*
X238010000Y-117520000D02*
X237510000Y-117520000D01*
X238260000Y-116520000D02*
X238010000Y-117520000D01*
X235260000Y-116520000D02*
X238260000Y-116520000D01*
X235510000Y-117520000D02*
X235260000Y-116520000D01*
X236010000Y-117520000D02*
X235510000Y-117520000D01*
X236010000Y-117870000D02*
X236010000Y-117520000D01*
X235260000Y-117870000D02*
X236010000Y-117870000D01*
X235260000Y-122170000D02*
X235260000Y-117870000D01*
X236010000Y-122170000D02*
X235260000Y-122170000D01*
X234450000Y-122170000D02*
X233700000Y-122170000D01*
X234450000Y-117870000D02*
X234450000Y-122170000D01*
X233700000Y-117870000D02*
X234450000Y-117870000D01*
X233700000Y-117520000D02*
X233700000Y-117870000D01*
X234200000Y-117520000D02*
X233700000Y-117520000D01*
X234450000Y-116520000D02*
X234200000Y-117520000D01*
X231450000Y-116520000D02*
X234450000Y-116520000D01*
X231700000Y-117520000D02*
X231450000Y-116520000D01*
X232200000Y-117520000D02*
X231700000Y-117520000D01*
X232200000Y-117870000D02*
X232200000Y-117520000D01*
X231450000Y-117870000D02*
X232200000Y-117870000D01*
X231450000Y-122170000D02*
X231450000Y-117870000D01*
X232200000Y-122170000D02*
X231450000Y-122170000D01*
X230640000Y-122170000D02*
X229890000Y-122170000D01*
X230640000Y-117870000D02*
X230640000Y-122170000D01*
X229890000Y-117870000D02*
X230640000Y-117870000D01*
X229890000Y-117520000D02*
X229890000Y-117870000D01*
X230390000Y-117520000D02*
X229890000Y-117520000D01*
X230640000Y-116520000D02*
X230390000Y-117520000D01*
X227640000Y-116520000D02*
X230640000Y-116520000D01*
X227890000Y-117520000D02*
X227640000Y-116520000D01*
X228390000Y-117520000D02*
X227890000Y-117520000D01*
X228390000Y-117870000D02*
X228390000Y-117520000D01*
X227640000Y-117870000D02*
X228390000Y-117870000D01*
X227640000Y-122170000D02*
X227640000Y-117870000D01*
X228390000Y-122170000D02*
X227640000Y-122170000D01*
X250900000Y-115560000D02*
X226430000Y-115560000D01*
X250900000Y-123030000D02*
X250900000Y-115560000D01*
X226430000Y-123030000D02*
X250900000Y-123030000D01*
X226430000Y-115560000D02*
X226430000Y-123030000D01*
X248939647Y-122169845D02*
G75*
G03*
X247440000Y-122170000I-749647J-1700155D01*
G01*
X245129647Y-122169845D02*
G75*
G03*
X243630000Y-122170000I-749647J-1700155D01*
G01*
X241319647Y-122169845D02*
G75*
G03*
X239820000Y-122170000I-749647J-1700155D01*
G01*
X237509647Y-122169845D02*
G75*
G03*
X236010000Y-122170000I-749647J-1700155D01*
G01*
X233699647Y-122169845D02*
G75*
G03*
X232200000Y-122170000I-749647J-1700155D01*
G01*
X229889647Y-122169845D02*
G75*
G03*
X228390000Y-122170000I-749647J-1700155D01*
G01*
X200640000Y-115170000D02*
X202640000Y-115170000D01*
X200640000Y-116420000D02*
X200640000Y-115170000D01*
X224290000Y-122170000D02*
X223540000Y-122170000D01*
X224290000Y-117870000D02*
X224290000Y-122170000D01*
X223540000Y-117870000D02*
X224290000Y-117870000D01*
X223540000Y-117520000D02*
X223540000Y-117870000D01*
X224040000Y-117520000D02*
X223540000Y-117520000D01*
X224290000Y-116520000D02*
X224040000Y-117520000D01*
X221290000Y-116520000D02*
X224290000Y-116520000D01*
X221540000Y-117520000D02*
X221290000Y-116520000D01*
X222040000Y-117520000D02*
X221540000Y-117520000D01*
X222040000Y-117870000D02*
X222040000Y-117520000D01*
X221290000Y-117870000D02*
X222040000Y-117870000D01*
X221290000Y-122170000D02*
X221290000Y-117870000D01*
X222040000Y-122170000D02*
X221290000Y-122170000D01*
X220480000Y-122170000D02*
X219730000Y-122170000D01*
X220480000Y-117870000D02*
X220480000Y-122170000D01*
X219730000Y-117870000D02*
X220480000Y-117870000D01*
X219730000Y-117520000D02*
X219730000Y-117870000D01*
X220230000Y-117520000D02*
X219730000Y-117520000D01*
X220480000Y-116520000D02*
X220230000Y-117520000D01*
X217480000Y-116520000D02*
X220480000Y-116520000D01*
X217730000Y-117520000D02*
X217480000Y-116520000D01*
X218230000Y-117520000D02*
X217730000Y-117520000D01*
X218230000Y-117870000D02*
X218230000Y-117520000D01*
X217480000Y-117870000D02*
X218230000Y-117870000D01*
X217480000Y-122170000D02*
X217480000Y-117870000D01*
X218230000Y-122170000D02*
X217480000Y-122170000D01*
X216670000Y-122170000D02*
X215920000Y-122170000D01*
X216670000Y-117870000D02*
X216670000Y-122170000D01*
X215920000Y-117870000D02*
X216670000Y-117870000D01*
X215920000Y-117520000D02*
X215920000Y-117870000D01*
X216420000Y-117520000D02*
X215920000Y-117520000D01*
X216670000Y-116520000D02*
X216420000Y-117520000D01*
X213670000Y-116520000D02*
X216670000Y-116520000D01*
X213920000Y-117520000D02*
X213670000Y-116520000D01*
X214420000Y-117520000D02*
X213920000Y-117520000D01*
X214420000Y-117870000D02*
X214420000Y-117520000D01*
X213670000Y-117870000D02*
X214420000Y-117870000D01*
X213670000Y-122170000D02*
X213670000Y-117870000D01*
X214420000Y-122170000D02*
X213670000Y-122170000D01*
X212860000Y-122170000D02*
X212110000Y-122170000D01*
X212860000Y-117870000D02*
X212860000Y-122170000D01*
X212110000Y-117870000D02*
X212860000Y-117870000D01*
X212110000Y-117520000D02*
X212110000Y-117870000D01*
X212610000Y-117520000D02*
X212110000Y-117520000D01*
X212860000Y-116520000D02*
X212610000Y-117520000D01*
X209860000Y-116520000D02*
X212860000Y-116520000D01*
X210110000Y-117520000D02*
X209860000Y-116520000D01*
X210610000Y-117520000D02*
X210110000Y-117520000D01*
X210610000Y-117870000D02*
X210610000Y-117520000D01*
X209860000Y-117870000D02*
X210610000Y-117870000D01*
X209860000Y-122170000D02*
X209860000Y-117870000D01*
X210610000Y-122170000D02*
X209860000Y-122170000D01*
X209050000Y-122170000D02*
X208300000Y-122170000D01*
X209050000Y-117870000D02*
X209050000Y-122170000D01*
X208300000Y-117870000D02*
X209050000Y-117870000D01*
X208300000Y-117520000D02*
X208300000Y-117870000D01*
X208800000Y-117520000D02*
X208300000Y-117520000D01*
X209050000Y-116520000D02*
X208800000Y-117520000D01*
X206050000Y-116520000D02*
X209050000Y-116520000D01*
X206300000Y-117520000D02*
X206050000Y-116520000D01*
X206800000Y-117520000D02*
X206300000Y-117520000D01*
X206800000Y-117870000D02*
X206800000Y-117520000D01*
X206050000Y-117870000D02*
X206800000Y-117870000D01*
X206050000Y-122170000D02*
X206050000Y-117870000D01*
X206800000Y-122170000D02*
X206050000Y-122170000D01*
X205240000Y-122170000D02*
X204490000Y-122170000D01*
X205240000Y-117870000D02*
X205240000Y-122170000D01*
X204490000Y-117870000D02*
X205240000Y-117870000D01*
X204490000Y-117520000D02*
X204490000Y-117870000D01*
X204990000Y-117520000D02*
X204490000Y-117520000D01*
X205240000Y-116520000D02*
X204990000Y-117520000D01*
X202240000Y-116520000D02*
X205240000Y-116520000D01*
X202490000Y-117520000D02*
X202240000Y-116520000D01*
X202990000Y-117520000D02*
X202490000Y-117520000D01*
X202990000Y-117870000D02*
X202990000Y-117520000D01*
X202240000Y-117870000D02*
X202990000Y-117870000D01*
X202240000Y-122170000D02*
X202240000Y-117870000D01*
X202990000Y-122170000D02*
X202240000Y-122170000D01*
X225500000Y-115560000D02*
X201030000Y-115560000D01*
X225500000Y-123030000D02*
X225500000Y-115560000D01*
X201030000Y-123030000D02*
X225500000Y-123030000D01*
X201030000Y-115560000D02*
X201030000Y-123030000D01*
X223539647Y-122169845D02*
G75*
G03*
X222040000Y-122170000I-749647J-1700155D01*
G01*
X219729647Y-122169845D02*
G75*
G03*
X218230000Y-122170000I-749647J-1700155D01*
G01*
X215919647Y-122169845D02*
G75*
G03*
X214420000Y-122170000I-749647J-1700155D01*
G01*
X212109647Y-122169845D02*
G75*
G03*
X210610000Y-122170000I-749647J-1700155D01*
G01*
X208299647Y-122169845D02*
G75*
G03*
X206800000Y-122170000I-749647J-1700155D01*
G01*
X204489647Y-122169845D02*
G75*
G03*
X202990000Y-122170000I-749647J-1700155D01*
G01*
X189481400Y-58194500D02*
X189481400Y-55594500D01*
X189481400Y-58194500D02*
X240401400Y-58194500D01*
X240401400Y-58194500D02*
X240401400Y-52994500D01*
X192081400Y-52994500D02*
X240401400Y-52994500D01*
X192081400Y-55594500D02*
X192081400Y-52994500D01*
X189481400Y-55594500D02*
X192081400Y-55594500D01*
X189481400Y-52994500D02*
X190811400Y-52994500D01*
X189481400Y-54324500D02*
X189481400Y-52994500D01*
X185960000Y-94400000D02*
X185960000Y-91860000D01*
X188500000Y-94400000D02*
X188500000Y-91860000D01*
X191040000Y-94400000D02*
X191040000Y-91860000D01*
X183380000Y-110290000D02*
X183380000Y-94400000D01*
X193620000Y-110290000D02*
X193620000Y-94400000D01*
X193620000Y-110290000D02*
X183380000Y-110290000D01*
X193620000Y-94400000D02*
X183380000Y-94400000D01*
X240570000Y-94400000D02*
X240570000Y-91860000D01*
X243110000Y-94400000D02*
X243110000Y-91860000D01*
X245650000Y-94400000D02*
X245650000Y-91860000D01*
X237990000Y-110290000D02*
X237990000Y-94400000D01*
X248230000Y-110290000D02*
X248230000Y-94400000D01*
X248230000Y-110290000D02*
X237990000Y-110290000D01*
X248230000Y-94400000D02*
X237990000Y-94400000D01*
X213900000Y-89320000D02*
X213900000Y-86780000D01*
X216440000Y-89320000D02*
X216440000Y-86780000D01*
X218980000Y-89320000D02*
X218980000Y-86780000D01*
X211320000Y-105210000D02*
X211320000Y-89320000D01*
X221560000Y-105210000D02*
X221560000Y-89320000D01*
X221560000Y-105210000D02*
X211320000Y-105210000D01*
X221560000Y-89320000D02*
X211320000Y-89320000D01*
X198660000Y-94400000D02*
X198660000Y-91860000D01*
X201200000Y-94400000D02*
X201200000Y-91860000D01*
X203740000Y-94400000D02*
X203740000Y-91860000D01*
X196080000Y-110290000D02*
X196080000Y-94400000D01*
X206320000Y-110290000D02*
X206320000Y-94400000D01*
X206320000Y-110290000D02*
X196080000Y-110290000D01*
X206320000Y-94400000D02*
X196080000Y-94400000D01*
X228570000Y-94400000D02*
X228570000Y-91860000D01*
X231110000Y-94400000D02*
X231110000Y-91860000D01*
X233650000Y-94400000D02*
X233650000Y-91860000D01*
X225990000Y-110290000D02*
X225990000Y-94400000D01*
X236230000Y-110290000D02*
X236230000Y-94400000D01*
X236230000Y-110290000D02*
X225990000Y-110290000D01*
X236230000Y-94400000D02*
X225990000Y-94400000D01*
X204410000Y-45660000D02*
X205740000Y-45660000D01*
X204410000Y-46990000D02*
X204410000Y-45660000D01*
X204410000Y-48260000D02*
X207070000Y-48260000D01*
X207070000Y-48260000D02*
X207070000Y-50860000D01*
X204410000Y-48260000D02*
X204410000Y-50860000D01*
X204410000Y-50860000D02*
X207070000Y-50860000D01*
X227270000Y-45660000D02*
X228600000Y-45660000D01*
X227270000Y-46990000D02*
X227270000Y-45660000D01*
X227270000Y-48260000D02*
X229930000Y-48260000D01*
X229930000Y-48260000D02*
X229930000Y-50860000D01*
X227270000Y-48260000D02*
X227270000Y-50860000D01*
X227270000Y-50860000D02*
X229930000Y-50860000D01*
X239970000Y-45660000D02*
X241300000Y-45660000D01*
X239970000Y-46990000D02*
X239970000Y-45660000D01*
X239970000Y-48260000D02*
X242630000Y-48260000D01*
X242630000Y-48260000D02*
X242630000Y-50860000D01*
X239970000Y-48260000D02*
X239970000Y-50860000D01*
X239970000Y-50860000D02*
X242630000Y-50860000D01*
X191710000Y-45660000D02*
X193040000Y-45660000D01*
X191710000Y-46990000D02*
X191710000Y-45660000D01*
X191710000Y-48260000D02*
X194370000Y-48260000D01*
X194370000Y-48260000D02*
X194370000Y-50860000D01*
X191710000Y-48260000D02*
X191710000Y-50860000D01*
X191710000Y-50860000D02*
X194370000Y-50860000D01*
X212570000Y-112360000D02*
X212570000Y-111030000D01*
X213900000Y-112360000D02*
X212570000Y-112360000D01*
X215170000Y-112360000D02*
X215170000Y-109700000D01*
X215170000Y-109700000D02*
X220310000Y-109700000D01*
X215170000Y-112360000D02*
X220310000Y-112360000D01*
X220310000Y-112360000D02*
X220310000Y-109700000D01*
X198466000Y-34890000D02*
X197136000Y-34890000D01*
X198466000Y-33560000D02*
X198466000Y-34890000D01*
X198466000Y-32290000D02*
X195806000Y-32290000D01*
X195806000Y-32290000D02*
X195806000Y-27150000D01*
X198466000Y-32290000D02*
X198466000Y-27150000D01*
X198466000Y-27150000D02*
X195806000Y-27150000D01*
X203546000Y-34890000D02*
X202216000Y-34890000D01*
X203546000Y-33560000D02*
X203546000Y-34890000D01*
X203546000Y-32290000D02*
X200886000Y-32290000D01*
X200886000Y-32290000D02*
X200886000Y-27150000D01*
X203546000Y-32290000D02*
X203546000Y-27150000D01*
X203546000Y-27150000D02*
X200886000Y-27150000D01*
X208626000Y-34890000D02*
X207296000Y-34890000D01*
X208626000Y-33560000D02*
X208626000Y-34890000D01*
X208626000Y-32290000D02*
X205966000Y-32290000D01*
X205966000Y-32290000D02*
X205966000Y-27150000D01*
X208626000Y-32290000D02*
X208626000Y-27150000D01*
X208626000Y-27150000D02*
X205966000Y-27150000D01*
X213706000Y-34890000D02*
X212376000Y-34890000D01*
X213706000Y-33560000D02*
X213706000Y-34890000D01*
X213706000Y-32290000D02*
X211046000Y-32290000D01*
X211046000Y-32290000D02*
X211046000Y-27150000D01*
X213706000Y-32290000D02*
X213706000Y-27150000D01*
X213706000Y-27150000D02*
X211046000Y-27150000D01*
X222088000Y-34890000D02*
X220758000Y-34890000D01*
X222088000Y-33560000D02*
X222088000Y-34890000D01*
X222088000Y-32290000D02*
X219428000Y-32290000D01*
X219428000Y-32290000D02*
X219428000Y-27150000D01*
X222088000Y-32290000D02*
X222088000Y-27150000D01*
X222088000Y-27150000D02*
X219428000Y-27150000D01*
X227168000Y-34890000D02*
X225838000Y-34890000D01*
X227168000Y-33560000D02*
X227168000Y-34890000D01*
X227168000Y-32290000D02*
X224508000Y-32290000D01*
X224508000Y-32290000D02*
X224508000Y-27150000D01*
X227168000Y-32290000D02*
X227168000Y-27150000D01*
X227168000Y-27150000D02*
X224508000Y-27150000D01*
X232248000Y-34890000D02*
X230918000Y-34890000D01*
X232248000Y-33560000D02*
X232248000Y-34890000D01*
X232248000Y-32290000D02*
X229588000Y-32290000D01*
X229588000Y-32290000D02*
X229588000Y-27150000D01*
X232248000Y-32290000D02*
X232248000Y-27150000D01*
X232248000Y-27150000D02*
X229588000Y-27150000D01*
X237328000Y-34890000D02*
X235998000Y-34890000D01*
X237328000Y-33560000D02*
X237328000Y-34890000D01*
X237328000Y-32290000D02*
X234668000Y-32290000D01*
X234668000Y-32290000D02*
X234668000Y-27150000D01*
X237328000Y-32290000D02*
X237328000Y-27150000D01*
X237328000Y-27150000D02*
X234668000Y-27150000D01*
X214860000Y-75214000D02*
X214860000Y-73754000D01*
X218020000Y-75214000D02*
X218020000Y-73054000D01*
X218020000Y-75214000D02*
X217090000Y-75214000D01*
X214860000Y-75214000D02*
X215790000Y-75214000D01*
X230100000Y-74960000D02*
X230100000Y-73500000D01*
X233260000Y-74960000D02*
X233260000Y-72800000D01*
X233260000Y-74960000D02*
X232330000Y-74960000D01*
X230100000Y-74960000D02*
X231030000Y-74960000D01*
D12*
G36*
X180521126Y-168101649D02*
G01*
X180860110Y-168150602D01*
X181181112Y-168245930D01*
X181494328Y-168390125D01*
X181599014Y-168449628D01*
X181702947Y-168516188D01*
X181809602Y-168592385D01*
X181908596Y-168669788D01*
X181989549Y-168739963D01*
X182042080Y-168794477D01*
X182056667Y-168821374D01*
X182039734Y-168850356D01*
X181993605Y-168913410D01*
X181925286Y-169001930D01*
X181841782Y-169107311D01*
X181750099Y-169220948D01*
X181657243Y-169334233D01*
X181570220Y-169438561D01*
X181496033Y-169525327D01*
X181441691Y-169585924D01*
X181414197Y-169611747D01*
X181412976Y-169612101D01*
X181380509Y-169597389D01*
X181317872Y-169559691D01*
X181266444Y-169525887D01*
X181036785Y-169390090D01*
X180802095Y-169287945D01*
X180569338Y-169220092D01*
X180345476Y-169187173D01*
X180137473Y-169189828D01*
X179952293Y-169228698D01*
X179796898Y-169304426D01*
X179707194Y-169382321D01*
X179619623Y-169513405D01*
X179586927Y-169647924D01*
X179608201Y-169780676D01*
X179682539Y-169906463D01*
X179809037Y-170020086D01*
X179819474Y-170027216D01*
X179884087Y-170063608D01*
X179991910Y-170116376D01*
X180133603Y-170181299D01*
X180299825Y-170254157D01*
X180481234Y-170330727D01*
X180587602Y-170374314D01*
X180778273Y-170452577D01*
X180963652Y-170530522D01*
X181133266Y-170603605D01*
X181276646Y-170667283D01*
X181383322Y-170717016D01*
X181420002Y-170735431D01*
X181661007Y-170892188D01*
X181864179Y-171087044D01*
X182025287Y-171314159D01*
X182140102Y-171567687D01*
X182200351Y-171813556D01*
X182221634Y-172123610D01*
X182190292Y-172418945D01*
X182109033Y-172695965D01*
X181980569Y-172951078D01*
X181807609Y-173180690D01*
X181592865Y-173381208D01*
X181339047Y-173549038D01*
X181048865Y-173680587D01*
X180725030Y-173772260D01*
X180722580Y-173772768D01*
X180545178Y-173798539D01*
X180330871Y-173812819D01*
X180097982Y-173815766D01*
X179864836Y-173807540D01*
X179649756Y-173788299D01*
X179488444Y-173762055D01*
X179094464Y-173649974D01*
X178720486Y-173487779D01*
X178374315Y-173279005D01*
X178296056Y-173222223D01*
X178183139Y-173129684D01*
X178119881Y-173059279D01*
X178105556Y-173021573D01*
X178122417Y-172987809D01*
X178168544Y-172919926D01*
X178237255Y-172826322D01*
X178321866Y-172715398D01*
X178415695Y-172595553D01*
X178512057Y-172475187D01*
X178604270Y-172362699D01*
X178685650Y-172266489D01*
X178749515Y-172194956D01*
X178789182Y-172156500D01*
X178797260Y-172152222D01*
X178824399Y-172168086D01*
X178883154Y-172209621D01*
X178958705Y-172266242D01*
X179091477Y-172356195D01*
X179256296Y-172450402D01*
X179434753Y-172539760D01*
X179608439Y-172615165D01*
X179758944Y-172667515D01*
X179783652Y-172674167D01*
X179975673Y-172707643D01*
X180175741Y-172716339D01*
X180370175Y-172701698D01*
X180545296Y-172665164D01*
X180687423Y-172608182D01*
X180741016Y-172573123D01*
X180837190Y-172463808D01*
X180893143Y-172327642D01*
X180905439Y-172180583D01*
X180870644Y-172038588D01*
X180860573Y-172017591D01*
X180826552Y-171963398D01*
X180779073Y-171911512D01*
X180712470Y-171858688D01*
X180621077Y-171801679D01*
X180499227Y-171737239D01*
X180341255Y-171662121D01*
X180141494Y-171573080D01*
X179913799Y-171475166D01*
X179656106Y-171364432D01*
X179444262Y-171270288D01*
X179271496Y-171188899D01*
X179131038Y-171116430D01*
X179016117Y-171049044D01*
X178919962Y-170982908D01*
X178835803Y-170914184D01*
X178756870Y-170839038D01*
X178716179Y-170796722D01*
X178552638Y-170600414D01*
X178435315Y-170405151D01*
X178356037Y-170196896D01*
X178346373Y-170161569D01*
X178320746Y-170017851D01*
X178307193Y-169843611D01*
X178305838Y-169659999D01*
X178316806Y-169488163D01*
X178340221Y-169349251D01*
X178341570Y-169344111D01*
X178439570Y-169084116D01*
X178586604Y-168841855D01*
X178776163Y-168625021D01*
X179001736Y-168441309D01*
X179206222Y-168322143D01*
X179389105Y-168238740D01*
X179555815Y-168178783D01*
X179724109Y-168138047D01*
X179911749Y-168112305D01*
X180136491Y-168097330D01*
X180153964Y-168096580D01*
X180521126Y-168101649D01*
G37*
X180521126Y-168101649D02*
X180860110Y-168150602D01*
X181181112Y-168245930D01*
X181494328Y-168390125D01*
X181599014Y-168449628D01*
X181702947Y-168516188D01*
X181809602Y-168592385D01*
X181908596Y-168669788D01*
X181989549Y-168739963D01*
X182042080Y-168794477D01*
X182056667Y-168821374D01*
X182039734Y-168850356D01*
X181993605Y-168913410D01*
X181925286Y-169001930D01*
X181841782Y-169107311D01*
X181750099Y-169220948D01*
X181657243Y-169334233D01*
X181570220Y-169438561D01*
X181496033Y-169525327D01*
X181441691Y-169585924D01*
X181414197Y-169611747D01*
X181412976Y-169612101D01*
X181380509Y-169597389D01*
X181317872Y-169559691D01*
X181266444Y-169525887D01*
X181036785Y-169390090D01*
X180802095Y-169287945D01*
X180569338Y-169220092D01*
X180345476Y-169187173D01*
X180137473Y-169189828D01*
X179952293Y-169228698D01*
X179796898Y-169304426D01*
X179707194Y-169382321D01*
X179619623Y-169513405D01*
X179586927Y-169647924D01*
X179608201Y-169780676D01*
X179682539Y-169906463D01*
X179809037Y-170020086D01*
X179819474Y-170027216D01*
X179884087Y-170063608D01*
X179991910Y-170116376D01*
X180133603Y-170181299D01*
X180299825Y-170254157D01*
X180481234Y-170330727D01*
X180587602Y-170374314D01*
X180778273Y-170452577D01*
X180963652Y-170530522D01*
X181133266Y-170603605D01*
X181276646Y-170667283D01*
X181383322Y-170717016D01*
X181420002Y-170735431D01*
X181661007Y-170892188D01*
X181864179Y-171087044D01*
X182025287Y-171314159D01*
X182140102Y-171567687D01*
X182200351Y-171813556D01*
X182221634Y-172123610D01*
X182190292Y-172418945D01*
X182109033Y-172695965D01*
X181980569Y-172951078D01*
X181807609Y-173180690D01*
X181592865Y-173381208D01*
X181339047Y-173549038D01*
X181048865Y-173680587D01*
X180725030Y-173772260D01*
X180722580Y-173772768D01*
X180545178Y-173798539D01*
X180330871Y-173812819D01*
X180097982Y-173815766D01*
X179864836Y-173807540D01*
X179649756Y-173788299D01*
X179488444Y-173762055D01*
X179094464Y-173649974D01*
X178720486Y-173487779D01*
X178374315Y-173279005D01*
X178296056Y-173222223D01*
X178183139Y-173129684D01*
X178119881Y-173059279D01*
X178105556Y-173021573D01*
X178122417Y-172987809D01*
X178168544Y-172919926D01*
X178237255Y-172826322D01*
X178321866Y-172715398D01*
X178415695Y-172595553D01*
X178512057Y-172475187D01*
X178604270Y-172362699D01*
X178685650Y-172266489D01*
X178749515Y-172194956D01*
X178789182Y-172156500D01*
X178797260Y-172152222D01*
X178824399Y-172168086D01*
X178883154Y-172209621D01*
X178958705Y-172266242D01*
X179091477Y-172356195D01*
X179256296Y-172450402D01*
X179434753Y-172539760D01*
X179608439Y-172615165D01*
X179758944Y-172667515D01*
X179783652Y-172674167D01*
X179975673Y-172707643D01*
X180175741Y-172716339D01*
X180370175Y-172701698D01*
X180545296Y-172665164D01*
X180687423Y-172608182D01*
X180741016Y-172573123D01*
X180837190Y-172463808D01*
X180893143Y-172327642D01*
X180905439Y-172180583D01*
X180870644Y-172038588D01*
X180860573Y-172017591D01*
X180826552Y-171963398D01*
X180779073Y-171911512D01*
X180712470Y-171858688D01*
X180621077Y-171801679D01*
X180499227Y-171737239D01*
X180341255Y-171662121D01*
X180141494Y-171573080D01*
X179913799Y-171475166D01*
X179656106Y-171364432D01*
X179444262Y-171270288D01*
X179271496Y-171188899D01*
X179131038Y-171116430D01*
X179016117Y-171049044D01*
X178919962Y-170982908D01*
X178835803Y-170914184D01*
X178756870Y-170839038D01*
X178716179Y-170796722D01*
X178552638Y-170600414D01*
X178435315Y-170405151D01*
X178356037Y-170196896D01*
X178346373Y-170161569D01*
X178320746Y-170017851D01*
X178307193Y-169843611D01*
X178305838Y-169659999D01*
X178316806Y-169488163D01*
X178340221Y-169349251D01*
X178341570Y-169344111D01*
X178439570Y-169084116D01*
X178586604Y-168841855D01*
X178776163Y-168625021D01*
X179001736Y-168441309D01*
X179206222Y-168322143D01*
X179389105Y-168238740D01*
X179555815Y-168178783D01*
X179724109Y-168138047D01*
X179911749Y-168112305D01*
X180136491Y-168097330D01*
X180153964Y-168096580D01*
X180521126Y-168101649D01*
G36*
X184229778Y-169499333D02*
G01*
X185245778Y-169499333D01*
X185245778Y-170515333D01*
X184225772Y-170515333D01*
X184235724Y-171467833D01*
X184238792Y-171738904D01*
X184242306Y-171959724D01*
X184247081Y-172136485D01*
X184253931Y-172275381D01*
X184263669Y-172382603D01*
X184277109Y-172464344D01*
X184295066Y-172526798D01*
X184318354Y-172576155D01*
X184347786Y-172618609D01*
X184384177Y-172660352D01*
X184393851Y-172670754D01*
X184523634Y-172771559D01*
X184677475Y-172821765D01*
X184855932Y-172821478D01*
X185008459Y-172787528D01*
X185090488Y-172763496D01*
X185148299Y-172748139D01*
X185163632Y-172745194D01*
X185177627Y-172771050D01*
X185198065Y-172841567D01*
X185222831Y-172945613D01*
X185249807Y-173072059D01*
X185276878Y-173209772D01*
X185301927Y-173347623D01*
X185322837Y-173474481D01*
X185337494Y-173579214D01*
X185343779Y-173650691D01*
X185340820Y-173677136D01*
X185302517Y-173695010D01*
X185222973Y-173719870D01*
X185116272Y-173747533D01*
X185060927Y-173760273D01*
X184892492Y-173788465D01*
X184696361Y-173806912D01*
X184488377Y-173815443D01*
X184284379Y-173813885D01*
X184100208Y-173802065D01*
X183951706Y-173779811D01*
X183922286Y-173772671D01*
X183677684Y-173680019D01*
X183467379Y-173542751D01*
X183291207Y-173360693D01*
X183149006Y-173133670D01*
X183040610Y-172861508D01*
X183026874Y-172815445D01*
X183013919Y-172762861D01*
X183003186Y-172700083D01*
X182994381Y-172621064D01*
X182987210Y-172519754D01*
X182981377Y-172390106D01*
X182976589Y-172226070D01*
X182972551Y-172021599D01*
X182968968Y-171770644D01*
X182966755Y-171580722D01*
X182955088Y-170515333D01*
X182395333Y-170515333D01*
X182395333Y-169561074D01*
X182529389Y-169545508D01*
X182632925Y-169534225D01*
X182759870Y-169521393D01*
X182848957Y-169512925D01*
X183034470Y-169495909D01*
X183098026Y-168982566D01*
X183119101Y-168815661D01*
X183138783Y-168665897D01*
X183155708Y-168543197D01*
X183168510Y-168457485D01*
X183175470Y-168419833D01*
X183184912Y-168402339D01*
X183207075Y-168389510D01*
X183249641Y-168380635D01*
X183320293Y-168375004D01*
X183426712Y-168371906D01*
X183576581Y-168370632D01*
X183709568Y-168370445D01*
X184229778Y-168370445D01*
X184229778Y-169499333D01*
G37*
X184229778Y-169499333D02*
X185245778Y-169499333D01*
X185245778Y-170515333D01*
X184225772Y-170515333D01*
X184235724Y-171467833D01*
X184238792Y-171738904D01*
X184242306Y-171959724D01*
X184247081Y-172136485D01*
X184253931Y-172275381D01*
X184263669Y-172382603D01*
X184277109Y-172464344D01*
X184295066Y-172526798D01*
X184318354Y-172576155D01*
X184347786Y-172618609D01*
X184384177Y-172660352D01*
X184393851Y-172670754D01*
X184523634Y-172771559D01*
X184677475Y-172821765D01*
X184855932Y-172821478D01*
X185008459Y-172787528D01*
X185090488Y-172763496D01*
X185148299Y-172748139D01*
X185163632Y-172745194D01*
X185177627Y-172771050D01*
X185198065Y-172841567D01*
X185222831Y-172945613D01*
X185249807Y-173072059D01*
X185276878Y-173209772D01*
X185301927Y-173347623D01*
X185322837Y-173474481D01*
X185337494Y-173579214D01*
X185343779Y-173650691D01*
X185340820Y-173677136D01*
X185302517Y-173695010D01*
X185222973Y-173719870D01*
X185116272Y-173747533D01*
X185060927Y-173760273D01*
X184892492Y-173788465D01*
X184696361Y-173806912D01*
X184488377Y-173815443D01*
X184284379Y-173813885D01*
X184100208Y-173802065D01*
X183951706Y-173779811D01*
X183922286Y-173772671D01*
X183677684Y-173680019D01*
X183467379Y-173542751D01*
X183291207Y-173360693D01*
X183149006Y-173133670D01*
X183040610Y-172861508D01*
X183026874Y-172815445D01*
X183013919Y-172762861D01*
X183003186Y-172700083D01*
X182994381Y-172621064D01*
X182987210Y-172519754D01*
X182981377Y-172390106D01*
X182976589Y-172226070D01*
X182972551Y-172021599D01*
X182968968Y-171770644D01*
X182966755Y-171580722D01*
X182955088Y-170515333D01*
X182395333Y-170515333D01*
X182395333Y-169561074D01*
X182529389Y-169545508D01*
X182632925Y-169534225D01*
X182759870Y-169521393D01*
X182848957Y-169512925D01*
X183034470Y-169495909D01*
X183098026Y-168982566D01*
X183119101Y-168815661D01*
X183138783Y-168665897D01*
X183155708Y-168543197D01*
X183168510Y-168457485D01*
X183175470Y-168419833D01*
X183184912Y-168402339D01*
X183207075Y-168389510D01*
X183249641Y-168380635D01*
X183320293Y-168375004D01*
X183426712Y-168371906D01*
X183576581Y-168370632D01*
X183709568Y-168370445D01*
X184229778Y-168370445D01*
X184229778Y-169499333D01*
G36*
X187291889Y-172363889D02*
G01*
X187359570Y-172501381D01*
X187446642Y-172625408D01*
X187564680Y-172704123D01*
X187716115Y-172738700D01*
X187847109Y-172736931D01*
X188024110Y-172698712D01*
X188186285Y-172614905D01*
X188341782Y-172480874D01*
X188390200Y-172428064D01*
X188519556Y-172280192D01*
X188519556Y-169499333D01*
X189789556Y-169499333D01*
X189789556Y-173732667D01*
X189270464Y-173732667D01*
X189076215Y-173731717D01*
X188932290Y-173728590D01*
X188832596Y-173722871D01*
X188771041Y-173714143D01*
X188741531Y-173701991D01*
X188737415Y-173696295D01*
X188727465Y-173653345D01*
X188712711Y-173569396D01*
X188695701Y-173459413D01*
X188688212Y-173407017D01*
X188652965Y-173154111D01*
X188450243Y-173352075D01*
X188215884Y-173549114D01*
X187969498Y-173693084D01*
X187759489Y-173772308D01*
X187610012Y-173801568D01*
X187426550Y-173815693D01*
X187229410Y-173814982D01*
X187038903Y-173799735D01*
X186875334Y-173770248D01*
X186834703Y-173758718D01*
X186615949Y-173661133D01*
X186429530Y-173517481D01*
X186275762Y-173328180D01*
X186154964Y-173093648D01*
X186067451Y-172814303D01*
X186047623Y-172721240D01*
X186038301Y-172660783D01*
X186030448Y-172581302D01*
X186023960Y-172478282D01*
X186018731Y-172347205D01*
X186014656Y-172183553D01*
X186011631Y-171982811D01*
X186009550Y-171740461D01*
X186008309Y-171451985D01*
X186007802Y-171112868D01*
X186007778Y-171006740D01*
X186007778Y-169499333D01*
X187275811Y-169499333D01*
X187291889Y-172363889D01*
G37*
X187291889Y-172363889D02*
X187359570Y-172501381D01*
X187446642Y-172625408D01*
X187564680Y-172704123D01*
X187716115Y-172738700D01*
X187847109Y-172736931D01*
X188024110Y-172698712D01*
X188186285Y-172614905D01*
X188341782Y-172480874D01*
X188390200Y-172428064D01*
X188519556Y-172280192D01*
X188519556Y-169499333D01*
X189789556Y-169499333D01*
X189789556Y-173732667D01*
X189270464Y-173732667D01*
X189076215Y-173731717D01*
X188932290Y-173728590D01*
X188832596Y-173722871D01*
X188771041Y-173714143D01*
X188741531Y-173701991D01*
X188737415Y-173696295D01*
X188727465Y-173653345D01*
X188712711Y-173569396D01*
X188695701Y-173459413D01*
X188688212Y-173407017D01*
X188652965Y-173154111D01*
X188450243Y-173352075D01*
X188215884Y-173549114D01*
X187969498Y-173693084D01*
X187759489Y-173772308D01*
X187610012Y-173801568D01*
X187426550Y-173815693D01*
X187229410Y-173814982D01*
X187038903Y-173799735D01*
X186875334Y-173770248D01*
X186834703Y-173758718D01*
X186615949Y-173661133D01*
X186429530Y-173517481D01*
X186275762Y-173328180D01*
X186154964Y-173093648D01*
X186067451Y-172814303D01*
X186047623Y-172721240D01*
X186038301Y-172660783D01*
X186030448Y-172581302D01*
X186023960Y-172478282D01*
X186018731Y-172347205D01*
X186014656Y-172183553D01*
X186011631Y-171982811D01*
X186009550Y-171740461D01*
X186008309Y-171451985D01*
X186007802Y-171112868D01*
X186007778Y-171006740D01*
X186007778Y-169499333D01*
X187275811Y-169499333D01*
X187291889Y-172363889D01*
G36*
X194615556Y-173732667D02*
G01*
X193576459Y-173732667D01*
X193541154Y-173535111D01*
X193522486Y-173438317D01*
X193506289Y-173367885D01*
X193495815Y-173337806D01*
X193495235Y-173337556D01*
X193469434Y-173353457D01*
X193410546Y-173395620D01*
X193330099Y-173455734D01*
X193309254Y-173471611D01*
X193191073Y-173553146D01*
X193051102Y-173637077D01*
X192922222Y-173703967D01*
X192828132Y-173746162D01*
X192751132Y-173774474D01*
X192675135Y-173791966D01*
X192584050Y-173801698D01*
X192461789Y-173806731D01*
X192371889Y-173808672D01*
X192163319Y-173807508D01*
X191999967Y-173795591D01*
X191897510Y-173776373D01*
X191637246Y-173673657D01*
X191395950Y-173522403D01*
X191181539Y-173329427D01*
X191001929Y-173101543D01*
X190895971Y-172914222D01*
X190815533Y-172736946D01*
X190754286Y-172575291D01*
X190709807Y-172416694D01*
X190679674Y-172248595D01*
X190661464Y-172058432D01*
X190652754Y-171833643D01*
X190651005Y-171644222D01*
X190651137Y-171581795D01*
X191938515Y-171581795D01*
X191942404Y-171755921D01*
X191974656Y-172044375D01*
X192038256Y-172286561D01*
X192133090Y-172482227D01*
X192259041Y-172631117D01*
X192381836Y-172716229D01*
X192498713Y-172755152D01*
X192645677Y-172771972D01*
X192800847Y-172766611D01*
X192942339Y-172738989D01*
X192997521Y-172718462D01*
X193086090Y-172666129D01*
X193182311Y-172591501D01*
X193230354Y-172546345D01*
X193345556Y-172427638D01*
X193345556Y-171566319D01*
X193345848Y-171319778D01*
X193345763Y-171123244D01*
X193343858Y-170970292D01*
X193338692Y-170854497D01*
X193328821Y-170769430D01*
X193312803Y-170708668D01*
X193289196Y-170665783D01*
X193256557Y-170634349D01*
X193213444Y-170607939D01*
X193158414Y-170580129D01*
X193119778Y-170560464D01*
X193023714Y-170516136D01*
X192930072Y-170482042D01*
X192899003Y-170473784D01*
X192691674Y-170452879D01*
X192505559Y-170482503D01*
X192342519Y-170560165D01*
X192204412Y-170683371D01*
X192093099Y-170849630D01*
X192010438Y-171056449D01*
X191958290Y-171301334D01*
X191938515Y-171581795D01*
X190651137Y-171581795D01*
X190651423Y-171446798D01*
X190653790Y-171294756D01*
X190659021Y-171177041D01*
X190668033Y-171082601D01*
X190681742Y-171000382D01*
X190701063Y-170919330D01*
X190715313Y-170868111D01*
X190836048Y-170531369D01*
X190992955Y-170232209D01*
X191183892Y-169973796D01*
X191406718Y-169759293D01*
X191524093Y-169673045D01*
X191750209Y-169542264D01*
X191973342Y-169458582D01*
X192211070Y-169416533D01*
X192373309Y-169408974D01*
X192654639Y-169428082D01*
X192903944Y-169490653D01*
X193127802Y-169598971D01*
X193308513Y-169733543D01*
X193410339Y-169822947D01*
X193391322Y-169724640D01*
X193386189Y-169672996D01*
X193380520Y-169572483D01*
X193374581Y-169430672D01*
X193368641Y-169255133D01*
X193362965Y-169053438D01*
X193357822Y-168833155D01*
X193355229Y-168702056D01*
X193338153Y-167777778D01*
X194615556Y-167777778D01*
X194615556Y-173732667D01*
G37*
X194615556Y-173732667D02*
X193576459Y-173732667D01*
X193541154Y-173535111D01*
X193522486Y-173438317D01*
X193506289Y-173367885D01*
X193495815Y-173337806D01*
X193495235Y-173337556D01*
X193469434Y-173353457D01*
X193410546Y-173395620D01*
X193330099Y-173455734D01*
X193309254Y-173471611D01*
X193191073Y-173553146D01*
X193051102Y-173637077D01*
X192922222Y-173703967D01*
X192828132Y-173746162D01*
X192751132Y-173774474D01*
X192675135Y-173791966D01*
X192584050Y-173801698D01*
X192461789Y-173806731D01*
X192371889Y-173808672D01*
X192163319Y-173807508D01*
X191999967Y-173795591D01*
X191897510Y-173776373D01*
X191637246Y-173673657D01*
X191395950Y-173522403D01*
X191181539Y-173329427D01*
X191001929Y-173101543D01*
X190895971Y-172914222D01*
X190815533Y-172736946D01*
X190754286Y-172575291D01*
X190709807Y-172416694D01*
X190679674Y-172248595D01*
X190661464Y-172058432D01*
X190652754Y-171833643D01*
X190651005Y-171644222D01*
X190651137Y-171581795D01*
X191938515Y-171581795D01*
X191942404Y-171755921D01*
X191974656Y-172044375D01*
X192038256Y-172286561D01*
X192133090Y-172482227D01*
X192259041Y-172631117D01*
X192381836Y-172716229D01*
X192498713Y-172755152D01*
X192645677Y-172771972D01*
X192800847Y-172766611D01*
X192942339Y-172738989D01*
X192997521Y-172718462D01*
X193086090Y-172666129D01*
X193182311Y-172591501D01*
X193230354Y-172546345D01*
X193345556Y-172427638D01*
X193345556Y-171566319D01*
X193345848Y-171319778D01*
X193345763Y-171123244D01*
X193343858Y-170970292D01*
X193338692Y-170854497D01*
X193328821Y-170769430D01*
X193312803Y-170708668D01*
X193289196Y-170665783D01*
X193256557Y-170634349D01*
X193213444Y-170607939D01*
X193158414Y-170580129D01*
X193119778Y-170560464D01*
X193023714Y-170516136D01*
X192930072Y-170482042D01*
X192899003Y-170473784D01*
X192691674Y-170452879D01*
X192505559Y-170482503D01*
X192342519Y-170560165D01*
X192204412Y-170683371D01*
X192093099Y-170849630D01*
X192010438Y-171056449D01*
X191958290Y-171301334D01*
X191938515Y-171581795D01*
X190651137Y-171581795D01*
X190651423Y-171446798D01*
X190653790Y-171294756D01*
X190659021Y-171177041D01*
X190668033Y-171082601D01*
X190681742Y-171000382D01*
X190701063Y-170919330D01*
X190715313Y-170868111D01*
X190836048Y-170531369D01*
X190992955Y-170232209D01*
X191183892Y-169973796D01*
X191406718Y-169759293D01*
X191524093Y-169673045D01*
X191750209Y-169542264D01*
X191973342Y-169458582D01*
X192211070Y-169416533D01*
X192373309Y-169408974D01*
X192654639Y-169428082D01*
X192903944Y-169490653D01*
X193127802Y-169598971D01*
X193308513Y-169733543D01*
X193410339Y-169822947D01*
X193391322Y-169724640D01*
X193386189Y-169672996D01*
X193380520Y-169572483D01*
X193374581Y-169430672D01*
X193368641Y-169255133D01*
X193362965Y-169053438D01*
X193357822Y-168833155D01*
X193355229Y-168702056D01*
X193338153Y-167777778D01*
X194615556Y-167777778D01*
X194615556Y-173732667D01*
G36*
X200196685Y-169436754D02*
G01*
X200519995Y-169513480D01*
X200817789Y-169638600D01*
X201087147Y-169809861D01*
X201325147Y-170025007D01*
X201528871Y-170281784D01*
X201695397Y-170577937D01*
X201821805Y-170911212D01*
X201829883Y-170938667D01*
X201850117Y-171019337D01*
X201864576Y-171106403D01*
X201874082Y-171210873D01*
X201879457Y-171343753D01*
X201881524Y-171516051D01*
X201881552Y-171630111D01*
X201880606Y-171814927D01*
X201877944Y-171955080D01*
X201872303Y-172062352D01*
X201862419Y-172148524D01*
X201847031Y-172225375D01*
X201824874Y-172304687D01*
X201801369Y-172378000D01*
X201666537Y-172707479D01*
X201492398Y-172999187D01*
X201281226Y-173250906D01*
X201035296Y-173460422D01*
X200756882Y-173625519D01*
X200448261Y-173743979D01*
X200379779Y-173762736D01*
X200180251Y-173798578D01*
X199949651Y-173815717D01*
X199709663Y-173814201D01*
X199481971Y-173794073D01*
X199306922Y-173760463D01*
X199000134Y-173651264D01*
X198715517Y-173491651D01*
X198459801Y-173285503D01*
X198426972Y-173253431D01*
X198212505Y-173008655D01*
X198045276Y-172748053D01*
X197923010Y-172465692D01*
X197843433Y-172155637D01*
X197804270Y-171811957D01*
X197799120Y-171616000D01*
X197805474Y-171492976D01*
X199109666Y-171492976D01*
X199112132Y-171812474D01*
X199148959Y-172089266D01*
X199219952Y-172322657D01*
X199324911Y-172511951D01*
X199433114Y-172631095D01*
X199584467Y-172736014D01*
X199744085Y-172787974D01*
X199920320Y-172788895D01*
X200028663Y-172768014D01*
X200171363Y-172705172D01*
X200304864Y-172595941D01*
X200419692Y-172450375D01*
X200506371Y-172278527D01*
X200516689Y-172250152D01*
X200543352Y-172167057D01*
X200562035Y-172089544D01*
X200574116Y-172004730D01*
X200580973Y-171899733D01*
X200583987Y-171761672D01*
X200584556Y-171616000D01*
X200583654Y-171441525D01*
X200580029Y-171310597D01*
X200572303Y-171210335D01*
X200559097Y-171127856D01*
X200539033Y-171050279D01*
X200516689Y-170981848D01*
X200429541Y-170795468D01*
X200311061Y-170641105D01*
X200168941Y-170526669D01*
X200010874Y-170460064D01*
X200008510Y-170459491D01*
X199821447Y-170437027D01*
X199653985Y-170466200D01*
X199500178Y-170548754D01*
X199398441Y-170638222D01*
X199290811Y-170769468D01*
X199211154Y-170918528D01*
X199156166Y-171095181D01*
X199122544Y-171309205D01*
X199109666Y-171492976D01*
X197805474Y-171492976D01*
X197817872Y-171252968D01*
X197875696Y-170926653D01*
X197974947Y-170630902D01*
X198117980Y-170359563D01*
X198307149Y-170106483D01*
X198425556Y-169979023D01*
X198674197Y-169765779D01*
X198947186Y-169602876D01*
X199245666Y-169489857D01*
X199570780Y-169426267D01*
X199850778Y-169410678D01*
X200196685Y-169436754D01*
G37*
X200196685Y-169436754D02*
X200519995Y-169513480D01*
X200817789Y-169638600D01*
X201087147Y-169809861D01*
X201325147Y-170025007D01*
X201528871Y-170281784D01*
X201695397Y-170577937D01*
X201821805Y-170911212D01*
X201829883Y-170938667D01*
X201850117Y-171019337D01*
X201864576Y-171106403D01*
X201874082Y-171210873D01*
X201879457Y-171343753D01*
X201881524Y-171516051D01*
X201881552Y-171630111D01*
X201880606Y-171814927D01*
X201877944Y-171955080D01*
X201872303Y-172062352D01*
X201862419Y-172148524D01*
X201847031Y-172225375D01*
X201824874Y-172304687D01*
X201801369Y-172378000D01*
X201666537Y-172707479D01*
X201492398Y-172999187D01*
X201281226Y-173250906D01*
X201035296Y-173460422D01*
X200756882Y-173625519D01*
X200448261Y-173743979D01*
X200379779Y-173762736D01*
X200180251Y-173798578D01*
X199949651Y-173815717D01*
X199709663Y-173814201D01*
X199481971Y-173794073D01*
X199306922Y-173760463D01*
X199000134Y-173651264D01*
X198715517Y-173491651D01*
X198459801Y-173285503D01*
X198426972Y-173253431D01*
X198212505Y-173008655D01*
X198045276Y-172748053D01*
X197923010Y-172465692D01*
X197843433Y-172155637D01*
X197804270Y-171811957D01*
X197799120Y-171616000D01*
X197805474Y-171492976D01*
X199109666Y-171492976D01*
X199112132Y-171812474D01*
X199148959Y-172089266D01*
X199219952Y-172322657D01*
X199324911Y-172511951D01*
X199433114Y-172631095D01*
X199584467Y-172736014D01*
X199744085Y-172787974D01*
X199920320Y-172788895D01*
X200028663Y-172768014D01*
X200171363Y-172705172D01*
X200304864Y-172595941D01*
X200419692Y-172450375D01*
X200506371Y-172278527D01*
X200516689Y-172250152D01*
X200543352Y-172167057D01*
X200562035Y-172089544D01*
X200574116Y-172004730D01*
X200580973Y-171899733D01*
X200583987Y-171761672D01*
X200584556Y-171616000D01*
X200583654Y-171441525D01*
X200580029Y-171310597D01*
X200572303Y-171210335D01*
X200559097Y-171127856D01*
X200539033Y-171050279D01*
X200516689Y-170981848D01*
X200429541Y-170795468D01*
X200311061Y-170641105D01*
X200168941Y-170526669D01*
X200010874Y-170460064D01*
X200008510Y-170459491D01*
X199821447Y-170437027D01*
X199653985Y-170466200D01*
X199500178Y-170548754D01*
X199398441Y-170638222D01*
X199290811Y-170769468D01*
X199211154Y-170918528D01*
X199156166Y-171095181D01*
X199122544Y-171309205D01*
X199109666Y-171492976D01*
X197805474Y-171492976D01*
X197817872Y-171252968D01*
X197875696Y-170926653D01*
X197974947Y-170630902D01*
X198117980Y-170359563D01*
X198307149Y-170106483D01*
X198425556Y-169979023D01*
X198674197Y-169765779D01*
X198947186Y-169602876D01*
X199245666Y-169489857D01*
X199570780Y-169426267D01*
X199850778Y-169410678D01*
X200196685Y-169436754D01*
G36*
X211153778Y-169542098D02*
G01*
X211447123Y-169593474D01*
X211710228Y-169691916D01*
X211941377Y-169836257D01*
X212138855Y-170025333D01*
X212300946Y-170257979D01*
X212352243Y-170356187D01*
X212429370Y-170534394D01*
X212484553Y-170708588D01*
X212520756Y-170893777D01*
X212540941Y-171104969D01*
X212548012Y-171347889D01*
X212550778Y-171743000D01*
X211090278Y-171750310D01*
X209629778Y-171757619D01*
X209629975Y-171877310D01*
X209636846Y-171962589D01*
X209654851Y-172079668D01*
X209680386Y-172205860D01*
X209685928Y-172229561D01*
X209782530Y-172528664D01*
X209918009Y-172791550D01*
X210088410Y-173015696D01*
X210289780Y-173198575D01*
X210518167Y-173337661D01*
X210769617Y-173430431D01*
X211040177Y-173474357D01*
X211325893Y-173466915D01*
X211555779Y-173424069D01*
X211775365Y-173353734D01*
X211984231Y-173260704D01*
X212150236Y-173161524D01*
X212204953Y-173126862D01*
X212235536Y-173114956D01*
X212236936Y-173115755D01*
X212269386Y-173166862D01*
X212310860Y-173240819D01*
X212351970Y-173319639D01*
X212383330Y-173385334D01*
X212395556Y-173419691D01*
X212370985Y-173446550D01*
X212304492Y-173488458D01*
X212206908Y-173540383D01*
X212089063Y-173597294D01*
X211961786Y-173654159D01*
X211835907Y-173705946D01*
X211722257Y-173747624D01*
X211633556Y-173773724D01*
X211496662Y-173795958D01*
X211325194Y-173809585D01*
X211136490Y-173814621D01*
X210947890Y-173811080D01*
X210776732Y-173798977D01*
X210640356Y-173778327D01*
X210617556Y-173772853D01*
X210337383Y-173671172D01*
X210074306Y-173521054D01*
X209837157Y-173329722D01*
X209634764Y-173104402D01*
X209475960Y-172852318D01*
X209464591Y-172829556D01*
X209336787Y-172511612D01*
X209253648Y-172177726D01*
X209214261Y-171835332D01*
X209217712Y-171491867D01*
X209236483Y-171352403D01*
X209629778Y-171352403D01*
X209629778Y-171418445D01*
X212169778Y-171418445D01*
X212169778Y-171239515D01*
X212155536Y-171061478D01*
X212116763Y-170860388D01*
X212059393Y-170660709D01*
X211989357Y-170486908D01*
X211985319Y-170478715D01*
X211856614Y-170280569D01*
X211690647Y-170120193D01*
X211494471Y-170000396D01*
X211275138Y-169923988D01*
X211039702Y-169893779D01*
X210795217Y-169912580D01*
X210651403Y-169947244D01*
X210418348Y-170047056D01*
X210204956Y-170197096D01*
X210015807Y-170393196D01*
X209855480Y-170631194D01*
X209814486Y-170708540D01*
X209769285Y-170813755D01*
X209723327Y-170945255D01*
X209681691Y-171085338D01*
X209649455Y-171216299D01*
X209631697Y-171320438D01*
X209629778Y-171352403D01*
X209236483Y-171352403D01*
X209263086Y-171154763D01*
X209349470Y-170831457D01*
X209475950Y-170529382D01*
X209641611Y-170255974D01*
X209805175Y-170059294D01*
X210038399Y-169854787D01*
X210296139Y-169699065D01*
X210573501Y-169594006D01*
X210865592Y-169541485D01*
X211153778Y-169542098D01*
G37*
X211153778Y-169542098D02*
X211447123Y-169593474D01*
X211710228Y-169691916D01*
X211941377Y-169836257D01*
X212138855Y-170025333D01*
X212300946Y-170257979D01*
X212352243Y-170356187D01*
X212429370Y-170534394D01*
X212484553Y-170708588D01*
X212520756Y-170893777D01*
X212540941Y-171104969D01*
X212548012Y-171347889D01*
X212550778Y-171743000D01*
X211090278Y-171750310D01*
X209629778Y-171757619D01*
X209629975Y-171877310D01*
X209636846Y-171962589D01*
X209654851Y-172079668D01*
X209680386Y-172205860D01*
X209685928Y-172229561D01*
X209782530Y-172528664D01*
X209918009Y-172791550D01*
X210088410Y-173015696D01*
X210289780Y-173198575D01*
X210518167Y-173337661D01*
X210769617Y-173430431D01*
X211040177Y-173474357D01*
X211325893Y-173466915D01*
X211555779Y-173424069D01*
X211775365Y-173353734D01*
X211984231Y-173260704D01*
X212150236Y-173161524D01*
X212204953Y-173126862D01*
X212235536Y-173114956D01*
X212236936Y-173115755D01*
X212269386Y-173166862D01*
X212310860Y-173240819D01*
X212351970Y-173319639D01*
X212383330Y-173385334D01*
X212395556Y-173419691D01*
X212370985Y-173446550D01*
X212304492Y-173488458D01*
X212206908Y-173540383D01*
X212089063Y-173597294D01*
X211961786Y-173654159D01*
X211835907Y-173705946D01*
X211722257Y-173747624D01*
X211633556Y-173773724D01*
X211496662Y-173795958D01*
X211325194Y-173809585D01*
X211136490Y-173814621D01*
X210947890Y-173811080D01*
X210776732Y-173798977D01*
X210640356Y-173778327D01*
X210617556Y-173772853D01*
X210337383Y-173671172D01*
X210074306Y-173521054D01*
X209837157Y-173329722D01*
X209634764Y-173104402D01*
X209475960Y-172852318D01*
X209464591Y-172829556D01*
X209336787Y-172511612D01*
X209253648Y-172177726D01*
X209214261Y-171835332D01*
X209217712Y-171491867D01*
X209236483Y-171352403D01*
X209629778Y-171352403D01*
X209629778Y-171418445D01*
X212169778Y-171418445D01*
X212169778Y-171239515D01*
X212155536Y-171061478D01*
X212116763Y-170860388D01*
X212059393Y-170660709D01*
X211989357Y-170486908D01*
X211985319Y-170478715D01*
X211856614Y-170280569D01*
X211690647Y-170120193D01*
X211494471Y-170000396D01*
X211275138Y-169923988D01*
X211039702Y-169893779D01*
X210795217Y-169912580D01*
X210651403Y-169947244D01*
X210418348Y-170047056D01*
X210204956Y-170197096D01*
X210015807Y-170393196D01*
X209855480Y-170631194D01*
X209814486Y-170708540D01*
X209769285Y-170813755D01*
X209723327Y-170945255D01*
X209681691Y-171085338D01*
X209649455Y-171216299D01*
X209631697Y-171320438D01*
X209629778Y-171352403D01*
X209236483Y-171352403D01*
X209263086Y-171154763D01*
X209349470Y-170831457D01*
X209475950Y-170529382D01*
X209641611Y-170255974D01*
X209805175Y-170059294D01*
X210038399Y-169854787D01*
X210296139Y-169699065D01*
X210573501Y-169594006D01*
X210865592Y-169541485D01*
X211153778Y-169542098D01*
G36*
X214060667Y-169640445D02*
G01*
X215246000Y-169640445D01*
X215246000Y-169979111D01*
X214060667Y-169979111D01*
X214060667Y-171427433D01*
X214060865Y-171772864D01*
X214061719Y-172066715D01*
X214063619Y-172313851D01*
X214066953Y-172519139D01*
X214072111Y-172687441D01*
X214079482Y-172823622D01*
X214089454Y-172932548D01*
X214102417Y-173019083D01*
X214118761Y-173088092D01*
X214138874Y-173144440D01*
X214163145Y-173192990D01*
X214191964Y-173238608D01*
X214207307Y-173260583D01*
X214308502Y-173356595D01*
X214448159Y-173423018D01*
X214615680Y-173458182D01*
X214800470Y-173460416D01*
X214991931Y-173428047D01*
X215085020Y-173399031D01*
X215183043Y-173367284D01*
X215238997Y-173359636D01*
X215260938Y-173373907D01*
X215308172Y-173509435D01*
X215335457Y-173600444D01*
X215344702Y-173654454D01*
X215338269Y-173678582D01*
X215302298Y-173695365D01*
X215226628Y-173721408D01*
X215126162Y-173751670D01*
X215103089Y-173758150D01*
X214903550Y-173798593D01*
X214690928Y-173816304D01*
X214484059Y-173811156D01*
X214301780Y-173783022D01*
X214236086Y-173763976D01*
X214053781Y-173672395D01*
X213904347Y-173535565D01*
X213788593Y-173354693D01*
X213707327Y-173130987D01*
X213666810Y-172914963D01*
X213660468Y-172834521D01*
X213654655Y-172703948D01*
X213649486Y-172529556D01*
X213645079Y-172317656D01*
X213641551Y-172074560D01*
X213639020Y-171806579D01*
X213637602Y-171520025D01*
X213637333Y-171327463D01*
X213637333Y-169979111D01*
X213016444Y-169979111D01*
X213016444Y-169674235D01*
X213659916Y-169634029D01*
X213700968Y-168455111D01*
X214060667Y-168455111D01*
X214060667Y-169640445D01*
G37*
X214060667Y-169640445D02*
X215246000Y-169640445D01*
X215246000Y-169979111D01*
X214060667Y-169979111D01*
X214060667Y-171427433D01*
X214060865Y-171772864D01*
X214061719Y-172066715D01*
X214063619Y-172313851D01*
X214066953Y-172519139D01*
X214072111Y-172687441D01*
X214079482Y-172823622D01*
X214089454Y-172932548D01*
X214102417Y-173019083D01*
X214118761Y-173088092D01*
X214138874Y-173144440D01*
X214163145Y-173192990D01*
X214191964Y-173238608D01*
X214207307Y-173260583D01*
X214308502Y-173356595D01*
X214448159Y-173423018D01*
X214615680Y-173458182D01*
X214800470Y-173460416D01*
X214991931Y-173428047D01*
X215085020Y-173399031D01*
X215183043Y-173367284D01*
X215238997Y-173359636D01*
X215260938Y-173373907D01*
X215308172Y-173509435D01*
X215335457Y-173600444D01*
X215344702Y-173654454D01*
X215338269Y-173678582D01*
X215302298Y-173695365D01*
X215226628Y-173721408D01*
X215126162Y-173751670D01*
X215103089Y-173758150D01*
X214903550Y-173798593D01*
X214690928Y-173816304D01*
X214484059Y-173811156D01*
X214301780Y-173783022D01*
X214236086Y-173763976D01*
X214053781Y-173672395D01*
X213904347Y-173535565D01*
X213788593Y-173354693D01*
X213707327Y-173130987D01*
X213666810Y-172914963D01*
X213660468Y-172834521D01*
X213654655Y-172703948D01*
X213649486Y-172529556D01*
X213645079Y-172317656D01*
X213641551Y-172074560D01*
X213639020Y-171806579D01*
X213637602Y-171520025D01*
X213637333Y-171327463D01*
X213637333Y-169979111D01*
X213016444Y-169979111D01*
X213016444Y-169674235D01*
X213659916Y-169634029D01*
X213700968Y-168455111D01*
X214060667Y-168455111D01*
X214060667Y-169640445D01*
G36*
X217679023Y-169539559D02*
G01*
X217978123Y-169586784D01*
X218242154Y-169678163D01*
X218471630Y-169814031D01*
X218667062Y-169994723D01*
X218828963Y-170220575D01*
X218888270Y-170331394D01*
X218961116Y-170490329D01*
X219015187Y-170636385D01*
X219053624Y-170783999D01*
X219079566Y-170947609D01*
X219096153Y-171141654D01*
X219104735Y-171326722D01*
X219120000Y-171757111D01*
X216169539Y-171757111D01*
X216187841Y-171935756D01*
X216243523Y-172254114D01*
X216340671Y-172544000D01*
X216476287Y-172801704D01*
X216647371Y-173023519D01*
X216850925Y-173205734D01*
X217083950Y-173344642D01*
X217343446Y-173436533D01*
X217414001Y-173452095D01*
X217669114Y-173476065D01*
X217939858Y-173455802D01*
X218211064Y-173394376D01*
X218467566Y-173294856D01*
X218626159Y-173206792D01*
X218705610Y-173157265D01*
X218764441Y-173122893D01*
X218787961Y-173111778D01*
X218807107Y-173134718D01*
X218840410Y-173192077D01*
X218879174Y-173266665D01*
X218914700Y-173341291D01*
X218938291Y-173398764D01*
X218943111Y-173418427D01*
X218918538Y-173446664D01*
X218852090Y-173489732D01*
X218754671Y-173542452D01*
X218637186Y-173599649D01*
X218510539Y-173656148D01*
X218385634Y-173706770D01*
X218273377Y-173746341D01*
X218219597Y-173761873D01*
X218060776Y-173791299D01*
X217869684Y-173809555D01*
X217664426Y-173816452D01*
X217463112Y-173811801D01*
X217283847Y-173795414D01*
X217165111Y-173772853D01*
X216886181Y-173671431D01*
X216623971Y-173521334D01*
X216387270Y-173329770D01*
X216184872Y-173103949D01*
X216025568Y-172851081D01*
X216014780Y-172829556D01*
X215887909Y-172511562D01*
X215804358Y-172167101D01*
X215766028Y-171808047D01*
X215774818Y-171446277D01*
X215777755Y-171418445D01*
X216170924Y-171418445D01*
X217458240Y-171418445D01*
X217721704Y-171417996D01*
X217967023Y-171416711D01*
X218188603Y-171414682D01*
X218380850Y-171412001D01*
X218538172Y-171408760D01*
X218654976Y-171405051D01*
X218725668Y-171400966D01*
X218745324Y-171397278D01*
X218742194Y-171361327D01*
X218734040Y-171283552D01*
X218722375Y-171178195D01*
X218717156Y-171132314D01*
X218661864Y-170823016D01*
X218572268Y-170556497D01*
X218449207Y-170333651D01*
X218293520Y-170155372D01*
X218106046Y-170022554D01*
X217887625Y-169936089D01*
X217639096Y-169896870D01*
X217554210Y-169894445D01*
X217296437Y-169921448D01*
X217055895Y-170001521D01*
X216835029Y-170133262D01*
X216636286Y-170315267D01*
X216488175Y-170506045D01*
X216366885Y-170722830D01*
X216268255Y-170969441D01*
X216201863Y-171220794D01*
X216190980Y-171284389D01*
X216170924Y-171418445D01*
X215777755Y-171418445D01*
X215782239Y-171375971D01*
X215843263Y-171028376D01*
X215940186Y-170719902D01*
X216076115Y-170443731D01*
X216254154Y-170193043D01*
X216387444Y-170047026D01*
X216628281Y-169840478D01*
X216886710Y-169686152D01*
X217160320Y-169584992D01*
X217446701Y-169537948D01*
X217679023Y-169539559D01*
G37*
X217679023Y-169539559D02*
X217978123Y-169586784D01*
X218242154Y-169678163D01*
X218471630Y-169814031D01*
X218667062Y-169994723D01*
X218828963Y-170220575D01*
X218888270Y-170331394D01*
X218961116Y-170490329D01*
X219015187Y-170636385D01*
X219053624Y-170783999D01*
X219079566Y-170947609D01*
X219096153Y-171141654D01*
X219104735Y-171326722D01*
X219120000Y-171757111D01*
X216169539Y-171757111D01*
X216187841Y-171935756D01*
X216243523Y-172254114D01*
X216340671Y-172544000D01*
X216476287Y-172801704D01*
X216647371Y-173023519D01*
X216850925Y-173205734D01*
X217083950Y-173344642D01*
X217343446Y-173436533D01*
X217414001Y-173452095D01*
X217669114Y-173476065D01*
X217939858Y-173455802D01*
X218211064Y-173394376D01*
X218467566Y-173294856D01*
X218626159Y-173206792D01*
X218705610Y-173157265D01*
X218764441Y-173122893D01*
X218787961Y-173111778D01*
X218807107Y-173134718D01*
X218840410Y-173192077D01*
X218879174Y-173266665D01*
X218914700Y-173341291D01*
X218938291Y-173398764D01*
X218943111Y-173418427D01*
X218918538Y-173446664D01*
X218852090Y-173489732D01*
X218754671Y-173542452D01*
X218637186Y-173599649D01*
X218510539Y-173656148D01*
X218385634Y-173706770D01*
X218273377Y-173746341D01*
X218219597Y-173761873D01*
X218060776Y-173791299D01*
X217869684Y-173809555D01*
X217664426Y-173816452D01*
X217463112Y-173811801D01*
X217283847Y-173795414D01*
X217165111Y-173772853D01*
X216886181Y-173671431D01*
X216623971Y-173521334D01*
X216387270Y-173329770D01*
X216184872Y-173103949D01*
X216025568Y-172851081D01*
X216014780Y-172829556D01*
X215887909Y-172511562D01*
X215804358Y-172167101D01*
X215766028Y-171808047D01*
X215774818Y-171446277D01*
X215777755Y-171418445D01*
X216170924Y-171418445D01*
X217458240Y-171418445D01*
X217721704Y-171417996D01*
X217967023Y-171416711D01*
X218188603Y-171414682D01*
X218380850Y-171412001D01*
X218538172Y-171408760D01*
X218654976Y-171405051D01*
X218725668Y-171400966D01*
X218745324Y-171397278D01*
X218742194Y-171361327D01*
X218734040Y-171283552D01*
X218722375Y-171178195D01*
X218717156Y-171132314D01*
X218661864Y-170823016D01*
X218572268Y-170556497D01*
X218449207Y-170333651D01*
X218293520Y-170155372D01*
X218106046Y-170022554D01*
X217887625Y-169936089D01*
X217639096Y-169896870D01*
X217554210Y-169894445D01*
X217296437Y-169921448D01*
X217055895Y-170001521D01*
X216835029Y-170133262D01*
X216636286Y-170315267D01*
X216488175Y-170506045D01*
X216366885Y-170722830D01*
X216268255Y-170969441D01*
X216201863Y-171220794D01*
X216190980Y-171284389D01*
X216170924Y-171418445D01*
X215777755Y-171418445D01*
X215782239Y-171375971D01*
X215843263Y-171028376D01*
X215940186Y-170719902D01*
X216076115Y-170443731D01*
X216254154Y-170193043D01*
X216387444Y-170047026D01*
X216628281Y-169840478D01*
X216886710Y-169686152D01*
X217160320Y-169584992D01*
X217446701Y-169537948D01*
X217679023Y-169539559D01*
G36*
X224019919Y-169543875D02*
G01*
X224286121Y-169583324D01*
X224547145Y-169660975D01*
X224795583Y-169777750D01*
X224827444Y-169796377D01*
X224942645Y-169866455D01*
X225013987Y-169917425D01*
X225045809Y-169959558D01*
X225042451Y-170003125D01*
X225008250Y-170058395D01*
X224962704Y-170116551D01*
X224850039Y-170258051D01*
X224700091Y-170157070D01*
X224586378Y-170087924D01*
X224455728Y-170019020D01*
X224378349Y-169983394D01*
X224294065Y-169950632D01*
X224216001Y-169929279D01*
X224127933Y-169916925D01*
X224013637Y-169911157D01*
X223882000Y-169909627D01*
X223733145Y-169910597D01*
X223625470Y-169916081D01*
X223543761Y-169928210D01*
X223472802Y-169949114D01*
X223408214Y-169975988D01*
X223249858Y-170073176D01*
X223123880Y-170201785D01*
X223034431Y-170352123D01*
X222985659Y-170514502D01*
X222981714Y-170679231D01*
X223026744Y-170836619D01*
X223033671Y-170850741D01*
X223084670Y-170935956D01*
X223149256Y-171012633D01*
X223233722Y-171084612D01*
X223344363Y-171155728D01*
X223487472Y-171229821D01*
X223669343Y-171310726D01*
X223896270Y-171402283D01*
X224010458Y-171446337D01*
X224175755Y-171511282D01*
X224339841Y-171578946D01*
X224487765Y-171642949D01*
X224604580Y-171696911D01*
X224644122Y-171716799D01*
X224809557Y-171821822D01*
X224960555Y-171951426D01*
X225085323Y-172093398D01*
X225172071Y-172235522D01*
X225191528Y-172283804D01*
X225249427Y-172533151D01*
X225253907Y-172775206D01*
X225207956Y-173004698D01*
X225114562Y-173216354D01*
X224976714Y-173404906D01*
X224797401Y-173565082D01*
X224579611Y-173691611D01*
X224346494Y-173774120D01*
X224191263Y-173801354D01*
X224000140Y-173814993D01*
X223791947Y-173815313D01*
X223585506Y-173802594D01*
X223399638Y-173777111D01*
X223317556Y-173758957D01*
X223179719Y-173716712D01*
X223026641Y-173660395D01*
X222899462Y-173605818D01*
X222797221Y-173553386D01*
X222685646Y-173489863D01*
X222575577Y-173422263D01*
X222477857Y-173357602D01*
X222403328Y-173302894D01*
X222362830Y-173265155D01*
X222358580Y-173255855D01*
X222376101Y-173227456D01*
X222421364Y-173169801D01*
X222481506Y-173098923D01*
X222603850Y-172959069D01*
X222784314Y-173093520D01*
X223057492Y-173268784D01*
X223335083Y-173389297D01*
X223622407Y-173456745D01*
X223924783Y-173472813D01*
X223974483Y-173470752D01*
X224115463Y-173459419D01*
X224223997Y-173439359D01*
X224324002Y-173404856D01*
X224403280Y-173368293D01*
X224577131Y-173255995D01*
X224709598Y-173114731D01*
X224797801Y-172952044D01*
X224838860Y-172775477D01*
X224829897Y-172592572D01*
X224768453Y-172411719D01*
X224712668Y-172315980D01*
X224642791Y-172230060D01*
X224552636Y-172150070D01*
X224436017Y-172072125D01*
X224286748Y-171992335D01*
X224098645Y-171906814D01*
X223865521Y-171811674D01*
X223730564Y-171759443D01*
X223503171Y-171670179D01*
X223320429Y-171592257D01*
X223172931Y-171520779D01*
X223051271Y-171450848D01*
X222946042Y-171377564D01*
X222858103Y-171305129D01*
X222719676Y-171147353D01*
X222624370Y-170961240D01*
X222573137Y-170755974D01*
X222566930Y-170540741D01*
X222606700Y-170324723D01*
X222693401Y-170117105D01*
X222728760Y-170057745D01*
X222870482Y-169887359D01*
X223051468Y-169749640D01*
X223264313Y-169645509D01*
X223501607Y-169575889D01*
X223755945Y-169541704D01*
X224019919Y-169543875D01*
G37*
X224019919Y-169543875D02*
X224286121Y-169583324D01*
X224547145Y-169660975D01*
X224795583Y-169777750D01*
X224827444Y-169796377D01*
X224942645Y-169866455D01*
X225013987Y-169917425D01*
X225045809Y-169959558D01*
X225042451Y-170003125D01*
X225008250Y-170058395D01*
X224962704Y-170116551D01*
X224850039Y-170258051D01*
X224700091Y-170157070D01*
X224586378Y-170087924D01*
X224455728Y-170019020D01*
X224378349Y-169983394D01*
X224294065Y-169950632D01*
X224216001Y-169929279D01*
X224127933Y-169916925D01*
X224013637Y-169911157D01*
X223882000Y-169909627D01*
X223733145Y-169910597D01*
X223625470Y-169916081D01*
X223543761Y-169928210D01*
X223472802Y-169949114D01*
X223408214Y-169975988D01*
X223249858Y-170073176D01*
X223123880Y-170201785D01*
X223034431Y-170352123D01*
X222985659Y-170514502D01*
X222981714Y-170679231D01*
X223026744Y-170836619D01*
X223033671Y-170850741D01*
X223084670Y-170935956D01*
X223149256Y-171012633D01*
X223233722Y-171084612D01*
X223344363Y-171155728D01*
X223487472Y-171229821D01*
X223669343Y-171310726D01*
X223896270Y-171402283D01*
X224010458Y-171446337D01*
X224175755Y-171511282D01*
X224339841Y-171578946D01*
X224487765Y-171642949D01*
X224604580Y-171696911D01*
X224644122Y-171716799D01*
X224809557Y-171821822D01*
X224960555Y-171951426D01*
X225085323Y-172093398D01*
X225172071Y-172235522D01*
X225191528Y-172283804D01*
X225249427Y-172533151D01*
X225253907Y-172775206D01*
X225207956Y-173004698D01*
X225114562Y-173216354D01*
X224976714Y-173404906D01*
X224797401Y-173565082D01*
X224579611Y-173691611D01*
X224346494Y-173774120D01*
X224191263Y-173801354D01*
X224000140Y-173814993D01*
X223791947Y-173815313D01*
X223585506Y-173802594D01*
X223399638Y-173777111D01*
X223317556Y-173758957D01*
X223179719Y-173716712D01*
X223026641Y-173660395D01*
X222899462Y-173605818D01*
X222797221Y-173553386D01*
X222685646Y-173489863D01*
X222575577Y-173422263D01*
X222477857Y-173357602D01*
X222403328Y-173302894D01*
X222362830Y-173265155D01*
X222358580Y-173255855D01*
X222376101Y-173227456D01*
X222421364Y-173169801D01*
X222481506Y-173098923D01*
X222603850Y-172959069D01*
X222784314Y-173093520D01*
X223057492Y-173268784D01*
X223335083Y-173389297D01*
X223622407Y-173456745D01*
X223924783Y-173472813D01*
X223974483Y-173470752D01*
X224115463Y-173459419D01*
X224223997Y-173439359D01*
X224324002Y-173404856D01*
X224403280Y-173368293D01*
X224577131Y-173255995D01*
X224709598Y-173114731D01*
X224797801Y-172952044D01*
X224838860Y-172775477D01*
X224829897Y-172592572D01*
X224768453Y-172411719D01*
X224712668Y-172315980D01*
X224642791Y-172230060D01*
X224552636Y-172150070D01*
X224436017Y-172072125D01*
X224286748Y-171992335D01*
X224098645Y-171906814D01*
X223865521Y-171811674D01*
X223730564Y-171759443D01*
X223503171Y-171670179D01*
X223320429Y-171592257D01*
X223172931Y-171520779D01*
X223051271Y-171450848D01*
X222946042Y-171377564D01*
X222858103Y-171305129D01*
X222719676Y-171147353D01*
X222624370Y-170961240D01*
X222573137Y-170755974D01*
X222566930Y-170540741D01*
X222606700Y-170324723D01*
X222693401Y-170117105D01*
X222728760Y-170057745D01*
X222870482Y-169887359D01*
X223051468Y-169749640D01*
X223264313Y-169645509D01*
X223501607Y-169575889D01*
X223755945Y-169541704D01*
X224019919Y-169543875D01*
G36*
X196958000Y-173732667D02*
G01*
X195688000Y-173732667D01*
X195688000Y-169499333D01*
X196958000Y-169499333D01*
X196958000Y-173732667D01*
G37*
X196958000Y-173732667D02*
X195688000Y-173732667D01*
X195688000Y-169499333D01*
X196958000Y-169499333D01*
X196958000Y-173732667D01*
G36*
X203992389Y-168124171D02*
G01*
X204266481Y-168128269D01*
X204491195Y-168132582D01*
X204673598Y-168137509D01*
X204820757Y-168143446D01*
X204939737Y-168150793D01*
X205037606Y-168159946D01*
X205121430Y-168171303D01*
X205198275Y-168185261D01*
X205241222Y-168194435D01*
X205544517Y-168281319D01*
X205800698Y-168397184D01*
X206012264Y-168544094D01*
X206181712Y-168724112D01*
X206311542Y-168939302D01*
X206390105Y-169143168D01*
X206424710Y-169300288D01*
X206446535Y-169492540D01*
X206455062Y-169699962D01*
X206449774Y-169902590D01*
X206430153Y-170080460D01*
X206416178Y-170148445D01*
X206322002Y-170420823D01*
X206184325Y-170660540D01*
X206006067Y-170863898D01*
X205790145Y-171027196D01*
X205672761Y-171090851D01*
X205520684Y-171158537D01*
X205369589Y-171212987D01*
X205211075Y-171255478D01*
X205036741Y-171287285D01*
X204838188Y-171309684D01*
X204607015Y-171323952D01*
X204334821Y-171331364D01*
X204077056Y-171333219D01*
X203420889Y-171333778D01*
X203420889Y-173732667D01*
X202997556Y-173732667D01*
X202997556Y-170966889D01*
X203420889Y-170966889D01*
X204066303Y-170966889D01*
X204344560Y-170964879D01*
X204572956Y-170958642D01*
X204757940Y-170947866D01*
X204905958Y-170932238D01*
X204962359Y-170923517D01*
X205245264Y-170853645D01*
X205483741Y-170749220D01*
X205678565Y-170609490D01*
X205830509Y-170433707D01*
X205940349Y-170221121D01*
X206008858Y-169970982D01*
X206020009Y-169899606D01*
X206033436Y-169657318D01*
X206010388Y-169422329D01*
X205953822Y-169204641D01*
X205866696Y-169014252D01*
X205751967Y-168861164D01*
X205698428Y-168812141D01*
X205585998Y-168728648D01*
X205474703Y-168665380D01*
X205345625Y-168613286D01*
X205179844Y-168563317D01*
X205176077Y-168562292D01*
X205102755Y-168544031D01*
X205027024Y-168529550D01*
X204940607Y-168518244D01*
X204835229Y-168509510D01*
X204702614Y-168502744D01*
X204534484Y-168497342D01*
X204322564Y-168492701D01*
X204189944Y-168490348D01*
X203420889Y-168477406D01*
X203420889Y-170966889D01*
X202997556Y-170966889D01*
X202997556Y-168110555D01*
X203992389Y-168124171D01*
G37*
X203992389Y-168124171D02*
X204266481Y-168128269D01*
X204491195Y-168132582D01*
X204673598Y-168137509D01*
X204820757Y-168143446D01*
X204939737Y-168150793D01*
X205037606Y-168159946D01*
X205121430Y-168171303D01*
X205198275Y-168185261D01*
X205241222Y-168194435D01*
X205544517Y-168281319D01*
X205800698Y-168397184D01*
X206012264Y-168544094D01*
X206181712Y-168724112D01*
X206311542Y-168939302D01*
X206390105Y-169143168D01*
X206424710Y-169300288D01*
X206446535Y-169492540D01*
X206455062Y-169699962D01*
X206449774Y-169902590D01*
X206430153Y-170080460D01*
X206416178Y-170148445D01*
X206322002Y-170420823D01*
X206184325Y-170660540D01*
X206006067Y-170863898D01*
X205790145Y-171027196D01*
X205672761Y-171090851D01*
X205520684Y-171158537D01*
X205369589Y-171212987D01*
X205211075Y-171255478D01*
X205036741Y-171287285D01*
X204838188Y-171309684D01*
X204607015Y-171323952D01*
X204334821Y-171331364D01*
X204077056Y-171333219D01*
X203420889Y-171333778D01*
X203420889Y-173732667D01*
X202997556Y-173732667D01*
X202997556Y-170966889D01*
X203420889Y-170966889D01*
X204066303Y-170966889D01*
X204344560Y-170964879D01*
X204572956Y-170958642D01*
X204757940Y-170947866D01*
X204905958Y-170932238D01*
X204962359Y-170923517D01*
X205245264Y-170853645D01*
X205483741Y-170749220D01*
X205678565Y-170609490D01*
X205830509Y-170433707D01*
X205940349Y-170221121D01*
X206008858Y-169970982D01*
X206020009Y-169899606D01*
X206033436Y-169657318D01*
X206010388Y-169422329D01*
X205953822Y-169204641D01*
X205866696Y-169014252D01*
X205751967Y-168861164D01*
X205698428Y-168812141D01*
X205585998Y-168728648D01*
X205474703Y-168665380D01*
X205345625Y-168613286D01*
X205179844Y-168563317D01*
X205176077Y-168562292D01*
X205102755Y-168544031D01*
X205027024Y-168529550D01*
X204940607Y-168518244D01*
X204835229Y-168509510D01*
X204702614Y-168502744D01*
X204534484Y-168497342D01*
X204322564Y-168492701D01*
X204189944Y-168490348D01*
X203420889Y-168477406D01*
X203420889Y-170966889D01*
X202997556Y-170966889D01*
X202997556Y-168110555D01*
X203992389Y-168124171D01*
G36*
X208021111Y-173732667D02*
G01*
X207597778Y-173732667D01*
X207597778Y-169640445D01*
X208021111Y-169640445D01*
X208021111Y-173732667D01*
G37*
X208021111Y-173732667D02*
X207597778Y-173732667D01*
X207597778Y-169640445D01*
X208021111Y-169640445D01*
X208021111Y-173732667D01*
G36*
X221881457Y-169547731D02*
G01*
X222001894Y-169562449D01*
X222070715Y-169581221D01*
X222115685Y-169600736D01*
X222141807Y-169621023D01*
X222150286Y-169653981D01*
X222142329Y-169711513D01*
X222119140Y-169805519D01*
X222100592Y-169876087D01*
X222077856Y-169945275D01*
X222051298Y-169970957D01*
X222010433Y-169965994D01*
X221950301Y-169953853D01*
X221856018Y-169941146D01*
X221765333Y-169932164D01*
X221559002Y-169942789D01*
X221359611Y-170007866D01*
X221169433Y-170125594D01*
X220990740Y-170294175D01*
X220825801Y-170511809D01*
X220676890Y-170776697D01*
X220663154Y-170805323D01*
X220580044Y-170981000D01*
X220580022Y-172356833D01*
X220580000Y-173732667D01*
X220184889Y-173732667D01*
X220184889Y-169640445D01*
X220551778Y-169640445D01*
X220551778Y-169862283D01*
X220554163Y-169990181D01*
X220560427Y-170115354D01*
X220569237Y-170211452D01*
X220569606Y-170214194D01*
X220587434Y-170344266D01*
X220722342Y-170152164D01*
X220900913Y-169932621D01*
X221097159Y-169760704D01*
X221308026Y-169634224D01*
X221408224Y-169588280D01*
X221492719Y-169561010D01*
X221584049Y-169547586D01*
X221704750Y-169543177D01*
X221733958Y-169542954D01*
X221881457Y-169547731D01*
G37*
X221881457Y-169547731D02*
X222001894Y-169562449D01*
X222070715Y-169581221D01*
X222115685Y-169600736D01*
X222141807Y-169621023D01*
X222150286Y-169653981D01*
X222142329Y-169711513D01*
X222119140Y-169805519D01*
X222100592Y-169876087D01*
X222077856Y-169945275D01*
X222051298Y-169970957D01*
X222010433Y-169965994D01*
X221950301Y-169953853D01*
X221856018Y-169941146D01*
X221765333Y-169932164D01*
X221559002Y-169942789D01*
X221359611Y-170007866D01*
X221169433Y-170125594D01*
X220990740Y-170294175D01*
X220825801Y-170511809D01*
X220676890Y-170776697D01*
X220663154Y-170805323D01*
X220580044Y-170981000D01*
X220580022Y-172356833D01*
X220580000Y-173732667D01*
X220184889Y-173732667D01*
X220184889Y-169640445D01*
X220551778Y-169640445D01*
X220551778Y-169862283D01*
X220554163Y-169990181D01*
X220560427Y-170115354D01*
X220569237Y-170211452D01*
X220569606Y-170214194D01*
X220587434Y-170344266D01*
X220722342Y-170152164D01*
X220900913Y-169932621D01*
X221097159Y-169760704D01*
X221308026Y-169634224D01*
X221408224Y-169588280D01*
X221492719Y-169561010D01*
X221584049Y-169547586D01*
X221704750Y-169543177D01*
X221733958Y-169542954D01*
X221881457Y-169547731D01*
G36*
X226780279Y-167384251D02*
G01*
X226922104Y-167420340D01*
X227082268Y-167500960D01*
X227234360Y-167623300D01*
X227362840Y-167773131D01*
X227429523Y-167884949D01*
X227465907Y-167964514D01*
X227489093Y-168035420D01*
X227501989Y-168114487D01*
X227507502Y-168218536D01*
X227508556Y-168342222D01*
X227506905Y-168483606D01*
X227500090Y-168585611D01*
X227485319Y-168665253D01*
X227459800Y-168739548D01*
X227433728Y-168798163D01*
X227320427Y-168979843D01*
X227168416Y-169134471D01*
X226993111Y-169247130D01*
X226842940Y-169296692D01*
X226663793Y-169321882D01*
X226477962Y-169321942D01*
X226307738Y-169296117D01*
X226234507Y-169272890D01*
X226043854Y-169167698D01*
X225880680Y-169016619D01*
X225752071Y-168826396D01*
X225739564Y-168801802D01*
X225694573Y-168704991D01*
X225667291Y-168625238D01*
X225653452Y-168541767D01*
X225648788Y-168433802D01*
X225648580Y-168358788D01*
X225650600Y-168336733D01*
X225870690Y-168336733D01*
X225890508Y-168538956D01*
X225957117Y-168723978D01*
X226072027Y-168895187D01*
X226215446Y-169018324D01*
X226385692Y-169092307D01*
X226502103Y-169119856D01*
X226592246Y-169127833D01*
X226682900Y-169115951D01*
X226787233Y-169087988D01*
X226953784Y-169010647D01*
X227092554Y-168890912D01*
X227199120Y-168737776D01*
X227269055Y-168560231D01*
X227297937Y-168367270D01*
X227281340Y-168167884D01*
X227267749Y-168111440D01*
X227193464Y-167935809D01*
X227082441Y-167792376D01*
X226943345Y-167683574D01*
X226784841Y-167611834D01*
X226615594Y-167579590D01*
X226444270Y-167589272D01*
X226279534Y-167643314D01*
X226130052Y-167744147D01*
X226091834Y-167781387D01*
X225973088Y-167945808D01*
X225898795Y-168134970D01*
X225870690Y-168336733D01*
X225650600Y-168336733D01*
X225671813Y-168105138D01*
X225739691Y-167886003D01*
X225852195Y-167701409D01*
X226009312Y-167551382D01*
X226190004Y-167445401D01*
X226370370Y-167388585D01*
X226574002Y-167367966D01*
X226780279Y-167384251D01*
G37*
X226780279Y-167384251D02*
X226922104Y-167420340D01*
X227082268Y-167500960D01*
X227234360Y-167623300D01*
X227362840Y-167773131D01*
X227429523Y-167884949D01*
X227465907Y-167964514D01*
X227489093Y-168035420D01*
X227501989Y-168114487D01*
X227507502Y-168218536D01*
X227508556Y-168342222D01*
X227506905Y-168483606D01*
X227500090Y-168585611D01*
X227485319Y-168665253D01*
X227459800Y-168739548D01*
X227433728Y-168798163D01*
X227320427Y-168979843D01*
X227168416Y-169134471D01*
X226993111Y-169247130D01*
X226842940Y-169296692D01*
X226663793Y-169321882D01*
X226477962Y-169321942D01*
X226307738Y-169296117D01*
X226234507Y-169272890D01*
X226043854Y-169167698D01*
X225880680Y-169016619D01*
X225752071Y-168826396D01*
X225739564Y-168801802D01*
X225694573Y-168704991D01*
X225667291Y-168625238D01*
X225653452Y-168541767D01*
X225648788Y-168433802D01*
X225648580Y-168358788D01*
X225650600Y-168336733D01*
X225870690Y-168336733D01*
X225890508Y-168538956D01*
X225957117Y-168723978D01*
X226072027Y-168895187D01*
X226215446Y-169018324D01*
X226385692Y-169092307D01*
X226502103Y-169119856D01*
X226592246Y-169127833D01*
X226682900Y-169115951D01*
X226787233Y-169087988D01*
X226953784Y-169010647D01*
X227092554Y-168890912D01*
X227199120Y-168737776D01*
X227269055Y-168560231D01*
X227297937Y-168367270D01*
X227281340Y-168167884D01*
X227267749Y-168111440D01*
X227193464Y-167935809D01*
X227082441Y-167792376D01*
X226943345Y-167683574D01*
X226784841Y-167611834D01*
X226615594Y-167579590D01*
X226444270Y-167589272D01*
X226279534Y-167643314D01*
X226130052Y-167744147D01*
X226091834Y-167781387D01*
X225973088Y-167945808D01*
X225898795Y-168134970D01*
X225870690Y-168336733D01*
X225650600Y-168336733D01*
X225671813Y-168105138D01*
X225739691Y-167886003D01*
X225852195Y-167701409D01*
X226009312Y-167551382D01*
X226190004Y-167445401D01*
X226370370Y-167388585D01*
X226574002Y-167367966D01*
X226780279Y-167384251D01*
G36*
X196450051Y-167597902D02*
G01*
X196541903Y-167609132D01*
X196623620Y-167634528D01*
X196718271Y-167678975D01*
X196719166Y-167679432D01*
X196873668Y-167780873D01*
X196978704Y-167904861D01*
X197038157Y-168057870D01*
X197055940Y-168241231D01*
X197033536Y-168440298D01*
X196967347Y-168604036D01*
X196856172Y-168734165D01*
X196698806Y-168832406D01*
X196620903Y-168863780D01*
X196510120Y-168889056D01*
X196371456Y-168901914D01*
X196229884Y-168901586D01*
X196110380Y-168887306D01*
X196082928Y-168880298D01*
X195899975Y-168798945D01*
X195758343Y-168680666D01*
X195660821Y-168529161D01*
X195610197Y-168348136D01*
X195603333Y-168243445D01*
X195627685Y-168050357D01*
X195700156Y-167886467D01*
X195819873Y-167753187D01*
X195962991Y-167662643D01*
X196056040Y-167625374D01*
X196156239Y-167604656D01*
X196285243Y-167596499D01*
X196324995Y-167595952D01*
X196450051Y-167597902D01*
G37*
X196450051Y-167597902D02*
X196541903Y-167609132D01*
X196623620Y-167634528D01*
X196718271Y-167678975D01*
X196719166Y-167679432D01*
X196873668Y-167780873D01*
X196978704Y-167904861D01*
X197038157Y-168057870D01*
X197055940Y-168241231D01*
X197033536Y-168440298D01*
X196967347Y-168604036D01*
X196856172Y-168734165D01*
X196698806Y-168832406D01*
X196620903Y-168863780D01*
X196510120Y-168889056D01*
X196371456Y-168901914D01*
X196229884Y-168901586D01*
X196110380Y-168887306D01*
X196082928Y-168880298D01*
X195899975Y-168798945D01*
X195758343Y-168680666D01*
X195660821Y-168529161D01*
X195610197Y-168348136D01*
X195603333Y-168243445D01*
X195627685Y-168050357D01*
X195700156Y-167886467D01*
X195819873Y-167753187D01*
X195962991Y-167662643D01*
X196056040Y-167625374D01*
X196156239Y-167604656D01*
X196285243Y-167596499D01*
X196324995Y-167595952D01*
X196450051Y-167597902D01*
G36*
X207930676Y-168001627D02*
G01*
X208047523Y-168058632D01*
X208123803Y-168154798D01*
X208159334Y-168289853D01*
X208162117Y-168348833D01*
X208139981Y-168486095D01*
X208074820Y-168587255D01*
X207968866Y-168649903D01*
X207864213Y-168670149D01*
X207770099Y-168671320D01*
X207691941Y-168662538D01*
X207668333Y-168655498D01*
X207559835Y-168579242D01*
X207493469Y-168467524D01*
X207472837Y-168344263D01*
X207494681Y-168203252D01*
X207559480Y-168092569D01*
X207659281Y-168018165D01*
X207786128Y-167985993D01*
X207930676Y-168001627D01*
G37*
X207930676Y-168001627D02*
X208047523Y-168058632D01*
X208123803Y-168154798D01*
X208159334Y-168289853D01*
X208162117Y-168348833D01*
X208139981Y-168486095D01*
X208074820Y-168587255D01*
X207968866Y-168649903D01*
X207864213Y-168670149D01*
X207770099Y-168671320D01*
X207691941Y-168662538D01*
X207668333Y-168655498D01*
X207559835Y-168579242D01*
X207493469Y-168467524D01*
X207472837Y-168344263D01*
X207494681Y-168203252D01*
X207559480Y-168092569D01*
X207659281Y-168018165D01*
X207786128Y-167985993D01*
X207930676Y-168001627D01*
G36*
X226537390Y-167838781D02*
G01*
X226674658Y-167843623D01*
X226767521Y-167850039D01*
X226828007Y-167860827D01*
X226868141Y-167878790D01*
X226899951Y-167906729D01*
X226918390Y-167927518D01*
X226974731Y-168033033D01*
X226990008Y-168157469D01*
X226964442Y-168281254D01*
X226913428Y-168368222D01*
X226840412Y-168454997D01*
X226941650Y-168636029D01*
X226990827Y-168726067D01*
X227026822Y-168795976D01*
X227042671Y-168832162D01*
X227042889Y-168833641D01*
X227017650Y-168843546D01*
X226953820Y-168849474D01*
X226916295Y-168850222D01*
X226848181Y-168848315D01*
X226803655Y-168835107D01*
X226768653Y-168799369D01*
X226729113Y-168729873D01*
X226704222Y-168680889D01*
X226655106Y-168589218D01*
X226616968Y-168538017D01*
X226578426Y-168515929D01*
X226534483Y-168511556D01*
X226487841Y-168513803D01*
X226462667Y-168529416D01*
X226452339Y-168571697D01*
X226450238Y-168653950D01*
X226450222Y-168680889D01*
X226450222Y-168850222D01*
X226224444Y-168850222D01*
X226224444Y-168158778D01*
X226450222Y-168158778D01*
X226450222Y-168314000D01*
X226549000Y-168314000D01*
X226649507Y-168293669D01*
X226704222Y-168257556D01*
X226754639Y-168182323D01*
X226750209Y-168115637D01*
X226692314Y-168061113D01*
X226617758Y-168031262D01*
X226526596Y-168008416D01*
X226476435Y-168012459D01*
X226455063Y-168052684D01*
X226450267Y-168138386D01*
X226450222Y-168158778D01*
X226224444Y-168158778D01*
X226224444Y-167829228D01*
X226537390Y-167838781D01*
G37*
X226537390Y-167838781D02*
X226674658Y-167843623D01*
X226767521Y-167850039D01*
X226828007Y-167860827D01*
X226868141Y-167878790D01*
X226899951Y-167906729D01*
X226918390Y-167927518D01*
X226974731Y-168033033D01*
X226990008Y-168157469D01*
X226964442Y-168281254D01*
X226913428Y-168368222D01*
X226840412Y-168454997D01*
X226941650Y-168636029D01*
X226990827Y-168726067D01*
X227026822Y-168795976D01*
X227042671Y-168832162D01*
X227042889Y-168833641D01*
X227017650Y-168843546D01*
X226953820Y-168849474D01*
X226916295Y-168850222D01*
X226848181Y-168848315D01*
X226803655Y-168835107D01*
X226768653Y-168799369D01*
X226729113Y-168729873D01*
X226704222Y-168680889D01*
X226655106Y-168589218D01*
X226616968Y-168538017D01*
X226578426Y-168515929D01*
X226534483Y-168511556D01*
X226487841Y-168513803D01*
X226462667Y-168529416D01*
X226452339Y-168571697D01*
X226450238Y-168653950D01*
X226450222Y-168680889D01*
X226450222Y-168850222D01*
X226224444Y-168850222D01*
X226224444Y-168158778D01*
X226450222Y-168158778D01*
X226450222Y-168314000D01*
X226549000Y-168314000D01*
X226649507Y-168293669D01*
X226704222Y-168257556D01*
X226754639Y-168182323D01*
X226750209Y-168115637D01*
X226692314Y-168061113D01*
X226617758Y-168031262D01*
X226526596Y-168008416D01*
X226476435Y-168012459D01*
X226455063Y-168052684D01*
X226450267Y-168138386D01*
X226450222Y-168158778D01*
X226224444Y-168158778D01*
X226224444Y-167829228D01*
X226537390Y-167838781D01*
D10*
X196752380Y-47632857D02*
X196276190Y-47966190D01*
X196752380Y-48204285D02*
X195752380Y-48204285D01*
X195752380Y-47823333D01*
X195800000Y-47728095D01*
X195847619Y-47680476D01*
X195942857Y-47632857D01*
X196085714Y-47632857D01*
X196180952Y-47680476D01*
X196228571Y-47728095D01*
X196276190Y-47823333D01*
X196276190Y-48204285D01*
X196752380Y-46680476D02*
X196752380Y-47251904D01*
X196752380Y-46966190D02*
X195752380Y-46966190D01*
X195895238Y-47061428D01*
X195990476Y-47156666D01*
X196038095Y-47251904D01*
X195752380Y-46061428D02*
X195752380Y-45966190D01*
X195800000Y-45870952D01*
X195847619Y-45823333D01*
X195942857Y-45775714D01*
X196133333Y-45728095D01*
X196371428Y-45728095D01*
X196561904Y-45775714D01*
X196657142Y-45823333D01*
X196704761Y-45870952D01*
X196752380Y-45966190D01*
X196752380Y-46061428D01*
X196704761Y-46156666D01*
X196657142Y-46204285D01*
X196561904Y-46251904D01*
X196371428Y-46299523D01*
X196133333Y-46299523D01*
X195942857Y-46251904D01*
X195847619Y-46204285D01*
X195800000Y-46156666D01*
X195752380Y-46061428D01*
X234852380Y-47156666D02*
X234376190Y-47490000D01*
X234852380Y-47728095D02*
X233852380Y-47728095D01*
X233852380Y-47347142D01*
X233900000Y-47251904D01*
X233947619Y-47204285D01*
X234042857Y-47156666D01*
X234185714Y-47156666D01*
X234280952Y-47204285D01*
X234328571Y-47251904D01*
X234376190Y-47347142D01*
X234376190Y-47728095D01*
X234852380Y-46680476D02*
X234852380Y-46490000D01*
X234804761Y-46394761D01*
X234757142Y-46347142D01*
X234614285Y-46251904D01*
X234423809Y-46204285D01*
X234042857Y-46204285D01*
X233947619Y-46251904D01*
X233900000Y-46299523D01*
X233852380Y-46394761D01*
X233852380Y-46585238D01*
X233900000Y-46680476D01*
X233947619Y-46728095D01*
X234042857Y-46775714D01*
X234280952Y-46775714D01*
X234376190Y-46728095D01*
X234423809Y-46680476D01*
X234471428Y-46585238D01*
X234471428Y-46394761D01*
X234423809Y-46299523D01*
X234376190Y-46251904D01*
X234280952Y-46204285D01*
X251293333Y-46722380D02*
X250960000Y-46246190D01*
X250721904Y-46722380D02*
X250721904Y-45722380D01*
X251102857Y-45722380D01*
X251198095Y-45770000D01*
X251245714Y-45817619D01*
X251293333Y-45912857D01*
X251293333Y-46055714D01*
X251245714Y-46150952D01*
X251198095Y-46198571D01*
X251102857Y-46246190D01*
X250721904Y-46246190D01*
X251864761Y-46150952D02*
X251769523Y-46103333D01*
X251721904Y-46055714D01*
X251674285Y-45960476D01*
X251674285Y-45912857D01*
X251721904Y-45817619D01*
X251769523Y-45770000D01*
X251864761Y-45722380D01*
X252055238Y-45722380D01*
X252150476Y-45770000D01*
X252198095Y-45817619D01*
X252245714Y-45912857D01*
X252245714Y-45960476D01*
X252198095Y-46055714D01*
X252150476Y-46103333D01*
X252055238Y-46150952D01*
X251864761Y-46150952D01*
X251769523Y-46198571D01*
X251721904Y-46246190D01*
X251674285Y-46341428D01*
X251674285Y-46531904D01*
X251721904Y-46627142D01*
X251769523Y-46674761D01*
X251864761Y-46722380D01*
X252055238Y-46722380D01*
X252150476Y-46674761D01*
X252198095Y-46627142D01*
X252245714Y-46531904D01*
X252245714Y-46341428D01*
X252198095Y-46246190D01*
X252150476Y-46198571D01*
X252055238Y-46150952D01*
X182782380Y-47156666D02*
X182306190Y-47490000D01*
X182782380Y-47728095D02*
X181782380Y-47728095D01*
X181782380Y-47347142D01*
X181830000Y-47251904D01*
X181877619Y-47204285D01*
X181972857Y-47156666D01*
X182115714Y-47156666D01*
X182210952Y-47204285D01*
X182258571Y-47251904D01*
X182306190Y-47347142D01*
X182306190Y-47728095D01*
X181782380Y-46823333D02*
X181782380Y-46156666D01*
X182782380Y-46585238D01*
X198302857Y-43175714D02*
X198302857Y-43985238D01*
X198255238Y-44080476D01*
X198207619Y-44128095D01*
X198112380Y-44175714D01*
X197969523Y-44175714D01*
X197874285Y-44128095D01*
X198302857Y-43794761D02*
X198207619Y-43842380D01*
X198017142Y-43842380D01*
X197921904Y-43794761D01*
X197874285Y-43747142D01*
X197826666Y-43651904D01*
X197826666Y-43366190D01*
X197874285Y-43270952D01*
X197921904Y-43223333D01*
X198017142Y-43175714D01*
X198207619Y-43175714D01*
X198302857Y-43223333D01*
X198731428Y-42937619D02*
X198779047Y-42890000D01*
X198874285Y-42842380D01*
X199112380Y-42842380D01*
X199207619Y-42890000D01*
X199255238Y-42937619D01*
X199302857Y-43032857D01*
X199302857Y-43128095D01*
X199255238Y-43270952D01*
X198683809Y-43842380D01*
X199302857Y-43842380D01*
X200160000Y-43175714D02*
X200160000Y-43842380D01*
X199921904Y-42794761D02*
X199683809Y-43509047D01*
X200302857Y-43509047D01*
X200683809Y-43842380D02*
X200683809Y-43175714D01*
X200683809Y-42842380D02*
X200636190Y-42890000D01*
X200683809Y-42937619D01*
X200731428Y-42890000D01*
X200683809Y-42842380D01*
X200683809Y-42937619D01*
X201160000Y-43175714D02*
X201160000Y-43842380D01*
X201160000Y-43270952D02*
X201207619Y-43223333D01*
X201302857Y-43175714D01*
X201445714Y-43175714D01*
X201540952Y-43223333D01*
X201588571Y-43318571D01*
X201588571Y-43842380D01*
X202493333Y-43842380D02*
X202493333Y-42842380D01*
X202493333Y-43794761D02*
X202398095Y-43842380D01*
X202207619Y-43842380D01*
X202112380Y-43794761D01*
X202064761Y-43747142D01*
X202017142Y-43651904D01*
X202017142Y-43366190D01*
X202064761Y-43270952D01*
X202112380Y-43223333D01*
X202207619Y-43175714D01*
X202398095Y-43175714D01*
X202493333Y-43223333D01*
X203493333Y-43842380D02*
X202921904Y-43842380D01*
X203207619Y-43842380D02*
X203207619Y-42842380D01*
X203112380Y-42985238D01*
X203017142Y-43080476D01*
X202921904Y-43128095D01*
X231322857Y-43175714D02*
X231322857Y-43985238D01*
X231275238Y-44080476D01*
X231227619Y-44128095D01*
X231132380Y-44175714D01*
X230989523Y-44175714D01*
X230894285Y-44128095D01*
X231322857Y-43794761D02*
X231227619Y-43842380D01*
X231037142Y-43842380D01*
X230941904Y-43794761D01*
X230894285Y-43747142D01*
X230846666Y-43651904D01*
X230846666Y-43366190D01*
X230894285Y-43270952D01*
X230941904Y-43223333D01*
X231037142Y-43175714D01*
X231227619Y-43175714D01*
X231322857Y-43223333D01*
X231751428Y-42937619D02*
X231799047Y-42890000D01*
X231894285Y-42842380D01*
X232132380Y-42842380D01*
X232227619Y-42890000D01*
X232275238Y-42937619D01*
X232322857Y-43032857D01*
X232322857Y-43128095D01*
X232275238Y-43270952D01*
X231703809Y-43842380D01*
X232322857Y-43842380D01*
X233227619Y-42842380D02*
X232751428Y-42842380D01*
X232703809Y-43318571D01*
X232751428Y-43270952D01*
X232846666Y-43223333D01*
X233084761Y-43223333D01*
X233180000Y-43270952D01*
X233227619Y-43318571D01*
X233275238Y-43413809D01*
X233275238Y-43651904D01*
X233227619Y-43747142D01*
X233180000Y-43794761D01*
X233084761Y-43842380D01*
X232846666Y-43842380D01*
X232751428Y-43794761D01*
X232703809Y-43747142D01*
X233703809Y-43842380D02*
X233703809Y-43175714D01*
X233703809Y-42842380D02*
X233656190Y-42890000D01*
X233703809Y-42937619D01*
X233751428Y-42890000D01*
X233703809Y-42842380D01*
X233703809Y-42937619D01*
X234180000Y-43175714D02*
X234180000Y-43842380D01*
X234180000Y-43270952D02*
X234227619Y-43223333D01*
X234322857Y-43175714D01*
X234465714Y-43175714D01*
X234560952Y-43223333D01*
X234608571Y-43318571D01*
X234608571Y-43842380D01*
X235513333Y-43842380D02*
X235513333Y-42842380D01*
X235513333Y-43794761D02*
X235418095Y-43842380D01*
X235227619Y-43842380D01*
X235132380Y-43794761D01*
X235084761Y-43747142D01*
X235037142Y-43651904D01*
X235037142Y-43366190D01*
X235084761Y-43270952D01*
X235132380Y-43223333D01*
X235227619Y-43175714D01*
X235418095Y-43175714D01*
X235513333Y-43223333D01*
X236513333Y-43842380D02*
X235941904Y-43842380D01*
X236227619Y-43842380D02*
X236227619Y-42842380D01*
X236132380Y-42985238D01*
X236037142Y-43080476D01*
X235941904Y-43128095D01*
X245292857Y-43175714D02*
X245292857Y-43985238D01*
X245245238Y-44080476D01*
X245197619Y-44128095D01*
X245102380Y-44175714D01*
X244959523Y-44175714D01*
X244864285Y-44128095D01*
X245292857Y-43794761D02*
X245197619Y-43842380D01*
X245007142Y-43842380D01*
X244911904Y-43794761D01*
X244864285Y-43747142D01*
X244816666Y-43651904D01*
X244816666Y-43366190D01*
X244864285Y-43270952D01*
X244911904Y-43223333D01*
X245007142Y-43175714D01*
X245197619Y-43175714D01*
X245292857Y-43223333D01*
X245721428Y-42937619D02*
X245769047Y-42890000D01*
X245864285Y-42842380D01*
X246102380Y-42842380D01*
X246197619Y-42890000D01*
X246245238Y-42937619D01*
X246292857Y-43032857D01*
X246292857Y-43128095D01*
X246245238Y-43270952D01*
X245673809Y-43842380D01*
X246292857Y-43842380D01*
X247150000Y-42842380D02*
X246959523Y-42842380D01*
X246864285Y-42890000D01*
X246816666Y-42937619D01*
X246721428Y-43080476D01*
X246673809Y-43270952D01*
X246673809Y-43651904D01*
X246721428Y-43747142D01*
X246769047Y-43794761D01*
X246864285Y-43842380D01*
X247054761Y-43842380D01*
X247150000Y-43794761D01*
X247197619Y-43747142D01*
X247245238Y-43651904D01*
X247245238Y-43413809D01*
X247197619Y-43318571D01*
X247150000Y-43270952D01*
X247054761Y-43223333D01*
X246864285Y-43223333D01*
X246769047Y-43270952D01*
X246721428Y-43318571D01*
X246673809Y-43413809D01*
X247673809Y-43842380D02*
X247673809Y-43175714D01*
X247673809Y-42842380D02*
X247626190Y-42890000D01*
X247673809Y-42937619D01*
X247721428Y-42890000D01*
X247673809Y-42842380D01*
X247673809Y-42937619D01*
X248150000Y-43175714D02*
X248150000Y-43842380D01*
X248150000Y-43270952D02*
X248197619Y-43223333D01*
X248292857Y-43175714D01*
X248435714Y-43175714D01*
X248530952Y-43223333D01*
X248578571Y-43318571D01*
X248578571Y-43842380D01*
X249483333Y-43842380D02*
X249483333Y-42842380D01*
X249483333Y-43794761D02*
X249388095Y-43842380D01*
X249197619Y-43842380D01*
X249102380Y-43794761D01*
X249054761Y-43747142D01*
X249007142Y-43651904D01*
X249007142Y-43366190D01*
X249054761Y-43270952D01*
X249102380Y-43223333D01*
X249197619Y-43175714D01*
X249388095Y-43175714D01*
X249483333Y-43223333D01*
X250483333Y-43842380D02*
X249911904Y-43842380D01*
X250197619Y-43842380D02*
X250197619Y-42842380D01*
X250102380Y-42985238D01*
X250007142Y-43080476D01*
X249911904Y-43128095D01*
X185602857Y-43175714D02*
X185602857Y-43985238D01*
X185555238Y-44080476D01*
X185507619Y-44128095D01*
X185412380Y-44175714D01*
X185269523Y-44175714D01*
X185174285Y-44128095D01*
X185602857Y-43794761D02*
X185507619Y-43842380D01*
X185317142Y-43842380D01*
X185221904Y-43794761D01*
X185174285Y-43747142D01*
X185126666Y-43651904D01*
X185126666Y-43366190D01*
X185174285Y-43270952D01*
X185221904Y-43223333D01*
X185317142Y-43175714D01*
X185507619Y-43175714D01*
X185602857Y-43223333D01*
X186031428Y-42937619D02*
X186079047Y-42890000D01*
X186174285Y-42842380D01*
X186412380Y-42842380D01*
X186507619Y-42890000D01*
X186555238Y-42937619D01*
X186602857Y-43032857D01*
X186602857Y-43128095D01*
X186555238Y-43270952D01*
X185983809Y-43842380D01*
X186602857Y-43842380D01*
X186936190Y-42842380D02*
X187602857Y-42842380D01*
X187174285Y-43842380D01*
X187983809Y-43842380D02*
X187983809Y-43175714D01*
X187983809Y-42842380D02*
X187936190Y-42890000D01*
X187983809Y-42937619D01*
X188031428Y-42890000D01*
X187983809Y-42842380D01*
X187983809Y-42937619D01*
X188460000Y-43175714D02*
X188460000Y-43842380D01*
X188460000Y-43270952D02*
X188507619Y-43223333D01*
X188602857Y-43175714D01*
X188745714Y-43175714D01*
X188840952Y-43223333D01*
X188888571Y-43318571D01*
X188888571Y-43842380D01*
X189793333Y-43842380D02*
X189793333Y-42842380D01*
X189793333Y-43794761D02*
X189698095Y-43842380D01*
X189507619Y-43842380D01*
X189412380Y-43794761D01*
X189364761Y-43747142D01*
X189317142Y-43651904D01*
X189317142Y-43366190D01*
X189364761Y-43270952D01*
X189412380Y-43223333D01*
X189507619Y-43175714D01*
X189698095Y-43175714D01*
X189793333Y-43223333D01*
X190793333Y-43842380D02*
X190221904Y-43842380D01*
X190507619Y-43842380D02*
X190507619Y-42842380D01*
X190412380Y-42985238D01*
X190317142Y-43080476D01*
X190221904Y-43128095D01*
X196428571Y-37687619D02*
X196476190Y-37640000D01*
X196571428Y-37592380D01*
X196809523Y-37592380D01*
X196904761Y-37640000D01*
X196952380Y-37687619D01*
X197000000Y-37782857D01*
X197000000Y-37878095D01*
X196952380Y-38020952D01*
X196380952Y-38592380D01*
X197000000Y-38592380D01*
X197428571Y-38592380D02*
X197428571Y-37592380D01*
X198000000Y-38592380D01*
X198000000Y-37592380D01*
X198380952Y-37592380D02*
X199047619Y-37592380D01*
X198619047Y-38592380D01*
X199619047Y-37592380D02*
X199714285Y-37592380D01*
X199809523Y-37640000D01*
X199857142Y-37687619D01*
X199904761Y-37782857D01*
X199952380Y-37973333D01*
X199952380Y-38211428D01*
X199904761Y-38401904D01*
X199857142Y-38497142D01*
X199809523Y-38544761D01*
X199714285Y-38592380D01*
X199619047Y-38592380D01*
X199523809Y-38544761D01*
X199476190Y-38497142D01*
X199428571Y-38401904D01*
X199380952Y-38211428D01*
X199380952Y-37973333D01*
X199428571Y-37782857D01*
X199476190Y-37687619D01*
X199523809Y-37640000D01*
X199619047Y-37592380D01*
X200571428Y-37592380D02*
X200666666Y-37592380D01*
X200761904Y-37640000D01*
X200809523Y-37687619D01*
X200857142Y-37782857D01*
X200904761Y-37973333D01*
X200904761Y-38211428D01*
X200857142Y-38401904D01*
X200809523Y-38497142D01*
X200761904Y-38544761D01*
X200666666Y-38592380D01*
X200571428Y-38592380D01*
X200476190Y-38544761D01*
X200428571Y-38497142D01*
X200380952Y-38401904D01*
X200333333Y-38211428D01*
X200333333Y-37973333D01*
X200380952Y-37782857D01*
X200428571Y-37687619D01*
X200476190Y-37640000D01*
X200571428Y-37592380D01*
X201285714Y-37687619D02*
X201333333Y-37640000D01*
X201428571Y-37592380D01*
X201666666Y-37592380D01*
X201761904Y-37640000D01*
X201809523Y-37687619D01*
X201857142Y-37782857D01*
X201857142Y-37878095D01*
X201809523Y-38020952D01*
X201238095Y-38592380D01*
X201857142Y-38592380D01*
X202047619Y-38687619D02*
X202809523Y-38687619D01*
X202952380Y-37592380D02*
X203619047Y-37592380D01*
X203190476Y-38592380D01*
X231768571Y-37827619D02*
X231816190Y-37780000D01*
X231911428Y-37732380D01*
X232149523Y-37732380D01*
X232244761Y-37780000D01*
X232292380Y-37827619D01*
X232340000Y-37922857D01*
X232340000Y-38018095D01*
X232292380Y-38160952D01*
X231720952Y-38732380D01*
X232340000Y-38732380D01*
X232768571Y-38732380D02*
X232768571Y-37732380D01*
X233340000Y-38732380D01*
X233340000Y-37732380D01*
X233720952Y-37732380D02*
X234387619Y-37732380D01*
X233959047Y-38732380D01*
X234959047Y-37732380D02*
X235054285Y-37732380D01*
X235149523Y-37780000D01*
X235197142Y-37827619D01*
X235244761Y-37922857D01*
X235292380Y-38113333D01*
X235292380Y-38351428D01*
X235244761Y-38541904D01*
X235197142Y-38637142D01*
X235149523Y-38684761D01*
X235054285Y-38732380D01*
X234959047Y-38732380D01*
X234863809Y-38684761D01*
X234816190Y-38637142D01*
X234768571Y-38541904D01*
X234720952Y-38351428D01*
X234720952Y-38113333D01*
X234768571Y-37922857D01*
X234816190Y-37827619D01*
X234863809Y-37780000D01*
X234959047Y-37732380D01*
X235911428Y-37732380D02*
X236006666Y-37732380D01*
X236101904Y-37780000D01*
X236149523Y-37827619D01*
X236197142Y-37922857D01*
X236244761Y-38113333D01*
X236244761Y-38351428D01*
X236197142Y-38541904D01*
X236149523Y-38637142D01*
X236101904Y-38684761D01*
X236006666Y-38732380D01*
X235911428Y-38732380D01*
X235816190Y-38684761D01*
X235768571Y-38637142D01*
X235720952Y-38541904D01*
X235673333Y-38351428D01*
X235673333Y-38113333D01*
X235720952Y-37922857D01*
X235768571Y-37827619D01*
X235816190Y-37780000D01*
X235911428Y-37732380D01*
X236625714Y-37827619D02*
X236673333Y-37780000D01*
X236768571Y-37732380D01*
X237006666Y-37732380D01*
X237101904Y-37780000D01*
X237149523Y-37827619D01*
X237197142Y-37922857D01*
X237197142Y-38018095D01*
X237149523Y-38160952D01*
X236578095Y-38732380D01*
X237197142Y-38732380D01*
X237387619Y-38827619D02*
X238149523Y-38827619D01*
X238816190Y-37732380D02*
X238625714Y-37732380D01*
X238530476Y-37780000D01*
X238482857Y-37827619D01*
X238387619Y-37970476D01*
X238340000Y-38160952D01*
X238340000Y-38541904D01*
X238387619Y-38637142D01*
X238435238Y-38684761D01*
X238530476Y-38732380D01*
X238720952Y-38732380D01*
X238816190Y-38684761D01*
X238863809Y-38637142D01*
X238911428Y-38541904D01*
X238911428Y-38303809D01*
X238863809Y-38208571D01*
X238816190Y-38160952D01*
X238720952Y-38113333D01*
X238530476Y-38113333D01*
X238435238Y-38160952D01*
X238387619Y-38208571D01*
X238340000Y-38303809D01*
X242558571Y-37687619D02*
X242606190Y-37640000D01*
X242701428Y-37592380D01*
X242939523Y-37592380D01*
X243034761Y-37640000D01*
X243082380Y-37687619D01*
X243130000Y-37782857D01*
X243130000Y-37878095D01*
X243082380Y-38020952D01*
X242510952Y-38592380D01*
X243130000Y-38592380D01*
X243558571Y-38592380D02*
X243558571Y-37592380D01*
X244130000Y-38592380D01*
X244130000Y-37592380D01*
X244510952Y-37592380D02*
X245177619Y-37592380D01*
X244749047Y-38592380D01*
X245749047Y-37592380D02*
X245844285Y-37592380D01*
X245939523Y-37640000D01*
X245987142Y-37687619D01*
X246034761Y-37782857D01*
X246082380Y-37973333D01*
X246082380Y-38211428D01*
X246034761Y-38401904D01*
X245987142Y-38497142D01*
X245939523Y-38544761D01*
X245844285Y-38592380D01*
X245749047Y-38592380D01*
X245653809Y-38544761D01*
X245606190Y-38497142D01*
X245558571Y-38401904D01*
X245510952Y-38211428D01*
X245510952Y-37973333D01*
X245558571Y-37782857D01*
X245606190Y-37687619D01*
X245653809Y-37640000D01*
X245749047Y-37592380D01*
X246701428Y-37592380D02*
X246796666Y-37592380D01*
X246891904Y-37640000D01*
X246939523Y-37687619D01*
X246987142Y-37782857D01*
X247034761Y-37973333D01*
X247034761Y-38211428D01*
X246987142Y-38401904D01*
X246939523Y-38497142D01*
X246891904Y-38544761D01*
X246796666Y-38592380D01*
X246701428Y-38592380D01*
X246606190Y-38544761D01*
X246558571Y-38497142D01*
X246510952Y-38401904D01*
X246463333Y-38211428D01*
X246463333Y-37973333D01*
X246510952Y-37782857D01*
X246558571Y-37687619D01*
X246606190Y-37640000D01*
X246701428Y-37592380D01*
X247415714Y-37687619D02*
X247463333Y-37640000D01*
X247558571Y-37592380D01*
X247796666Y-37592380D01*
X247891904Y-37640000D01*
X247939523Y-37687619D01*
X247987142Y-37782857D01*
X247987142Y-37878095D01*
X247939523Y-38020952D01*
X247368095Y-38592380D01*
X247987142Y-38592380D01*
X248177619Y-38687619D02*
X248939523Y-38687619D01*
X249653809Y-37592380D02*
X249177619Y-37592380D01*
X249130000Y-38068571D01*
X249177619Y-38020952D01*
X249272857Y-37973333D01*
X249510952Y-37973333D01*
X249606190Y-38020952D01*
X249653809Y-38068571D01*
X249701428Y-38163809D01*
X249701428Y-38401904D01*
X249653809Y-38497142D01*
X249606190Y-38544761D01*
X249510952Y-38592380D01*
X249272857Y-38592380D01*
X249177619Y-38544761D01*
X249130000Y-38497142D01*
X186928571Y-37687619D02*
X186976190Y-37640000D01*
X187071428Y-37592380D01*
X187309523Y-37592380D01*
X187404761Y-37640000D01*
X187452380Y-37687619D01*
X187500000Y-37782857D01*
X187500000Y-37878095D01*
X187452380Y-38020952D01*
X186880952Y-38592380D01*
X187500000Y-38592380D01*
X187928571Y-38592380D02*
X187928571Y-37592380D01*
X188500000Y-38592380D01*
X188500000Y-37592380D01*
X188880952Y-37592380D02*
X189547619Y-37592380D01*
X189119047Y-38592380D01*
X190119047Y-37592380D02*
X190214285Y-37592380D01*
X190309523Y-37640000D01*
X190357142Y-37687619D01*
X190404761Y-37782857D01*
X190452380Y-37973333D01*
X190452380Y-38211428D01*
X190404761Y-38401904D01*
X190357142Y-38497142D01*
X190309523Y-38544761D01*
X190214285Y-38592380D01*
X190119047Y-38592380D01*
X190023809Y-38544761D01*
X189976190Y-38497142D01*
X189928571Y-38401904D01*
X189880952Y-38211428D01*
X189880952Y-37973333D01*
X189928571Y-37782857D01*
X189976190Y-37687619D01*
X190023809Y-37640000D01*
X190119047Y-37592380D01*
X191071428Y-37592380D02*
X191166666Y-37592380D01*
X191261904Y-37640000D01*
X191309523Y-37687619D01*
X191357142Y-37782857D01*
X191404761Y-37973333D01*
X191404761Y-38211428D01*
X191357142Y-38401904D01*
X191309523Y-38497142D01*
X191261904Y-38544761D01*
X191166666Y-38592380D01*
X191071428Y-38592380D01*
X190976190Y-38544761D01*
X190928571Y-38497142D01*
X190880952Y-38401904D01*
X190833333Y-38211428D01*
X190833333Y-37973333D01*
X190880952Y-37782857D01*
X190928571Y-37687619D01*
X190976190Y-37640000D01*
X191071428Y-37592380D01*
X191785714Y-37687619D02*
X191833333Y-37640000D01*
X191928571Y-37592380D01*
X192166666Y-37592380D01*
X192261904Y-37640000D01*
X192309523Y-37687619D01*
X192357142Y-37782857D01*
X192357142Y-37878095D01*
X192309523Y-38020952D01*
X191738095Y-38592380D01*
X192357142Y-38592380D01*
X192547619Y-38687619D02*
X193309523Y-38687619D01*
X193976190Y-37925714D02*
X193976190Y-38592380D01*
X193738095Y-37544761D02*
X193500000Y-38259047D01*
X194119047Y-38259047D01*
X160066666Y-97152380D02*
X160066666Y-97866666D01*
X160019047Y-98009523D01*
X159923809Y-98104761D01*
X159780952Y-98152380D01*
X159685714Y-98152380D01*
X160971428Y-97485714D02*
X160971428Y-98152380D01*
X160733333Y-97104761D02*
X160495238Y-97819047D01*
X161114285Y-97819047D01*
X171796666Y-60945714D02*
X171796666Y-60469523D01*
X172082380Y-61040952D02*
X171082380Y-60707619D01*
X172082380Y-60374285D01*
X171082380Y-60183809D02*
X171082380Y-59612380D01*
X172082380Y-59898095D02*
X171082380Y-59898095D01*
X171082380Y-59374285D02*
X172082380Y-58707619D01*
X171082380Y-58707619D02*
X172082380Y-59374285D01*
X171177619Y-58374285D02*
X171130000Y-58326666D01*
X171082380Y-58231428D01*
X171082380Y-57993333D01*
X171130000Y-57898095D01*
X171177619Y-57850476D01*
X171272857Y-57802857D01*
X171368095Y-57802857D01*
X171510952Y-57850476D01*
X172082380Y-58421904D01*
X172082380Y-57802857D01*
X171415714Y-56945714D02*
X172082380Y-56945714D01*
X171034761Y-57183809D02*
X171749047Y-57421904D01*
X171749047Y-56802857D01*
X171701428Y-56421904D02*
X171701428Y-55660000D01*
X171415714Y-55183809D02*
X172415714Y-55183809D01*
X171463333Y-55183809D02*
X171415714Y-55088571D01*
X171415714Y-54898095D01*
X171463333Y-54802857D01*
X171510952Y-54755238D01*
X171606190Y-54707619D01*
X171891904Y-54707619D01*
X171987142Y-54755238D01*
X172034761Y-54802857D01*
X172082380Y-54898095D01*
X172082380Y-55088571D01*
X172034761Y-55183809D01*
X172082380Y-54279047D02*
X171415714Y-54279047D01*
X171082380Y-54279047D02*
X171130000Y-54326666D01*
X171177619Y-54279047D01*
X171130000Y-54231428D01*
X171082380Y-54279047D01*
X171177619Y-54279047D01*
X171415714Y-53802857D02*
X172082380Y-53802857D01*
X171510952Y-53802857D02*
X171463333Y-53755238D01*
X171415714Y-53660000D01*
X171415714Y-53517142D01*
X171463333Y-53421904D01*
X171558571Y-53374285D01*
X172082380Y-53374285D01*
X172082380Y-52374285D02*
X172082380Y-52945714D01*
X172082380Y-52660000D02*
X171082380Y-52660000D01*
X171225238Y-52755238D01*
X171320476Y-52850476D01*
X171368095Y-52945714D01*
X201977619Y-78025428D02*
X201930000Y-77977809D01*
X201882380Y-77882571D01*
X201882380Y-77644476D01*
X201930000Y-77549238D01*
X201977619Y-77501619D01*
X202072857Y-77454000D01*
X202168095Y-77454000D01*
X202310952Y-77501619D01*
X202882380Y-78073047D01*
X202882380Y-77454000D01*
X202882380Y-77025428D02*
X201882380Y-77025428D01*
X202882380Y-76454000D01*
X201882380Y-76454000D01*
X201882380Y-76073047D02*
X201882380Y-75406380D01*
X202882380Y-75834952D01*
X201882380Y-74834952D02*
X201882380Y-74739714D01*
X201930000Y-74644476D01*
X201977619Y-74596857D01*
X202072857Y-74549238D01*
X202263333Y-74501619D01*
X202501428Y-74501619D01*
X202691904Y-74549238D01*
X202787142Y-74596857D01*
X202834761Y-74644476D01*
X202882380Y-74739714D01*
X202882380Y-74834952D01*
X202834761Y-74930190D01*
X202787142Y-74977809D01*
X202691904Y-75025428D01*
X202501428Y-75073047D01*
X202263333Y-75073047D01*
X202072857Y-75025428D01*
X201977619Y-74977809D01*
X201930000Y-74930190D01*
X201882380Y-74834952D01*
X201882380Y-73882571D02*
X201882380Y-73787333D01*
X201930000Y-73692095D01*
X201977619Y-73644476D01*
X202072857Y-73596857D01*
X202263333Y-73549238D01*
X202501428Y-73549238D01*
X202691904Y-73596857D01*
X202787142Y-73644476D01*
X202834761Y-73692095D01*
X202882380Y-73787333D01*
X202882380Y-73882571D01*
X202834761Y-73977809D01*
X202787142Y-74025428D01*
X202691904Y-74073047D01*
X202501428Y-74120666D01*
X202263333Y-74120666D01*
X202072857Y-74073047D01*
X201977619Y-74025428D01*
X201930000Y-73977809D01*
X201882380Y-73882571D01*
X201977619Y-73168285D02*
X201930000Y-73120666D01*
X201882380Y-73025428D01*
X201882380Y-72787333D01*
X201930000Y-72692095D01*
X201977619Y-72644476D01*
X202072857Y-72596857D01*
X202168095Y-72596857D01*
X202310952Y-72644476D01*
X202882380Y-73215904D01*
X202882380Y-72596857D01*
X202977619Y-72406380D02*
X202977619Y-71644476D01*
X201977619Y-71454000D02*
X201930000Y-71406380D01*
X201882380Y-71311142D01*
X201882380Y-71073047D01*
X201930000Y-70977809D01*
X201977619Y-70930190D01*
X202072857Y-70882571D01*
X202168095Y-70882571D01*
X202310952Y-70930190D01*
X202882380Y-71501619D01*
X202882380Y-70882571D01*
X196360380Y-74366666D02*
X195884190Y-74700000D01*
X196360380Y-74938095D02*
X195360380Y-74938095D01*
X195360380Y-74557142D01*
X195408000Y-74461904D01*
X195455619Y-74414285D01*
X195550857Y-74366666D01*
X195693714Y-74366666D01*
X195788952Y-74414285D01*
X195836571Y-74461904D01*
X195884190Y-74557142D01*
X195884190Y-74938095D01*
X195455619Y-73985714D02*
X195408000Y-73938095D01*
X195360380Y-73842857D01*
X195360380Y-73604761D01*
X195408000Y-73509523D01*
X195455619Y-73461904D01*
X195550857Y-73414285D01*
X195646095Y-73414285D01*
X195788952Y-73461904D01*
X196360380Y-74033333D01*
X196360380Y-73414285D01*
X204404380Y-74366666D02*
X203928190Y-74700000D01*
X204404380Y-74938095D02*
X203404380Y-74938095D01*
X203404380Y-74557142D01*
X203452000Y-74461904D01*
X203499619Y-74414285D01*
X203594857Y-74366666D01*
X203737714Y-74366666D01*
X203832952Y-74414285D01*
X203880571Y-74461904D01*
X203928190Y-74557142D01*
X203928190Y-74938095D01*
X203404380Y-73461904D02*
X203404380Y-73938095D01*
X203880571Y-73985714D01*
X203832952Y-73938095D01*
X203785333Y-73842857D01*
X203785333Y-73604761D01*
X203832952Y-73509523D01*
X203880571Y-73461904D01*
X203975809Y-73414285D01*
X204213904Y-73414285D01*
X204309142Y-73461904D01*
X204356761Y-73509523D01*
X204404380Y-73604761D01*
X204404380Y-73842857D01*
X204356761Y-73938095D01*
X204309142Y-73985714D01*
X164900000Y-86156666D02*
X165376190Y-86156666D01*
X164804761Y-86442380D02*
X165138095Y-85442380D01*
X165471428Y-86442380D01*
X165661904Y-85442380D02*
X166233333Y-85442380D01*
X165947619Y-86442380D02*
X165947619Y-85442380D01*
X166471428Y-85442380D02*
X167138095Y-86442380D01*
X167138095Y-85442380D02*
X166471428Y-86442380D01*
X167519047Y-86061428D02*
X168280952Y-86061428D01*
X168757142Y-86442380D02*
X168757142Y-85442380D01*
X169138095Y-85442380D01*
X169233333Y-85490000D01*
X169280952Y-85537619D01*
X169328571Y-85632857D01*
X169328571Y-85775714D01*
X169280952Y-85870952D01*
X169233333Y-85918571D01*
X169138095Y-85966190D01*
X168757142Y-85966190D01*
X170328571Y-86347142D02*
X170280952Y-86394761D01*
X170138095Y-86442380D01*
X170042857Y-86442380D01*
X169900000Y-86394761D01*
X169804761Y-86299523D01*
X169757142Y-86204285D01*
X169709523Y-86013809D01*
X169709523Y-85870952D01*
X169757142Y-85680476D01*
X169804761Y-85585238D01*
X169900000Y-85490000D01*
X170042857Y-85442380D01*
X170138095Y-85442380D01*
X170280952Y-85490000D01*
X170328571Y-85537619D01*
X170757142Y-86442380D02*
X170757142Y-85442380D01*
X171233333Y-86061428D02*
X171995238Y-86061428D01*
X172471428Y-85918571D02*
X172804761Y-85918571D01*
X172947619Y-86442380D02*
X172471428Y-86442380D01*
X172471428Y-85442380D01*
X172947619Y-85442380D01*
X173900000Y-86442380D02*
X173328571Y-86442380D01*
X173614285Y-86442380D02*
X173614285Y-85442380D01*
X173519047Y-85585238D01*
X173423809Y-85680476D01*
X173328571Y-85728095D01*
X222792380Y-46958095D02*
X221792380Y-46958095D01*
X222506666Y-46624761D01*
X221792380Y-46291428D01*
X222792380Y-46291428D01*
X222697142Y-45243809D02*
X222744761Y-45291428D01*
X222792380Y-45434285D01*
X222792380Y-45529523D01*
X222744761Y-45672380D01*
X222649523Y-45767619D01*
X222554285Y-45815238D01*
X222363809Y-45862857D01*
X222220952Y-45862857D01*
X222030476Y-45815238D01*
X221935238Y-45767619D01*
X221840000Y-45672380D01*
X221792380Y-45529523D01*
X221792380Y-45434285D01*
X221840000Y-45291428D01*
X221887619Y-45243809D01*
X222792380Y-44815238D02*
X221792380Y-44815238D01*
X221792380Y-44434285D01*
X221840000Y-44339047D01*
X221887619Y-44291428D01*
X221982857Y-44243809D01*
X222125714Y-44243809D01*
X222220952Y-44291428D01*
X222268571Y-44339047D01*
X222316190Y-44434285D01*
X222316190Y-44815238D01*
X221792380Y-43910476D02*
X221792380Y-43291428D01*
X222173333Y-43624761D01*
X222173333Y-43481904D01*
X222220952Y-43386666D01*
X222268571Y-43339047D01*
X222363809Y-43291428D01*
X222601904Y-43291428D01*
X222697142Y-43339047D01*
X222744761Y-43386666D01*
X222792380Y-43481904D01*
X222792380Y-43767619D01*
X222744761Y-43862857D01*
X222697142Y-43910476D01*
X221792380Y-42672380D02*
X221792380Y-42577142D01*
X221840000Y-42481904D01*
X221887619Y-42434285D01*
X221982857Y-42386666D01*
X222173333Y-42339047D01*
X222411428Y-42339047D01*
X222601904Y-42386666D01*
X222697142Y-42434285D01*
X222744761Y-42481904D01*
X222792380Y-42577142D01*
X222792380Y-42672380D01*
X222744761Y-42767619D01*
X222697142Y-42815238D01*
X222601904Y-42862857D01*
X222411428Y-42910476D01*
X222173333Y-42910476D01*
X221982857Y-42862857D01*
X221887619Y-42815238D01*
X221840000Y-42767619D01*
X221792380Y-42672380D01*
X221792380Y-41720000D02*
X221792380Y-41624761D01*
X221840000Y-41529523D01*
X221887619Y-41481904D01*
X221982857Y-41434285D01*
X222173333Y-41386666D01*
X222411428Y-41386666D01*
X222601904Y-41434285D01*
X222697142Y-41481904D01*
X222744761Y-41529523D01*
X222792380Y-41624761D01*
X222792380Y-41720000D01*
X222744761Y-41815238D01*
X222697142Y-41862857D01*
X222601904Y-41910476D01*
X222411428Y-41958095D01*
X222173333Y-41958095D01*
X221982857Y-41910476D01*
X221887619Y-41862857D01*
X221840000Y-41815238D01*
X221792380Y-41720000D01*
X222220952Y-40815238D02*
X222173333Y-40910476D01*
X222125714Y-40958095D01*
X222030476Y-41005714D01*
X221982857Y-41005714D01*
X221887619Y-40958095D01*
X221840000Y-40910476D01*
X221792380Y-40815238D01*
X221792380Y-40624761D01*
X221840000Y-40529523D01*
X221887619Y-40481904D01*
X221982857Y-40434285D01*
X222030476Y-40434285D01*
X222125714Y-40481904D01*
X222173333Y-40529523D01*
X222220952Y-40624761D01*
X222220952Y-40815238D01*
X222268571Y-40910476D01*
X222316190Y-40958095D01*
X222411428Y-41005714D01*
X222601904Y-41005714D01*
X222697142Y-40958095D01*
X222744761Y-40910476D01*
X222792380Y-40815238D01*
X222792380Y-40624761D01*
X222744761Y-40529523D01*
X222697142Y-40481904D01*
X222601904Y-40434285D01*
X222411428Y-40434285D01*
X222316190Y-40481904D01*
X222268571Y-40529523D01*
X222220952Y-40624761D01*
X221168380Y-74366666D02*
X220692190Y-74700000D01*
X221168380Y-74938095D02*
X220168380Y-74938095D01*
X220168380Y-74557142D01*
X220216000Y-74461904D01*
X220263619Y-74414285D01*
X220358857Y-74366666D01*
X220501714Y-74366666D01*
X220596952Y-74414285D01*
X220644571Y-74461904D01*
X220692190Y-74557142D01*
X220692190Y-74938095D01*
X220168380Y-73509523D02*
X220168380Y-73700000D01*
X220216000Y-73795238D01*
X220263619Y-73842857D01*
X220406476Y-73938095D01*
X220596952Y-73985714D01*
X220977904Y-73985714D01*
X221073142Y-73938095D01*
X221120761Y-73890476D01*
X221168380Y-73795238D01*
X221168380Y-73604761D01*
X221120761Y-73509523D01*
X221073142Y-73461904D01*
X220977904Y-73414285D01*
X220739809Y-73414285D01*
X220644571Y-73461904D01*
X220596952Y-73509523D01*
X220549333Y-73604761D01*
X220549333Y-73795238D01*
X220596952Y-73890476D01*
X220644571Y-73938095D01*
X220739809Y-73985714D01*
X236154380Y-74112666D02*
X235678190Y-74446000D01*
X236154380Y-74684095D02*
X235154380Y-74684095D01*
X235154380Y-74303142D01*
X235202000Y-74207904D01*
X235249619Y-74160285D01*
X235344857Y-74112666D01*
X235487714Y-74112666D01*
X235582952Y-74160285D01*
X235630571Y-74207904D01*
X235678190Y-74303142D01*
X235678190Y-74684095D01*
X235487714Y-73255523D02*
X236154380Y-73255523D01*
X235106761Y-73493619D02*
X235821047Y-73731714D01*
X235821047Y-73112666D01*
X212870380Y-74366666D02*
X212394190Y-74700000D01*
X212870380Y-74938095D02*
X211870380Y-74938095D01*
X211870380Y-74557142D01*
X211918000Y-74461904D01*
X211965619Y-74414285D01*
X212060857Y-74366666D01*
X212203714Y-74366666D01*
X212298952Y-74414285D01*
X212346571Y-74461904D01*
X212394190Y-74557142D01*
X212394190Y-74938095D01*
X211870380Y-74033333D02*
X211870380Y-73414285D01*
X212251333Y-73747619D01*
X212251333Y-73604761D01*
X212298952Y-73509523D01*
X212346571Y-73461904D01*
X212441809Y-73414285D01*
X212679904Y-73414285D01*
X212775142Y-73461904D01*
X212822761Y-73509523D01*
X212870380Y-73604761D01*
X212870380Y-73890476D01*
X212822761Y-73985714D01*
X212775142Y-74033333D01*
X228110380Y-74366666D02*
X227634190Y-74700000D01*
X228110380Y-74938095D02*
X227110380Y-74938095D01*
X227110380Y-74557142D01*
X227158000Y-74461904D01*
X227205619Y-74414285D01*
X227300857Y-74366666D01*
X227443714Y-74366666D01*
X227538952Y-74414285D01*
X227586571Y-74461904D01*
X227634190Y-74557142D01*
X227634190Y-74938095D01*
X228110380Y-73414285D02*
X228110380Y-73985714D01*
X228110380Y-73700000D02*
X227110380Y-73700000D01*
X227253238Y-73795238D01*
X227348476Y-73890476D01*
X227396095Y-73985714D01*
X175649523Y-69627619D02*
X175554285Y-69580000D01*
X175459047Y-69484761D01*
X175316190Y-69341904D01*
X175220952Y-69294285D01*
X175125714Y-69294285D01*
X175173333Y-69532380D02*
X175078095Y-69484761D01*
X174982857Y-69389523D01*
X174935238Y-69199047D01*
X174935238Y-68865714D01*
X174982857Y-68675238D01*
X175078095Y-68580000D01*
X175173333Y-68532380D01*
X175363809Y-68532380D01*
X175459047Y-68580000D01*
X175554285Y-68675238D01*
X175601904Y-68865714D01*
X175601904Y-69199047D01*
X175554285Y-69389523D01*
X175459047Y-69484761D01*
X175363809Y-69532380D01*
X175173333Y-69532380D01*
X175792380Y-69627619D02*
X176554285Y-69627619D01*
X176792380Y-69532380D02*
X176792380Y-68532380D01*
X177173333Y-68532380D01*
X177268571Y-68580000D01*
X177316190Y-68627619D01*
X177363809Y-68722857D01*
X177363809Y-68865714D01*
X177316190Y-68960952D01*
X177268571Y-69008571D01*
X177173333Y-69056190D01*
X176792380Y-69056190D01*
X177935238Y-69532380D02*
X177840000Y-69484761D01*
X177792380Y-69437142D01*
X177744761Y-69341904D01*
X177744761Y-69056190D01*
X177792380Y-68960952D01*
X177840000Y-68913333D01*
X177935238Y-68865714D01*
X178078095Y-68865714D01*
X178173333Y-68913333D01*
X178220952Y-68960952D01*
X178268571Y-69056190D01*
X178268571Y-69341904D01*
X178220952Y-69437142D01*
X178173333Y-69484761D01*
X178078095Y-69532380D01*
X177935238Y-69532380D01*
X178601904Y-68865714D02*
X178792380Y-69532380D01*
X178982857Y-69056190D01*
X179173333Y-69532380D01*
X179363809Y-68865714D01*
X180125714Y-69484761D02*
X180030476Y-69532380D01*
X179840000Y-69532380D01*
X179744761Y-69484761D01*
X179697142Y-69389523D01*
X179697142Y-69008571D01*
X179744761Y-68913333D01*
X179840000Y-68865714D01*
X180030476Y-68865714D01*
X180125714Y-68913333D01*
X180173333Y-69008571D01*
X180173333Y-69103809D01*
X179697142Y-69199047D01*
X180601904Y-69532380D02*
X180601904Y-68865714D01*
X180601904Y-69056190D02*
X180649523Y-68960952D01*
X180697142Y-68913333D01*
X180792380Y-68865714D01*
X180887619Y-68865714D01*
X181744761Y-69532380D02*
X181173333Y-69532380D01*
X181459047Y-69532380D02*
X181459047Y-68532380D01*
X181363809Y-68675238D01*
X181268571Y-68770476D01*
X181173333Y-68818095D01*
X159960000Y-114922380D02*
X159483809Y-114922380D01*
X159483809Y-113922380D01*
X160293333Y-114922380D02*
X160293333Y-114255714D01*
X160293333Y-113922380D02*
X160245714Y-113970000D01*
X160293333Y-114017619D01*
X160340952Y-113970000D01*
X160293333Y-113922380D01*
X160293333Y-114017619D01*
X161198095Y-114255714D02*
X161198095Y-115065238D01*
X161150476Y-115160476D01*
X161102857Y-115208095D01*
X161007619Y-115255714D01*
X160864761Y-115255714D01*
X160769523Y-115208095D01*
X161198095Y-114874761D02*
X161102857Y-114922380D01*
X160912380Y-114922380D01*
X160817142Y-114874761D01*
X160769523Y-114827142D01*
X160721904Y-114731904D01*
X160721904Y-114446190D01*
X160769523Y-114350952D01*
X160817142Y-114303333D01*
X160912380Y-114255714D01*
X161102857Y-114255714D01*
X161198095Y-114303333D01*
X161674285Y-114922380D02*
X161674285Y-113922380D01*
X162102857Y-114922380D02*
X162102857Y-114398571D01*
X162055238Y-114303333D01*
X161960000Y-114255714D01*
X161817142Y-114255714D01*
X161721904Y-114303333D01*
X161674285Y-114350952D01*
X162436190Y-114255714D02*
X162817142Y-114255714D01*
X162579047Y-113922380D02*
X162579047Y-114779523D01*
X162626666Y-114874761D01*
X162721904Y-114922380D01*
X162817142Y-114922380D01*
X163102857Y-114874761D02*
X163198095Y-114922380D01*
X163388571Y-114922380D01*
X163483809Y-114874761D01*
X163531428Y-114779523D01*
X163531428Y-114731904D01*
X163483809Y-114636666D01*
X163388571Y-114589047D01*
X163245714Y-114589047D01*
X163150476Y-114541428D01*
X163102857Y-114446190D01*
X163102857Y-114398571D01*
X163150476Y-114303333D01*
X163245714Y-114255714D01*
X163388571Y-114255714D01*
X163483809Y-114303333D01*
X164293333Y-114398571D02*
X164436190Y-114446190D01*
X164483809Y-114493809D01*
X164531428Y-114589047D01*
X164531428Y-114731904D01*
X164483809Y-114827142D01*
X164436190Y-114874761D01*
X164340952Y-114922380D01*
X163960000Y-114922380D01*
X163960000Y-113922380D01*
X164293333Y-113922380D01*
X164388571Y-113970000D01*
X164436190Y-114017619D01*
X164483809Y-114112857D01*
X164483809Y-114208095D01*
X164436190Y-114303333D01*
X164388571Y-114350952D01*
X164293333Y-114398571D01*
X163960000Y-114398571D01*
X164912380Y-114017619D02*
X164960000Y-113970000D01*
X165055238Y-113922380D01*
X165293333Y-113922380D01*
X165388571Y-113970000D01*
X165436190Y-114017619D01*
X165483809Y-114112857D01*
X165483809Y-114208095D01*
X165436190Y-114350952D01*
X164864761Y-114922380D01*
X165483809Y-114922380D01*
X185360000Y-114922380D02*
X184883809Y-114922380D01*
X184883809Y-113922380D01*
X185693333Y-114922380D02*
X185693333Y-114255714D01*
X185693333Y-113922380D02*
X185645714Y-113970000D01*
X185693333Y-114017619D01*
X185740952Y-113970000D01*
X185693333Y-113922380D01*
X185693333Y-114017619D01*
X186598095Y-114255714D02*
X186598095Y-115065238D01*
X186550476Y-115160476D01*
X186502857Y-115208095D01*
X186407619Y-115255714D01*
X186264761Y-115255714D01*
X186169523Y-115208095D01*
X186598095Y-114874761D02*
X186502857Y-114922380D01*
X186312380Y-114922380D01*
X186217142Y-114874761D01*
X186169523Y-114827142D01*
X186121904Y-114731904D01*
X186121904Y-114446190D01*
X186169523Y-114350952D01*
X186217142Y-114303333D01*
X186312380Y-114255714D01*
X186502857Y-114255714D01*
X186598095Y-114303333D01*
X187074285Y-114922380D02*
X187074285Y-113922380D01*
X187502857Y-114922380D02*
X187502857Y-114398571D01*
X187455238Y-114303333D01*
X187360000Y-114255714D01*
X187217142Y-114255714D01*
X187121904Y-114303333D01*
X187074285Y-114350952D01*
X187836190Y-114255714D02*
X188217142Y-114255714D01*
X187979047Y-113922380D02*
X187979047Y-114779523D01*
X188026666Y-114874761D01*
X188121904Y-114922380D01*
X188217142Y-114922380D01*
X188502857Y-114874761D02*
X188598095Y-114922380D01*
X188788571Y-114922380D01*
X188883809Y-114874761D01*
X188931428Y-114779523D01*
X188931428Y-114731904D01*
X188883809Y-114636666D01*
X188788571Y-114589047D01*
X188645714Y-114589047D01*
X188550476Y-114541428D01*
X188502857Y-114446190D01*
X188502857Y-114398571D01*
X188550476Y-114303333D01*
X188645714Y-114255714D01*
X188788571Y-114255714D01*
X188883809Y-114303333D01*
X189693333Y-114398571D02*
X189836190Y-114446190D01*
X189883809Y-114493809D01*
X189931428Y-114589047D01*
X189931428Y-114731904D01*
X189883809Y-114827142D01*
X189836190Y-114874761D01*
X189740952Y-114922380D01*
X189360000Y-114922380D01*
X189360000Y-113922380D01*
X189693333Y-113922380D01*
X189788571Y-113970000D01*
X189836190Y-114017619D01*
X189883809Y-114112857D01*
X189883809Y-114208095D01*
X189836190Y-114303333D01*
X189788571Y-114350952D01*
X189693333Y-114398571D01*
X189360000Y-114398571D01*
X190883809Y-114922380D02*
X190312380Y-114922380D01*
X190598095Y-114922380D02*
X190598095Y-113922380D01*
X190502857Y-114065238D01*
X190407619Y-114160476D01*
X190312380Y-114208095D01*
X236231428Y-114922380D02*
X235755238Y-114922380D01*
X235755238Y-113922380D01*
X236564761Y-114922380D02*
X236564761Y-114255714D01*
X236564761Y-113922380D02*
X236517142Y-113970000D01*
X236564761Y-114017619D01*
X236612380Y-113970000D01*
X236564761Y-113922380D01*
X236564761Y-114017619D01*
X237469523Y-114255714D02*
X237469523Y-115065238D01*
X237421904Y-115160476D01*
X237374285Y-115208095D01*
X237279047Y-115255714D01*
X237136190Y-115255714D01*
X237040952Y-115208095D01*
X237469523Y-114874761D02*
X237374285Y-114922380D01*
X237183809Y-114922380D01*
X237088571Y-114874761D01*
X237040952Y-114827142D01*
X236993333Y-114731904D01*
X236993333Y-114446190D01*
X237040952Y-114350952D01*
X237088571Y-114303333D01*
X237183809Y-114255714D01*
X237374285Y-114255714D01*
X237469523Y-114303333D01*
X237945714Y-114922380D02*
X237945714Y-113922380D01*
X238374285Y-114922380D02*
X238374285Y-114398571D01*
X238326666Y-114303333D01*
X238231428Y-114255714D01*
X238088571Y-114255714D01*
X237993333Y-114303333D01*
X237945714Y-114350952D01*
X238707619Y-114255714D02*
X239088571Y-114255714D01*
X238850476Y-113922380D02*
X238850476Y-114779523D01*
X238898095Y-114874761D01*
X238993333Y-114922380D01*
X239088571Y-114922380D01*
X239374285Y-114874761D02*
X239469523Y-114922380D01*
X239660000Y-114922380D01*
X239755238Y-114874761D01*
X239802857Y-114779523D01*
X239802857Y-114731904D01*
X239755238Y-114636666D01*
X239660000Y-114589047D01*
X239517142Y-114589047D01*
X239421904Y-114541428D01*
X239374285Y-114446190D01*
X239374285Y-114398571D01*
X239421904Y-114303333D01*
X239517142Y-114255714D01*
X239660000Y-114255714D01*
X239755238Y-114303333D01*
X240183809Y-114636666D02*
X240660000Y-114636666D01*
X240088571Y-114922380D02*
X240421904Y-113922380D01*
X240755238Y-114922380D01*
X241040952Y-114017619D02*
X241088571Y-113970000D01*
X241183809Y-113922380D01*
X241421904Y-113922380D01*
X241517142Y-113970000D01*
X241564761Y-114017619D01*
X241612380Y-114112857D01*
X241612380Y-114208095D01*
X241564761Y-114350952D01*
X240993333Y-114922380D01*
X241612380Y-114922380D01*
X210831428Y-114922380D02*
X210355238Y-114922380D01*
X210355238Y-113922380D01*
X211164761Y-114922380D02*
X211164761Y-114255714D01*
X211164761Y-113922380D02*
X211117142Y-113970000D01*
X211164761Y-114017619D01*
X211212380Y-113970000D01*
X211164761Y-113922380D01*
X211164761Y-114017619D01*
X212069523Y-114255714D02*
X212069523Y-115065238D01*
X212021904Y-115160476D01*
X211974285Y-115208095D01*
X211879047Y-115255714D01*
X211736190Y-115255714D01*
X211640952Y-115208095D01*
X212069523Y-114874761D02*
X211974285Y-114922380D01*
X211783809Y-114922380D01*
X211688571Y-114874761D01*
X211640952Y-114827142D01*
X211593333Y-114731904D01*
X211593333Y-114446190D01*
X211640952Y-114350952D01*
X211688571Y-114303333D01*
X211783809Y-114255714D01*
X211974285Y-114255714D01*
X212069523Y-114303333D01*
X212545714Y-114922380D02*
X212545714Y-113922380D01*
X212974285Y-114922380D02*
X212974285Y-114398571D01*
X212926666Y-114303333D01*
X212831428Y-114255714D01*
X212688571Y-114255714D01*
X212593333Y-114303333D01*
X212545714Y-114350952D01*
X213307619Y-114255714D02*
X213688571Y-114255714D01*
X213450476Y-113922380D02*
X213450476Y-114779523D01*
X213498095Y-114874761D01*
X213593333Y-114922380D01*
X213688571Y-114922380D01*
X213974285Y-114874761D02*
X214069523Y-114922380D01*
X214260000Y-114922380D01*
X214355238Y-114874761D01*
X214402857Y-114779523D01*
X214402857Y-114731904D01*
X214355238Y-114636666D01*
X214260000Y-114589047D01*
X214117142Y-114589047D01*
X214021904Y-114541428D01*
X213974285Y-114446190D01*
X213974285Y-114398571D01*
X214021904Y-114303333D01*
X214117142Y-114255714D01*
X214260000Y-114255714D01*
X214355238Y-114303333D01*
X214783809Y-114636666D02*
X215260000Y-114636666D01*
X214688571Y-114922380D02*
X215021904Y-113922380D01*
X215355238Y-114922380D01*
X216212380Y-114922380D02*
X215640952Y-114922380D01*
X215926666Y-114922380D02*
X215926666Y-113922380D01*
X215831428Y-114065238D01*
X215736190Y-114160476D01*
X215640952Y-114208095D01*
X192754761Y-60142380D02*
X192421428Y-59666190D01*
X192183333Y-60142380D02*
X192183333Y-59142380D01*
X192564285Y-59142380D01*
X192659523Y-59190000D01*
X192707142Y-59237619D01*
X192754761Y-59332857D01*
X192754761Y-59475714D01*
X192707142Y-59570952D01*
X192659523Y-59618571D01*
X192564285Y-59666190D01*
X192183333Y-59666190D01*
X193611904Y-60142380D02*
X193611904Y-59618571D01*
X193564285Y-59523333D01*
X193469047Y-59475714D01*
X193278571Y-59475714D01*
X193183333Y-59523333D01*
X193611904Y-60094761D02*
X193516666Y-60142380D01*
X193278571Y-60142380D01*
X193183333Y-60094761D01*
X193135714Y-59999523D01*
X193135714Y-59904285D01*
X193183333Y-59809047D01*
X193278571Y-59761428D01*
X193516666Y-59761428D01*
X193611904Y-59713809D01*
X194040476Y-60094761D02*
X194135714Y-60142380D01*
X194326190Y-60142380D01*
X194421428Y-60094761D01*
X194469047Y-59999523D01*
X194469047Y-59951904D01*
X194421428Y-59856666D01*
X194326190Y-59809047D01*
X194183333Y-59809047D01*
X194088095Y-59761428D01*
X194040476Y-59666190D01*
X194040476Y-59618571D01*
X194088095Y-59523333D01*
X194183333Y-59475714D01*
X194326190Y-59475714D01*
X194421428Y-59523333D01*
X194897619Y-59475714D02*
X194897619Y-60475714D01*
X194897619Y-59523333D02*
X194992857Y-59475714D01*
X195183333Y-59475714D01*
X195278571Y-59523333D01*
X195326190Y-59570952D01*
X195373809Y-59666190D01*
X195373809Y-59951904D01*
X195326190Y-60047142D01*
X195278571Y-60094761D01*
X195183333Y-60142380D01*
X194992857Y-60142380D01*
X194897619Y-60094761D01*
X195802380Y-60142380D02*
X195802380Y-59142380D01*
X195802380Y-59523333D02*
X195897619Y-59475714D01*
X196088095Y-59475714D01*
X196183333Y-59523333D01*
X196230952Y-59570952D01*
X196278571Y-59666190D01*
X196278571Y-59951904D01*
X196230952Y-60047142D01*
X196183333Y-60094761D01*
X196088095Y-60142380D01*
X195897619Y-60142380D01*
X195802380Y-60094761D01*
X197088095Y-60094761D02*
X196992857Y-60142380D01*
X196802380Y-60142380D01*
X196707142Y-60094761D01*
X196659523Y-59999523D01*
X196659523Y-59618571D01*
X196707142Y-59523333D01*
X196802380Y-59475714D01*
X196992857Y-59475714D01*
X197088095Y-59523333D01*
X197135714Y-59618571D01*
X197135714Y-59713809D01*
X196659523Y-59809047D01*
X197564285Y-60142380D02*
X197564285Y-59475714D01*
X197564285Y-59666190D02*
X197611904Y-59570952D01*
X197659523Y-59523333D01*
X197754761Y-59475714D01*
X197850000Y-59475714D01*
X198183333Y-60142380D02*
X198183333Y-59475714D01*
X198183333Y-59666190D02*
X198230952Y-59570952D01*
X198278571Y-59523333D01*
X198373809Y-59475714D01*
X198469047Y-59475714D01*
X198707142Y-59475714D02*
X198945238Y-60142380D01*
X199183333Y-59475714D02*
X198945238Y-60142380D01*
X198850000Y-60380476D01*
X198802380Y-60428095D01*
X198707142Y-60475714D01*
X199564285Y-60142380D02*
X199564285Y-59142380D01*
X199945238Y-59142380D01*
X200040476Y-59190000D01*
X200088095Y-59237619D01*
X200135714Y-59332857D01*
X200135714Y-59475714D01*
X200088095Y-59570952D01*
X200040476Y-59618571D01*
X199945238Y-59666190D01*
X199564285Y-59666190D01*
X200564285Y-60142380D02*
X200564285Y-59475714D01*
X200564285Y-59142380D02*
X200516666Y-59190000D01*
X200564285Y-59237619D01*
X200611904Y-59190000D01*
X200564285Y-59142380D01*
X200564285Y-59237619D01*
X201564285Y-60142380D02*
X200992857Y-60142380D01*
X201278571Y-60142380D02*
X201278571Y-59142380D01*
X201183333Y-59285238D01*
X201088095Y-59380476D01*
X200992857Y-59428095D01*
X185142857Y-111742380D02*
X185142857Y-110742380D01*
X186190476Y-111742380D02*
X185857142Y-111266190D01*
X185619047Y-111742380D02*
X185619047Y-110742380D01*
X186000000Y-110742380D01*
X186095238Y-110790000D01*
X186142857Y-110837619D01*
X186190476Y-110932857D01*
X186190476Y-111075714D01*
X186142857Y-111170952D01*
X186095238Y-111218571D01*
X186000000Y-111266190D01*
X185619047Y-111266190D01*
X186952380Y-111218571D02*
X186619047Y-111218571D01*
X186619047Y-111742380D02*
X186619047Y-110742380D01*
X187095238Y-110742380D01*
X187380952Y-110742380D02*
X188047619Y-110742380D01*
X187380952Y-111742380D01*
X188047619Y-111742380D01*
X188857142Y-111075714D02*
X188857142Y-111742380D01*
X188619047Y-110694761D02*
X188380952Y-111409047D01*
X189000000Y-111409047D01*
X189809523Y-111075714D02*
X189809523Y-111742380D01*
X189571428Y-110694761D02*
X189333333Y-111409047D01*
X189952380Y-111409047D01*
X190333333Y-111742380D02*
X190333333Y-110742380D01*
X190904761Y-111742380D01*
X190904761Y-110742380D01*
X191857142Y-110742380D02*
X191380952Y-110742380D01*
X191333333Y-111218571D01*
X191380952Y-111170952D01*
X191476190Y-111123333D01*
X191714285Y-111123333D01*
X191809523Y-111170952D01*
X191857142Y-111218571D01*
X191904761Y-111313809D01*
X191904761Y-111551904D01*
X191857142Y-111647142D01*
X191809523Y-111694761D01*
X191714285Y-111742380D01*
X191476190Y-111742380D01*
X191380952Y-111694761D01*
X191333333Y-111647142D01*
X239752857Y-111742380D02*
X239752857Y-110742380D01*
X240800476Y-111742380D02*
X240467142Y-111266190D01*
X240229047Y-111742380D02*
X240229047Y-110742380D01*
X240610000Y-110742380D01*
X240705238Y-110790000D01*
X240752857Y-110837619D01*
X240800476Y-110932857D01*
X240800476Y-111075714D01*
X240752857Y-111170952D01*
X240705238Y-111218571D01*
X240610000Y-111266190D01*
X240229047Y-111266190D01*
X241562380Y-111218571D02*
X241229047Y-111218571D01*
X241229047Y-111742380D02*
X241229047Y-110742380D01*
X241705238Y-110742380D01*
X241990952Y-110742380D02*
X242657619Y-110742380D01*
X241990952Y-111742380D01*
X242657619Y-111742380D01*
X243467142Y-111075714D02*
X243467142Y-111742380D01*
X243229047Y-110694761D02*
X242990952Y-111409047D01*
X243610000Y-111409047D01*
X244419523Y-111075714D02*
X244419523Y-111742380D01*
X244181428Y-110694761D02*
X243943333Y-111409047D01*
X244562380Y-111409047D01*
X244943333Y-111742380D02*
X244943333Y-110742380D01*
X245514761Y-111742380D01*
X245514761Y-110742380D01*
X246419523Y-111075714D02*
X246419523Y-111742380D01*
X246181428Y-110694761D02*
X245943333Y-111409047D01*
X246562380Y-111409047D01*
X213082857Y-106662380D02*
X213082857Y-105662380D01*
X214130476Y-106662380D02*
X213797142Y-106186190D01*
X213559047Y-106662380D02*
X213559047Y-105662380D01*
X213940000Y-105662380D01*
X214035238Y-105710000D01*
X214082857Y-105757619D01*
X214130476Y-105852857D01*
X214130476Y-105995714D01*
X214082857Y-106090952D01*
X214035238Y-106138571D01*
X213940000Y-106186190D01*
X213559047Y-106186190D01*
X214892380Y-106138571D02*
X214559047Y-106138571D01*
X214559047Y-106662380D02*
X214559047Y-105662380D01*
X215035238Y-105662380D01*
X215320952Y-105662380D02*
X215987619Y-105662380D01*
X215320952Y-106662380D01*
X215987619Y-106662380D01*
X216797142Y-105995714D02*
X216797142Y-106662380D01*
X216559047Y-105614761D02*
X216320952Y-106329047D01*
X216940000Y-106329047D01*
X217749523Y-105995714D02*
X217749523Y-106662380D01*
X217511428Y-105614761D02*
X217273333Y-106329047D01*
X217892380Y-106329047D01*
X218273333Y-106662380D02*
X218273333Y-105662380D01*
X218844761Y-106662380D01*
X218844761Y-105662380D01*
X219225714Y-105662380D02*
X219844761Y-105662380D01*
X219511428Y-106043333D01*
X219654285Y-106043333D01*
X219749523Y-106090952D01*
X219797142Y-106138571D01*
X219844761Y-106233809D01*
X219844761Y-106471904D01*
X219797142Y-106567142D01*
X219749523Y-106614761D01*
X219654285Y-106662380D01*
X219368571Y-106662380D01*
X219273333Y-106614761D01*
X219225714Y-106567142D01*
X197842857Y-111742380D02*
X197842857Y-110742380D01*
X198890476Y-111742380D02*
X198557142Y-111266190D01*
X198319047Y-111742380D02*
X198319047Y-110742380D01*
X198700000Y-110742380D01*
X198795238Y-110790000D01*
X198842857Y-110837619D01*
X198890476Y-110932857D01*
X198890476Y-111075714D01*
X198842857Y-111170952D01*
X198795238Y-111218571D01*
X198700000Y-111266190D01*
X198319047Y-111266190D01*
X199652380Y-111218571D02*
X199319047Y-111218571D01*
X199319047Y-111742380D02*
X199319047Y-110742380D01*
X199795238Y-110742380D01*
X200080952Y-110742380D02*
X200747619Y-110742380D01*
X200080952Y-111742380D01*
X200747619Y-111742380D01*
X201557142Y-111075714D02*
X201557142Y-111742380D01*
X201319047Y-110694761D02*
X201080952Y-111409047D01*
X201700000Y-111409047D01*
X202509523Y-111075714D02*
X202509523Y-111742380D01*
X202271428Y-110694761D02*
X202033333Y-111409047D01*
X202652380Y-111409047D01*
X203033333Y-111742380D02*
X203033333Y-110742380D01*
X203604761Y-111742380D01*
X203604761Y-110742380D01*
X204033333Y-110837619D02*
X204080952Y-110790000D01*
X204176190Y-110742380D01*
X204414285Y-110742380D01*
X204509523Y-110790000D01*
X204557142Y-110837619D01*
X204604761Y-110932857D01*
X204604761Y-111028095D01*
X204557142Y-111170952D01*
X203985714Y-111742380D01*
X204604761Y-111742380D01*
X227752857Y-111742380D02*
X227752857Y-110742380D01*
X228800476Y-111742380D02*
X228467142Y-111266190D01*
X228229047Y-111742380D02*
X228229047Y-110742380D01*
X228610000Y-110742380D01*
X228705238Y-110790000D01*
X228752857Y-110837619D01*
X228800476Y-110932857D01*
X228800476Y-111075714D01*
X228752857Y-111170952D01*
X228705238Y-111218571D01*
X228610000Y-111266190D01*
X228229047Y-111266190D01*
X229562380Y-111218571D02*
X229229047Y-111218571D01*
X229229047Y-111742380D02*
X229229047Y-110742380D01*
X229705238Y-110742380D01*
X229990952Y-110742380D02*
X230657619Y-110742380D01*
X229990952Y-111742380D01*
X230657619Y-111742380D01*
X231467142Y-111075714D02*
X231467142Y-111742380D01*
X231229047Y-110694761D02*
X230990952Y-111409047D01*
X231610000Y-111409047D01*
X232419523Y-111075714D02*
X232419523Y-111742380D01*
X232181428Y-110694761D02*
X231943333Y-111409047D01*
X232562380Y-111409047D01*
X232943333Y-111742380D02*
X232943333Y-110742380D01*
X233514761Y-111742380D01*
X233514761Y-110742380D01*
X234514761Y-111742380D02*
X233943333Y-111742380D01*
X234229047Y-111742380D02*
X234229047Y-110742380D01*
X234133809Y-110885238D01*
X234038571Y-110980476D01*
X233943333Y-111028095D01*
X203597142Y-44445714D02*
X203597142Y-45255238D01*
X203549523Y-45350476D01*
X203501904Y-45398095D01*
X203406666Y-45445714D01*
X203263809Y-45445714D01*
X203168571Y-45398095D01*
X203597142Y-45064761D02*
X203501904Y-45112380D01*
X203311428Y-45112380D01*
X203216190Y-45064761D01*
X203168571Y-45017142D01*
X203120952Y-44921904D01*
X203120952Y-44636190D01*
X203168571Y-44540952D01*
X203216190Y-44493333D01*
X203311428Y-44445714D01*
X203501904Y-44445714D01*
X203597142Y-44493333D01*
X204025714Y-44207619D02*
X204073333Y-44160000D01*
X204168571Y-44112380D01*
X204406666Y-44112380D01*
X204501904Y-44160000D01*
X204549523Y-44207619D01*
X204597142Y-44302857D01*
X204597142Y-44398095D01*
X204549523Y-44540952D01*
X203978095Y-45112380D01*
X204597142Y-45112380D01*
X205454285Y-44445714D02*
X205454285Y-45112380D01*
X205216190Y-44064761D02*
X204978095Y-44779047D01*
X205597142Y-44779047D01*
X205978095Y-44445714D02*
X205978095Y-45445714D01*
X205978095Y-44493333D02*
X206073333Y-44445714D01*
X206263809Y-44445714D01*
X206359047Y-44493333D01*
X206406666Y-44540952D01*
X206454285Y-44636190D01*
X206454285Y-44921904D01*
X206406666Y-45017142D01*
X206359047Y-45064761D01*
X206263809Y-45112380D01*
X206073333Y-45112380D01*
X205978095Y-45064761D01*
X207406666Y-45112380D02*
X206835238Y-45112380D01*
X207120952Y-45112380D02*
X207120952Y-44112380D01*
X207025714Y-44255238D01*
X206930476Y-44350476D01*
X206835238Y-44398095D01*
X207978095Y-44540952D02*
X207882857Y-44493333D01*
X207835238Y-44445714D01*
X207787619Y-44350476D01*
X207787619Y-44302857D01*
X207835238Y-44207619D01*
X207882857Y-44160000D01*
X207978095Y-44112380D01*
X208168571Y-44112380D01*
X208263809Y-44160000D01*
X208311428Y-44207619D01*
X208359047Y-44302857D01*
X208359047Y-44350476D01*
X208311428Y-44445714D01*
X208263809Y-44493333D01*
X208168571Y-44540952D01*
X207978095Y-44540952D01*
X207882857Y-44588571D01*
X207835238Y-44636190D01*
X207787619Y-44731428D01*
X207787619Y-44921904D01*
X207835238Y-45017142D01*
X207882857Y-45064761D01*
X207978095Y-45112380D01*
X208168571Y-45112380D01*
X208263809Y-45064761D01*
X208311428Y-45017142D01*
X208359047Y-44921904D01*
X208359047Y-44731428D01*
X208311428Y-44636190D01*
X208263809Y-44588571D01*
X208168571Y-44540952D01*
X225187142Y-44445714D02*
X225187142Y-45255238D01*
X225139523Y-45350476D01*
X225091904Y-45398095D01*
X224996666Y-45445714D01*
X224853809Y-45445714D01*
X224758571Y-45398095D01*
X225187142Y-45064761D02*
X225091904Y-45112380D01*
X224901428Y-45112380D01*
X224806190Y-45064761D01*
X224758571Y-45017142D01*
X224710952Y-44921904D01*
X224710952Y-44636190D01*
X224758571Y-44540952D01*
X224806190Y-44493333D01*
X224901428Y-44445714D01*
X225091904Y-44445714D01*
X225187142Y-44493333D01*
X225615714Y-44207619D02*
X225663333Y-44160000D01*
X225758571Y-44112380D01*
X225996666Y-44112380D01*
X226091904Y-44160000D01*
X226139523Y-44207619D01*
X226187142Y-44302857D01*
X226187142Y-44398095D01*
X226139523Y-44540952D01*
X225568095Y-45112380D01*
X226187142Y-45112380D01*
X227091904Y-44112380D02*
X226615714Y-44112380D01*
X226568095Y-44588571D01*
X226615714Y-44540952D01*
X226710952Y-44493333D01*
X226949047Y-44493333D01*
X227044285Y-44540952D01*
X227091904Y-44588571D01*
X227139523Y-44683809D01*
X227139523Y-44921904D01*
X227091904Y-45017142D01*
X227044285Y-45064761D01*
X226949047Y-45112380D01*
X226710952Y-45112380D01*
X226615714Y-45064761D01*
X226568095Y-45017142D01*
X227568095Y-44445714D02*
X227568095Y-45445714D01*
X227568095Y-44493333D02*
X227663333Y-44445714D01*
X227853809Y-44445714D01*
X227949047Y-44493333D01*
X227996666Y-44540952D01*
X228044285Y-44636190D01*
X228044285Y-44921904D01*
X227996666Y-45017142D01*
X227949047Y-45064761D01*
X227853809Y-45112380D01*
X227663333Y-45112380D01*
X227568095Y-45064761D01*
X228425238Y-44207619D02*
X228472857Y-44160000D01*
X228568095Y-44112380D01*
X228806190Y-44112380D01*
X228901428Y-44160000D01*
X228949047Y-44207619D01*
X228996666Y-44302857D01*
X228996666Y-44398095D01*
X228949047Y-44540952D01*
X228377619Y-45112380D01*
X228996666Y-45112380D01*
X229377619Y-44207619D02*
X229425238Y-44160000D01*
X229520476Y-44112380D01*
X229758571Y-44112380D01*
X229853809Y-44160000D01*
X229901428Y-44207619D01*
X229949047Y-44302857D01*
X229949047Y-44398095D01*
X229901428Y-44540952D01*
X229330000Y-45112380D01*
X229949047Y-45112380D01*
X239157142Y-44445714D02*
X239157142Y-45255238D01*
X239109523Y-45350476D01*
X239061904Y-45398095D01*
X238966666Y-45445714D01*
X238823809Y-45445714D01*
X238728571Y-45398095D01*
X239157142Y-45064761D02*
X239061904Y-45112380D01*
X238871428Y-45112380D01*
X238776190Y-45064761D01*
X238728571Y-45017142D01*
X238680952Y-44921904D01*
X238680952Y-44636190D01*
X238728571Y-44540952D01*
X238776190Y-44493333D01*
X238871428Y-44445714D01*
X239061904Y-44445714D01*
X239157142Y-44493333D01*
X239585714Y-44207619D02*
X239633333Y-44160000D01*
X239728571Y-44112380D01*
X239966666Y-44112380D01*
X240061904Y-44160000D01*
X240109523Y-44207619D01*
X240157142Y-44302857D01*
X240157142Y-44398095D01*
X240109523Y-44540952D01*
X239538095Y-45112380D01*
X240157142Y-45112380D01*
X241014285Y-44112380D02*
X240823809Y-44112380D01*
X240728571Y-44160000D01*
X240680952Y-44207619D01*
X240585714Y-44350476D01*
X240538095Y-44540952D01*
X240538095Y-44921904D01*
X240585714Y-45017142D01*
X240633333Y-45064761D01*
X240728571Y-45112380D01*
X240919047Y-45112380D01*
X241014285Y-45064761D01*
X241061904Y-45017142D01*
X241109523Y-44921904D01*
X241109523Y-44683809D01*
X241061904Y-44588571D01*
X241014285Y-44540952D01*
X240919047Y-44493333D01*
X240728571Y-44493333D01*
X240633333Y-44540952D01*
X240585714Y-44588571D01*
X240538095Y-44683809D01*
X241538095Y-44445714D02*
X241538095Y-45445714D01*
X241538095Y-44493333D02*
X241633333Y-44445714D01*
X241823809Y-44445714D01*
X241919047Y-44493333D01*
X241966666Y-44540952D01*
X242014285Y-44636190D01*
X242014285Y-44921904D01*
X241966666Y-45017142D01*
X241919047Y-45064761D01*
X241823809Y-45112380D01*
X241633333Y-45112380D01*
X241538095Y-45064761D01*
X242347619Y-44112380D02*
X242966666Y-44112380D01*
X242633333Y-44493333D01*
X242776190Y-44493333D01*
X242871428Y-44540952D01*
X242919047Y-44588571D01*
X242966666Y-44683809D01*
X242966666Y-44921904D01*
X242919047Y-45017142D01*
X242871428Y-45064761D01*
X242776190Y-45112380D01*
X242490476Y-45112380D01*
X242395238Y-45064761D01*
X242347619Y-45017142D01*
X243300000Y-44112380D02*
X243966666Y-44112380D01*
X243538095Y-45112380D01*
X190897142Y-44445714D02*
X190897142Y-45255238D01*
X190849523Y-45350476D01*
X190801904Y-45398095D01*
X190706666Y-45445714D01*
X190563809Y-45445714D01*
X190468571Y-45398095D01*
X190897142Y-45064761D02*
X190801904Y-45112380D01*
X190611428Y-45112380D01*
X190516190Y-45064761D01*
X190468571Y-45017142D01*
X190420952Y-44921904D01*
X190420952Y-44636190D01*
X190468571Y-44540952D01*
X190516190Y-44493333D01*
X190611428Y-44445714D01*
X190801904Y-44445714D01*
X190897142Y-44493333D01*
X191325714Y-44207619D02*
X191373333Y-44160000D01*
X191468571Y-44112380D01*
X191706666Y-44112380D01*
X191801904Y-44160000D01*
X191849523Y-44207619D01*
X191897142Y-44302857D01*
X191897142Y-44398095D01*
X191849523Y-44540952D01*
X191278095Y-45112380D01*
X191897142Y-45112380D01*
X192230476Y-44112380D02*
X192897142Y-44112380D01*
X192468571Y-45112380D01*
X193278095Y-44445714D02*
X193278095Y-45445714D01*
X193278095Y-44493333D02*
X193373333Y-44445714D01*
X193563809Y-44445714D01*
X193659047Y-44493333D01*
X193706666Y-44540952D01*
X193754285Y-44636190D01*
X193754285Y-44921904D01*
X193706666Y-45017142D01*
X193659047Y-45064761D01*
X193563809Y-45112380D01*
X193373333Y-45112380D01*
X193278095Y-45064761D01*
X194706666Y-45112380D02*
X194135238Y-45112380D01*
X194420952Y-45112380D02*
X194420952Y-44112380D01*
X194325714Y-44255238D01*
X194230476Y-44350476D01*
X194135238Y-44398095D01*
X195040000Y-44112380D02*
X195659047Y-44112380D01*
X195325714Y-44493333D01*
X195468571Y-44493333D01*
X195563809Y-44540952D01*
X195611428Y-44588571D01*
X195659047Y-44683809D01*
X195659047Y-44921904D01*
X195611428Y-45017142D01*
X195563809Y-45064761D01*
X195468571Y-45112380D01*
X195182857Y-45112380D01*
X195087619Y-45064761D01*
X195040000Y-45017142D01*
X211498571Y-112268095D02*
X211498571Y-112601428D01*
X212022380Y-112601428D02*
X211022380Y-112601428D01*
X211022380Y-112125238D01*
X212022380Y-111315714D02*
X211498571Y-111315714D01*
X211403333Y-111363333D01*
X211355714Y-111458571D01*
X211355714Y-111649047D01*
X211403333Y-111744285D01*
X211974761Y-111315714D02*
X212022380Y-111410952D01*
X212022380Y-111649047D01*
X211974761Y-111744285D01*
X211879523Y-111791904D01*
X211784285Y-111791904D01*
X211689047Y-111744285D01*
X211641428Y-111649047D01*
X211641428Y-111410952D01*
X211593809Y-111315714D01*
X211355714Y-110839523D02*
X212022380Y-110839523D01*
X211450952Y-110839523D02*
X211403333Y-110791904D01*
X211355714Y-110696666D01*
X211355714Y-110553809D01*
X211403333Y-110458571D01*
X211498571Y-110410952D01*
X212022380Y-110410952D01*
X211022380Y-109744285D02*
X211022380Y-109649047D01*
X211070000Y-109553809D01*
X211117619Y-109506190D01*
X211212857Y-109458571D01*
X211403333Y-109410952D01*
X211641428Y-109410952D01*
X211831904Y-109458571D01*
X211927142Y-109506190D01*
X211974761Y-109553809D01*
X212022380Y-109649047D01*
X212022380Y-109744285D01*
X211974761Y-109839523D01*
X211927142Y-109887142D01*
X211831904Y-109934761D01*
X211641428Y-109982380D01*
X211403333Y-109982380D01*
X211212857Y-109934761D01*
X211117619Y-109887142D01*
X211070000Y-109839523D01*
X211022380Y-109744285D01*
X195040761Y-36056666D02*
X195516952Y-36056666D01*
X194945523Y-36342380D02*
X195278857Y-35342380D01*
X195612190Y-36342380D01*
X195945523Y-36342380D02*
X195945523Y-35342380D01*
X196421714Y-36342380D02*
X196421714Y-35342380D01*
X196993142Y-36342380D01*
X196993142Y-35342380D01*
X197469333Y-35961428D02*
X198231238Y-35961428D01*
X198850285Y-35770952D02*
X198755047Y-35723333D01*
X198707428Y-35675714D01*
X198659809Y-35580476D01*
X198659809Y-35532857D01*
X198707428Y-35437619D01*
X198755047Y-35390000D01*
X198850285Y-35342380D01*
X199040761Y-35342380D01*
X199136000Y-35390000D01*
X199183619Y-35437619D01*
X199231238Y-35532857D01*
X199231238Y-35580476D01*
X199183619Y-35675714D01*
X199136000Y-35723333D01*
X199040761Y-35770952D01*
X198850285Y-35770952D01*
X198755047Y-35818571D01*
X198707428Y-35866190D01*
X198659809Y-35961428D01*
X198659809Y-36151904D01*
X198707428Y-36247142D01*
X198755047Y-36294761D01*
X198850285Y-36342380D01*
X199040761Y-36342380D01*
X199136000Y-36294761D01*
X199183619Y-36247142D01*
X199231238Y-36151904D01*
X199231238Y-35961428D01*
X199183619Y-35866190D01*
X199136000Y-35818571D01*
X199040761Y-35770952D01*
X200120761Y-36056666D02*
X200596952Y-36056666D01*
X200025523Y-36342380D02*
X200358857Y-35342380D01*
X200692190Y-36342380D01*
X201025523Y-36342380D02*
X201025523Y-35342380D01*
X201501714Y-36342380D02*
X201501714Y-35342380D01*
X202073142Y-36342380D01*
X202073142Y-35342380D01*
X202549333Y-35961428D02*
X203311238Y-35961428D01*
X203692190Y-35342380D02*
X204358857Y-35342380D01*
X203930285Y-36342380D01*
X205200761Y-36056666D02*
X205676952Y-36056666D01*
X205105523Y-36342380D02*
X205438857Y-35342380D01*
X205772190Y-36342380D01*
X206105523Y-36342380D02*
X206105523Y-35342380D01*
X206581714Y-36342380D02*
X206581714Y-35342380D01*
X207153142Y-36342380D01*
X207153142Y-35342380D01*
X207629333Y-35961428D02*
X208391238Y-35961428D01*
X209296000Y-35342380D02*
X209105523Y-35342380D01*
X209010285Y-35390000D01*
X208962666Y-35437619D01*
X208867428Y-35580476D01*
X208819809Y-35770952D01*
X208819809Y-36151904D01*
X208867428Y-36247142D01*
X208915047Y-36294761D01*
X209010285Y-36342380D01*
X209200761Y-36342380D01*
X209296000Y-36294761D01*
X209343619Y-36247142D01*
X209391238Y-36151904D01*
X209391238Y-35913809D01*
X209343619Y-35818571D01*
X209296000Y-35770952D01*
X209200761Y-35723333D01*
X209010285Y-35723333D01*
X208915047Y-35770952D01*
X208867428Y-35818571D01*
X208819809Y-35913809D01*
X210280761Y-36056666D02*
X210756952Y-36056666D01*
X210185523Y-36342380D02*
X210518857Y-35342380D01*
X210852190Y-36342380D01*
X211185523Y-36342380D02*
X211185523Y-35342380D01*
X211661714Y-36342380D02*
X211661714Y-35342380D01*
X212233142Y-36342380D01*
X212233142Y-35342380D01*
X212709333Y-35961428D02*
X213471238Y-35961428D01*
X214423619Y-35342380D02*
X213947428Y-35342380D01*
X213899809Y-35818571D01*
X213947428Y-35770952D01*
X214042666Y-35723333D01*
X214280761Y-35723333D01*
X214376000Y-35770952D01*
X214423619Y-35818571D01*
X214471238Y-35913809D01*
X214471238Y-36151904D01*
X214423619Y-36247142D01*
X214376000Y-36294761D01*
X214280761Y-36342380D01*
X214042666Y-36342380D01*
X213947428Y-36294761D01*
X213899809Y-36247142D01*
X218662761Y-36056666D02*
X219138952Y-36056666D01*
X218567523Y-36342380D02*
X218900857Y-35342380D01*
X219234190Y-36342380D01*
X219567523Y-36342380D02*
X219567523Y-35342380D01*
X220043714Y-36342380D02*
X220043714Y-35342380D01*
X220615142Y-36342380D01*
X220615142Y-35342380D01*
X221091333Y-35961428D02*
X221853238Y-35961428D01*
X222758000Y-35675714D02*
X222758000Y-36342380D01*
X222519904Y-35294761D02*
X222281809Y-36009047D01*
X222900857Y-36009047D01*
X223742761Y-36056666D02*
X224218952Y-36056666D01*
X223647523Y-36342380D02*
X223980857Y-35342380D01*
X224314190Y-36342380D01*
X224647523Y-36342380D02*
X224647523Y-35342380D01*
X225123714Y-36342380D02*
X225123714Y-35342380D01*
X225695142Y-36342380D01*
X225695142Y-35342380D01*
X226171333Y-35961428D02*
X226933238Y-35961428D01*
X227314190Y-35342380D02*
X227933238Y-35342380D01*
X227599904Y-35723333D01*
X227742761Y-35723333D01*
X227838000Y-35770952D01*
X227885619Y-35818571D01*
X227933238Y-35913809D01*
X227933238Y-36151904D01*
X227885619Y-36247142D01*
X227838000Y-36294761D01*
X227742761Y-36342380D01*
X227457047Y-36342380D01*
X227361809Y-36294761D01*
X227314190Y-36247142D01*
X228822761Y-36056666D02*
X229298952Y-36056666D01*
X228727523Y-36342380D02*
X229060857Y-35342380D01*
X229394190Y-36342380D01*
X229727523Y-36342380D02*
X229727523Y-35342380D01*
X230203714Y-36342380D02*
X230203714Y-35342380D01*
X230775142Y-36342380D01*
X230775142Y-35342380D01*
X231251333Y-35961428D02*
X232013238Y-35961428D01*
X232441809Y-35437619D02*
X232489428Y-35390000D01*
X232584666Y-35342380D01*
X232822761Y-35342380D01*
X232918000Y-35390000D01*
X232965619Y-35437619D01*
X233013238Y-35532857D01*
X233013238Y-35628095D01*
X232965619Y-35770952D01*
X232394190Y-36342380D01*
X233013238Y-36342380D01*
X233902761Y-36056666D02*
X234378952Y-36056666D01*
X233807523Y-36342380D02*
X234140857Y-35342380D01*
X234474190Y-36342380D01*
X234807523Y-36342380D02*
X234807523Y-35342380D01*
X235283714Y-36342380D02*
X235283714Y-35342380D01*
X235855142Y-36342380D01*
X235855142Y-35342380D01*
X236331333Y-35961428D02*
X237093238Y-35961428D01*
X238093238Y-36342380D02*
X237521809Y-36342380D01*
X237807523Y-36342380D02*
X237807523Y-35342380D01*
X237712285Y-35485238D01*
X237617047Y-35580476D01*
X237521809Y-35628095D01*
X218487619Y-78025428D02*
X218440000Y-77977809D01*
X218392380Y-77882571D01*
X218392380Y-77644476D01*
X218440000Y-77549238D01*
X218487619Y-77501619D01*
X218582857Y-77454000D01*
X218678095Y-77454000D01*
X218820952Y-77501619D01*
X219392380Y-78073047D01*
X219392380Y-77454000D01*
X219392380Y-77025428D02*
X218392380Y-77025428D01*
X219392380Y-76454000D01*
X218392380Y-76454000D01*
X218392380Y-76073047D02*
X218392380Y-75406380D01*
X219392380Y-75834952D01*
X218392380Y-74834952D02*
X218392380Y-74739714D01*
X218440000Y-74644476D01*
X218487619Y-74596857D01*
X218582857Y-74549238D01*
X218773333Y-74501619D01*
X219011428Y-74501619D01*
X219201904Y-74549238D01*
X219297142Y-74596857D01*
X219344761Y-74644476D01*
X219392380Y-74739714D01*
X219392380Y-74834952D01*
X219344761Y-74930190D01*
X219297142Y-74977809D01*
X219201904Y-75025428D01*
X219011428Y-75073047D01*
X218773333Y-75073047D01*
X218582857Y-75025428D01*
X218487619Y-74977809D01*
X218440000Y-74930190D01*
X218392380Y-74834952D01*
X218392380Y-73882571D02*
X218392380Y-73787333D01*
X218440000Y-73692095D01*
X218487619Y-73644476D01*
X218582857Y-73596857D01*
X218773333Y-73549238D01*
X219011428Y-73549238D01*
X219201904Y-73596857D01*
X219297142Y-73644476D01*
X219344761Y-73692095D01*
X219392380Y-73787333D01*
X219392380Y-73882571D01*
X219344761Y-73977809D01*
X219297142Y-74025428D01*
X219201904Y-74073047D01*
X219011428Y-74120666D01*
X218773333Y-74120666D01*
X218582857Y-74073047D01*
X218487619Y-74025428D01*
X218440000Y-73977809D01*
X218392380Y-73882571D01*
X218487619Y-73168285D02*
X218440000Y-73120666D01*
X218392380Y-73025428D01*
X218392380Y-72787333D01*
X218440000Y-72692095D01*
X218487619Y-72644476D01*
X218582857Y-72596857D01*
X218678095Y-72596857D01*
X218820952Y-72644476D01*
X219392380Y-73215904D01*
X219392380Y-72596857D01*
X219487619Y-72406380D02*
X219487619Y-71644476D01*
X218392380Y-71501619D02*
X218392380Y-70882571D01*
X218773333Y-71215904D01*
X218773333Y-71073047D01*
X218820952Y-70977809D01*
X218868571Y-70930190D01*
X218963809Y-70882571D01*
X219201904Y-70882571D01*
X219297142Y-70930190D01*
X219344761Y-70977809D01*
X219392380Y-71073047D01*
X219392380Y-71358761D01*
X219344761Y-71454000D01*
X219297142Y-71501619D01*
X233727619Y-77771428D02*
X233680000Y-77723809D01*
X233632380Y-77628571D01*
X233632380Y-77390476D01*
X233680000Y-77295238D01*
X233727619Y-77247619D01*
X233822857Y-77200000D01*
X233918095Y-77200000D01*
X234060952Y-77247619D01*
X234632380Y-77819047D01*
X234632380Y-77200000D01*
X234632380Y-76771428D02*
X233632380Y-76771428D01*
X234632380Y-76200000D01*
X233632380Y-76200000D01*
X233632380Y-75819047D02*
X233632380Y-75152380D01*
X234632380Y-75580952D01*
X233632380Y-74580952D02*
X233632380Y-74485714D01*
X233680000Y-74390476D01*
X233727619Y-74342857D01*
X233822857Y-74295238D01*
X234013333Y-74247619D01*
X234251428Y-74247619D01*
X234441904Y-74295238D01*
X234537142Y-74342857D01*
X234584761Y-74390476D01*
X234632380Y-74485714D01*
X234632380Y-74580952D01*
X234584761Y-74676190D01*
X234537142Y-74723809D01*
X234441904Y-74771428D01*
X234251428Y-74819047D01*
X234013333Y-74819047D01*
X233822857Y-74771428D01*
X233727619Y-74723809D01*
X233680000Y-74676190D01*
X233632380Y-74580952D01*
X233632380Y-73628571D02*
X233632380Y-73533333D01*
X233680000Y-73438095D01*
X233727619Y-73390476D01*
X233822857Y-73342857D01*
X234013333Y-73295238D01*
X234251428Y-73295238D01*
X234441904Y-73342857D01*
X234537142Y-73390476D01*
X234584761Y-73438095D01*
X234632380Y-73533333D01*
X234632380Y-73628571D01*
X234584761Y-73723809D01*
X234537142Y-73771428D01*
X234441904Y-73819047D01*
X234251428Y-73866666D01*
X234013333Y-73866666D01*
X233822857Y-73819047D01*
X233727619Y-73771428D01*
X233680000Y-73723809D01*
X233632380Y-73628571D01*
X233727619Y-72914285D02*
X233680000Y-72866666D01*
X233632380Y-72771428D01*
X233632380Y-72533333D01*
X233680000Y-72438095D01*
X233727619Y-72390476D01*
X233822857Y-72342857D01*
X233918095Y-72342857D01*
X234060952Y-72390476D01*
X234632380Y-72961904D01*
X234632380Y-72342857D01*
X234727619Y-72152380D02*
X234727619Y-71390476D01*
X234632380Y-70628571D02*
X234632380Y-71200000D01*
X234632380Y-70914285D02*
X233632380Y-70914285D01*
X233775238Y-71009523D01*
X233870476Y-71104761D01*
X233918095Y-71200000D01*
M02*
