M48
; DRILL file {KiCad 5.1.8} date Thu Jan  7 20:42:55 2021
; FORMAT={-:-/ absolute / inch / decimal}
; #@! TF.CreationDate,2021-01-07T20:42:55+00:00
; #@! TF.GenerationSoftware,Kicad,Pcbnew,5.1.8
; #@! TF.FileFunction,Plated,1,2,PTH
FMAT,2
INCH
T1C0.0157
T2C0.0394
T3C0.0433
T4C0.0472
T5C0.0551
T6C0.1772
%
G90
G05
T1
X7.9706Y-2.9706
X8.2213Y-2.7213
X8.6206Y-2.9706
X8.9213Y-2.7213
X9.2402Y-2.9723
T2
X7.1213Y-2.4213
X8.0213Y-2.6213
X8.8213Y-1.9213
X9.5Y-1.85
X9.5Y-1.95
X7.7613Y-1.1213
X7.7613Y-1.2213
X7.7613Y-1.3213
X7.6Y-1.85
X7.6Y-1.95
X8.6913Y-1.1213
X8.6913Y-1.2213
X8.6913Y-1.3213
X9.2Y-1.8
X9.2Y-1.9
X8.1613Y-1.1213
X8.1613Y-1.2213
X8.1613Y-1.3213
X9.0913Y-1.1213
X9.0913Y-1.2213
X9.0913Y-1.3213
X9.0Y-1.85
X9.0Y-1.95
X8.3613Y-1.1213
X8.3613Y-1.2213
X8.3613Y-1.3213
X7.4Y-1.8
X7.4Y-1.9
X8.1Y-1.85
X8.1Y-1.95
X7.9Y-1.8
X7.9Y-1.9
X9.2913Y-1.1213
X9.2913Y-1.2213
X9.2913Y-1.3213
X9.7Y-1.8
X9.7Y-1.9
X8.4213Y-4.3713
X8.5213Y-4.3713
X8.6213Y-4.3713
X7.5123Y-2.1388
X7.5123Y-2.2388
X7.6123Y-2.1388
X7.6123Y-2.2388
X7.7123Y-2.1388
X7.7123Y-2.2388
X7.8123Y-2.1388
X7.8123Y-2.2388
X7.9123Y-2.1388
X7.9123Y-2.2388
X8.0123Y-2.1388
X8.0123Y-2.2388
X8.1123Y-2.1388
X8.1123Y-2.2388
X8.2123Y-2.1388
X8.2123Y-2.2388
X8.3123Y-2.1388
X8.3123Y-2.2388
X8.4123Y-2.1388
X8.4123Y-2.2388
X8.5123Y-2.1388
X8.5123Y-2.2388
X8.6123Y-2.1388
X8.6123Y-2.2388
X8.7123Y-2.1388
X8.7123Y-2.2388
X8.8123Y-2.1388
X8.8123Y-2.2388
X8.9123Y-2.1388
X8.9123Y-2.2388
X9.0123Y-2.1388
X9.0123Y-2.2388
X9.1123Y-2.1388
X9.1123Y-2.2388
X9.2123Y-2.1388
X9.2123Y-2.2388
X9.3123Y-2.1388
X9.3123Y-2.2388
X9.4123Y-2.1388
X9.4123Y-2.2388
X7.9613Y-1.1213
X7.9613Y-1.2213
X7.9613Y-1.3213
X8.8913Y-1.1213
X8.8913Y-1.2213
X8.8913Y-1.3213
T3
X7.3213Y-3.5713
X7.4213Y-3.5713
X7.5213Y-3.5713
X9.4713Y-3.5713
X9.5713Y-3.5713
X9.6713Y-3.5713
X8.9988Y-3.5713
X9.0988Y-3.5713
X9.1988Y-3.5713
X8.4213Y-3.3713
X8.5213Y-3.3713
X8.6213Y-3.3713
X7.8213Y-3.5713
X7.9213Y-3.5713
X8.0213Y-3.5713
T4
X6.0213Y-4.7213
X6.1713Y-4.7213
X6.3213Y-4.7213
X6.4713Y-4.7213
X6.6213Y-4.7213
X6.7713Y-4.7213
X9.0213Y-4.7213
X9.1713Y-4.7213
X9.3213Y-4.7213
X9.4713Y-4.7213
X9.6213Y-4.7213
X9.7713Y-4.7213
X8.0213Y-4.7213
X8.1713Y-4.7213
X8.3213Y-4.7213
X8.4713Y-4.7213
X8.6213Y-4.7213
X8.7713Y-4.7213
X7.0213Y-4.7213
X7.1713Y-4.7213
X7.3213Y-4.7213
X7.4713Y-4.7213
X7.6213Y-4.7213
X7.7713Y-4.7213
T5
X6.4047Y-1.3213
X6.4047Y-1.4866
X6.4047Y-1.652
X6.4047Y-1.8173
X6.4047Y-1.9827
X6.4047Y-2.148
X6.4047Y-2.3134
X6.4047Y-2.4787
X6.4047Y-2.6441
X6.4047Y-2.8094
X6.4047Y-2.9748
X6.4047Y-3.1402
X6.6213Y-1.3213
X6.6213Y-1.4866
X6.6213Y-1.652
X6.6213Y-1.8173
X6.6213Y-1.9827
X6.6213Y-2.148
X6.6213Y-2.3134
X6.6213Y-2.4787
X6.6213Y-2.6441
X6.6213Y-2.8094
X6.6213Y-2.9748
X6.6213Y-3.1402
X6.4213Y-3.5213
X6.4213Y-3.7378
X6.5866Y-3.5213
X6.5866Y-3.7378
X6.752Y-3.5213
X6.752Y-3.7378
X6.9173Y-3.5213
X6.9173Y-3.7378
T6
X6.1732Y-4.0551
X6.4567Y-4.0551
T0
M30
