%TF.GenerationSoftware,KiCad,Pcbnew,5.1.6*%
%TF.CreationDate,2020-11-07T14:35:20+00:00*%
%TF.ProjectId,SolarLights,536f6c61-724c-4696-9768-74732e6b6963,rev?*%
%TF.SameCoordinates,Original*%
%TF.FileFunction,Soldermask,Top*%
%TF.FilePolarity,Negative*%
%FSLAX46Y46*%
G04 Gerber Fmt 4.6, Leading zero omitted, Abs format (unit mm)*
G04 Created by KiCad (PCBNEW 5.1.6) date 2020-11-07 14:35:20*
%MOMM*%
%LPD*%
G01*
G04 APERTURE LIST*
%ADD10C,3.300000*%
%ADD11O,2.100000X2.005000*%
%ADD12R,2.100000X2.005000*%
%ADD13O,3.600000X3.600000*%
%ADD14O,1.800000X1.800000*%
%ADD15R,1.800000X1.800000*%
%ADD16R,5.900000X6.500000*%
%ADD17R,1.300000X2.300000*%
%ADD18C,1.650000*%
%ADD19R,1.650000X1.650000*%
%ADD20C,1.700000*%
%ADD21O,1.700000X1.700000*%
%ADD22R,1.150000X1.600000*%
%ADD23O,1.150000X1.600000*%
%ADD24C,2.700000*%
%ADD25R,2.700000X2.700000*%
%ADD26O,2.900000X2.900000*%
%ADD27R,2.900000X2.900000*%
%ADD28C,2.100000*%
G04 APERTURE END LIST*
D10*
%TO.C, *%
X210820000Y-22860000D03*
%TD*%
%TO.C, *%
X210820000Y-45720000D03*
%TD*%
%TO.C, *%
X138430000Y-45720000D03*
%TD*%
%TO.C, *%
X138430000Y-22860000D03*
%TD*%
D11*
%TO.C,Q2*%
X193040000Y-40640000D03*
X193040000Y-43180000D03*
D12*
X193040000Y-45720000D03*
D13*
X176380000Y-43180000D03*
%TD*%
D14*
%TO.C,PV-control*%
X167640000Y-46990000D03*
D15*
X170180000Y-46990000D03*
%TD*%
D14*
%TO.C,F-Diode-Control*%
X160020000Y-46990000D03*
D15*
X162560000Y-46990000D03*
%TD*%
D16*
%TO.C,LM317*%
X157480000Y-29650000D03*
D17*
X159760000Y-35950000D03*
X155200000Y-35950000D03*
%TD*%
D18*
%TO.C,RV2*%
X158830000Y-41870000D03*
D19*
X163830000Y-39370000D03*
D18*
X163830000Y-44370000D03*
%TD*%
%TO.C,RV1*%
X144860000Y-30440000D03*
D19*
X149860000Y-27940000D03*
D18*
X149860000Y-32940000D03*
%TD*%
D20*
%TO.C,R2*%
X146070000Y-43180000D03*
X153670000Y-43180000D03*
%TD*%
D21*
%TO.C,R1*%
X198120000Y-34290000D03*
D20*
X198120000Y-44450000D03*
%TD*%
D22*
%TO.C,Q1*%
X167640000Y-41910000D03*
D23*
X170180000Y-41910000D03*
X168910000Y-41910000D03*
%TD*%
D24*
%TO.C,- Led +*%
X198120000Y-25400000D03*
D25*
X203200000Y-25400000D03*
%TD*%
D24*
%TO.C,-  Batt +*%
X182880000Y-25400000D03*
D25*
X187960000Y-25400000D03*
%TD*%
D14*
%TO.C,Use DC>DC*%
X148590000Y-36830000D03*
D15*
X146050000Y-36830000D03*
%TD*%
D14*
%TO.C,-*%
X159130000Y-22860000D03*
D15*
X156590000Y-22860000D03*
%TD*%
D14*
%TO.C,+*%
X148590000Y-22860000D03*
D15*
X146050000Y-22860000D03*
%TD*%
D24*
%TO.C,Capacitor*%
X167640000Y-25400000D03*
D25*
X172720000Y-25400000D03*
%TD*%
D26*
%TO.C,Zener offset diode*%
X203200000Y-44450000D03*
D27*
X203200000Y-34290000D03*
%TD*%
D26*
%TO.C,Protection Diode*%
X179070000Y-34290000D03*
D27*
X189230000Y-34290000D03*
%TD*%
D28*
%TO.C,+ Solar  -*%
X172640000Y-34290000D03*
X167640000Y-34290000D03*
%TD*%
M02*
