M48
; DRILL file {KiCad 5.1.6} date Sat Nov  7 14:25:31 2020
; FORMAT={-:-/ absolute / inch / decimal}
; #@! TF.CreationDate,2020-11-07T14:25:31+00:00
; #@! TF.GenerationSoftware,Kicad,Pcbnew,5.1.6
; #@! TF.FileFunction,Plated,1,2,PTH
FMAT,2
INCH
T1C0.0295
T2C0.0315
T3C0.0394
T4C0.0433
T5C0.0512
T6C0.0551
%
G90
G05
T1
X6.6Y-1.65
X6.65Y-1.65
X6.7Y-1.65
T2
X5.7508Y-1.7
X6.05Y-1.7
X7.8Y-1.35
X7.8Y-1.75
T3
X5.75Y-0.9
X5.85Y-0.9
X5.7031Y-1.1984
X5.9Y-1.1
X5.9Y-1.2969
X6.6Y-1.85
X6.7Y-1.85
X6.2531Y-1.6484
X6.45Y-1.55
X6.45Y-1.7469
X6.165Y-0.9
X6.265Y-0.9
X6.6Y-1.35
X6.7969Y-1.35
X6.3Y-1.85
X6.4Y-1.85
X5.75Y-1.45
X5.85Y-1.45
T4
X7.6Y-1.6
X7.6Y-1.7
X7.6Y-1.8
T5
X7.8Y-1.0
X8.0Y-1.0
X6.6Y-1.0
X6.8Y-1.0
X7.2Y-1.0
X7.4Y-1.0
T6
X8.0Y-1.35
X8.0Y-1.75
X7.05Y-1.35
X7.45Y-1.35
T0
M30
