%TF.GenerationSoftware,KiCad,Pcbnew,5.1.6*%
%TF.CreationDate,2020-11-07T14:35:20+00:00*%
%TF.ProjectId,SolarLights,536f6c61-724c-4696-9768-74732e6b6963,rev?*%
%TF.SameCoordinates,Original*%
%TF.FileFunction,Legend,Top*%
%TF.FilePolarity,Positive*%
%FSLAX46Y46*%
G04 Gerber Fmt 4.6, Leading zero omitted, Abs format (unit mm)*
G04 Created by KiCad (PCBNEW 5.1.6) date 2020-11-07 14:35:20*
%MOMM*%
%LPD*%
G01*
G04 APERTURE LIST*
%ADD10C,0.120000*%
%ADD11C,0.150000*%
%ADD12C,0.125000*%
G04 APERTURE END LIST*
D10*
%TO.C,Q2*%
X189350000Y-48300000D02*
X189350000Y-38060000D01*
X173460000Y-48300000D02*
X173460000Y-38060000D01*
X173460000Y-48300000D02*
X189350000Y-48300000D01*
X173460000Y-38060000D02*
X189350000Y-38060000D01*
X189350000Y-45720000D02*
X191890000Y-45720000D01*
X189350000Y-43180000D02*
X191890000Y-43180000D01*
X189350000Y-40640000D02*
X191890000Y-40640000D01*
%TO.C,PV-control*%
X166310000Y-45660000D02*
X166310000Y-48320000D01*
X168910000Y-45660000D02*
X166310000Y-45660000D01*
X168910000Y-48320000D02*
X166310000Y-48320000D01*
X168910000Y-45660000D02*
X168910000Y-48320000D01*
X170180000Y-45660000D02*
X171510000Y-45660000D01*
X171510000Y-45660000D02*
X171510000Y-46990000D01*
%TO.C,F-Diode-Control*%
X158690000Y-45660000D02*
X158690000Y-48320000D01*
X161290000Y-45660000D02*
X158690000Y-45660000D01*
X161290000Y-48320000D02*
X158690000Y-48320000D01*
X161290000Y-45660000D02*
X161290000Y-48320000D01*
X162560000Y-45660000D02*
X163890000Y-45660000D01*
X163890000Y-45660000D02*
X163890000Y-46990000D01*
%TO.C,LM317*%
X154030000Y-32720000D02*
X154030000Y-34220000D01*
X154030000Y-34220000D02*
X154300000Y-34220000D01*
X154300000Y-34220000D02*
X154300000Y-37050000D01*
X160930000Y-32720000D02*
X160930000Y-34220000D01*
X160930000Y-34220000D02*
X160660000Y-34220000D01*
X160660000Y-34220000D02*
X160660000Y-35320000D01*
%TO.C,RV2*%
X158020000Y-39870000D02*
G75*
G02*
X159330000Y-38560000I1310000J0D01*
G01*
X159330000Y-45180000D02*
G75*
G02*
X158020000Y-43870000I0J1310000D01*
G01*
X165040000Y-45180000D02*
X164350000Y-45180000D01*
X165040000Y-45080000D02*
X165040000Y-45180000D01*
X165040000Y-38560000D02*
X164790000Y-38560000D01*
X165040000Y-38660000D02*
X165040000Y-38560000D01*
X165240000Y-38660000D02*
X165040000Y-38660000D01*
X165040000Y-40080000D02*
X165240000Y-40080000D01*
X158020000Y-43870000D02*
X158020000Y-42380000D01*
X163310000Y-45180000D02*
X159330000Y-45180000D01*
X159330000Y-38560000D02*
X162870000Y-38560000D01*
X158020000Y-41360000D02*
X158020000Y-39870000D01*
X165240000Y-45080000D02*
X165040000Y-45080000D01*
X165240000Y-43660000D02*
X165240000Y-45080000D01*
X165040000Y-43660000D02*
X165240000Y-43660000D01*
X165040000Y-40080000D02*
X165040000Y-43660000D01*
X165240000Y-38660000D02*
X165240000Y-40080000D01*
%TO.C,RV1*%
X144050000Y-28440000D02*
G75*
G02*
X145360000Y-27130000I1310000J0D01*
G01*
X145360000Y-33750000D02*
G75*
G02*
X144050000Y-32440000I0J1310000D01*
G01*
X151070000Y-33750000D02*
X150380000Y-33750000D01*
X151070000Y-33650000D02*
X151070000Y-33750000D01*
X151070000Y-27130000D02*
X150820000Y-27130000D01*
X151070000Y-27230000D02*
X151070000Y-27130000D01*
X151270000Y-27230000D02*
X151070000Y-27230000D01*
X151070000Y-28650000D02*
X151270000Y-28650000D01*
X144050000Y-32440000D02*
X144050000Y-30950000D01*
X149340000Y-33750000D02*
X145360000Y-33750000D01*
X145360000Y-27130000D02*
X148900000Y-27130000D01*
X144050000Y-29930000D02*
X144050000Y-28440000D01*
X151270000Y-33650000D02*
X151070000Y-33650000D01*
X151270000Y-32230000D02*
X151270000Y-33650000D01*
X151070000Y-32230000D02*
X151270000Y-32230000D01*
X151070000Y-28650000D02*
X151070000Y-32230000D01*
X151270000Y-27230000D02*
X151270000Y-28650000D01*
%TO.C,R2*%
X146837350Y-38802440D02*
G75*
G03*
X146870000Y-47580000I3032650J-4377560D01*
G01*
X152902650Y-47557560D02*
G75*
G03*
X152870000Y-38780000I-3032650J4377560D01*
G01*
X152870000Y-38780000D02*
X146870000Y-38780000D01*
X152870000Y-47580000D02*
X146870000Y-47580000D01*
%TO.C,R1*%
X196750000Y-42640000D02*
X199490000Y-42640000D01*
X199490000Y-42640000D02*
X199490000Y-36100000D01*
X199490000Y-36100000D02*
X196750000Y-36100000D01*
X196750000Y-36100000D02*
X196750000Y-42640000D01*
X198120000Y-43410000D02*
X198120000Y-42640000D01*
X198120000Y-35330000D02*
X198120000Y-36100000D01*
%TO.C,Q1*%
X170748478Y-43748478D02*
G75*
G03*
X168910000Y-39310000I-1838478J1838478D01*
G01*
X167071522Y-43748478D02*
G75*
G02*
X168910000Y-39310000I1838478J1838478D01*
G01*
X167110000Y-43760000D02*
X170710000Y-43760000D01*
%TO.C,- Led +*%
X203171195Y-23719747D02*
G75*
G02*
X203884000Y-23865000I28805J-1680253D01*
G01*
X204735426Y-24716958D02*
G75*
G02*
X204735000Y-26084000I-1535426J-683042D01*
G01*
X203883042Y-26935426D02*
G75*
G02*
X202516000Y-26935000I-683042J1535426D01*
G01*
X201664574Y-26083042D02*
G75*
G02*
X201665000Y-24716000I1535426J683042D01*
G01*
X202516682Y-23865244D02*
G75*
G02*
X203200000Y-23720000I683318J-1534756D01*
G01*
X199800000Y-25400000D02*
G75*
G03*
X199800000Y-25400000I-1680000J0D01*
G01*
X205800000Y-21300000D02*
X195520000Y-21300000D01*
X205800000Y-22800000D02*
X195520000Y-22800000D01*
X205800000Y-27701000D02*
X195520000Y-27701000D01*
X205800000Y-30661000D02*
X195520000Y-30661000D01*
X205800000Y-20740000D02*
X195520000Y-20740000D01*
X205800000Y-30661000D02*
X205800000Y-20740000D01*
X195520000Y-30661000D02*
X195520000Y-20740000D01*
X196845000Y-26469000D02*
X196892000Y-26423000D01*
X199154000Y-24161000D02*
X199189000Y-24126000D01*
X197050000Y-26675000D02*
X197085000Y-26639000D01*
X199347000Y-24377000D02*
X199394000Y-24331000D01*
X206040000Y-21240000D02*
X206040000Y-20500000D01*
X206040000Y-20500000D02*
X205540000Y-20500000D01*
%TO.C,-  Batt +*%
X187931195Y-23719747D02*
G75*
G02*
X188644000Y-23865000I28805J-1680253D01*
G01*
X189495426Y-24716958D02*
G75*
G02*
X189495000Y-26084000I-1535426J-683042D01*
G01*
X188643042Y-26935426D02*
G75*
G02*
X187276000Y-26935000I-683042J1535426D01*
G01*
X186424574Y-26083042D02*
G75*
G02*
X186425000Y-24716000I1535426J683042D01*
G01*
X187276682Y-23865244D02*
G75*
G02*
X187960000Y-23720000I683318J-1534756D01*
G01*
X184560000Y-25400000D02*
G75*
G03*
X184560000Y-25400000I-1680000J0D01*
G01*
X190560000Y-21300000D02*
X180280000Y-21300000D01*
X190560000Y-22800000D02*
X180280000Y-22800000D01*
X190560000Y-27701000D02*
X180280000Y-27701000D01*
X190560000Y-30661000D02*
X180280000Y-30661000D01*
X190560000Y-20740000D02*
X180280000Y-20740000D01*
X190560000Y-30661000D02*
X190560000Y-20740000D01*
X180280000Y-30661000D02*
X180280000Y-20740000D01*
X181605000Y-26469000D02*
X181652000Y-26423000D01*
X183914000Y-24161000D02*
X183949000Y-24126000D01*
X181810000Y-26675000D02*
X181845000Y-26639000D01*
X184107000Y-24377000D02*
X184154000Y-24331000D01*
X190800000Y-21240000D02*
X190800000Y-20500000D01*
X190800000Y-20500000D02*
X190300000Y-20500000D01*
%TO.C,Use DC>DC*%
X149920000Y-38160000D02*
X149920000Y-35500000D01*
X147320000Y-38160000D02*
X149920000Y-38160000D01*
X147320000Y-35500000D02*
X149920000Y-35500000D01*
X147320000Y-38160000D02*
X147320000Y-35500000D01*
X146050000Y-38160000D02*
X144720000Y-38160000D01*
X144720000Y-38160000D02*
X144720000Y-36830000D01*
%TO.C,-*%
X160460000Y-24190000D02*
X160460000Y-21530000D01*
X157860000Y-24190000D02*
X160460000Y-24190000D01*
X157860000Y-21530000D02*
X160460000Y-21530000D01*
X157860000Y-24190000D02*
X157860000Y-21530000D01*
X156590000Y-24190000D02*
X155260000Y-24190000D01*
X155260000Y-24190000D02*
X155260000Y-22860000D01*
%TO.C,+*%
X149920000Y-24190000D02*
X149920000Y-21530000D01*
X147320000Y-24190000D02*
X149920000Y-24190000D01*
X147320000Y-21530000D02*
X149920000Y-21530000D01*
X147320000Y-24190000D02*
X147320000Y-21530000D01*
X146050000Y-24190000D02*
X144720000Y-24190000D01*
X144720000Y-24190000D02*
X144720000Y-22860000D01*
%TO.C,Capacitor*%
X172691195Y-23719747D02*
G75*
G02*
X173404000Y-23865000I28805J-1680253D01*
G01*
X174255426Y-24716958D02*
G75*
G02*
X174255000Y-26084000I-1535426J-683042D01*
G01*
X173403042Y-26935426D02*
G75*
G02*
X172036000Y-26935000I-683042J1535426D01*
G01*
X171184574Y-26083042D02*
G75*
G02*
X171185000Y-24716000I1535426J683042D01*
G01*
X172036682Y-23865244D02*
G75*
G02*
X172720000Y-23720000I683318J-1534756D01*
G01*
X169320000Y-25400000D02*
G75*
G03*
X169320000Y-25400000I-1680000J0D01*
G01*
X175320000Y-21300000D02*
X165040000Y-21300000D01*
X175320000Y-22800000D02*
X165040000Y-22800000D01*
X175320000Y-27701000D02*
X165040000Y-27701000D01*
X175320000Y-30661000D02*
X165040000Y-30661000D01*
X175320000Y-20740000D02*
X165040000Y-20740000D01*
X175320000Y-30661000D02*
X175320000Y-20740000D01*
X165040000Y-30661000D02*
X165040000Y-20740000D01*
X166365000Y-26469000D02*
X166412000Y-26423000D01*
X168674000Y-24161000D02*
X168709000Y-24126000D01*
X166570000Y-26675000D02*
X166605000Y-26639000D01*
X168867000Y-24377000D02*
X168914000Y-24331000D01*
X175560000Y-21240000D02*
X175560000Y-20500000D01*
X175560000Y-20500000D02*
X175060000Y-20500000D01*
%TO.C,Zener offset diode*%
X204840000Y-34800000D02*
X205170000Y-34800000D01*
X205170000Y-34800000D02*
X205170000Y-43940000D01*
X205170000Y-43940000D02*
X204840000Y-43940000D01*
X201560000Y-34800000D02*
X201230000Y-34800000D01*
X201230000Y-34800000D02*
X201230000Y-43940000D01*
X201230000Y-43940000D02*
X201560000Y-43940000D01*
X205170000Y-36255000D02*
X201230000Y-36255000D01*
X205170000Y-36375000D02*
X201230000Y-36375000D01*
X205170000Y-36135000D02*
X201230000Y-36135000D01*
%TO.C,Protection Diode*%
X188720000Y-35930000D02*
X188720000Y-36260000D01*
X188720000Y-36260000D02*
X179580000Y-36260000D01*
X179580000Y-36260000D02*
X179580000Y-35930000D01*
X188720000Y-32650000D02*
X188720000Y-32320000D01*
X188720000Y-32320000D02*
X179580000Y-32320000D01*
X179580000Y-32320000D02*
X179580000Y-32650000D01*
X187265000Y-36260000D02*
X187265000Y-32320000D01*
X187145000Y-36260000D02*
X187145000Y-32320000D01*
X187385000Y-36260000D02*
X187385000Y-32320000D01*
%TO.C,+ Solar  -*%
X164770000Y-31670000D02*
X175510000Y-31670000D01*
X164770000Y-36910000D02*
X175510000Y-36910000D01*
X164770000Y-31670000D02*
X164770000Y-36910000D01*
X175510000Y-31670000D02*
X175510000Y-36910000D01*
%TO.C, *%
D11*
%TO.C,Q2*%
X173007619Y-43275238D02*
X172960000Y-43370476D01*
X172864761Y-43465714D01*
X172721904Y-43608571D01*
X172674285Y-43703809D01*
X172674285Y-43799047D01*
X172912380Y-43751428D02*
X172864761Y-43846666D01*
X172769523Y-43941904D01*
X172579047Y-43989523D01*
X172245714Y-43989523D01*
X172055238Y-43941904D01*
X171960000Y-43846666D01*
X171912380Y-43751428D01*
X171912380Y-43560952D01*
X171960000Y-43465714D01*
X172055238Y-43370476D01*
X172245714Y-43322857D01*
X172579047Y-43322857D01*
X172769523Y-43370476D01*
X172864761Y-43465714D01*
X172912380Y-43560952D01*
X172912380Y-43751428D01*
X172007619Y-42941904D02*
X171960000Y-42894285D01*
X171912380Y-42799047D01*
X171912380Y-42560952D01*
X171960000Y-42465714D01*
X172007619Y-42418095D01*
X172102857Y-42370476D01*
X172198095Y-42370476D01*
X172340952Y-42418095D01*
X172912380Y-42989523D01*
X172912380Y-42370476D01*
%TO.C,PV-control*%
X172962380Y-48402380D02*
X171962380Y-48402380D01*
X171962380Y-48021428D01*
X172010000Y-47926190D01*
X172057619Y-47878571D01*
X172152857Y-47830952D01*
X172295714Y-47830952D01*
X172390952Y-47878571D01*
X172438571Y-47926190D01*
X172486190Y-48021428D01*
X172486190Y-48402380D01*
X171962380Y-47545238D02*
X172962380Y-47211904D01*
X171962380Y-46878571D01*
X172581428Y-46545238D02*
X172581428Y-45783333D01*
X172914761Y-44878571D02*
X172962380Y-44973809D01*
X172962380Y-45164285D01*
X172914761Y-45259523D01*
X172867142Y-45307142D01*
X172771904Y-45354761D01*
X172486190Y-45354761D01*
X172390952Y-45307142D01*
X172343333Y-45259523D01*
X172295714Y-45164285D01*
X172295714Y-44973809D01*
X172343333Y-44878571D01*
X172962380Y-44307142D02*
X172914761Y-44402380D01*
X172867142Y-44450000D01*
X172771904Y-44497619D01*
X172486190Y-44497619D01*
X172390952Y-44450000D01*
X172343333Y-44402380D01*
X172295714Y-44307142D01*
X172295714Y-44164285D01*
X172343333Y-44069047D01*
X172390952Y-44021428D01*
X172486190Y-43973809D01*
X172771904Y-43973809D01*
X172867142Y-44021428D01*
X172914761Y-44069047D01*
X172962380Y-44164285D01*
X172962380Y-44307142D01*
X172295714Y-43545238D02*
X172962380Y-43545238D01*
X172390952Y-43545238D02*
X172343333Y-43497619D01*
X172295714Y-43402380D01*
X172295714Y-43259523D01*
X172343333Y-43164285D01*
X172438571Y-43116666D01*
X172962380Y-43116666D01*
X172295714Y-42783333D02*
X172295714Y-42402380D01*
X171962380Y-42640476D02*
X172819523Y-42640476D01*
X172914761Y-42592857D01*
X172962380Y-42497619D01*
X172962380Y-42402380D01*
X172962380Y-42069047D02*
X172295714Y-42069047D01*
X172486190Y-42069047D02*
X172390952Y-42021428D01*
X172343333Y-41973809D01*
X172295714Y-41878571D01*
X172295714Y-41783333D01*
X172962380Y-41307142D02*
X172914761Y-41402380D01*
X172867142Y-41450000D01*
X172771904Y-41497619D01*
X172486190Y-41497619D01*
X172390952Y-41450000D01*
X172343333Y-41402380D01*
X172295714Y-41307142D01*
X172295714Y-41164285D01*
X172343333Y-41069047D01*
X172390952Y-41021428D01*
X172486190Y-40973809D01*
X172771904Y-40973809D01*
X172867142Y-41021428D01*
X172914761Y-41069047D01*
X172962380Y-41164285D01*
X172962380Y-41307142D01*
X172962380Y-40402380D02*
X172914761Y-40497619D01*
X172819523Y-40545238D01*
X171962380Y-40545238D01*
%TO.C,F-Diode-Control*%
D12*
X156156428Y-48860714D02*
X156156428Y-49110714D01*
X156549285Y-49110714D02*
X155799285Y-49110714D01*
X155799285Y-48753571D01*
X156263571Y-48467857D02*
X156263571Y-47896428D01*
X156549285Y-47539285D02*
X155799285Y-47539285D01*
X155799285Y-47360714D01*
X155835000Y-47253571D01*
X155906428Y-47182142D01*
X155977857Y-47146428D01*
X156120714Y-47110714D01*
X156227857Y-47110714D01*
X156370714Y-47146428D01*
X156442142Y-47182142D01*
X156513571Y-47253571D01*
X156549285Y-47360714D01*
X156549285Y-47539285D01*
X156549285Y-46789285D02*
X156049285Y-46789285D01*
X155799285Y-46789285D02*
X155835000Y-46825000D01*
X155870714Y-46789285D01*
X155835000Y-46753571D01*
X155799285Y-46789285D01*
X155870714Y-46789285D01*
X156549285Y-46325000D02*
X156513571Y-46396428D01*
X156477857Y-46432142D01*
X156406428Y-46467857D01*
X156192142Y-46467857D01*
X156120714Y-46432142D01*
X156085000Y-46396428D01*
X156049285Y-46325000D01*
X156049285Y-46217857D01*
X156085000Y-46146428D01*
X156120714Y-46110714D01*
X156192142Y-46075000D01*
X156406428Y-46075000D01*
X156477857Y-46110714D01*
X156513571Y-46146428D01*
X156549285Y-46217857D01*
X156549285Y-46325000D01*
X156549285Y-45432142D02*
X155799285Y-45432142D01*
X156513571Y-45432142D02*
X156549285Y-45503571D01*
X156549285Y-45646428D01*
X156513571Y-45717857D01*
X156477857Y-45753571D01*
X156406428Y-45789285D01*
X156192142Y-45789285D01*
X156120714Y-45753571D01*
X156085000Y-45717857D01*
X156049285Y-45646428D01*
X156049285Y-45503571D01*
X156085000Y-45432142D01*
X156513571Y-44789285D02*
X156549285Y-44860714D01*
X156549285Y-45003571D01*
X156513571Y-45075000D01*
X156442142Y-45110714D01*
X156156428Y-45110714D01*
X156085000Y-45075000D01*
X156049285Y-45003571D01*
X156049285Y-44860714D01*
X156085000Y-44789285D01*
X156156428Y-44753571D01*
X156227857Y-44753571D01*
X156299285Y-45110714D01*
X156263571Y-44432142D02*
X156263571Y-43860714D01*
X156477857Y-43075000D02*
X156513571Y-43110714D01*
X156549285Y-43217857D01*
X156549285Y-43289285D01*
X156513571Y-43396428D01*
X156442142Y-43467857D01*
X156370714Y-43503571D01*
X156227857Y-43539285D01*
X156120714Y-43539285D01*
X155977857Y-43503571D01*
X155906428Y-43467857D01*
X155835000Y-43396428D01*
X155799285Y-43289285D01*
X155799285Y-43217857D01*
X155835000Y-43110714D01*
X155870714Y-43075000D01*
X156549285Y-42646428D02*
X156513571Y-42717857D01*
X156477857Y-42753571D01*
X156406428Y-42789285D01*
X156192142Y-42789285D01*
X156120714Y-42753571D01*
X156085000Y-42717857D01*
X156049285Y-42646428D01*
X156049285Y-42539285D01*
X156085000Y-42467857D01*
X156120714Y-42432142D01*
X156192142Y-42396428D01*
X156406428Y-42396428D01*
X156477857Y-42432142D01*
X156513571Y-42467857D01*
X156549285Y-42539285D01*
X156549285Y-42646428D01*
X156049285Y-42075000D02*
X156549285Y-42075000D01*
X156120714Y-42075000D02*
X156085000Y-42039285D01*
X156049285Y-41967857D01*
X156049285Y-41860714D01*
X156085000Y-41789285D01*
X156156428Y-41753571D01*
X156549285Y-41753571D01*
X156049285Y-41503571D02*
X156049285Y-41217857D01*
X155799285Y-41396428D02*
X156442142Y-41396428D01*
X156513571Y-41360714D01*
X156549285Y-41289285D01*
X156549285Y-41217857D01*
X156549285Y-40967857D02*
X156049285Y-40967857D01*
X156192142Y-40967857D02*
X156120714Y-40932142D01*
X156085000Y-40896428D01*
X156049285Y-40825000D01*
X156049285Y-40753571D01*
X156549285Y-40396428D02*
X156513571Y-40467857D01*
X156477857Y-40503571D01*
X156406428Y-40539285D01*
X156192142Y-40539285D01*
X156120714Y-40503571D01*
X156085000Y-40467857D01*
X156049285Y-40396428D01*
X156049285Y-40289285D01*
X156085000Y-40217857D01*
X156120714Y-40182142D01*
X156192142Y-40146428D01*
X156406428Y-40146428D01*
X156477857Y-40182142D01*
X156513571Y-40217857D01*
X156549285Y-40289285D01*
X156549285Y-40396428D01*
X156549285Y-39717857D02*
X156513571Y-39789285D01*
X156442142Y-39825000D01*
X155799285Y-39825000D01*
%TO.C,LM317*%
D11*
X162377380Y-31535476D02*
X162377380Y-32011666D01*
X161377380Y-32011666D01*
X162377380Y-31202142D02*
X161377380Y-31202142D01*
X162091666Y-30868809D01*
X161377380Y-30535476D01*
X162377380Y-30535476D01*
X161377380Y-30154523D02*
X161377380Y-29535476D01*
X161758333Y-29868809D01*
X161758333Y-29725952D01*
X161805952Y-29630714D01*
X161853571Y-29583095D01*
X161948809Y-29535476D01*
X162186904Y-29535476D01*
X162282142Y-29583095D01*
X162329761Y-29630714D01*
X162377380Y-29725952D01*
X162377380Y-30011666D01*
X162329761Y-30106904D01*
X162282142Y-30154523D01*
X162377380Y-28583095D02*
X162377380Y-29154523D01*
X162377380Y-28868809D02*
X161377380Y-28868809D01*
X161520238Y-28964047D01*
X161615476Y-29059285D01*
X161663095Y-29154523D01*
X161377380Y-28249761D02*
X161377380Y-27583095D01*
X162377380Y-28011666D01*
%TO.C,RV2*%
X166782380Y-42565238D02*
X166306190Y-42898571D01*
X166782380Y-43136666D02*
X165782380Y-43136666D01*
X165782380Y-42755714D01*
X165830000Y-42660476D01*
X165877619Y-42612857D01*
X165972857Y-42565238D01*
X166115714Y-42565238D01*
X166210952Y-42612857D01*
X166258571Y-42660476D01*
X166306190Y-42755714D01*
X166306190Y-43136666D01*
X165782380Y-42279523D02*
X166782380Y-41946190D01*
X165782380Y-41612857D01*
X165877619Y-41327142D02*
X165830000Y-41279523D01*
X165782380Y-41184285D01*
X165782380Y-40946190D01*
X165830000Y-40850952D01*
X165877619Y-40803333D01*
X165972857Y-40755714D01*
X166068095Y-40755714D01*
X166210952Y-40803333D01*
X166782380Y-41374761D01*
X166782380Y-40755714D01*
%TO.C,RV1*%
X152812380Y-31135238D02*
X152336190Y-31468571D01*
X152812380Y-31706666D02*
X151812380Y-31706666D01*
X151812380Y-31325714D01*
X151860000Y-31230476D01*
X151907619Y-31182857D01*
X152002857Y-31135238D01*
X152145714Y-31135238D01*
X152240952Y-31182857D01*
X152288571Y-31230476D01*
X152336190Y-31325714D01*
X152336190Y-31706666D01*
X151812380Y-30849523D02*
X152812380Y-30516190D01*
X151812380Y-30182857D01*
X152812380Y-29325714D02*
X152812380Y-29897142D01*
X152812380Y-29611428D02*
X151812380Y-29611428D01*
X151955238Y-29706666D01*
X152050476Y-29801904D01*
X152098095Y-29897142D01*
%TO.C,R2*%
X149703333Y-48832380D02*
X149370000Y-48356190D01*
X149131904Y-48832380D02*
X149131904Y-47832380D01*
X149512857Y-47832380D01*
X149608095Y-47880000D01*
X149655714Y-47927619D01*
X149703333Y-48022857D01*
X149703333Y-48165714D01*
X149655714Y-48260952D01*
X149608095Y-48308571D01*
X149512857Y-48356190D01*
X149131904Y-48356190D01*
X150084285Y-47927619D02*
X150131904Y-47880000D01*
X150227142Y-47832380D01*
X150465238Y-47832380D01*
X150560476Y-47880000D01*
X150608095Y-47927619D01*
X150655714Y-48022857D01*
X150655714Y-48118095D01*
X150608095Y-48260952D01*
X150036666Y-48832380D01*
X150655714Y-48832380D01*
%TO.C,R1*%
X196202380Y-39536666D02*
X195726190Y-39870000D01*
X196202380Y-40108095D02*
X195202380Y-40108095D01*
X195202380Y-39727142D01*
X195250000Y-39631904D01*
X195297619Y-39584285D01*
X195392857Y-39536666D01*
X195535714Y-39536666D01*
X195630952Y-39584285D01*
X195678571Y-39631904D01*
X195726190Y-39727142D01*
X195726190Y-40108095D01*
X196202380Y-38584285D02*
X196202380Y-39155714D01*
X196202380Y-38870000D02*
X195202380Y-38870000D01*
X195345238Y-38965238D01*
X195440476Y-39060476D01*
X195488095Y-39155714D01*
%TO.C,Q1*%
X168814761Y-38897619D02*
X168719523Y-38850000D01*
X168624285Y-38754761D01*
X168481428Y-38611904D01*
X168386190Y-38564285D01*
X168290952Y-38564285D01*
X168338571Y-38802380D02*
X168243333Y-38754761D01*
X168148095Y-38659523D01*
X168100476Y-38469047D01*
X168100476Y-38135714D01*
X168148095Y-37945238D01*
X168243333Y-37850000D01*
X168338571Y-37802380D01*
X168529047Y-37802380D01*
X168624285Y-37850000D01*
X168719523Y-37945238D01*
X168767142Y-38135714D01*
X168767142Y-38469047D01*
X168719523Y-38659523D01*
X168624285Y-38754761D01*
X168529047Y-38802380D01*
X168338571Y-38802380D01*
X169719523Y-38802380D02*
X169148095Y-38802380D01*
X169433809Y-38802380D02*
X169433809Y-37802380D01*
X169338571Y-37945238D01*
X169243333Y-38040476D01*
X169148095Y-38088095D01*
%TO.C,- Led +*%
X197612380Y-19756428D02*
X198374285Y-19756428D01*
X200088571Y-20137380D02*
X199612380Y-20137380D01*
X199612380Y-19137380D01*
X200802857Y-20089761D02*
X200707619Y-20137380D01*
X200517142Y-20137380D01*
X200421904Y-20089761D01*
X200374285Y-19994523D01*
X200374285Y-19613571D01*
X200421904Y-19518333D01*
X200517142Y-19470714D01*
X200707619Y-19470714D01*
X200802857Y-19518333D01*
X200850476Y-19613571D01*
X200850476Y-19708809D01*
X200374285Y-19804047D01*
X201707619Y-20137380D02*
X201707619Y-19137380D01*
X201707619Y-20089761D02*
X201612380Y-20137380D01*
X201421904Y-20137380D01*
X201326666Y-20089761D01*
X201279047Y-20042142D01*
X201231428Y-19946904D01*
X201231428Y-19661190D01*
X201279047Y-19565952D01*
X201326666Y-19518333D01*
X201421904Y-19470714D01*
X201612380Y-19470714D01*
X201707619Y-19518333D01*
X202945714Y-19756428D02*
X203707619Y-19756428D01*
X203326666Y-20137380D02*
X203326666Y-19375476D01*
%TO.C,-  Batt +*%
X181753333Y-19756428D02*
X182515238Y-19756428D01*
X184848571Y-19613571D02*
X184991428Y-19661190D01*
X185039047Y-19708809D01*
X185086666Y-19804047D01*
X185086666Y-19946904D01*
X185039047Y-20042142D01*
X184991428Y-20089761D01*
X184896190Y-20137380D01*
X184515238Y-20137380D01*
X184515238Y-19137380D01*
X184848571Y-19137380D01*
X184943809Y-19185000D01*
X184991428Y-19232619D01*
X185039047Y-19327857D01*
X185039047Y-19423095D01*
X184991428Y-19518333D01*
X184943809Y-19565952D01*
X184848571Y-19613571D01*
X184515238Y-19613571D01*
X185943809Y-20137380D02*
X185943809Y-19613571D01*
X185896190Y-19518333D01*
X185800952Y-19470714D01*
X185610476Y-19470714D01*
X185515238Y-19518333D01*
X185943809Y-20089761D02*
X185848571Y-20137380D01*
X185610476Y-20137380D01*
X185515238Y-20089761D01*
X185467619Y-19994523D01*
X185467619Y-19899285D01*
X185515238Y-19804047D01*
X185610476Y-19756428D01*
X185848571Y-19756428D01*
X185943809Y-19708809D01*
X186277142Y-19470714D02*
X186658095Y-19470714D01*
X186420000Y-19137380D02*
X186420000Y-19994523D01*
X186467619Y-20089761D01*
X186562857Y-20137380D01*
X186658095Y-20137380D01*
X186848571Y-19470714D02*
X187229523Y-19470714D01*
X186991428Y-19137380D02*
X186991428Y-19994523D01*
X187039047Y-20089761D01*
X187134285Y-20137380D01*
X187229523Y-20137380D01*
X188324761Y-19756428D02*
X189086666Y-19756428D01*
X188705714Y-20137380D02*
X188705714Y-19375476D01*
%TO.C,Use DC>DC*%
X142327380Y-41584047D02*
X143136904Y-41584047D01*
X143232142Y-41536428D01*
X143279761Y-41488809D01*
X143327380Y-41393571D01*
X143327380Y-41203095D01*
X143279761Y-41107857D01*
X143232142Y-41060238D01*
X143136904Y-41012619D01*
X142327380Y-41012619D01*
X143279761Y-40584047D02*
X143327380Y-40488809D01*
X143327380Y-40298333D01*
X143279761Y-40203095D01*
X143184523Y-40155476D01*
X143136904Y-40155476D01*
X143041666Y-40203095D01*
X142994047Y-40298333D01*
X142994047Y-40441190D01*
X142946428Y-40536428D01*
X142851190Y-40584047D01*
X142803571Y-40584047D01*
X142708333Y-40536428D01*
X142660714Y-40441190D01*
X142660714Y-40298333D01*
X142708333Y-40203095D01*
X143279761Y-39345952D02*
X143327380Y-39441190D01*
X143327380Y-39631666D01*
X143279761Y-39726904D01*
X143184523Y-39774523D01*
X142803571Y-39774523D01*
X142708333Y-39726904D01*
X142660714Y-39631666D01*
X142660714Y-39441190D01*
X142708333Y-39345952D01*
X142803571Y-39298333D01*
X142898809Y-39298333D01*
X142994047Y-39774523D01*
X143327380Y-38107857D02*
X142327380Y-38107857D01*
X142327380Y-37869761D01*
X142375000Y-37726904D01*
X142470238Y-37631666D01*
X142565476Y-37584047D01*
X142755952Y-37536428D01*
X142898809Y-37536428D01*
X143089285Y-37584047D01*
X143184523Y-37631666D01*
X143279761Y-37726904D01*
X143327380Y-37869761D01*
X143327380Y-38107857D01*
X143232142Y-36536428D02*
X143279761Y-36584047D01*
X143327380Y-36726904D01*
X143327380Y-36822142D01*
X143279761Y-36965000D01*
X143184523Y-37060238D01*
X143089285Y-37107857D01*
X142898809Y-37155476D01*
X142755952Y-37155476D01*
X142565476Y-37107857D01*
X142470238Y-37060238D01*
X142375000Y-36965000D01*
X142327380Y-36822142D01*
X142327380Y-36726904D01*
X142375000Y-36584047D01*
X142422619Y-36536428D01*
X142660714Y-36107857D02*
X142946428Y-35345952D01*
X143232142Y-36107857D01*
X143327380Y-34869761D02*
X142327380Y-34869761D01*
X142327380Y-34631666D01*
X142375000Y-34488809D01*
X142470238Y-34393571D01*
X142565476Y-34345952D01*
X142755952Y-34298333D01*
X142898809Y-34298333D01*
X143089285Y-34345952D01*
X143184523Y-34393571D01*
X143279761Y-34488809D01*
X143327380Y-34631666D01*
X143327380Y-34869761D01*
X143232142Y-33298333D02*
X143279761Y-33345952D01*
X143327380Y-33488809D01*
X143327380Y-33584047D01*
X143279761Y-33726904D01*
X143184523Y-33822142D01*
X143089285Y-33869761D01*
X142898809Y-33917380D01*
X142755952Y-33917380D01*
X142565476Y-33869761D01*
X142470238Y-33822142D01*
X142375000Y-33726904D01*
X142327380Y-33584047D01*
X142327380Y-33488809D01*
X142375000Y-33345952D01*
X142422619Y-33298333D01*
%TO.C,-*%
X157551428Y-20700952D02*
X157551428Y-19939047D01*
%TO.C,+*%
X147391428Y-20700952D02*
X147391428Y-19939047D01*
X147772380Y-20320000D02*
X147010476Y-20320000D01*
%TO.C,Capacitor*%
X167418095Y-32017142D02*
X167370476Y-32064761D01*
X167227619Y-32112380D01*
X167132380Y-32112380D01*
X166989523Y-32064761D01*
X166894285Y-31969523D01*
X166846666Y-31874285D01*
X166799047Y-31683809D01*
X166799047Y-31540952D01*
X166846666Y-31350476D01*
X166894285Y-31255238D01*
X166989523Y-31160000D01*
X167132380Y-31112380D01*
X167227619Y-31112380D01*
X167370476Y-31160000D01*
X167418095Y-31207619D01*
X168275238Y-32112380D02*
X168275238Y-31588571D01*
X168227619Y-31493333D01*
X168132380Y-31445714D01*
X167941904Y-31445714D01*
X167846666Y-31493333D01*
X168275238Y-32064761D02*
X168180000Y-32112380D01*
X167941904Y-32112380D01*
X167846666Y-32064761D01*
X167799047Y-31969523D01*
X167799047Y-31874285D01*
X167846666Y-31779047D01*
X167941904Y-31731428D01*
X168180000Y-31731428D01*
X168275238Y-31683809D01*
X168751428Y-31445714D02*
X168751428Y-32445714D01*
X168751428Y-31493333D02*
X168846666Y-31445714D01*
X169037142Y-31445714D01*
X169132380Y-31493333D01*
X169180000Y-31540952D01*
X169227619Y-31636190D01*
X169227619Y-31921904D01*
X169180000Y-32017142D01*
X169132380Y-32064761D01*
X169037142Y-32112380D01*
X168846666Y-32112380D01*
X168751428Y-32064761D01*
X170084761Y-32112380D02*
X170084761Y-31588571D01*
X170037142Y-31493333D01*
X169941904Y-31445714D01*
X169751428Y-31445714D01*
X169656190Y-31493333D01*
X170084761Y-32064761D02*
X169989523Y-32112380D01*
X169751428Y-32112380D01*
X169656190Y-32064761D01*
X169608571Y-31969523D01*
X169608571Y-31874285D01*
X169656190Y-31779047D01*
X169751428Y-31731428D01*
X169989523Y-31731428D01*
X170084761Y-31683809D01*
X170989523Y-32064761D02*
X170894285Y-32112380D01*
X170703809Y-32112380D01*
X170608571Y-32064761D01*
X170560952Y-32017142D01*
X170513333Y-31921904D01*
X170513333Y-31636190D01*
X170560952Y-31540952D01*
X170608571Y-31493333D01*
X170703809Y-31445714D01*
X170894285Y-31445714D01*
X170989523Y-31493333D01*
X171418095Y-32112380D02*
X171418095Y-31445714D01*
X171418095Y-31112380D02*
X171370476Y-31160000D01*
X171418095Y-31207619D01*
X171465714Y-31160000D01*
X171418095Y-31112380D01*
X171418095Y-31207619D01*
X171751428Y-31445714D02*
X172132380Y-31445714D01*
X171894285Y-31112380D02*
X171894285Y-31969523D01*
X171941904Y-32064761D01*
X172037142Y-32112380D01*
X172132380Y-32112380D01*
X172608571Y-32112380D02*
X172513333Y-32064761D01*
X172465714Y-32017142D01*
X172418095Y-31921904D01*
X172418095Y-31636190D01*
X172465714Y-31540952D01*
X172513333Y-31493333D01*
X172608571Y-31445714D01*
X172751428Y-31445714D01*
X172846666Y-31493333D01*
X172894285Y-31540952D01*
X172941904Y-31636190D01*
X172941904Y-31921904D01*
X172894285Y-32017142D01*
X172846666Y-32064761D01*
X172751428Y-32112380D01*
X172608571Y-32112380D01*
X173370476Y-32112380D02*
X173370476Y-31445714D01*
X173370476Y-31636190D02*
X173418095Y-31540952D01*
X173465714Y-31493333D01*
X173560952Y-31445714D01*
X173656190Y-31445714D01*
%TO.C,Zener offset diode*%
X205827380Y-46885952D02*
X205827380Y-46219285D01*
X206827380Y-46885952D01*
X206827380Y-46219285D01*
X206779761Y-45457380D02*
X206827380Y-45552619D01*
X206827380Y-45743095D01*
X206779761Y-45838333D01*
X206684523Y-45885952D01*
X206303571Y-45885952D01*
X206208333Y-45838333D01*
X206160714Y-45743095D01*
X206160714Y-45552619D01*
X206208333Y-45457380D01*
X206303571Y-45409761D01*
X206398809Y-45409761D01*
X206494047Y-45885952D01*
X206160714Y-44981190D02*
X206827380Y-44981190D01*
X206255952Y-44981190D02*
X206208333Y-44933571D01*
X206160714Y-44838333D01*
X206160714Y-44695476D01*
X206208333Y-44600238D01*
X206303571Y-44552619D01*
X206827380Y-44552619D01*
X206779761Y-43695476D02*
X206827380Y-43790714D01*
X206827380Y-43981190D01*
X206779761Y-44076428D01*
X206684523Y-44124047D01*
X206303571Y-44124047D01*
X206208333Y-44076428D01*
X206160714Y-43981190D01*
X206160714Y-43790714D01*
X206208333Y-43695476D01*
X206303571Y-43647857D01*
X206398809Y-43647857D01*
X206494047Y-44124047D01*
X206827380Y-43219285D02*
X206160714Y-43219285D01*
X206351190Y-43219285D02*
X206255952Y-43171666D01*
X206208333Y-43124047D01*
X206160714Y-43028809D01*
X206160714Y-42933571D01*
X206827380Y-41695476D02*
X206779761Y-41790714D01*
X206732142Y-41838333D01*
X206636904Y-41885952D01*
X206351190Y-41885952D01*
X206255952Y-41838333D01*
X206208333Y-41790714D01*
X206160714Y-41695476D01*
X206160714Y-41552619D01*
X206208333Y-41457380D01*
X206255952Y-41409761D01*
X206351190Y-41362142D01*
X206636904Y-41362142D01*
X206732142Y-41409761D01*
X206779761Y-41457380D01*
X206827380Y-41552619D01*
X206827380Y-41695476D01*
X206160714Y-41076428D02*
X206160714Y-40695476D01*
X206827380Y-40933571D02*
X205970238Y-40933571D01*
X205875000Y-40885952D01*
X205827380Y-40790714D01*
X205827380Y-40695476D01*
X206160714Y-40505000D02*
X206160714Y-40124047D01*
X206827380Y-40362142D02*
X205970238Y-40362142D01*
X205875000Y-40314523D01*
X205827380Y-40219285D01*
X205827380Y-40124047D01*
X206779761Y-39838333D02*
X206827380Y-39743095D01*
X206827380Y-39552619D01*
X206779761Y-39457380D01*
X206684523Y-39409761D01*
X206636904Y-39409761D01*
X206541666Y-39457380D01*
X206494047Y-39552619D01*
X206494047Y-39695476D01*
X206446428Y-39790714D01*
X206351190Y-39838333D01*
X206303571Y-39838333D01*
X206208333Y-39790714D01*
X206160714Y-39695476D01*
X206160714Y-39552619D01*
X206208333Y-39457380D01*
X206779761Y-38600238D02*
X206827380Y-38695476D01*
X206827380Y-38885952D01*
X206779761Y-38981190D01*
X206684523Y-39028809D01*
X206303571Y-39028809D01*
X206208333Y-38981190D01*
X206160714Y-38885952D01*
X206160714Y-38695476D01*
X206208333Y-38600238D01*
X206303571Y-38552619D01*
X206398809Y-38552619D01*
X206494047Y-39028809D01*
X206160714Y-38266904D02*
X206160714Y-37885952D01*
X205827380Y-38124047D02*
X206684523Y-38124047D01*
X206779761Y-38076428D01*
X206827380Y-37981190D01*
X206827380Y-37885952D01*
X206827380Y-36362142D02*
X205827380Y-36362142D01*
X206779761Y-36362142D02*
X206827380Y-36457380D01*
X206827380Y-36647857D01*
X206779761Y-36743095D01*
X206732142Y-36790714D01*
X206636904Y-36838333D01*
X206351190Y-36838333D01*
X206255952Y-36790714D01*
X206208333Y-36743095D01*
X206160714Y-36647857D01*
X206160714Y-36457380D01*
X206208333Y-36362142D01*
X206827380Y-35885952D02*
X206160714Y-35885952D01*
X205827380Y-35885952D02*
X205875000Y-35933571D01*
X205922619Y-35885952D01*
X205875000Y-35838333D01*
X205827380Y-35885952D01*
X205922619Y-35885952D01*
X206827380Y-35266904D02*
X206779761Y-35362142D01*
X206732142Y-35409761D01*
X206636904Y-35457380D01*
X206351190Y-35457380D01*
X206255952Y-35409761D01*
X206208333Y-35362142D01*
X206160714Y-35266904D01*
X206160714Y-35124047D01*
X206208333Y-35028809D01*
X206255952Y-34981190D01*
X206351190Y-34933571D01*
X206636904Y-34933571D01*
X206732142Y-34981190D01*
X206779761Y-35028809D01*
X206827380Y-35124047D01*
X206827380Y-35266904D01*
X206827380Y-34076428D02*
X205827380Y-34076428D01*
X206779761Y-34076428D02*
X206827380Y-34171666D01*
X206827380Y-34362142D01*
X206779761Y-34457380D01*
X206732142Y-34505000D01*
X206636904Y-34552619D01*
X206351190Y-34552619D01*
X206255952Y-34505000D01*
X206208333Y-34457380D01*
X206160714Y-34362142D01*
X206160714Y-34171666D01*
X206208333Y-34076428D01*
X206779761Y-33219285D02*
X206827380Y-33314523D01*
X206827380Y-33505000D01*
X206779761Y-33600238D01*
X206684523Y-33647857D01*
X206303571Y-33647857D01*
X206208333Y-33600238D01*
X206160714Y-33505000D01*
X206160714Y-33314523D01*
X206208333Y-33219285D01*
X206303571Y-33171666D01*
X206398809Y-33171666D01*
X206494047Y-33647857D01*
X206052380Y-34551904D02*
X205052380Y-34551904D01*
X206052380Y-33980476D02*
X205480952Y-34409047D01*
X205052380Y-33980476D02*
X205623809Y-34551904D01*
%TO.C,Protection Diode*%
X178102380Y-37282380D02*
X178102380Y-36282380D01*
X178483333Y-36282380D01*
X178578571Y-36330000D01*
X178626190Y-36377619D01*
X178673809Y-36472857D01*
X178673809Y-36615714D01*
X178626190Y-36710952D01*
X178578571Y-36758571D01*
X178483333Y-36806190D01*
X178102380Y-36806190D01*
X179102380Y-37282380D02*
X179102380Y-36615714D01*
X179102380Y-36806190D02*
X179150000Y-36710952D01*
X179197619Y-36663333D01*
X179292857Y-36615714D01*
X179388095Y-36615714D01*
X179864285Y-37282380D02*
X179769047Y-37234761D01*
X179721428Y-37187142D01*
X179673809Y-37091904D01*
X179673809Y-36806190D01*
X179721428Y-36710952D01*
X179769047Y-36663333D01*
X179864285Y-36615714D01*
X180007142Y-36615714D01*
X180102380Y-36663333D01*
X180150000Y-36710952D01*
X180197619Y-36806190D01*
X180197619Y-37091904D01*
X180150000Y-37187142D01*
X180102380Y-37234761D01*
X180007142Y-37282380D01*
X179864285Y-37282380D01*
X180483333Y-36615714D02*
X180864285Y-36615714D01*
X180626190Y-36282380D02*
X180626190Y-37139523D01*
X180673809Y-37234761D01*
X180769047Y-37282380D01*
X180864285Y-37282380D01*
X181578571Y-37234761D02*
X181483333Y-37282380D01*
X181292857Y-37282380D01*
X181197619Y-37234761D01*
X181150000Y-37139523D01*
X181150000Y-36758571D01*
X181197619Y-36663333D01*
X181292857Y-36615714D01*
X181483333Y-36615714D01*
X181578571Y-36663333D01*
X181626190Y-36758571D01*
X181626190Y-36853809D01*
X181150000Y-36949047D01*
X182483333Y-37234761D02*
X182388095Y-37282380D01*
X182197619Y-37282380D01*
X182102380Y-37234761D01*
X182054761Y-37187142D01*
X182007142Y-37091904D01*
X182007142Y-36806190D01*
X182054761Y-36710952D01*
X182102380Y-36663333D01*
X182197619Y-36615714D01*
X182388095Y-36615714D01*
X182483333Y-36663333D01*
X182769047Y-36615714D02*
X183150000Y-36615714D01*
X182911904Y-36282380D02*
X182911904Y-37139523D01*
X182959523Y-37234761D01*
X183054761Y-37282380D01*
X183150000Y-37282380D01*
X183483333Y-37282380D02*
X183483333Y-36615714D01*
X183483333Y-36282380D02*
X183435714Y-36330000D01*
X183483333Y-36377619D01*
X183530952Y-36330000D01*
X183483333Y-36282380D01*
X183483333Y-36377619D01*
X184102380Y-37282380D02*
X184007142Y-37234761D01*
X183959523Y-37187142D01*
X183911904Y-37091904D01*
X183911904Y-36806190D01*
X183959523Y-36710952D01*
X184007142Y-36663333D01*
X184102380Y-36615714D01*
X184245238Y-36615714D01*
X184340476Y-36663333D01*
X184388095Y-36710952D01*
X184435714Y-36806190D01*
X184435714Y-37091904D01*
X184388095Y-37187142D01*
X184340476Y-37234761D01*
X184245238Y-37282380D01*
X184102380Y-37282380D01*
X184864285Y-36615714D02*
X184864285Y-37282380D01*
X184864285Y-36710952D02*
X184911904Y-36663333D01*
X185007142Y-36615714D01*
X185150000Y-36615714D01*
X185245238Y-36663333D01*
X185292857Y-36758571D01*
X185292857Y-37282380D01*
X186530952Y-37282380D02*
X186530952Y-36282380D01*
X186769047Y-36282380D01*
X186911904Y-36330000D01*
X187007142Y-36425238D01*
X187054761Y-36520476D01*
X187102380Y-36710952D01*
X187102380Y-36853809D01*
X187054761Y-37044285D01*
X187007142Y-37139523D01*
X186911904Y-37234761D01*
X186769047Y-37282380D01*
X186530952Y-37282380D01*
X187530952Y-37282380D02*
X187530952Y-36615714D01*
X187530952Y-36282380D02*
X187483333Y-36330000D01*
X187530952Y-36377619D01*
X187578571Y-36330000D01*
X187530952Y-36282380D01*
X187530952Y-36377619D01*
X188150000Y-37282380D02*
X188054761Y-37234761D01*
X188007142Y-37187142D01*
X187959523Y-37091904D01*
X187959523Y-36806190D01*
X188007142Y-36710952D01*
X188054761Y-36663333D01*
X188150000Y-36615714D01*
X188292857Y-36615714D01*
X188388095Y-36663333D01*
X188435714Y-36710952D01*
X188483333Y-36806190D01*
X188483333Y-37091904D01*
X188435714Y-37187142D01*
X188388095Y-37234761D01*
X188292857Y-37282380D01*
X188150000Y-37282380D01*
X189340476Y-37282380D02*
X189340476Y-36282380D01*
X189340476Y-37234761D02*
X189245238Y-37282380D01*
X189054761Y-37282380D01*
X188959523Y-37234761D01*
X188911904Y-37187142D01*
X188864285Y-37091904D01*
X188864285Y-36806190D01*
X188911904Y-36710952D01*
X188959523Y-36663333D01*
X189054761Y-36615714D01*
X189245238Y-36615714D01*
X189340476Y-36663333D01*
X190197619Y-37234761D02*
X190102380Y-37282380D01*
X189911904Y-37282380D01*
X189816666Y-37234761D01*
X189769047Y-37139523D01*
X189769047Y-36758571D01*
X189816666Y-36663333D01*
X189911904Y-36615714D01*
X190102380Y-36615714D01*
X190197619Y-36663333D01*
X190245238Y-36758571D01*
X190245238Y-36853809D01*
X189769047Y-36949047D01*
X188968095Y-37142380D02*
X188968095Y-36142380D01*
X189539523Y-37142380D02*
X189110952Y-36570952D01*
X189539523Y-36142380D02*
X188968095Y-36713809D01*
%TO.C,+ Solar  -*%
X166084761Y-19756428D02*
X166846666Y-19756428D01*
X166465714Y-20137380D02*
X166465714Y-19375476D01*
X168037142Y-20089761D02*
X168180000Y-20137380D01*
X168418095Y-20137380D01*
X168513333Y-20089761D01*
X168560952Y-20042142D01*
X168608571Y-19946904D01*
X168608571Y-19851666D01*
X168560952Y-19756428D01*
X168513333Y-19708809D01*
X168418095Y-19661190D01*
X168227619Y-19613571D01*
X168132380Y-19565952D01*
X168084761Y-19518333D01*
X168037142Y-19423095D01*
X168037142Y-19327857D01*
X168084761Y-19232619D01*
X168132380Y-19185000D01*
X168227619Y-19137380D01*
X168465714Y-19137380D01*
X168608571Y-19185000D01*
X169180000Y-20137380D02*
X169084761Y-20089761D01*
X169037142Y-20042142D01*
X168989523Y-19946904D01*
X168989523Y-19661190D01*
X169037142Y-19565952D01*
X169084761Y-19518333D01*
X169180000Y-19470714D01*
X169322857Y-19470714D01*
X169418095Y-19518333D01*
X169465714Y-19565952D01*
X169513333Y-19661190D01*
X169513333Y-19946904D01*
X169465714Y-20042142D01*
X169418095Y-20089761D01*
X169322857Y-20137380D01*
X169180000Y-20137380D01*
X170084761Y-20137380D02*
X169989523Y-20089761D01*
X169941904Y-19994523D01*
X169941904Y-19137380D01*
X170894285Y-20137380D02*
X170894285Y-19613571D01*
X170846666Y-19518333D01*
X170751428Y-19470714D01*
X170560952Y-19470714D01*
X170465714Y-19518333D01*
X170894285Y-20089761D02*
X170799047Y-20137380D01*
X170560952Y-20137380D01*
X170465714Y-20089761D01*
X170418095Y-19994523D01*
X170418095Y-19899285D01*
X170465714Y-19804047D01*
X170560952Y-19756428D01*
X170799047Y-19756428D01*
X170894285Y-19708809D01*
X171370476Y-20137380D02*
X171370476Y-19470714D01*
X171370476Y-19661190D02*
X171418095Y-19565952D01*
X171465714Y-19518333D01*
X171560952Y-19470714D01*
X171656190Y-19470714D01*
X173513333Y-19756428D02*
X174275238Y-19756428D01*
%TD*%
M02*
